<svg xmlns="http://www.w3.org/2000/svg" viewBox="0 0 2000 1600"><defs><style>.cls-1,.cls-5{fill:#e8dfd1;}.cls-17,.cls-2,.cls-20,.cls-4{fill:none;}.cls-2,.cls-3,.cls-4{stroke:#a8c4a6;}.cls-11,.cls-12,.cls-14,.cls-18,.cls-2,.cls-20,.cls-3,.cls-4,.cls-8{stroke-linecap:round;}.cls-10,.cls-11,.cls-12,.cls-13,.cls-14,.cls-15,.cls-17,.cls-18,.cls-19,.cls-2,.cls-20,.cls-3,.cls-4,.cls-5,.cls-8,.cls-9{stroke-linejoin:round;}.cls-10,.cls-11,.cls-12,.cls-13,.cls-14,.cls-15,.cls-17,.cls-18,.cls-19,.cls-2,.cls-20,.cls-3,.cls-9{stroke-width:6px;}.cls-3,.cls-7{fill:#a8c4a6;}.cls-4{stroke-width:9px;}.cls-10,.cls-11,.cls-12,.cls-13,.cls-14,.cls-15,.cls-17,.cls-18,.cls-19,.cls-20,.cls-5,.cls-8,.cls-9{stroke:#000;}.cls-5{stroke-width:6.96px;}.cls-6{fill:#ffeef4;}.cls-8{fill:#ecd1d9;stroke-width:6.96px;}.cls-14,.cls-9{fill:#e48b75;}.cls-10,.cls-11{fill:#d1d0c0;}.cls-12{fill:#9e172f;}.cls-13{fill:#8efcf1;}.cls-15{fill:#355d4e;}.cls-16,.cls-19{fill:#db320c;}</style></defs><g id="fondo"><rect class="cls-1" x="0.67" width="1999.33" height="1600"/></g><g id="Capa_1" data-name="Capa 1"><path class="cls-2" d="M658.1,889.64c11.31-11,27.58-19.25,45.3-26.73"/><path class="cls-2" d="M655.53,895.93c-2-11-5.46-20.79-10.85-28.85"/><line class="cls-2" x1="672.03" y1="724.39" x2="660.35" y2="752.56"/><line class="cls-2" x1="668.75" y1="863.52" x2="652.09" y2="904.37"/><polyline class="cls-3" points="616.63 952.89 616.63 963.97 652.09 904.37 616.63 952.89"/><line class="cls-2" x1="610.69" y1="694.68" x2="610" y2="733.74"/><line class="cls-4" x1="580.63" y1="733.74" x2="567.45" y2="706.86"/><path class="cls-2" d="M600.36,865.46c-2.4-9-18.55-18.38-33.54-22.25"/><path class="cls-2" d="M587.94,951.13c-9.32-10.51-21.58-17-34.49-22.5"/><line class="cls-2" x1="595.9" y1="967.35" x2="575.38" y2="925.57"/><polygon class="cls-3" points="615.26 819.25 602.11 825.46 592.91 1035.64 623.59 1035.64 616.63 952.89 615.26 819.25"/><path class="cls-3" d="M553.88,874.12s19,5.93,25.17,4.62,46.51-4.06,40.38,22.55S504.72,938.34,501.9,918.18C498.61,894.67,513.77,864.13,553.88,874.12Z"/><path class="cls-3" d="M807.68,784.08c-3.81-13.3-20.9-25.3-42.42-23.65C740.58,742.56,719,739,698.15,747.23c-7.08,2.79-41.63,7.67-54,4.18-15.62-15.14-43.41-21.74-71.95-15.07-38.77,9.07-51.79,28.26-47.55,56.9-27,12.68-84.13,63.27,23.62,54.46,47.3-3.87,74.39-17.82,83.5-24.41,10-6.7,26.07-7.81,34.38-3.31,11.29,6.46,26.45,10.7,43.91,11.2C754.88,832.46,815.79,812.36,807.68,784.08Z"/><path class="cls-3" d="M776.58,841.3c1.52,12.32-34.26,13.13-73.18,21.61-69.71,15.2-75.71-3.28-74.31-15.62,2.71-24,32-41.85,69.62-29.08C752.91,836.63,772.64,809.32,776.58,841.3Z"/><path class="cls-3" d="M766.28,639.37a76.26,76.26,0,0,0-30.79-51.46,111,111,0,0,1-26-25.55c-14-19.7-36.86-32.05-62.06-30.87-23.38,1.09-43.54,13.59-55.8,32.09a39,39,0,0,1-30.78,17h-.23c-90.61,1.53-51.28,66.59-81.11,75.52-49.47,14.81-30.75,97.26,88.62,67.59,3.85-1,7.54-2.13,11.13-3.39A49.25,49.25,0,0,1,620.4,724c9.69,5.73,23.89,9,39.53,8.26a84.32,84.32,0,0,0,23.61-4.39c14.28,10.07,37.92,18.65,52.7,18,39.89-1.87,58.19-29,56.43-62.46C791.73,665.44,781.6,649.77,766.28,639.37Z"/><polyline class="cls-5" points="486.06 1041.5 857.75 1041.5 861.75 1202.08 975.24 1202.08 975.24 1282.18 1088.73 1282.18 1088.73 1362.29"/><path class="cls-6" d="M1067.9,774c65.67-8,89.49-10.06,143.71,5.53,80.23,22,150.92,26.12,231.91,68.21,57.63,29.94-150.63,18.25-212.25,16.17-122.71-4.14-71.85,19.14-117.58,31.22-101,26.71-418.84-12.21-350-29.22,61.91-15.3,334-25.37,240.52-44.91C912.43,807,1026.93,777.15,1067.9,774Z"/><path class="cls-2" d="M1345.46,1225.88c-18.22,19.72-42.69,44.94-47.69,81.24"/><path class="cls-3" d="M1302.79,1225.88c7.49,44.29-17.65,117.6-5.71,137.14"/><path class="cls-2" d="M1303.18,1265.4c-30-28.59-41.47-64.46-36.27-78.67"/><path class="cls-2" d="M1241.44,1170.63c4.35,19.28,13.55,33.85,25.68,35.59"/><path class="cls-7" d="M1373.92,1215.55c4.8-2.29,4.63.09,10.38-3.08,2.68-1.48,4.78-5,8.17-7.1,2.81-1.74,6.91-2,10-4.16,2.81-2,4.5-5.68,7.37-7.94s6.76-2.92,9.42-5.34,3.75-6.29,6.16-8.9,6.25-4.07,8.34-6.91,2.38-6.94,4-10,5-5.63,6-9-.1-7.24.23-10.8,2.25-7,1.73-10.66c-.48-3.37-3.27-6.3-4.59-9.79-1.19-3.14-.94-7.19-2.88-10.42-1.1-1.83-3.89-2.52-5-4.21s-.64-4.62-1.77-6.26-4-2.27-5.24-3.85-1-4.58-2.27-6.1c-1.39-1.67-4.25-1.9-5.59-3.34-1.49-1.6-1.53-4.47-3-5.81-1.6-1.5-4.47-1.32-6-2.52-1.74-1.37-2.29-4.18-3.92-5.2-1.9-1.17-4.65-.36-6.4-1.13-2.06-.91-3.39-3.44-5.22-3.87-2.23-.53-4.51,1.23-6.36,1.22-2.38,0-4.69-1.64-6.38-1.19a14.1,14.1,0,0,0-6.21,4c-2.1-3.58,0-3.89-3.08-7.92-1.46-1.89-4.78-2.77-6.88-5.06-1.75-1.9-2.31-5.3-4.48-7.27-2-1.78-5.38-2-7.68-3.71s-3.4-4.81-5.86-6.21-5.72-.79-8.33-1.85-4.53-3.8-7.27-4.48-5.68.86-8.51.62-5.43-2.26-8.28-2.06c-2.66.18-5.12,2.54-7.93,3.16-2.59.57-5.8-.58-8.52.4-2.49.9-4.26,3.82-6.85,5.1-2.38,1.18-5.77.77-8.22,2.3-1.92,1.18-2.66,4-4.39,5.15-1.89,1.24-4.79.79-6.47,2-1.88,1.31-2.45,4.19-4.07,5.41-1.84,1.38-4.77,1.14-6.32,2.42-1.79,1.48-2.08,4.4-3.54,5.76-1.72,1.62-4.64,1.75-6,3.21-1.6,1.78-1.37,4.7-2.49,6.28-1.4,2-4.17,2.77-5.06,4.48-1.09,2.12-.09,4.91-.85,6.74-.86,2.06-3.45,3.06-4.57,4.9-1,1.68-.8,4.57-2.63,6.19-1.39,1.24-4.27.86-6.42,2.13-1.64,1-2.61,3.72-4.81,4.73s-5.4.59-7.26,2-2.36,4.63-3.86,6.45-4.52,2.92-5.53,5.09.1,5.13-.38,7.5-2.67,4.61-2.61,7.05,2.34,4.56,2.91,6.94-.54,5.28.49,7.51,3.94,3.25,5.39,5.25,1.48,5.07,3.28,6.77,4.85,1.57,6.93,2.94,3.14,4.2,5.42,5.21,5.09-.12,7.52.53c2.25.61,4.23,3,6.73,3.38,4.21.55,8.55.1,11.9,2.12s5.1,6.21,7.9,9.25c2.63,2.85,6.63,4.78,9,8.12,2.3,3.19,2.94,7.68,5.29,11s6.29,5.27,8.87,8.33,4,7.38,7,10,7.42,3.08,11.14,4.83c3.44,1.62,6.64,4.73,10.85,5.43,3.65.61,7.73-1.15,12.08-1.4,3.68-.21,7.91,1.21,12.16.28,3.63-.79,6.94-3.79,11-5.17,3.55-1.19,8-.76,11.93-2.44C1367.32,1221,1370.12,1217.45,1373.92,1215.55Z"/><path class="cls-2" d="M1373.92,1215.55c4.8-2.29,4.63.09,10.38-3.08,2.68-1.48,4.78-5,8.17-7.1,2.81-1.74,6.91-2,10-4.16,2.81-2,4.5-5.68,7.37-7.94s6.76-2.92,9.42-5.34,3.75-6.29,6.16-8.9,6.25-4.07,8.34-6.91,2.38-6.94,4-10,5-5.63,6-9-.1-7.24.23-10.8,2.25-7,1.73-10.66c-.48-3.37-3.27-6.3-4.59-9.79-1.19-3.14-.94-7.19-2.88-10.42-1.1-1.83-3.89-2.52-5-4.21s-.64-4.62-1.77-6.26-4-2.27-5.24-3.85-1-4.58-2.27-6.1c-1.39-1.67-4.25-1.9-5.59-3.34-1.49-1.6-1.53-4.47-3-5.81-1.6-1.5-4.47-1.32-6-2.52-1.74-1.37-2.29-4.18-3.92-5.2-1.9-1.17-4.65-.36-6.4-1.13-2.06-.91-3.39-3.44-5.22-3.87-2.23-.53-4.51,1.23-6.36,1.22-2.38,0-4.69-1.64-6.38-1.19a14.1,14.1,0,0,0-6.21,4c-2.1-3.58,0-3.89-3.08-7.92-1.46-1.89-4.78-2.77-6.88-5.06-1.75-1.9-2.31-5.3-4.48-7.27-2-1.78-5.38-2-7.68-3.71s-3.4-4.81-5.86-6.21-5.72-.79-8.33-1.85-4.53-3.8-7.27-4.48-5.68.86-8.51.62-5.43-2.26-8.28-2.06c-2.66.18-5.12,2.54-7.93,3.16-2.59.57-5.8-.58-8.52.4-2.49.9-4.26,3.82-6.85,5.1-2.38,1.18-5.77.77-8.22,2.3-1.92,1.18-2.66,4-4.39,5.15-1.89,1.24-4.79.79-6.47,2-1.88,1.31-2.45,4.19-4.07,5.41-1.84,1.38-4.77,1.14-6.32,2.42-1.79,1.48-2.08,4.4-3.54,5.76-1.72,1.62-4.64,1.75-6,3.21-1.6,1.78-1.37,4.7-2.49,6.28-1.4,2-4.17,2.77-5.06,4.48-1.09,2.12-.09,4.91-.85,6.74-.86,2.06-3.45,3.06-4.57,4.9-1,1.68-.8,4.57-2.63,6.19-1.39,1.24-4.27.86-6.42,2.13-1.64,1-2.61,3.72-4.81,4.73s-5.4.59-7.26,2-2.36,4.63-3.86,6.45-4.52,2.92-5.53,5.09.1,5.13-.38,7.5-2.67,4.61-2.61,7.05,2.34,4.56,2.91,6.94-.54,5.28.49,7.51,3.94,3.25,5.39,5.25,1.48,5.07,3.28,6.77,4.85,1.57,6.93,2.94,3.14,4.2,5.42,5.21,5.09-.12,7.52.53c2.25.61,4.23,3,6.73,3.38,4.21.55,8.55.1,11.9,2.12s5.1,6.21,7.9,9.25c2.63,2.85,6.63,4.78,9,8.12,2.3,3.19,2.94,7.68,5.29,11s6.29,5.27,8.87,8.33,4,7.38,7,10,7.42,3.08,11.14,4.83c3.44,1.62,6.64,4.73,10.85,5.43,3.65.61,7.73-1.15,12.08-1.4,3.68-.21,7.91,1.21,12.16.28,3.63-.79,6.94-3.79,11-5.17,3.55-1.19,8-.76,11.93-2.44C1367.32,1221,1370.12,1217.45,1373.92,1215.55Z"/><path class="cls-2" d="M1143.29,1259.19c-1.74,31.42,9.79,72.69-1.12,100.32"/><path class="cls-7" d="M1088.9,1196.81c.89,5-1.85,4.37-.91,10.45.45,2.93,3,5.94,4,9.6.77,3.11-.17,7,1,10.32,1.12,3.12,4.28,5.48,5.86,8.56s1.62,7,3.67,9.71,5.75,3.88,8.33,6.14,4.19,5.77,7.29,7.35c2.91,1.48,6.76.78,10.24,1.57,3.12.7,6.26,3.06,9.88,3.09,3.18,0,6.4-2.23,10-2.81,3.15-.51,6.89.69,10.37-.33,3.07-.91,5.62-3.9,9-5.24,3-1.2,6.9-.75,10.12-2.32,2.58-1.26,4.1-4.31,6.42-5.61,2.51-1.4,5.9-1.11,8.13-2.54,2.42-1.56,3.54-4.78,5.65-6.38,2.31-1.74,5.71-2,7.66-3.73,2.15-1.94,2.68-5.3,4.45-7.26,1.94-2.16,5.21-3.07,6.73-5.22,1.67-2.37,1.39-5.77,2.6-8.11,1.33-2.57,4.23-4.33,5.08-6.83.93-2.74-.33-5.91.12-8.5.5-2.87,2.72-5.44,2.77-8,0-3-2.13-5.61-2.47-8.15-.41-3.07.92-6.21.26-8.5a16.49,16.49,0,0,0-4.88-7.66c1.39-6.37,3-4.22,4-12.54.44-3.63-1.11-8.16-.75-13.16.28-3.94,2.51-8.19,2.65-12.91.13-4.07-1.81-8.45-1.85-13.06,0-4.13,1.87-8.53,1.67-13.07-.18-4.18-2.43-8.39-2.78-12.89-.33-4.19,1.25-8.71.75-13.16-.47-4.2-3-8.26-3.66-12.67-.61-4.2.66-8.81-.13-13.18-.75-4.19-3.56-8.07-4.49-12.4-.89-4.17.08-8.86-1-13.15s-4.08-7.84-5.28-12.09-.5-8.86-1.84-13.07c-1-3-3.75-5.19-4.61-7.91-.94-3,.08-6.42-.77-9.13-.94-3-3.73-5.26-4.55-8-.94-3,.11-6.47-.69-9.13-.93-3.09-3.69-5.37-4.45-8-.92-3.16.19-6.55-.52-9.14-.91-3.27-3.59-5.62-4.22-8.13-.87-3.45.45-6.72,0-9.15-.7-3.51-3.06-5.89-3.39-8.5-.34-2.78,1.38-5.71.9-9.13-.35-2.45-2.77-5-3.43-8.49-.48-2.52.9-5.8.17-9.15-.57-2.6-3.18-5-3.94-8.26s.3-6.67-.65-9.34c-1.11-3.13-4.17-5.1-5.51-7.54-1.63-3-1.82-6.62-3.71-8.58-2.37-2.47-6-2.49-8.57-3.38-2.94-1-6-2.9-9-1.94-2.63.84-4.27,4.1-6.78,6.39-2,1.86-5.51,2.9-7.36,5.7-1.56,2.34-1.29,6-2.67,9-1.19,2.59-4.16,4.7-5.18,7.78-.9,2.74.18,6.21-.56,9.33-.68,2.83-3.24,5.42-3.77,8.56-.48,2.89,1.08,6.18.75,9.33-.32,2.93-2.56,5.8-2.74,8.95-.43,7.46.34,14.9-1.41,21.9s-6,13.3-8.63,20.22c-2.55,6.65-3.56,14.1-6.54,21-2.82,6.5-7.58,12.39-10.44,19.36-2.68,6.52-3.44,14-5.89,21.17-2.26,6.65-6.29,13-8.13,20.42-1.69,6.79-1.2,14.31-2.36,21.85-1.06,6.9-3.84,13.92-4.32,21.55-.43,7,1.4,14.27,1.55,21.92.14,7-1.45,14.36-.75,22,.64,7,3.51,13.94,4.68,21.48,1.07,6.92.41,14.45,2,21.89C1083.38,1182.74,1087,1189.46,1088.9,1196.81Z"/><path class="cls-2" d="M1088.9,1196.81c.89,5-1.85,4.37-.91,10.45.45,2.93,3,5.94,4,9.6.77,3.11-.17,7,1,10.32,1.12,3.12,4.28,5.48,5.86,8.56s1.62,7,3.67,9.71,5.75,3.88,8.33,6.14,4.19,5.77,7.29,7.35c2.91,1.48,6.76.78,10.24,1.57,3.12.7,6.26,3.06,9.88,3.09,3.18,0,6.4-2.23,10-2.81,3.15-.51,6.89.69,10.37-.33,3.07-.91,5.62-3.9,9-5.24,3-1.2,6.9-.75,10.12-2.32,2.58-1.26,4.1-4.31,6.42-5.61,2.51-1.4,5.9-1.11,8.13-2.54,2.42-1.56,3.54-4.78,5.65-6.38,2.31-1.74,5.71-2,7.66-3.73,2.15-1.94,2.68-5.3,4.45-7.26,1.94-2.16,5.21-3.07,6.73-5.22,1.67-2.37,1.39-5.77,2.6-8.11,1.33-2.57,4.23-4.33,5.08-6.83.93-2.74-.33-5.91.12-8.5.5-2.87,2.72-5.44,2.77-8,0-3-2.13-5.61-2.47-8.15-.41-3.07.92-6.21.26-8.5a16.49,16.49,0,0,0-4.88-7.66c1.39-6.37,3-4.22,4-12.54.44-3.63-1.11-8.16-.75-13.16.28-3.94,2.51-8.19,2.65-12.91.13-4.07-1.81-8.45-1.85-13.06,0-4.13,1.87-8.53,1.67-13.07-.18-4.18-2.43-8.39-2.78-12.89-.33-4.19,1.25-8.71.75-13.16-.47-4.2-3-8.26-3.66-12.67-.61-4.2.66-8.81-.13-13.18-.75-4.19-3.56-8.07-4.49-12.4-.89-4.17.08-8.86-1-13.15s-4.08-7.84-5.28-12.09-.5-8.86-1.84-13.07c-1-3-3.75-5.19-4.61-7.91-.94-3,.08-6.42-.77-9.13-.94-3-3.73-5.26-4.55-8-.94-3,.11-6.47-.69-9.13-.93-3.09-3.69-5.37-4.45-8-.92-3.16.19-6.55-.52-9.14-.91-3.27-3.59-5.62-4.22-8.13-.87-3.45.45-6.72,0-9.15-.7-3.51-3.06-5.89-3.39-8.5-.34-2.78,1.38-5.71.9-9.13-.35-2.45-2.77-5-3.43-8.49-.48-2.52.9-5.8.17-9.15-.57-2.6-3.18-5-3.94-8.26s.3-6.67-.65-9.34c-1.11-3.13-4.17-5.1-5.51-7.54-1.63-3-1.82-6.62-3.71-8.58-2.37-2.47-6-2.49-8.57-3.38-2.94-1-6-2.9-9-1.94-2.63.84-4.27,4.1-6.78,6.39-2,1.86-5.51,2.9-7.36,5.7-1.56,2.34-1.29,6-2.67,9-1.19,2.59-4.16,4.7-5.18,7.78-.9,2.74.18,6.21-.56,9.33-.68,2.83-3.24,5.42-3.77,8.56-.48,2.89,1.08,6.18.75,9.33-.32,2.93-2.56,5.8-2.74,8.95-.43,7.46.34,14.9-1.41,21.9s-6,13.3-8.63,20.22c-2.55,6.65-3.56,14.1-6.54,21-2.82,6.5-7.58,12.39-10.44,19.36-2.68,6.52-3.44,14-5.89,21.17-2.26,6.65-6.29,13-8.13,20.42-1.69,6.79-1.2,14.31-2.36,21.85-1.06,6.9-3.84,13.92-4.32,21.55-.43,7,1.4,14.27,1.55,21.92.14,7-1.45,14.36-.75,22,.64,7,3.51,13.94,4.68,21.48,1.07,6.92.41,14.45,2,21.89C1083.38,1182.74,1087,1189.46,1088.9,1196.81Z"/><path class="cls-2" d="M1144.29,1292.48c-.68-17.88,13.65-16.83,22.33-35.82"/><polyline class="cls-8" points="1088.73 1362.29 1202.21 1362.29 1202.21 1362.29 1315.7 1362.29 1202.21 1362.29"/><polygon class="cls-9" points="1018.2 1163.95 1054.2 1149.95 1082.85 1184.81 1051.6 1199.95 1018.2 1163.95"/><path class="cls-10" d="M1032.7,1181.1c15-.7,24.4-8.79,33.1-20.55,0,0,19.89,8.74,26.15,7.81,3.74-.56,12.34-5.54,20.57-7.46a15,15,0,0,1,17.06,7.79l2,4.1-88.32,42.78C1037.61,1207.33,1034.33,1193.61,1032.7,1181.1Z"/><rect class="cls-10" x="1040.6" y="1193.66" width="98.14" height="10.39" transform="translate(-413.67 595.04) rotate(-25.85)"/><line class="cls-10" x1="1091.95" y1="1168.36" x2="1099.41" y2="1188.36"/><line class="cls-11" x1="1069.02" y1="1175.27" x2="1072.43" y2="1163.27"/><line class="cls-11" x1="1083.18" y1="1167" x2="1080.12" y2="1176.92"/><path class="cls-12" d="M873.59,1134.38l68.72-45.62,77.84,87.31,46.77-24.42L966.24,1042.56s-8-8.09-25.25-2.12-154,61-154,61Z"/><polygon class="cls-9" points="969.2 1237.95 1007.2 1236.95 1022.26 1291.61 987.54 1292.44 969.2 1237.95"/><path class="cls-10" d="M978.15,1267.44c14,5.61,25.86,2.12,38.65-5,0,0,14.48,16.19,20.56,17.94,3.64,1,13.53.08,21.81,1.74a15,15,0,0,1,12.3,14.16l.11,4.55-98.11,2.33C971.75,1293.36,974.46,1279.51,978.15,1267.44Z"/><rect class="cls-10" x="973.58" y="1302.03" width="98.14" height="10.39" transform="translate(-30.81 24.7) rotate(-1.36)"/><line class="cls-10" x1="1037.36" y1="1280.41" x2="1035.85" y2="1301.71"/><line class="cls-11" x1="1013.63" y1="1277.19" x2="1021.7" y2="1267.69"/><line class="cls-11" x1="1029.94" y1="1275.54" x2="1023.04" y2="1283.3"/><path class="cls-12" d="M784.15,1149.77H869.2l55.3.54,20.6,47.34,29.27,55.21,38.24-2s-17.67-80.42-38-125.89l-26.43-29.65c-16.29-10.64-106.48-9.4-106.48-9.4l-84.46,9.31,2.66,54.21Z"/><path class="cls-9" d="M812.09,1039.37c2.33.33,42.9,2.66,42.9,2.66v12l-42.9,5.32Z"/><polygon class="cls-13" points="736.2 975.95 756.26 943.97 801.11 983.17 841.68 1085.92 771.52 1098.56 736.2 975.95"/><path class="cls-9" d="M852.91,924.18l-11.66,17.5L845.79,955a2,2,0,0,1-2.56,2.49l-7.58-2.81-5.26,6.73-4.21-3.74a14.8,14.8,0,0,1-11.52,8.6c-8.75,1.3-12.95-6.51-12.95-6.51l-5.92,25.39L756.26,944l27-27,16.45-28.27Z"/><path class="cls-14" d="M818.57,924.73s1.4-6.64-3.74-8.61-14.45,6.94-14.21,15.62,4.87,8.2,4.87,8.2"/><path class="cls-15" d="M781.86,970.79,754,941.64c-12.25,11.58-22.48,23.85-30.21,37-16.29,57.73-3.43,137.18-1.33,208.61,16.79,9,41.52,13,57.12,10,0,0,.74-106.46,3.63-127.08S790.28,979.43,781.86,970.79Z"/><polygon class="cls-10" points="904.87 1003.78 921.09 1020.1 858.64 1071.62 839.92 1055.87 904.87 1003.78"/><path class="cls-9" d="M889.39,1025l-17.67-6.33L864,1020.1c-6.91,7.54-10.62,17.05-13.33,27.18l22.44-17.63,12.17,4.23a6.13,6.13,0,0,0,6-1.13A4.48,4.48,0,0,0,889.39,1025Z"/><path class="cls-15" d="M772.67,1013.94s7.89-27.69-16.34-28.78c-21-.94-37.24,13-37.69,38.69s.45,69.39,5.77,75.59,29,10.07,36.13,10.14,25.72,0,25.72,0l3.09-24.87-32.13-13.42Z"/><path class="cls-16" d="M858.4,892.32v30L787,896.92l6.5-18.94s19.21-10.28,37.61-5.14A50.12,50.12,0,0,1,858.4,892.32Z"/><path class="cls-17" d="M787,896.92l6.5-18.94s19.21-10.28,37.61-5.14a50.12,50.12,0,0,1,27.32,19.48v30Z"/><path class="cls-9" d="M836.88,1104.9c9.25-.69,32.32-18,32.32-18l-4.87-20a71.46,71.46,0,0,0-29-3.13s-11.68,19.72-12.28,20.52l-33.71.39-3.09,24.87Z"/><polygon class="cls-18" points="858.41 909.51 858.41 922.36 786.97 896.93 790.87 885.56 858.41 909.51"/><path class="cls-19" d="M764.49,896.88,874,939s-17.94-25.16-47.21-34.94C810.81,898.73,764.49,896.88,764.49,896.88Z"/><circle cx="833.54" cy="937.81" r="3"/><path d="M787,922.36c10.93,2.31,18-1.84,24.17-7.53l-23-8.86-4.84,11Z"/><line class="cls-20" x1="942.31" y1="1088.76" x2="981.14" y2="1132.31"/></g></svg>