<svg xmlns="http://www.w3.org/2000/svg" viewBox="0 0 2000 1600"><defs><style>.cls-1{fill:#d0d6ea;}.cls-10,.cls-11,.cls-14,.cls-2,.cls-3,.cls-4,.cls-7{fill:#fff;}.cls-10,.cls-11,.cls-12,.cls-13,.cls-14,.cls-15,.cls-16,.cls-18,.cls-2,.cls-3,.cls-5,.cls-6,.cls-7,.cls-8,.cls-9{stroke:#000;}.cls-14,.cls-15,.cls-16,.cls-17,.cls-18,.cls-2,.cls-3,.cls-5,.cls-6,.cls-7,.cls-8,.cls-9{stroke-linecap:round;}.cls-10,.cls-11,.cls-12,.cls-13,.cls-18,.cls-2{stroke-miterlimit:10;}.cls-10,.cls-18,.cls-2,.cls-3,.cls-5,.cls-6{stroke-width:6px;}.cls-14,.cls-15,.cls-16,.cls-17,.cls-3,.cls-5,.cls-6,.cls-7,.cls-8,.cls-9{stroke-linejoin:round;}.cls-17,.cls-18,.cls-6{fill:none;}.cls-7{stroke-width:6.07px;}.cls-8{stroke-width:5.92px;}.cls-9{stroke-width:4px;}.cls-11,.cls-12{stroke-width:10px;}.cls-13,.cls-16{stroke-width:2px;}.cls-14,.cls-15,.cls-17{stroke-width:5px;}.cls-17{stroke:#fff;}</style></defs><g id="fondo"><rect class="cls-1" x="0.67" width="1999.33" height="1600"/></g><g id="Capa_1" data-name="Capa 1"><line class="cls-2" x1="161" y1="1065" x2="1883" y2="1065"/><rect class="cls-3" x="664.1" y="1175.76" width="25.51" height="17.68"/><path class="cls-3" d="M586.19,975.77H746.39a0,0,0,0,1,0,0v113.72a0,0,0,0,1,0,0H546.85a0,0,0,0,1,0,0v-74.38A39.35,39.35,0,0,1,586.19,975.77Z"/><path class="cls-3" d="M1000.05,1067.51H678.33a22.36,22.36,0,0,1-22.24-20.24,954,954,0,0,1,3.16-212.15,22.36,22.36,0,0,1,22.17-19.59h318.63a22.33,22.33,0,0,1,22.33,22.33v207.32A22.33,22.33,0,0,1,1000.05,1067.51Z"/><path class="cls-3" d="M648.61,1020.82H1008a14.36,14.36,0,0,1,14.36,14.36v66a0,0,0,0,1,0,0H634.24a0,0,0,0,1,0,0v-66A14.36,14.36,0,0,1,648.61,1020.82Z"/><rect class="cls-3" x="546.85" y="975.77" width="81.37" height="200" rx="12.81"/><rect class="cls-3" x="628.22" y="1101.17" width="394.16" height="78.17"/><rect class="cls-3" x="574.53" y="1179.34" width="47.77" height="34.74"/><path class="cls-3" d="M799.55,1021.1H655.15c-9.06-14-15.79-34.68-21.61-58a22.35,22.35,0,0,1,17.82-27.39c32.42-5.73,63.62-8.6,93-7.11a22.5,22.5,0,0,1,17.35,9.61Q790.59,979.65,799.55,1021.1Z"/><rect class="cls-3" x="1355.14" y="1175.76" width="25.51" height="17.68" transform="translate(2735.8 2369.21) rotate(180)"/><path class="cls-3" d="M1298.37,975.77h199.54a0,0,0,0,1,0,0v113.72a0,0,0,0,1,0,0H1337.72a39.35,39.35,0,0,1-39.35-39.35V975.77a0,0,0,0,1,0,0Z" transform="translate(2796.28 2065.26) rotate(180)"/><path class="cls-3" d="M1044.71,1067.51h321.72a22.36,22.36,0,0,0,22.24-20.24,954.62,954.62,0,0,0-3.16-212.15,22.37,22.37,0,0,0-22.17-19.59H1044.71a22.33,22.33,0,0,0-22.33,22.33v207.32A22.33,22.33,0,0,0,1044.71,1067.51Z"/><path class="cls-3" d="M1022.38,1020.82h388.13a0,0,0,0,1,0,0v66a14.36,14.36,0,0,1-14.36,14.36H1036.74a14.36,14.36,0,0,1-14.36-14.36v-66a0,0,0,0,1,0,0Z" transform="translate(2432.89 2121.99) rotate(180)"/><rect class="cls-3" x="1416.54" y="975.77" width="81.37" height="200" rx="12.81" transform="translate(2914.45 2151.53) rotate(180)"/><rect class="cls-3" x="1022.38" y="1101.17" width="394.16" height="78.17" transform="translate(2438.92 2280.5) rotate(180)"/><rect class="cls-3" x="1422.46" y="1179.34" width="47.77" height="34.74" transform="translate(2892.68 2393.41) rotate(180)"/><rect class="cls-3" x="664.1" y="1175.76" width="25.51" height="17.68"/><path class="cls-3" d="M586.19,975.77H746.39a0,0,0,0,1,0,0v113.72a0,0,0,0,1,0,0H546.85a0,0,0,0,1,0,0v-74.38A39.35,39.35,0,0,1,586.19,975.77Z"/><path class="cls-3" d="M1000.05,1067.51H678.33a22.36,22.36,0,0,1-22.24-20.24,954,954,0,0,1,3.16-212.15,22.36,22.36,0,0,1,22.17-19.59h318.63a22.33,22.33,0,0,1,22.33,22.33v207.32A22.33,22.33,0,0,1,1000.05,1067.51Z"/><rect class="cls-3" x="546.85" y="975.77" width="81.37" height="200" rx="12.81"/><rect class="cls-3" x="628.22" y="1101.17" width="394.16" height="78.17"/><rect class="cls-3" x="574.53" y="1179.34" width="47.77" height="34.74"/><path class="cls-3" d="M810.93,1021.1H646.82c-10.3-15.86-18-39.41-24.57-65.93A25.41,25.41,0,0,1,642.51,924c36.84-6.52,72.3-9.77,105.66-8.08a25.59,25.59,0,0,1,19.72,10.92Q800.74,974,810.93,1021.1Z"/><rect class="cls-3" x="1355.14" y="1175.76" width="25.51" height="17.68" transform="translate(2735.8 2369.21) rotate(180)"/><path class="cls-3" d="M1298.37,975.77h199.54a0,0,0,0,1,0,0v113.72a0,0,0,0,1,0,0H1337.72a39.35,39.35,0,0,1-39.35-39.35V975.77a0,0,0,0,1,0,0Z" transform="translate(2796.28 2065.26) rotate(180)"/><path class="cls-3" d="M1044.71,1067.51h321.72a22.36,22.36,0,0,0,22.24-20.24,954.62,954.62,0,0,0-3.16-212.15,22.37,22.37,0,0,0-22.17-19.59H1044.71a22.33,22.33,0,0,0-22.33,22.33v207.32A22.33,22.33,0,0,0,1044.71,1067.51Z"/><rect class="cls-3" x="1416.54" y="975.77" width="81.37" height="200" rx="12.81" transform="translate(2914.45 2151.53) rotate(180)"/><rect class="cls-3" x="1022.38" y="1101.17" width="394.16" height="78.17" transform="translate(2438.92 2280.5) rotate(180)"/><rect class="cls-3" x="1422.46" y="1179.34" width="47.77" height="34.74" transform="translate(2892.68 2393.41) rotate(180)"/><path class="cls-3" d="M1022.38,1020.82h388.13a0,0,0,0,1,0,0v66a14.36,14.36,0,0,1-14.36,14.36H1036.74a14.36,14.36,0,0,1-14.36-14.36v-66a0,0,0,0,1,0,0Z" transform="translate(2432.89 2121.99) rotate(180)"/><path class="cls-3" d="M648.61,1020.82H1008a14.36,14.36,0,0,1,14.36,14.36v66a0,0,0,0,1,0,0H634.24a0,0,0,0,1,0,0v-66A14.36,14.36,0,0,1,648.61,1020.82Z"/><ellipse class="cls-4" cx="1209.43" cy="860.29" rx="2.1" ry="2"/><path class="cls-5" d="M1618.4,922.24c9.19-.91,33.1,11.49,42.17,36.27s3.17,41.42-4.08,44-19,1.21-19,1.21-36,7.71-37.64-36.57C1599.81,967.13,1597.09,924.36,1618.4,922.24Z"/><path class="cls-5" d="M1753.79,1036.21c-5.09-6.27-26.31-15-45.16-7.83s-24.21,19.46-21.18,25.37,10.94,12.65,10.94,12.65,17.73,26.71,42.56,4.81C1741,1071.21,1765.62,1050.77,1753.79,1036.21Z"/><path class="cls-5" d="M1697.4,1109.19c-6-6.12-3.47-18.14,10-20.25s22.82,8.31,22.82,8.31,17.08,4.84,19.5,11.19-9.07,6.49-13.91-.46-5.14-5.89-5.14-5.89-2.11-4.23-10.42.9S1703.9,1115.84,1697.4,1109.19Z"/><path class="cls-5" d="M1727.91,937.43c7.83,1.74,23.09,10.36,7,50.41s-44.68,18.1-46.77,15.66-19.23-23.15,2.75-45S1722.78,936.29,1727.91,937.43Z"/><path class="cls-5" d="M1567.1,1016.93c.08-10.72,31.65-22.85,62.41,6.59l17,14.07s-2.93-7.33-27.4-7S1567,1037.29,1567.1,1016.93Z"/><path class="cls-5" d="M1614.25,1060.43s3.41-7.3-6.83-10.24-18.47-3-24.21,0-16.53,19.71-5.08,28.86,19.82,4.19,24.63-3.88A86.6,86.6,0,0,1,1614.25,1060.43Z"/><path class="cls-5" d="M1653,883c5.52-2.11,5.6,18.49,9.75,24.82s11,16,10.59,26.45l-.41,10.44s-13.11-16.2-19.21-21.86S1640.72,887.69,1653,883Z"/><path class="cls-5" d="M1607.89,1114.18s-3.7-6.71,2.58-9.8,16.6-10.33,20-1.29S1616.83,1127.6,1607.89,1114.18Z"/><path class="cls-6" d="M1676.54,1153.33s-30.77-75.46-16.11-108,24.78-70.24,9.24-108"/><path class="cls-6" d="M1643.64,1144.29s-2.63-35.87-17.85-40"/><path class="cls-6" d="M1660.43,1147.39s-17.09-90.63-50.58-92.93"/><path class="cls-6" d="M1639.2,1153.33s27.46-73.3,11.72-106.84-14.45-44.13-13.93-52.13"/><path class="cls-6" d="M1683.29,1147.39c-.78-1-21.12-62.75-14.16-108.9S1686.66,904,1686.66,904"/><path class="cls-6" d="M1672.56,1095.17c-1.51,0,16.21-81.73,18.52-91.26"/><path class="cls-6" d="M1641.39,1157.2s41.77-87.51,52.35-96.26"/><path class="cls-6" d="M1647.64,1148.82c16.12-27.8,34.6-50,51.65-49.55"/><path class="cls-3" d="M1698.05,1242.49c11-34.91,30.7-68.44,28.6-99.86h-128.8c-2.09,31.42,17.56,64.95,28.6,99.86Z"/><line class="cls-6" x1="1598.31" y1="1157.2" x2="1726.19" y2="1157.2"/><rect class="cls-3" x="208.81" y="633.79" width="456.19" height="29.26"/><rect class="cls-5" x="246.17" y="663.05" width="15.9" height="28.84"/><rect class="cls-5" x="605.67" y="663.05" width="15.9" height="28.84"/><path class="cls-5" d="M341.08,580.7a17.66,17.66,0,0,1-4.09-6.25c-3.31-8.94,6.85-13.82,14.56-16.35H310.91c7.71,2.53,17.87,7.41,14.56,16.35a17.66,17.66,0,0,1-4.09,6.25c-22.26,22.61-16.68,52.39-16.68,52.39h53.06S363.34,603.31,341.08,580.7Z"/><path class="cls-5" d="M350.09,523.63C349.78,525.22,326,597,326,597"/><line class="cls-5" x1="336.43" y1="500.76" x2="331.23" y2="592.26"/><line class="cls-5" x1="311.65" y1="535.39" x2="333.83" y2="573.23"/><rect class="cls-3" x="436.9" y="498.13" width="99.08" height="135.66"/><rect class="cls-3" x="449.49" y="515.36" width="73.91" height="101.2"/><rect class="cls-7" x="504.49" y="600.39" width="90.13" height="30.25" rx="6.65"/><rect class="cls-8" x="511.71" y="607.36" width="75.64" height="16.66" rx="0.16"/><path class="cls-4" d="M520.84,618v-4.83a4.56,4.56,0,0,1,9.1,0V618a4.56,4.56,0,0,1-9.1,0Zm6.18-.19v-4.45a1.64,1.64,0,1,0-3.28,0v4.45a1.64,1.64,0,1,0,3.28,0Z"/><path class="cls-4" d="M533.6,617.84a5,5,0,0,1,.67-2.52l3.45-6.24h3.4l-2.82,4.58.07.08a1.71,1.71,0,0,1,.6-.1,4,4,0,0,1,3.95,4.2,4.54,4.54,0,0,1-4.68,4.48A4.49,4.49,0,0,1,533.6,617.84Zm6.37,0a1.72,1.72,0,1,0-3.43,0,1.66,1.66,0,0,0,1.7,1.71A1.68,1.68,0,0,0,540,617.84Z"/><path class="cls-4" d="M548.65,614.44a1.54,1.54,0,0,1,1.58-1.54,1.55,1.55,0,1,1,0,3.1A1.54,1.54,0,0,1,548.65,614.44Zm0,6.33a1.54,1.54,0,0,1,1.58-1.54,1.55,1.55,0,1,1,0,3.09A1.53,1.53,0,0,1,548.65,620.77Z"/><path class="cls-4" d="M558,619.79c0-1.73.74-2.82,2.47-3.88l2.42-1.49a1.72,1.72,0,0,0,1-1.52,1.42,1.42,0,0,0-1.6-1.37,1.55,1.55,0,0,0-1.62,1.54H558a4.13,4.13,0,0,1,4.35-4.24c2.8,0,4.51,1.77,4.51,4a4.21,4.21,0,0,1-2.43,3.81l-2.6,1.52c-.65.41-.89.78-.89,1.26v.15h5.9v2.54H558Z"/><path class="cls-4" d="M570.46,618.12h2.71a1.55,1.55,0,0,0,1.67,1.43,1.6,1.6,0,0,0,1.7-1.63,1.75,1.75,0,0,0-3.13-1h-2.79l.54-7.87h7.54v2.62h-5l-.19,2.63h.09a3.35,3.35,0,0,1,1.86-.57,4.06,4.06,0,0,1,4,4.18,4.32,4.32,0,0,1-4.59,4.38A4.16,4.16,0,0,1,570.46,618.12Z"/><path class="cls-6" d="M342,1147s15.22-40.61,7.09-64.1c-9.55-27.61-2.88-62.83,13.53-78.69"/><path class="cls-3" d="M382.49,1132.88c-19.3-11.06-25.3-19.22-25.3-19.22H339.12s-6,8.16-25.3,19.22c-18.46,10.58-10.76,33.32,17.79,79.7h33.1C393.25,1166.2,401,1143.46,382.49,1132.88Z"/><rect class="cls-3" x="325.64" y="1103.88" width="45.03" height="11.16"/><path class="cls-9" d="M412.61,909.77c-11.44-5.67-25.75,12.06-30.31,42.6,0,0,3.64-30.21-3.91-33.55s-13.91,4.78-11.63,9.52,11.11,35.06,5.31,50.34c0,0-6.25-26.3-7.9-30.2s-3.39-8.93-7.07-5.18-11.94,21,8.3,40.47l-4.65,23.87c9.74-7.59,16-13.62,19.43-24.7,0,0,5.65.59,16.71-.64s17.81-11.94,17.81-11.94-5.59-6.25-13.31-3.44-17.73,7.37-17.73,7.37,39.7-14.78,37.92-28.44c0,0-7.67-5.74-19.41,1-11,6.31-15.14,12.69-15.14,12.69C401.6,942.45,418,923.9,412.61,909.77Z"/><path class="cls-9" d="M311.36,1007c15.43-10.61,13.4-39.45,13.4-39.45-13,9.27-20.41,20.67-19.61,35.23l-6.6-14.41c-3.9-20.08-19-30.51-34.86-34-.45,17.59,10.85,33.49,35,51-14.36-11.22-35.65-15.93-48-10,1.54,5.22,18.45,16.82,36.22,20.25a62.58,62.58,0,0,1,31.34,15.85h0c-24.57-9.15-43-10.57-64.13-2.65,13,9.69,33.67,12.49,57.69,12.33,6.91,0,14,2.44,16.62,8.85l-.84,3c-19.36-8.91-46.15-3.49-62.11,4.51,12.64,8.38,33.55,8.14,53.35,3.65a26.93,26.93,0,0,1,23.27,5.72l3,2.52C343.21,1052.07,327,1029.1,311.36,1007Z"/><line class="cls-6" x1="305.82" y1="1140.81" x2="389.96" y2="1140.81"/><line class="cls-6" x1="305.82" y1="1151.83" x2="389.96" y2="1151.83"/><path class="cls-6" d="M195.26,1110.53s-18.94-66-1.6-95.3,29.32-53.36,10.93-87.4"/><path class="cls-6" d="M168.56,1112.63s42.2-55.08,23.58-85.34-26.82-40.85-26.21-48.07"/><path class="cls-6" d="M220.7,1107.27c-.92-.93-25-56.6-16.75-98.24s34.89-98.75,34.89-98.75"/><polygon class="cls-3" points="189.36 1100.36 129.33 1100.36 148.26 1214.42 189.36 1214.42 230.46 1214.42 249.39 1100.36 189.36 1100.36"/><polygon class="cls-3" points="189.36 1100.36 129.33 1100.36 128.14 1127.64 189.36 1127.64 250.58 1127.64 249.39 1100.36 189.36 1100.36"/><rect x="187.73" y="901.29" width="22.79" height="44.46" rx="11.4"/><rect x="187.73" y="901.29" width="22.79" height="44.46" rx="11.4" transform="translate(1122.64 724.39) rotate(90)"/><rect x="230.43" y="872.85" width="22.79" height="44.46" rx="11.4" transform="translate(-449.58 277.34) rotate(-33.1)"/><rect x="230.43" y="872.85" width="22.79" height="44.46" rx="11.4" transform="translate(859.56 203.67) rotate(56.9)"/><rect x="157.72" y="939.79" width="22.79" height="44.46" rx="11.4" transform="translate(-630.71 401.35) rotate(-45)"/><rect x="157.72" y="939.79" width="22.79" height="44.46" rx="11.4" transform="translate(729.78 162.18) rotate(45)"/><path class="cls-9" d="M212.15,1035.2a29.72,29.72,0,0,0-7.78,26.07,29.7,29.7,0,0,0,25.73-8.84c6.91-7.19,10-23,8.29-32.16C230.61,1024.12,219.06,1028,212.15,1035.2Z"/><rect class="cls-4" x="811.99" y="374.12" width="228.29" height="286.74"/><path class="cls-10" d="M812,374.12V660.86h228.28V374.12ZM1023.82,644.4H828.44V390.57h195.38Z"/><line class="cls-11" x1="828.44" y1="482.58" x2="1023.82" y2="482.58"/><line class="cls-11" x1="880.8" y1="390.57" x2="880.8" y2="552.18"/><line class="cls-11" x1="855.72" y1="555.59" x2="855.72" y2="644.4"/><line class="cls-11" x1="828.44" y1="552.18" x2="1023.82" y2="552.18"/><line class="cls-11" x1="828.44" y1="607.57" x2="1023.82" y2="607.57"/><rect class="cls-12" x="928.71" y="552.18" width="65.31" height="55.39"/><rect x="880.8" y="390.57" width="143.02" height="92"/><rect x="828.44" y="482.58" width="52.36" height="69.6"/><rect class="cls-4" x="1137.16" y="257.21" width="261.34" height="354.7"/><path class="cls-10" d="M1137.16,259.07V611.91H1398.5V259.07ZM1382,595.45H1153.61V275.52H1382Z"/><path class="cls-12" d="M1269,387.79c-23.85.36-54.06-2.51-53.83-34.74.2-27.26,23.89-31.76,45.81-31.67,20.47.09,53.48-2.73,58.21,22.19C1326.37,381.18,1301.52,386.74,1269,387.79Z"/><path class="cls-11" d="M1269,458.36c-23.85.36-54.06-2.52-53.83-34.74.2-27.27,23.89-31.76,45.81-31.67,20.47.09,53.48-2.73,58.21,22.19C1326.37,451.75,1301.52,457.3,1269,458.36Z"/><path class="cls-11" d="M1269,528.92c-23.85.36-54.06-2.51-53.83-34.74.2-27.26,23.89-31.76,45.81-31.67,20.47.1,53.48-2.72,58.21,22.19C1326.37,522.32,1301.52,527.87,1269,528.92Z"/><rect class="cls-4" x="1475.66" y="444.21" width="261.34" height="354.7"/><path class="cls-10" d="M1475.66,446V798.79H1737V446Zm244.89,336.38H1492.11V462.41h228.44Z"/><path class="cls-13" d="M1629.76,733.43c-35.7-1.73-56.22-30.83-46.29-38.16,3.84-2.45,7-2,11.31,1.87,1.66,1.48,6,9.26,9.64,5.59,5.6-4.15-4.25-9.89-6-12.3-16.61-22.57-5.21-35.06.11-34.3,7.71.44,7.77,21,8.8,24,1.11,3.22,3.46,3.83,5.8,1.46a15.61,15.61,0,0,0,4.34-11.94,36.34,36.34,0,0,0-4.16-14.58c-12.11-30.47,12.08-41.25,16.8-39.19,4,1.76,6,3.76,5.14,8.86-1.49,9.06-13.18,33.4-7.15,37.55,6.21,2.67,13.16-20.21,23-30.57,11.8-12.45,49.62-3.64,33,9.55-6.47,5.4-14.66,8.13-22,12.2-9.2,5.09-32.9,20.81-27.62,24.41,9.46,6.45,30.82-17.54,47.15-11.11,10.88,5.16,6.92,13.8-1.52,19.78-9.61,6.81-21.8,6.71-33.1,9.33-7,1.61-24.11,4-22.6,11.83,1.89,9.74,42.8-11.63,43.11,9.64C1667.37,732.25,1640.18,733.53,1629.76,733.43Z"/><path class="cls-13" d="M1568.82,636.69c32.13-7.86,40.78-52.37,19.49-35.61-4.74,13.33-12.36,3.6-4.23-4.44,8.12-21.06-3.38-28.35-7.35-26.63-5.9,2-1.6,17.92-1.77,20.47-1.55,7.84-10.06-2.08-10.1-6,7.42-35.91-24.32-51.9-23.33-31.12,19.65,28.94,19.62,38.64-10.82,8.77-11.81-7.17-39.33,7.69-23.61,14.41,10.41,4.34,45.58,8.15,46.3,17.94-6,7-27.66-7.1-39,1.36-16.25,30.13,47.07,5.56,53.13,19.68.6,8-35.72,0-31.45,16.63C1539.34,643.74,1560.74,639,1568.82,636.69Z"/><path class="cls-13" d="M1616.55,526.15s31.78-12.68,41.24-7.08,35.29,28.74,35.29,28.74l4,7.27s-20.44-5.24-25.27-3.58-12.71,10-17.1,12.52-26.82,2.44-29.43,2.22c0,0,11-5.31,13.91-9.19s5.19-6.48,5.19-6.48-24.3.75-26.48,1L1601,559.26l4.89-19,11.87,3.09,13.71-3.51,9.27-2.58,11.93-.76-13.72-5.09Z"/><path class="cls-3" d="M1078.73,1177.12c9.08,4.59,18.45,8.75,28.42,10.79a12.35,12.35,0,0,1,3.55,1.06,4,4,0,0,1,2.2,2.82,4.14,4.14,0,0,1-1,3c-1.59,2.11-4.24,3.14-6.82,3.66s-4.63,0-7.14.85c-6,2.24-12.65,1.85-19.06,1.38-7.23-.53-14.47-1.13-21.72-1.15-1.28,0-2.57,0-3.85,0-8.66.24-17.36,1.47-25.94.3-2-.26-3.91-.25-5.87-.37-13.56-.87-5-22.58-1.85-32.38s-11.15-145.6-11.15-145.6l-120.3,2.67L896.83,970l42.23-13.91s91.28,16.58,97.35,17.31,11.14,14.77,11.14,14.77a66.56,66.56,0,0,1,8.5,22.8,95.82,95.82,0,0,1,1.09,19.15c-1,34.33-12.45,68.39-8,102.45,0,0,1.17,33.7,3.72,35.89S1069.41,1172.4,1078.73,1177.12Z"/><path class="cls-5" d="M930.37,859.92l22.44-4.47s-2,22.55-8,37.61-22,30.42-23.92,37.74S930.37,859.92,930.37,859.92Z"/><path class="cls-3" d="M988.61,796.93l-12,4a1.87,1.87,0,0,0-.68.33,1.63,1.63,0,0,0-.33.45c-.73,1.32-1.31,3.63-1.61,4.18-3.14-2.35-4.84-2.35-6.64-.75-1.63,7.23-2.38,16.45-.19,23.56a42.56,42.56,0,0,1,1.42,6.66c1.09,16.59.54,33.72-6.21,49-3.18,7.23-7.68,13.88-11.08,21s-6.66,18.05-5.09,25.75l36.08-9.27c2.72-9.16,4.46-24.32,5.19-33.82,1.25-16.42-1-31,4.49-46.58a275,275,0,0,0,17.1-27.22c-3.73-3-9-6.66-12.7-9.62C993.82,802.64,989.6,799.91,988.61,796.93Z"/><path class="cls-14" d="M987.53,813.66a45.55,45.55,0,0,0,1.83,10.28"/><path class="cls-14" d="M979.65,818.8a32,32,0,0,1,.63-8.73c1-.92,3.14-2.07,4.71-3.17"/><path class="cls-3" d="M966.38,729.71s23.71,6.91,25.13,18.12,3,19.69,10.23,21.64l-9.85,1.75-2.5,22.54L977.78,791l-49.4,35.12L880.71,803s42.13-9.25,48-25.13S950.09,727.09,966.38,729.71Z"/><path class="cls-3" d="M795.22,944.51s24.1-114.13,87-141.86c0,0,59.81-12,55.38,41.9l-8.39,43.12-46,10.75,1.67,9.68s-8.5,14.49-30.83,21.29S795.22,944.51,795.22,944.51Z"/><path class="cls-15" d="M786.77,944.51l49.8-11.58s12.95-7.71,22.44-9.86,21.73-9.32,25.87-15,3.36-1.16,3.36-1.16l28.59,59.31s2.44,18.66-3.23,34-16.31,29.24-16.31,29.24l-91.44-1.83s-21.27-33.31-20.32-55.76S786.77,944.51,786.77,944.51Z"/><path class="cls-3" d="M883.72,901.68s8.85,43.13,16.41,58.1c0,0,3.63,9.3,16.7,6.47s78.4-45.45,90.28-46.59,20.68,1.57,25.06-1.54,11.67-8.08,11.67-8.08,10-.92,12-3.1,6.58-7.09,6.58-7.09,1.25-1.8,5.47-2.79,5.26-5.27,5.26-5.27-20,1.59-25.89,1.27l-5.85-.31s7.16-.38,11.6-3.49,5.15-5.71,5.15-5.71h-16.92s-15.46-1.28-22,2.26-34.22,20.73-40.88,23.93-53.56,16.66-53.56,16.66l5.88-46.33-48.23,13Z"/><path class="cls-16" d="M932,706c-6.94-17.6-46.59-8.44-46.4,8.94-12.37,1.1-12.61,16.09-.95,21.48C896.87,742.06,919.73,719.19,932,706Z"/><path class="cls-17" d="M834.38,954c12.38,28.6,37.14,44.89,66.23,53"/><path class="cls-3" d="M994.94,918.62c2.39-.64,32.94,4,36.64,6.85,8.14,6.36,13,16.18,14.72,26.36s.68,20.61-.32,30.88q-6.66,68.52-13.31,137c8.93,11.13,16.17,22,21.65,35.14,1.53,3.69,3,7.53,5.6,10.53,4.37,5,11.52,7.06,15.23,12.53-.41,1.21-3.77,5.93-5,5.85l-23-1.47a22,22,0,0,1-7.91-1.49c-2.67-1.23-4.73-3.47-6.7-5.65-5-5.55-10.39-12-9.68-19.5-3.69-.62-11.37-2-15.06-2.61-5.11-.86-10.79-2.08-13.66-6.39-4.31-6.48.41-14.85,3.34-22.06,7.39-18.19,2.51-38.75-1.82-57.91-7.33-32.31-12.79-66.52-3-98.18-14.24-4-39-9.69-53.52-12.44C939.74,956,994.26,918.69,994.94,918.62Z"/><path class="cls-6" d="M977.78,791c-5.55-2.13-13.51-2.85-17.65-6.94-4.4-4.34-6.66-11.26-3.61-16.5"/><path class="cls-15" d="M977.2,734.62l8.11,4.79c14.54-31.81-40.46-34.58-44.45-30.71-6.61,6.4-31.63,27.48-42.27,38.51-1.71,1.77-4.29,3.21-4.67,5.62-.91,8.11,4.74,16.52,12.07,20.41a17.69,17.69,0,0,0,14.31,1,33.64,33.64,0,0,1,4.27-1.76,28.19,28.19,0,0,1,5.29-.43,20.16,20.16,0,0,0,9.92-3.26c6.14-4,10.15-11.59,17.53-12.78,2.91-.47,5.91.17,8.85-.05A14.68,14.68,0,0,0,978,748.32a13.8,13.8,0,0,0-.77-13.7"/><path class="cls-3" d="M885.68,856.55c-4.37,7.55-4.93,20.23-3.43,34.38"/><circle cx="983.75" cy="758.06" r="3.11"/><circle class="cls-4" cx="851.42" cy="950.93" r="3.11"/><circle class="cls-4" cx="861.14" cy="964.27" r="3.11"/><line class="cls-2" x1="1085.31" y1="881.13" x2="1079.3" y2="892.78"/><line class="cls-18" x1="1074.52" y1="892.78" x2="1085.31" y2="892.78"/><line class="cls-2" x1="1075.44" y1="881.13" x2="1069.43" y2="892.78"/><line class="cls-18" x1="1064.66" y1="892.78" x2="1075.44" y2="892.78"/><polygon class="cls-5" points="1056 834.47 1047.2 840.27 1058.25 840.05 1056 834.47"/><path class="cls-10" d="M1051.11,855.37a25.06,25.06,0,0,1,3.3-12.47,12.93,12.93,0,0,1-.79-4.47c0-6.85,5.18-12.4,11.58-12.4,19,0,44.28,50.1,44.28,50.1s-39.14,7.62-49.82-2.58h0A23,23,0,0,1,1051.11,855.37Z"/><path class="cls-10" d="M1120,885.15s-4.51,7.13-5,6.26-5.51-15.28-5.51-15.28Z"/><circle cx="1060.91" cy="837.66" r="1.68"/><path d="M1107.76,873.5s-36.91-3.37-39.23-18c-2.63-16.63,13.63-14.9,6.1-24.06C1074.63,831.49,1096.38,842.94,1107.76,873.5Z"/></g></svg>