<svg xmlns="http://www.w3.org/2000/svg" viewBox="0 0 2000 1600"><defs><style>.cls-1{fill:#e5d0ea;}.cls-10,.cls-15,.cls-2,.cls-5,.cls-7{fill:#fff;}.cls-10,.cls-11,.cls-12,.cls-13,.cls-14,.cls-15,.cls-16,.cls-2,.cls-3,.cls-4,.cls-6,.cls-7,.cls-8{stroke:#000;}.cls-12,.cls-14,.cls-15,.cls-2,.cls-3{stroke-miterlimit:10;}.cls-10,.cls-12,.cls-14,.cls-15,.cls-2,.cls-3,.cls-6,.cls-7,.cls-8,.cls-9{stroke-width:6px;}.cls-12,.cls-4,.cls-8,.cls-9{fill:none;}.cls-11,.cls-13,.cls-14,.cls-15,.cls-16,.cls-4,.cls-6,.cls-7,.cls-8,.cls-9{stroke-linecap:round;}.cls-10,.cls-11,.cls-13,.cls-16,.cls-4,.cls-6,.cls-7,.cls-8,.cls-9{stroke-linejoin:round;}.cls-4{stroke-width:21px;}.cls-9{stroke:#fff;}.cls-11{stroke-width:5px;}.cls-16{stroke-width:3px;}</style></defs><g id="fondo"><rect class="cls-1" x="0.67" width="1999.33" height="1600"/></g><g id="Capa_1" data-name="Capa 1"><path class="cls-2" d="M894.8,992.16l22.15-3s1.7,2.24-.15,3.79c1.4,4.45,3.21,12.41.3,17.64-4.21,7.58-43.55,37.45-43.55,37.45s-29.44,2.73-29.56,1.71-13.33-42.46.44-53.69,31.23-20.79,44.52-9.41A69.26,69.26,0,0,1,894.8,992.16Z"/><path class="cls-3" d="M884.42,1026.84c5.83-4.15,6-20.17,6-20.88-1.51-19.36-31.78-19.71-37.23-15.9-24.59,17.2-12.92,38.9-10.18,51,.11.88,25.23-1.45,25.23-1.45S876,1033.67,884.42,1026.84Z"/><path class="cls-2" d="M871.61,1047.48s28.52,38.67,21.12,65.55-105.42,83.31-105.42,83.31-31.16,1-31.15-34.5c0-39.49,29.89-49.36,43.6-59s44.15-46.9,44.15-46.9Z"/><path class="cls-3" d="M791.33,1110.5c21,12,41.26,12.15,46.92-12.56,1.7-13.33-3.14-8.43-10.4-17.68C816,1097.34,802.12,1097.4,791.33,1110.5Z"/><path class="cls-3" d="M879,1106c.41,18.6-36,39.36-32.2,47,11.06-7.2,44.39-34.29,46.19-40.8,1.11-4,.8-9.17.51-13.56C890.38,1087.06,878.79,1095,879,1106Z"/><path class="cls-3" d="M847,1153.15l11.15,43.19h25.7a7.93,7.93,0,0,0,7.93-7.93h0a7.92,7.92,0,0,0-4.66-7.23c-2.55-1.16-5.19-2.46-5.19-2.91,0-.87-9.28-33.64-3.77-44.66S847,1153.15,847,1153.15Z"/><path class="cls-3" d="M848.66,1004.32l-18.27,16.09a18.52,18.52,0,0,0-6.19,12c-.84,8.36-1.67,21,.85,22.35,2.72,1.41,25.63,14.9,38.57,22.53a5.47,5.47,0,0,0,8.24-5l-3.4-62.28"/><path class="cls-4" d="M770,1186.5c-68,5.3-58.8-44.25-33-44.25"/><path class="cls-3" d="M844.34,1190.36h0a6,6,0,0,0-3.36-5.48l-13.52-6.32s-9.33-19.82-11.28-22.9c0,0-12.55-16.73-26.63-13.41-26.11,6.17-55.1,35.25-2.24,54.09h51.41A5.81,5.81,0,0,0,844.34,1190.36Z"/><circle class="cls-5" cx="883.69" cy="1000.75" r="3"/><circle class="cls-6" cx="1132.57" cy="1170.54" r="8.78"/><circle class="cls-6" cx="1214.89" cy="1170.54" r="8.78"/><circle class="cls-6" cx="1297.22" cy="1170.54" r="8.78"/><polygon class="cls-7" points="1214.89 1125.84 1123.78 1147.05 1123.78 1158.85 1214.89 1149.96 1306 1158.85 1306 1147.05 1214.89 1125.84"/><path class="cls-6" d="M1279.07,995.94H1150.71a37.92,37.92,0,0,1-37.57-43l15.64-186.12a31.25,31.25,0,0,1,31-27H1270a31.24,31.24,0,0,1,31,27l15.65,186.12A37.93,37.93,0,0,1,1279.07,995.94Z"/><rect class="cls-6" x="1193.62" y="1000.24" width="42.54" height="13.53"/><rect class="cls-7" x="1207.06" y="1013.54" width="15.66" height="55.76"/><rect class="cls-7" x="1199.65" y="1069.3" width="30.47" height="60.1"/><rect class="cls-6" x="1306.46" y="891.69" width="35.54" height="15.61" rx="7.8"/><rect class="cls-6" x="1090.12" y="891.69" width="35.54" height="15.61" rx="7.8"/><polygon points="1264.34 1000.33 1100.73 1001.14 1115.09 979.04 1251.9 975.77 1264.34 1000.33"/><path class="cls-7" d="M1114.62,779.12s12,43.44,11.79,44S1091.51,904,1080,920c0,0-47.56-.47-47-2,4-11,47.93-90.84,57-110A74.08,74.08,0,0,1,1114.62,779.12Z"/><path class="cls-6" d="M1223.58,993.35c-1.17.29-108.93,5.82-108.93,5.82s-10.2-29.12-7.87-42.52,21.56-41.07,23-41.36,119.42-13.11,119.42-11.36S1223.58,993.35,1223.58,993.35Z"/><path class="cls-7" d="M1114.63,779.12s39.59-24.26,69.54-22.23,64.35,18.18,64.35,18.18l-12.68,135.51s-91.36.5-113.18,12.18Z"/><path class="cls-6" d="M1123.09,952.86l159.61-84.17s20.68,3.79,19.23,20.1-47.19,61.16-67,67.57-94.37,31.16-94.37,31.16Z"/><path class="cls-6" d="M1277.17,893.15l23.59-.58S1262,984.9,1241.93,995.39s-48.06,8.73-48.06,8.73l-7-39s53.3-19.23,54.17-21S1277.17,893.15,1277.17,893.15Z"/><path class="cls-7" d="M1210.07,1154.35a12,12,0,0,1,4.23,10.32c-.43,4.61-.93,10.76-1.2,14.12a15.49,15.49,0,0,0,.36,4.8l3,13-3.08,2.34a15.62,15.62,0,0,1-8.1,3.14l-15.37,1.39a18,18,0,0,1-13.24-4.14l-4.08-3.42c-1-7.48,2-15.48,5.34-23.32a45.14,45.14,0,0,0,1.14-9l.21-7.6,3.33-1.45s2.74-8.41,14-9,11.81,7.5,11.81,7.5Z"/><line class="cls-8" x1="1188.63" y1="1160.4" x2="1203.07" y2="1159.51"/><line class="cls-8" x1="1189.14" y1="1168.55" x2="1203.57" y2="1167.65"/><path class="cls-6" d="M1127.17,986.94,1126,999.17l28,10.78,19.27,146,40.19-5.25s-4.71-157.67-7.62-165.83-12.52-22.13-17.18-24.46S1147.27,958.4,1127.17,986.94Z"/><path class="cls-7" d="M1221.69,921h0s3.07-9.78,2.56-13.52-2.08-17-2.08-17l-5.43-1.05a15.33,15.33,0,0,0-10.1,1.51c-3.19,1.7-6.91,4.26-8.57,7.58-4.19,8.39-15.45,19.77-15.45,19.77s-6.28,4.65-9.77,7.78-3.69,8.24-3.76,8.46l12.62-3.14-.16,11.69s8.54,13.92,9.83,15.79,8.53.17,6.16-4.64-5.09-14.06-5.09-14.06l-1.12-9.13,1.64,9.35s9.49,16.73,11.14,18.6,8-.08,7.26-2.59-10.74-28.74-10.74-28.74l10.22,27.2c2.73,5.38,7.91.57,7.43-4.33-.19-1.93-.92-6.22-.92-6.22l.62,4.31s2.32,3.38,5.45,1.73c1.71-.9,1.72-11.29,1.29-14.23C1224.43,934.13,1223.51,925.66,1221.69,921Z"/><path class="cls-7" d="M1219.79,813.72c.56-18.46,6.1-40.11,29.74-38.65,0,0,18.24-2.52,27.33,80.39l1.13,14.19-50.82,32.94-26.41-15.9,35.78-24.42Z"/><line class="cls-8" x1="1213.56" y1="933.55" x2="1210.57" y2="925.05"/><line class="cls-8" x1="1181.86" y1="920.62" x2="1181.55" y2="943.08"/><path class="cls-9" d="M1302,900.78c-4.78,16-42.16,50.77-62,57.18s-94.37,31.16-94.37,31.16"/><path class="cls-7" d="M1215.84,1193.73l.66,2.81-3.08,2.34a15.62,15.62,0,0,1-8.1,3.14l-1.64.15c-1.47-2.46-4.77-4.19-8.61-4.19-4.41,0-8.1,2.27-9.13,5.34a18,18,0,0,1-9.23-4l-4.08-3.42-.62,8.9s5.6,6.71,8.72,7.63,24,.41,28.67-.71a15.18,15.18,0,0,0,8.48-5.41C1219,1204.79,1215.84,1193.73,1215.84,1193.73Z"/><path class="cls-7" d="M1124.49,960a12,12,0,0,0-11.15-.41c-4.17,2-9.78,4.6-12.83,6a15.61,15.61,0,0,1-4.64,1.32l-13.2,1.62-1.13,3.7a15.62,15.62,0,0,0-.15,8.68c1.09,4.07,2.74,10.2,4,14.91a18,18,0,0,0,8.47,11l4.61,2.64c7.37-1.64,13.85-7.19,20-13.07a46.08,46.08,0,0,1,8-4.17l7-2.82.21-3.63s7-5.47,3.55-16.28-11.12-8.49-11.12-8.49Z"/><line class="cls-8" x1="1121.72" y1="983.05" x2="1117.57" y2="969.2"/><line class="cls-8" x1="1113.9" y1="985.39" x2="1109.75" y2="971.54"/><path class="cls-7" d="M1085.53,968.14l-2.86.35-1.13,3.7a15.62,15.62,0,0,0-.15,8.68c.13.5.28,1,.43,1.6,2.82.52,5.58,3,6.9,6.63,1.53,4.14.67,8.39-1.84,10.41a18,18,0,0,0,7,7.27l4.61,2.64-8.14,3.65s-8.22-2.93-10.17-5.54-8.68-22.37-9.24-27.15a15.18,15.18,0,0,1,2.15-9.83C1074.06,969,1085.53,968.14,1085.53,968.14Z"/><line class="cls-8" x1="1126.24" y1="960.96" x2="1116.61" y2="967.16"/><path class="cls-10" d="M1164,762.7l-4.08,18.41C1172,799,1198.44,794,1200,772.43l-4.26-35.35"/><path class="cls-10" d="M1190.65,683.47,1138,697l-2,21,2.68,17.2,7.07,32.56s34.55-4.86,35.28-4.93,17.78-16.68,17.78-16.68V695.61Z"/><path class="cls-8" d="M1153.36,713.6c-3.26,5.64-5.84,10.93-6,15.16l7.57,1.61"/><path class="cls-11" d="M1140.82,739.5l9-7.67,5.92.77,6.54-.33s5.6,8.32,8.61,8.46,5.08-3.54,5.08-3.54-.89,5.3-2.89,6.16-18.18-7.43-18.18-7.43l-14.52,6.73c-2.53-1-3.61-3.42-4.25-6.29C1137.45,738,1138.86,739.38,1140.82,739.5Z"/><path class="cls-11" d="M1189.73,720.6s-13.87,30-22.31,30.39a10.54,10.54,0,0,1-10.75-6.84h-4s-1.26,8.35-4.52,6.85-10.2-19.43-10.2-19.43-1.09,43.19,18.55,43.93,36.75-14.2,38-29.18A47.9,47.9,0,0,0,1189.73,720.6Z"/><circle cx="1166.24" cy="714.26" r="2.8"/><circle cx="1144.31" cy="712.95" r="2.8"/><line class="cls-8" x1="1160" y1="781" x2="1170" y2="911"/><line class="cls-8" x1="1201" y1="759" x2="1191" y2="909"/><path class="cls-7" d="M932.65,904.41H1152a0,0,0,0,1,0,0v8.14a6.44,6.44,0,0,1-6.44,6.44H939.09a6.44,6.44,0,0,1-6.44-6.44v-8.14A0,0,0,0,1,932.65,904.41Z"/><line class="cls-12" x1="1081.01" y1="904.41" x2="1081.01" y2="919"/><rect x="1096.16" y="910.03" width="8.56" height="3.35"/><rect x="1110.1" y="910.03" width="8.56" height="3.35"/><path class="cls-7" d="M1080.15,904.41H932.34L897.46,802.49a5.05,5.05,0,0,1,4.77-6.69h137.14a5,5,0,0,1,4.78,3.42Z"/><circle class="cls-13" cx="988.67" cy="847.11" r="7.55"/><circle class="cls-13" cx="994.39" cy="835.32" r="2.37"/><path class="cls-6" d="M1179.9,669l-2,17.78L1131,705l-6,10s-21-36,24-38C1153.11,670.76,1158.8,662.61,1179.9,669Z"/><path class="cls-6" d="M1176,674.74l2,32.26,19,28s21.32-29.09,10.28-43.64S1195.3,662.76,1176,674.74Z"/><rect class="cls-14" x="819.91" y="544.3" width="31.08" height="78.34" transform="translate(1670.91 1166.94) rotate(180)"/><rect class="cls-15" x="772.67" y="531.69" width="25.04" height="90.95" transform="translate(1570.38 1154.33) rotate(180)"/><rect class="cls-15" x="797.71" y="552.48" width="22.21" height="70.16" transform="translate(1617.62 1175.11) rotate(180)"/><rect class="cls-15" x="850.99" y="520.96" width="15.54" height="101.68" transform="translate(1717.52 1143.6) rotate(180)"/><rect class="cls-15" x="878.49" y="537.58" width="15.54" height="83.45" transform="translate(1859.13 997.15) rotate(170.07)"/><line class="cls-15" x1="785.19" y1="552.48" x2="785.19" y2="581.39"/><rect class="cls-15" x="850.99" y="535.18" width="15.54" height="15.54" transform="translate(1717.52 1085.89) rotate(180)"/><rect class="cls-15" x="706.91" y="544.3" width="31.08" height="78.34"/><rect class="cls-15" x="757.13" y="563.32" width="15.54" height="59.32"/><rect class="cls-15" x="741.59" y="520.96" width="15.54" height="101.68"/><line class="cls-15" x1="725.33" y1="568.04" x2="725.33" y2="596.95"/><rect class="cls-15" x="741.59" y="535.18" width="15.54" height="15.54"/><rect class="cls-15" x="772.67" y="596.95" width="25.04" height="11.86" transform="translate(1570.38 1205.77) rotate(180)"/><rect class="cls-15" x="738.49" y="316.49" width="20.21" height="638.82" transform="translate(1384.49 -112.7) rotate(90)"/><rect class="cls-14" x="596.46" y="544.3" width="31.08" height="78.34"/><rect class="cls-15" x="649.75" y="531.69" width="25.04" height="90.95"/><rect class="cls-15" x="627.54" y="552.48" width="22.21" height="70.16"/><rect class="cls-15" x="580.92" y="520.96" width="15.54" height="101.68"/><rect class="cls-15" x="553.42" y="537.58" width="15.54" height="83.45" transform="translate(108.28 -88.08) rotate(9.93)"/><line class="cls-15" x1="662.26" y1="552.48" x2="662.26" y2="581.39"/><rect class="cls-15" x="580.92" y="535.18" width="15.54" height="15.54"/><rect class="cls-15" x="674.78" y="563.32" width="15.54" height="59.32" transform="translate(1365.1 1185.96) rotate(180)"/><rect class="cls-15" x="690.32" y="520.96" width="15.54" height="101.68" transform="translate(1396.18 1143.6) rotate(180)"/><rect class="cls-15" x="690.32" y="535.18" width="15.54" height="15.54" transform="translate(1396.18 1085.89) rotate(180)"/><rect class="cls-15" x="649.75" y="596.95" width="25.04" height="11.86"/><path class="cls-6" d="M962,566.46a18,18,0,0,1-4.09-6.25c-3.31-8.94,6.86-13.82,14.57-16.36H931.84c7.7,2.54,17.87,7.42,14.56,16.36a17.89,17.89,0,0,1-4.09,6.25c-22.26,22.6-16.68,52.39-16.68,52.39h53S984.26,589.06,962,566.46Z"/><path class="cls-6" d="M971,509.39c-.32,1.59-24.15,73.4-24.15,73.4"/><line class="cls-6" x1="957.36" y1="486.51" x2="952.16" y2="578.02"/><line class="cls-6" x1="932.57" y1="521.15" x2="954.76" y2="558.99"/><rect class="cls-6" x="750" y="954" width="30.23" height="272.06"/><rect class="cls-6" x="1492.77" y="954" width="30.23" height="272.06"/><polygon class="cls-16" points="846.49 884.96 833.73 887.52 822.64 832.3 825.37 812.85 835.4 829.73 846.49 884.96"/><rect class="cls-16" x="844.62" y="843.88" width="17.13" height="61.59"/><polygon class="cls-16" points="858.17 894.47 848.2 894.47 848.2 838.82 850.08 832.88 856.29 832.88 858.17 839.11 858.17 894.47"/><rect class="cls-16" x="852.38" y="826.71" width="1.61" height="5.45"/><polygon class="cls-7" points="865.62 920.49 823.18 920.49 818.18 860.65 870.62 860.65 865.62 920.49"/><rect class="cls-8" x="1448.34" y="734.13" width="19.89" height="111.41" rx="9.94" transform="translate(2924.84 15.46) rotate(123.72)"/><polyline class="cls-8" points="1478.63 816.29 1462.28 903.05 1481.46 906.67 1498.23 817.68"/><line class="cls-8" x1="1403.14" y1="722.79" x2="1403.14" y2="732.81"/><path class="cls-7" d="M1363.49,765.21h79.31a0,0,0,0,1,0,0v5.92a39.66,39.66,0,0,1-39.66,39.66h0a39.66,39.66,0,0,1-39.66-39.66v-5.92A0,0,0,0,1,1363.49,765.21Z" transform="translate(2806.29 1576) rotate(-180)"/><path class="cls-7" d="M1385.34,732.81h35.6a0,0,0,0,1,0,0v17.8a17.8,17.8,0,0,1-17.8,17.8h0a17.8,17.8,0,0,1-17.8-17.8v-17.8A0,0,0,0,1,1385.34,732.81Z" transform="translate(2806.29 1501.22) rotate(180)"/><circle class="cls-7" cx="1498.23" cy="818.39" r="9.85"/><path class="cls-7" d="M1426.93,896.17h70a0,0,0,0,1,0,0v2.28a22,22,0,0,1-22,22H1449a22,22,0,0,1-22-22v-2.28A0,0,0,0,1,1426.93,896.17Z" transform="translate(2923.84 1816.66) rotate(180)"/><rect class="cls-7" x="672" y="920.5" width="928.95" height="33.5"/></g></svg>