<svg xmlns="http://www.w3.org/2000/svg" viewBox="0 0 2000 1600"><defs><style>.cls-1{fill:#ecd1d9;}.cls-2{fill:#fff;}.cls-10,.cls-11,.cls-12,.cls-13,.cls-2,.cls-3,.cls-4,.cls-5,.cls-6,.cls-7,.cls-8,.cls-9{stroke:#000;}.cls-10,.cls-11,.cls-12,.cls-2,.cls-3,.cls-4,.cls-7{stroke-linecap:round;}.cls-10,.cls-11,.cls-12,.cls-2,.cls-3,.cls-4,.cls-5,.cls-6,.cls-7,.cls-8,.cls-9{stroke-linejoin:round;}.cls-11,.cls-12,.cls-13,.cls-2,.cls-3,.cls-4,.cls-5,.cls-6,.cls-7,.cls-8,.cls-9{stroke-width:6px;}.cls-10,.cls-13,.cls-4,.cls-9{fill:none;}.cls-5{fill:#d3d2c2;}.cls-6,.cls-7{fill:#ea927b;}.cls-8{fill:#f63c18;}.cls-10{stroke-width:4px;}.cls-11{fill:#bdccd4;}.cls-12{fill:#a21c26;}.cls-13{stroke-miterlimit:10;}</style></defs><g id="fondo"><rect class="cls-1" x="0.67" width="1999.33" height="1600"/></g><g id="Capa_1" data-name="Capa 1"><circle class="cls-2" cx="731.46" cy="411.21" r="22.88"/><polygon class="cls-3" points="744.37 375.77 718.56 375.77 708.59 357.47 754.34 357.47 744.37 375.77"/><rect class="cls-3" x="724.11" y="329.62" width="14.72" height="34.94"/><line class="cls-4" x1="731.46" y1="194.82" x2="731.46" y2="329.62"/><polygon class="cls-3" points="729.58 368.75 639.87 400.88 729.58 400.88 819.28 400.88 729.58 368.75"/><rect class="cls-4" x="1218.23" y="608.18" width="378" height="26.64"/><path class="cls-4" d="M1510.24,607.79h-32.58a.73.73,0,0,1-.73-.72V542.71c0-5,3.16-8.77,8.88-10.66l.18-.06a1.58,1.58,0,0,0,1.15-1.18V512.69a.59.59,0,0,0-.21-.43.59.59,0,0,1-.17-.42V507h-.33v-5.47a1.23,1.23,0,0,1,1.22-1.23h12.59a1.23,1.23,0,0,1,1.23,1.23V507h-.34v4.85a.59.59,0,0,1-.17.42.59.59,0,0,0-.21.43v18.13a1.59,1.59,0,0,0,1.16,1.17l.17.06c5.73,1.89,8.88,5.67,8.88,10.66v64.36A.72.72,0,0,1,1510.24,607.79Z"/><path class="cls-4" d="M1463,607.79h-32.58a.73.73,0,0,1-.73-.72V542.71c0-5,3.16-8.77,8.88-10.66l.18-.06a1.58,1.58,0,0,0,1.15-1.18V512.69a.59.59,0,0,0-.21-.43.59.59,0,0,1-.17-.42V507h-.33v-5.47a1.23,1.23,0,0,1,1.22-1.23H1453a1.23,1.23,0,0,1,1.23,1.23V507h-.34v4.85a.59.59,0,0,1-.17.42.59.59,0,0,0-.21.43v18.13a1.59,1.59,0,0,0,1.16,1.17l.17.06c5.73,1.89,8.88,5.67,8.88,10.66v64.36A.72.72,0,0,1,1463,607.79Z"/><path class="cls-4" d="M1533.86,489.52a.31.31,0,0,1-.32-.31v-1a.32.32,0,0,1,.32-.32h.09v-.65h-.09a.32.32,0,0,1-.32-.32V486a.32.32,0,0,1,.32-.32h.09v-3.07a.79.79,0,0,1,.79-.8h9.48a.79.79,0,0,1,.79.8v3.07h.15a.32.32,0,0,1,.32.32V487a.32.32,0,0,1-.32.32H1545v.65h.15a.32.32,0,0,1,.32.32v1a.31.31,0,0,1-.32.31H1545V509a8.51,8.51,0,0,0,3.52,6.84,15.13,15.13,0,0,1,6.21,12.19v76.81a2.7,2.7,0,0,1-2.69,2.69h-25.14a2.7,2.7,0,0,1-2.69-2.69V528a15.13,15.13,0,0,1,6.21-12.19A8.51,8.51,0,0,0,1534,509V489.52Z"/><path class="cls-5" d="M987.36,1133.08h-34.3l-14.87,39.42a11.49,11.49,0,0,0-.74,4.06v4a10.08,10.08,0,0,0,10.08,10.09h38.92a19.45,19.45,0,0,0,8.72-16.57C995.17,1162.49,987.36,1133.08,987.36,1133.08Z"/><line class="cls-5" x1="937.45" y1="1175.92" x2="995.17" y2="1175.92"/><path class="cls-5" d="M944.06,1174.93c4.74-8.08,11.29-13.08,18.52-13.08,8,0,15.14,4,19.95,13.21"/><line class="cls-5" x1="957.45" y1="1153.09" x2="973.16" y2="1153.06"/><line class="cls-5" x1="957.45" y1="1144.65" x2="973.16" y2="1144.61"/><path class="cls-5" d="M926.57,1136.9c-13.61,6.27-25.56,3.4-38.61-3,0,0-14.13,14.58-20.08,16.62-3.56,1.22-12.85,3-21,5a14.92,14.92,0,0,0-11.49,14.67l.12,4.52,97.49-2.61C934.22,1162.3,930.84,1148.69,926.57,1136.9Z"/><rect class="cls-5" x="835.6" y="1170.23" width="97.53" height="13.56" transform="translate(1799.93 2329.9) rotate(178.47)"/><path class="cls-5" d="M859.15,1153c4.46,5.13,6.48,8.78,6.63,17.73"/><line class="cls-5" x1="891.85" y1="1148.36" x2="883.35" y2="1139.33"/><line class="cls-5" x1="875.58" y1="1147.54" x2="882.81" y2="1154.9"/><path class="cls-6" d="M1025.16,845.51l-14.27,18.41s-1.49,25.13-1.83,28c0,0,7.92,2.35,9.34-1.91,2-6,3.8-14.68,3.8-14.68l-4.8,18.68-7,9.2,2.32,3.81,4.4-.83,3.07,2.83,11-5.31,5.31-4.82,3.65-.16,5.31-7.14,1.82-15.43-4.14-27.54Z"/><path class="cls-7" d="M855,877.28l.08,1.21,4,17s8.23,6.76,9.14,9,.38,6.27.1,6.27-10.34-1.83-12.16-2.47-6.16-5-6.16-5-6.76.55-7.29,0c-1.41-1.47-4.27-16.54-5-18.12a16.17,16.17,0,0,1,0-11c1.54-4.45,4-23.66,3.72-26.83s16.42.79,16.42.79,9.24,12.69,10.33,19.22.82,17.68.82,17.68,1.7,11.25,1.71,12.54c0,1.47-3.86,5.1-9.18,0"/><path class="cls-8" d="M888.21,707.06,875.53,664.8C848,728,831.5,787,831.83,850.23l32.3,3s9.72-89.88,29.52-106S888.21,707.06,888.21,707.06Z"/><path class="cls-8" d="M1003.29,677.7l3.81-15.37S1053.21,782.22,1052,818s-2.35,37.8-2.35,37.8l-37.58-2.6s4.49-53.22-1.76-74.54-18-53.25-18-53.25Z"/><path class="cls-8" d="M875.53,664.8s40-24.91,67.54-24.91,64,22.44,64,22.44L988.32,787s-87.12,9.38-87.09,7S875.53,664.8,875.53,664.8Z"/><path class="cls-6" d="M946.46,553.16l31.42,13.09s7.8,22.77,6.75,24.34-9.11,22.56-9.11,22.56l-12.77,2.79,3.5,32.39-23.18,21.5-26.85-15.69,17.15-90.51Z"/><path class="cls-3" d="M939.39,542.12l2.73,16.34,46.28,12.59,6,12s18.19-38.91-24.25-32.91C966.05,544.57,958.6,535.24,939.39,542.12Z"/><path class="cls-3" d="M937.94,548.46,939.39,575l-2,4.62-8-2.61-3,10,4.82,6.5-8.89,20.14s-22.05-34.45-12.53-48.41S919.54,538.28,937.94,548.46Z"/><path class="cls-3" d="M995.09,990.79s-4.16,135.17-3.84,141.35-48.31,5.86-48.31.22V995.8Z"/><path class="cls-3" d="M936.58,994.37s-8.89,134.16-8.89,140.35-46.14,1.11-46.14,1.11l7.2-138.71Z"/><path class="cls-5" d="M884.62,772.76s16-41.76,16.47-55.07.63-19.52.63-19.52l77.45.85s-4.52,49.2,13.75,76.35l15.37,235.38H875.59Z"/><polygon class="cls-8" points="943.08 669.84 935.19 652.08 916.53 636.35 916.22 654.14 943.08 669.84"/><path class="cls-8" d="M943.07,669.83s4.28-17.6,5-18.18,23-17,23-17l-1,16.47Z"/><polygon class="cls-5" points="907.41 647.81 901.72 698.17 915.17 699.49 916.53 645.9 907.41 647.81"/><polygon class="cls-5" points="970.45 642.9 978.06 647.31 979.17 699.02 966.98 698.88 970.45 642.9"/><circle cx="956.81" cy="582.71" r="3"/><line class="cls-4" x1="961.83" y1="600.61" x2="971.02" y2="600.61"/><path class="cls-4" d="M939.39,608.71a51.14,51.14,0,0,0,23.36,7.23"/><path class="cls-7" d="M936.91,581c-.3-2.53-2-4.31-4.87-5.41-3.39-.77-7.11,5.3-7.65,9.22-.3,5.53,1.73,10,7.22,12.86a2.71,2.71,0,0,0,3.06-.62"/><line class="cls-9" x1="937.43" y1="587.64" x2="937.03" y2="578.11"/><path class="cls-10" d="M965.51,592.78l4.9.42a.56.56,0,0,0,.59-.71,10.87,10.87,0,0,0-1.86-6.29"/><line class="cls-2" x1="847.8" y1="899.46" x2="849.92" y2="903.38"/><circle cx="973.66" cy="581.05" r="3"/><rect class="cls-11" x="1106.23" y="735.82" width="495" height="109"/><path class="cls-11" d="M1252.89,845c7-7,19.38-13.63,18.06-19.88H1168.62c-1.32,6.25,11.09,12.93,18.06,19.88Z"/><path class="cls-11" d="M1388.89,845c7-7,19.38-13.63,18.06-19.88H1304.62c-1.32,6.25,11.09,12.93,18.06,19.88Z"/><path class="cls-11" d="M1524.89,845c7-7,19.38-13.63,18.06-19.88H1440.62c-1.32,6.25,11.09,12.93,18.06,19.88Z"/><rect class="cls-12" x="296.23" y="845.82" width="1318" height="23"/><rect class="cls-12" x="317.23" y="868.82" width="1278" height="361"/><polygon class="cls-12" points="970.23 776.82 952.54 806.82 925.23 806.82 925.23 845.82 1069.23 845.82 1069.23 815.82 1069.23 806.82 1069.23 776.82 970.23 776.82"/><rect class="cls-12" x="997.23" y="743.82" width="72" height="18"/><rect class="cls-12" x="1029.23" y="761.82" width="10" height="15"/><path class="cls-13" d="M615.73,918.82a19.48,19.48,0,0,1-19.47-19h-216a19.49,19.49,0,0,1-19.48,19l-.5,0v252c.17,0,.33,0,.5,0a19.5,19.5,0,0,1,19.5,19.5c0,.17,0,.34,0,.5H596.26c0-.16,0-.33,0-.5a19.5,19.5,0,0,1,19.5-19.5c.17,0,.33,0,.5,0v-252Z"/><path class="cls-13" d="M924.73,918.82a19.48,19.48,0,0,1-19.47-19h-216a19.49,19.49,0,0,1-19.48,19l-.5,0v252c.17,0,.33,0,.5,0a19.5,19.5,0,0,1,19.5,19.5c0,.17,0,.34,0,.5h216c0-.16,0-.33,0-.5a19.5,19.5,0,0,1,19.5-19.5c.17,0,.33,0,.5,0v-252Z"/><path class="cls-13" d="M1233.73,918.82a19.48,19.48,0,0,1-19.47-19h-216a19.49,19.49,0,0,1-19.48,19l-.5,0v252c.17,0,.33,0,.5,0a19.5,19.5,0,0,1,19.5,19.5c0,.17,0,.34,0,.5h216c0-.16,0-.33,0-.5a19.5,19.5,0,0,1,19.5-19.5c.17,0,.33,0,.5,0v-252Z"/><path class="cls-13" d="M1542.73,918.82a19.48,19.48,0,0,1-19.47-19h-216a19.49,19.49,0,0,1-19.48,19l-.5,0v252c.17,0,.33,0,.5,0a19.5,19.5,0,0,1,19.5,19.5c0,.17,0,.34,0,.5h216c0-.16,0-.33,0-.5a19.5,19.5,0,0,1,19.5-19.5c.17,0,.33,0,.5,0v-252Z"/><rect class="cls-4" x="323.77" y="671.92" width="257.48" height="47.97" rx="23.08"/><path class="cls-4" d="M323.77,797.86H581.25a0,0,0,0,1,0,0v12.68a22.78,22.78,0,0,1-22.78,22.78H346.55a22.78,22.78,0,0,1-22.78-22.78V797.86A0,0,0,0,1,323.77,797.86Z"/><rect class="cls-4" x="336.88" y="719.89" width="231.27" height="77.97"/><path class="cls-4" d="M378.94,719.89h34.56a0,0,0,0,1,0,0v18.85a7.63,7.63,0,0,1-7.63,7.63H386.57a7.63,7.63,0,0,1-7.63-7.63V719.89A0,0,0,0,1,378.94,719.89Z"/><polygon class="cls-3" points="373 745.86 322.55 747.86 322.55 733.13 373 735.13 373 745.86"/><path class="cls-4" d="M502.09,719.89h19.29a7.63,7.63,0,0,1,7.63,7.63v18.85a0,0,0,0,1,0,0H494.46a0,0,0,0,1,0,0V727.52A7.63,7.63,0,0,1,502.09,719.89Z" transform="translate(1023.47 1466.26) rotate(-180)"/><polygon class="cls-3" points="534.95 745.86 585.4 747.86 585.4 733.13 534.95 735.13 534.95 745.86"/><rect class="cls-4" x="348.21" y="687.85" width="15.86" height="14.01"/><rect class="cls-4" x="540.96" y="687.85" width="15.86" height="14.01"/><circle cx="511.73" cy="694.86" r="4.08"/><circle cx="525.09" cy="694.86" r="4.08"/><rect x="345.7" y="833.32" width="27.72" height="10.23"/><rect x="531.61" y="833.32" width="27.72" height="10.23"/><path class="cls-11" d="M543.11,630.53h-4c-7.18,0-13-6.14-13-13.71v-8.19h30v8.19C556.11,624.39,550.28,630.53,543.11,630.53Z"/><path class="cls-4" d="M555.87,622.48c7.78,1.06,11.14-2.82,11.14-10.06h-9.55"/><path class="cls-11" d="M543.11,651.42h-4c-7.18,0-13-6.14-13-13.71v-8.18h30v8.18C556.11,645.28,550.28,651.42,543.11,651.42Z"/><path class="cls-4" d="M555.87,643.37c7.78,1.07,11.14-2.82,11.14-10h-9.55"/><path class="cls-11" d="M543.11,671.15h-4c-7.18,0-13-6.14-13-13.71v-8.19h30v8.19C556.11,665,550.28,671.15,543.11,671.15Z"/><path class="cls-4" d="M555.87,663.09C563.65,664.16,567,660.27,567,653h-9.55"/><path class="cls-11" d="M484.77,630.53h-4c-7.18,0-13-6.14-13-13.71v-8.19h30v8.19C497.77,624.39,492,630.53,484.77,630.53Z"/><path class="cls-4" d="M497.54,622.48c7.78,1.06,11.14-2.82,11.14-10.06h-9.55"/><path class="cls-11" d="M484.77,651.42h-4c-7.18,0-13-6.14-13-13.71v-8.18h30v8.18C497.77,645.28,492,651.42,484.77,651.42Z"/><path class="cls-4" d="M497.54,643.37c7.78,1.07,11.14-2.82,11.14-10h-9.55"/><path class="cls-11" d="M484.77,671.15h-4c-7.18,0-13-6.14-13-13.71v-8.19h30v8.19C497.77,665,492,671.15,484.77,671.15Z"/><path class="cls-4" d="M497.54,663.09c7.78,1.07,11.14-2.82,11.14-10.05h-9.55"/><path class="cls-11" d="M426.44,630.53h-4c-7.18,0-13-6.14-13-13.71v-8.19h30v8.19C439.44,624.39,433.62,630.53,426.44,630.53Z"/><path class="cls-4" d="M439.21,622.48c7.78,1.06,11.14-2.82,11.14-10.06H440.8"/><path class="cls-11" d="M426.44,651.42h-4c-7.18,0-13-6.14-13-13.71v-8.18h30v8.18C439.44,645.28,433.62,651.42,426.44,651.42Z"/><path class="cls-4" d="M439.21,643.37c7.78,1.07,11.14-2.82,11.14-10H440.8"/><path class="cls-11" d="M426.44,671.15h-4c-7.18,0-13-6.14-13-13.71v-8.19h30v8.19C439.44,665,433.62,671.15,426.44,671.15Z"/><path class="cls-4" d="M439.21,663.09c7.78,1.07,11.14-2.82,11.14-10.05H440.8"/><rect class="cls-4" x="1238.71" y="559.53" width="41.66" height="47.99"/><rect class="cls-4" x="1234.23" y="541.91" width="50.62" height="17.62"/><rect class="cls-4" x="1304.14" y="559.53" width="41.66" height="47.99"/><rect class="cls-4" x="1299.66" y="541.91" width="50.62" height="17.62"/></g></svg>