<svg xmlns="http://www.w3.org/2000/svg" viewBox="0 0 2000 1600"><defs><style>.cls-1,.cls-14,.cls-18,.cls-2{fill:#ecd1d9;}.cls-10,.cls-11,.cls-12,.cls-13,.cls-14,.cls-15,.cls-16,.cls-17,.cls-18,.cls-19,.cls-2,.cls-20,.cls-3,.cls-4,.cls-5,.cls-6,.cls-7,.cls-8,.cls-9{stroke:#000;}.cls-12,.cls-13,.cls-19,.cls-2,.cls-20{stroke-miterlimit:10;}.cls-10,.cls-12,.cls-13,.cls-14,.cls-15,.cls-18,.cls-19,.cls-2,.cls-21,.cls-3,.cls-4,.cls-5,.cls-6,.cls-7,.cls-8,.cls-9{stroke-width:6px;}.cls-3{fill:#fff;}.cls-10,.cls-11,.cls-12,.cls-14,.cls-16,.cls-17,.cls-21,.cls-3,.cls-5,.cls-6,.cls-7,.cls-9{stroke-linecap:round;}.cls-10,.cls-11,.cls-14,.cls-15,.cls-16,.cls-17,.cls-18,.cls-21,.cls-3,.cls-4,.cls-5,.cls-6,.cls-7,.cls-8,.cls-9{stroke-linejoin:round;}.cls-4,.cls-5{fill:#ea927b;}.cls-7{fill:#f63c18;}.cls-10,.cls-8{fill:#6de0e4;}.cls-11,.cls-12,.cls-13,.cls-20,.cls-21,.cls-9{fill:none;}.cls-11{stroke-width:5px;}.cls-16{stroke-width:5.63px;}.cls-17{stroke-width:5.92px;}.cls-20{stroke-width:14px;}.cls-21{stroke:#6de0e4;}</style></defs><g id="fondo"><rect class="cls-1" x="0.17" width="1999.33" height="1600"/></g><g id="Capa_1" data-name="Capa 1"><rect x="931.86" y="610.23" width="18.94" height="575.3"/><rect class="cls-2" x="925.78" y="638.99" width="31.1" height="37.32"/><circle class="cls-2" cx="898.2" cy="680.3" r="7.86"/><circle class="cls-2" cx="984.46" cy="680.3" r="7.86"/><line class="cls-3" x1="904.28" y1="680.3" x2="978.58" y2="680.3"/><line class="cls-3" x1="888.24" y1="609.1" x2="933.63" y2="633.84"/><line class="cls-3" x1="918.8" y1="605.81" x2="933.63" y2="633.84"/><line class="cls-3" x1="994.43" y1="609.1" x2="949.03" y2="633.84"/><line class="cls-3" x1="963.86" y1="605.81" x2="949.03" y2="633.84"/><circle class="cls-2" cx="888.24" cy="609.1" r="7.86"/><circle class="cls-2" cx="918.8" cy="605.81" r="7.86"/><circle class="cls-2" cx="963.86" cy="605.81" r="7.86"/><circle class="cls-2" cx="994.43" cy="609.1" r="7.86"/><path d="M884.52,1185.53l39.83-67.21h34l39.83,67.21h18l-42.44-79.71a13.09,13.09,0,0,0-11.85-7.51H951.13v-63.79H931.54v63.79H920.77a13.1,13.1,0,0,0-11.85,7.51l-42.44,79.71Z"/><path class="cls-4" d="M1188.29,976.76c1.22-5.26,8.54-15.28,8.56-22.24,0-2.52.06-4.87.11-6.85h-.11c0-.14.13-2.3.35-5.82h0c.84-13.38,3-46.64,4.22-66.09a84.74,84.74,0,0,1,6.87-28.41l1-2.22s-2.43-43.4-1.89-57.93c.39-10.4-1.77-21.33-.28-26.31a14.64,14.64,0,0,1,14.1-10.43l9.46,0,2.68,111.3-21.22,84c3.11,5.2,6.68,11.63,6.68,13.73,0,3.68-1.75,14.54-1.75,14.54l-.18,20.32s-7.71.53-7.88,0-3.16-18.74-3.16-18.74l-6,15.94S1187.06,982,1188.29,976.76Z"/><path class="cls-5" d="M1264.89,1201.52s.76,45.73,0,49.54c-.49,2.45,0,14.54.23,23.29a14.65,14.65,0,0,1-7.8,13.29l-12.42,6.58a11.84,11.84,0,0,1-15.17-3.6l-2.92-4.11a12.53,12.53,0,0,1-1.17-12.52l17.2-33-10.74-64.21H1267Z"/><path class="cls-6" d="M1234.68,1256.63c-.52,4.7-1.62,8.77-1.7,12a6.18,6.18,0,0,0,5.69,6.3l14.87,1.2a6.79,6.79,0,0,0,6.83-5.31l4.59-20.33a5.06,5.06,0,0,1-.07.55c-.49,2.45,0,14.55.23,23.31a14.62,14.62,0,0,1-7.78,13.26l-9.68,5.13a15.39,15.39,0,0,1-19.74-4.68l-1.11-1.57a12.53,12.53,0,0,1-1.17-12.52Z"/><path class="cls-5" d="M1296.36,1199s2.41,45.67,3.43,49.42c.66,2.41,1,14.51,1.38,23.26a14.7,14.7,0,0,0,8.72,12.72l12.83,5.69a11.83,11.83,0,0,0,14.89-4.64l2.63-4.3a12.53,12.53,0,0,0,.3-12.57l-17.5-31.9,3.34-64.59-33.83,2.35Z"/><path class="cls-6" d="M1331.21,1251.58a32.26,32.26,0,0,1,3.28,11.65,6.19,6.19,0,0,1-5.24,6.69l-16.4,2.77a6.82,6.82,0,0,1-7.18-4.82l-6-20c0,.22.08.41.11.54.7,2.55,1,16,1.46,24.75a12.34,12.34,0,0,0,7.31,10.64l11.32,5a15.38,15.38,0,0,0,19.36-6l1-1.64a12.53,12.53,0,0,0,.3-12.57Z"/><rect class="cls-7" x="1140" y="1049" width="115" height="151.08" transform="translate(2395 2249.08) rotate(180)"/><ellipse class="cls-6" cx="1241.12" cy="688.76" rx="4.76" ry="6.9"/><path class="cls-6" d="M1305,861.59s49.38,41.58,25.4,267.27l.58,84.45-39.62-2.83-27.29-204.66,5.2-144.23Z"/><path class="cls-6" d="M1282.94,985c0,3.25-13,225.45-13,225.45l-40.28,2.83s-30.54-232.83-20.14-280.25,35.63-77.32,35.63-77.32l37.79-3.25Z"/><path class="cls-4" d="M1319.87,764.08l13.77,3.07a21.93,21.93,0,0,1,17.19,21.74c-.14,8.34-.86,17.37-3.07,21.79-4.72,9.43-3.83,56.89-3.83,56.89l-18.35,11.77Z"/><path class="cls-4" d="M1333.9,852.69c9.32-13.42,27.12-43.54,27.12-43.54s1.48-17,6.49-23.23,8.55-8.25,8.55-8.25l15.54-5,18.78-9.94c2.73-2.15,4.69,2.74,2.86,6.54,2.69.66,2.42,6.53.18,8,2.29,1.37-1.46,4.83-2.35,7l-5.28,7.16-8.8,8.76-18.79,9.57s-17.16,61.76-27.34,71.19-18.43,10.91-18.43,10.91l-8.67-10.32,6.57-21.42A26.26,26.26,0,0,1,1333.9,852.69Z"/><path class="cls-5" d="M1254.92,662.59c-2.08,1-12.58,14.31-10.12,19.94l-.75,6.23-5.9,8.49,7.87,3.22-3,7.62,5.32,1.73-3,1.43c-.16,3.29-.2,8.59,6.21,8.59L1263,720.9s-3.88,21.22-2.27,21.49S1308.07,763,1308.07,763l-9.46-55.82,12.55-32.57-45.11-18.69Z"/><path class="cls-6" d="M1295,684.81s-40.81-16.4-41.89-24.36c0,0,3-14.68,45-9.67,0,0,23.13,5.51,25.33,38.56,0,0,4.16,30.84-15.67,33.78l-8.37-1-8.15-11.5Z"/><path class="cls-8" d="M1336.86,765.11,1304.7,755s-81.21-10.39-80.89-8.12,6.83,127,6.83,127h77.63S1336.21,827.48,1336.86,765.11Z"/><line class="cls-9" x1="1191" y1="1049" x2="1204.19" y2="983"/><line class="cls-9" x1="1223.79" y1="1047.06" x2="1213.87" y2="997.23"/><path class="cls-10" d="M1308.07,763c-.23-.67-4-23.71-4-23.71l-43.18-5-5.17,21.91"/><ellipse class="cls-6" cx="1258.57" cy="688.76" rx="5.45" ry="6.9"/><line class="cls-11" x1="1250.58" y1="686.43" x2="1244.33" y2="686.43"/><line class="cls-11" x1="1265.29" y1="686.43" x2="1287.07" y2="686.43"/><path class="cls-5" d="M1289.68,689.82c.71-2.52,2.7-5,6.15-4.78,5.24.51,5.86,5,5.86,9.05-.51,5.66-3.41,9.89-9.85,12a6.22,6.22,0,0,1-3.79-.22"/><path class="cls-3" d="M1280.34,713.56c-3.49,5.15-12.94,7.2-17.36,7.34"/><line class="cls-9" x1="1251.53" y1="710.59" x2="1246.48" y2="709.43"/><rect class="cls-6" x="1379.73" y="739.42" width="27.13" height="55.72" transform="translate(2692.21 1685.31) rotate(-173.59)"/><path class="cls-5" d="M1365.93,788.75,1378.54,773l19.8-4.53c.72,2,1.41,8.72-1.78,10.22,0,0-11.65,5.38-12.37,10,0,0,.74,8.45-6,10"/><path class="cls-1" d="M1264.71,980a3,3,0,0,1,3.2,2.79l10,143.31c-1,17.05-1.93,33.18-2.72,46.71a3.86,3.86,0,0,1-.09-.49L1261.92,983.2A3,3,0,0,1,1264.71,980Z"/><rect class="cls-12" x="1197.6" y="541.94" width="461.88" height="32"/><path class="cls-13" d="M1514.85,473.94H1559a22.91,22.91,0,0,1,22.91,22.91v44.09a0,0,0,0,1,0,0h-90a0,0,0,0,1,0,0V496.85A22.91,22.91,0,0,1,1514.85,473.94Z"/><path class="cls-13" d="M1518.94,495.94v-28.5a18.5,18.5,0,0,1,18.5-18.5h0a18.5,18.5,0,0,1,18.5,18.5v28.5"/><rect class="cls-13" x="1525.44" y="510.94" width="23" height="12"/><path class="cls-6" d="M1444.65,496.74a15,15,0,0,1-3.46-5.29c-2.81-7.58,5.81-11.71,12.34-13.86h-34.44c6.53,2.15,15.15,6.28,12.34,13.86a14.92,14.92,0,0,1-3.47,5.29c-18.86,19.16-14.13,44.4-14.13,44.4h45S1463.52,515.9,1444.65,496.74Z"/><path class="cls-6" d="M1452.29,448.39c-.27,1.34-20.46,62.19-20.46,62.19"/><line class="cls-6" x1="1440.72" y1="429" x2="1436.31" y2="506.54"/><line class="cls-6" x1="1419.72" y1="458.35" x2="1438.51" y2="490.42"/><path class="cls-12" d="M133.94,378.94v811h644v-811Zm32,32h580v131h-580Zm580,747h-580v-421h580Zm-580-453v-131h580v131Z"/><polygon class="cls-13" points="726.32 704.94 614.94 704.94 618.94 622.98 722.32 622.98 726.32 704.94"/><path class="cls-13" d="M670.63,582.94h0a21.42,21.42,0,0,1,21.42,21.42V623a0,0,0,0,1,0,0H649.21a0,0,0,0,1,0,0V604.36a21.42,21.42,0,0,1,21.42-21.42Z"/><line class="cls-13" x1="648.75" y1="637.88" x2="648.75" y2="622.98"/><line class="cls-12" x1="648.74" y1="654.85" x2="648.74" y2="650.92"/><line class="cls-12" x1="692.52" y1="654.85" x2="692.52" y2="650.92"/><line class="cls-13" x1="692.52" y1="637.88" x2="692.52" y2="622.98"/><rect class="cls-13" x="643.16" y="638.82" width="11.18" height="11.18"/><rect class="cls-13" x="686.93" y="638.82" width="11.18" height="11.18"/><path class="cls-13" d="M614.06,473.94h36.78A31.11,31.11,0,0,1,681.94,505v36.89a0,0,0,0,1,0,0h-99a0,0,0,0,1,0,0V505A31.11,31.11,0,0,1,614.06,473.94Z"/><line class="cls-13" x1="613.94" y1="489.94" x2="613.94" y2="473.94"/><line class="cls-12" x1="613.94" y1="504.94" x2="613.94" y2="501.44"/><rect class="cls-13" x="608.94" y="489.94" width="10" height="10"/><line class="cls-13" x1="653.94" y1="489.94" x2="653.94" y2="473.94"/><line class="cls-12" x1="653.94" y1="504.94" x2="653.94" y2="501.44"/><rect class="cls-13" x="648.94" y="489.94" width="10" height="10"/><rect class="cls-13" x="582.94" y="527.94" width="14" height="14"/><rect class="cls-13" x="667.94" y="527.94" width="14" height="14"/><path class="cls-13" d="M633.94,453.94h0a20,20,0,0,1,20,20v0a0,0,0,0,1,0,0h-40a0,0,0,0,1,0,0v0A20,20,0,0,1,633.94,453.94Z"/><rect class="cls-13" x="193.94" y="608.94" width="126" height="48"/><rect class="cls-13" x="193.94" y="656.94" width="126" height="48"/><rect class="cls-2" x="211.94" y="647.94" width="16" height="16"/><rect class="cls-2" x="280.94" y="647.94" width="16" height="16"/><rect class="cls-2" x="231.94" y="592.94" width="50" height="16"/><path class="cls-13" d="M468.86,637.94H513a22.91,22.91,0,0,1,22.91,22.91v44.09a0,0,0,0,1,0,0h-90a0,0,0,0,1,0,0V660.85A22.91,22.91,0,0,1,468.86,637.94Z"/><path class="cls-13" d="M472.94,659.94v-28.5a18.5,18.5,0,0,1,18.5-18.5h0a18.5,18.5,0,0,1,18.5,18.5v28.5"/><rect class="cls-13" x="479.44" y="674.94" width="23" height="12"/><path class="cls-14" d="M239,1124.93s-8.82,11.46-9.38,11.22S192,1124.38,192,1124.38s-5.13,8.62-5.11,17.14a28.81,28.81,0,0,0,2.17,11.14l91.78,1.44.09-5.9a3.62,3.62,0,0,0-2-3.33l-24.12-11.53,0,5.57H239.18l6.72-10.1Z"/><rect class="cls-6" x="188.97" y="1153.38" width="91.79" height="4.74" transform="matrix(-1, -0.02, 0.02, -1, 451.63, 2315.04)"/><path class="cls-15" d="M383.63,1144.38c-24.4-3.4-45.56-15.33-67.54-25.74l-.45-.24c-3.09,5.32-4.83,11.41.87,14.14,11.21,5.36,33.33,6.54,33.33,6.54s11.86,11.21,13,11.21c.8,0,17.31.51,26.55-.25a6.57,6.57,0,0,0,5.67-4.43C391.25,1145.3,387.43,1144.91,383.63,1144.38Z"/><polygon class="cls-16" points="335.88 1137.78 313.45 1132.64 314.45 1158.17 335.88 1158.17 335.88 1137.78"/><rect class="cls-17" x="360.17" y="1150.29" width="34.35" height="7.88"/><polygon class="cls-6" points="325.81 1132.07 335.88 1134.7 363.44 1118.13 352.61 1103.67 325.81 1132.07"/><path class="cls-3" d="M363.44,1146.82c1.38-6.57,5.68-12.23,11.93-17.27"/><rect class="cls-6" x="165.94" y="750.94" width="580" height="10"/><polygon class="cls-18" points="528.55 774.02 560.06 774.02 577.35 823.03 506.04 822.33 528.55 774.02"/><polyline class="cls-9" points="497.99 796.94 543.99 772.77 587.99 797.94"/><path class="cls-9" d="M552.49,754.54A8.5,8.5,0,1,0,544,763v9.73"/><path class="cls-18" d="M544,812.9,528.55,774l-47.19,25.91a21.78,21.78,0,0,0-10.78,14.45c-4.08,18.8-5.59,179.76-5.59,181.3,0,2,28,2,28,2L495,862v148.67h45c3,0,4-48,4-48Z"/><path class="cls-18" d="M544,812.9,559.43,774l47.19,25.91a21.72,21.72,0,0,1,10.78,14.45c4.08,18.8,5.59,179.76,5.59,181.3,0,2-28,2-28,2L593,862v148.67H548c-3,0-4-48-4-48Z"/><path class="cls-18" d="M539.87,802.54s-26.13,14-26.13,13.3S528.55,774,528.55,774Z"/><path class="cls-18" d="M548.74,802.54s26.13,14,26.13,13.3S560.06,774,560.06,774Z"/><polygon class="cls-18" points="574.55 774.02 606.06 774.02 623.35 823.03 552.04 822.33 574.55 774.02"/><polyline class="cls-9" points="543.99 796.94 589.99 772.77 633.99 797.94"/><path class="cls-9" d="M598.49,754.54A8.5,8.5,0,1,0,590,763v9.73"/><path class="cls-18" d="M590,812.9,574.55,774l-47.19,25.91a21.78,21.78,0,0,0-10.78,14.45c-4.08,18.8-5.59,179.76-5.59,181.3,0,2,28,2,28,2L541,862v148.67h45c3,0,4-48,4-48Z"/><path class="cls-18" d="M590,812.9,605.43,774l47.19,25.91a21.72,21.72,0,0,1,10.78,14.45c4.08,18.8,5.59,179.76,5.59,181.3,0,2-28,2-28,2L639,862v148.67H594c-3,0-4-48-4-48Z"/><path class="cls-18" d="M585.87,802.54s-26.13,14-26.13,13.3S574.55,774,574.55,774Z"/><path class="cls-18" d="M594.74,802.54s26.13,14,26.13,13.3S606.06,774,606.06,774Z"/><polygon class="cls-18" points="618.5 774.02 650.01 774.02 667.3 823.03 595.99 822.33 618.5 774.02"/><polyline class="cls-9" points="587.94 796.94 633.94 772.77 677.94 797.94"/><path class="cls-9" d="M642.44,754.54a8.5,8.5,0,1,0-8.5,8.5v9.73"/><path class="cls-18" d="M633.94,812.9,618.5,774l-47.18,25.91a21.76,21.76,0,0,0-10.79,14.45c-4.07,18.8-5.59,179.76-5.59,181.3,0,2,28,2,28,2l2-135.67v148.67h45c3,0,4-48,4-48Z"/><path class="cls-18" d="M633.94,812.9,649.38,774l47.19,25.91a21.72,21.72,0,0,1,10.78,14.45c4.08,18.8,5.59,179.76,5.59,181.3,0,2-28,2-28,2L683,862v148.67h-45c-3,0-4-48-4-48Z"/><path class="cls-18" d="M629.82,802.54s-26.12,14-26.12,13.3S618.5,774,618.5,774Z"/><path class="cls-18" d="M638.7,802.54s26.12,14,26.12,13.3S650,774,650,774Z"/><rect class="cls-19" x="166" y="411" width="580" height="18"/><rect class="cls-19" x="166" y="574" width="580" height="9"/><ellipse class="cls-13" cx="1620.1" cy="937.63" rx="117.38" ry="325.69"/><ellipse class="cls-20" cx="1620.1" cy="937.63" rx="117.38" ry="325.69"/><polyline class="cls-13" points="1752.54 943.55 1771.6 1281.94 1468.6 1281.94 1487.66 943.55"/><line class="cls-21" x1="1661.86" y1="755.94" x2="1575.29" y2="842.51"/><line class="cls-21" x1="1640.27" y1="821.44" x2="1537.44" y2="924.27"/></g></svg>