<svg xmlns="http://www.w3.org/2000/svg" viewBox="0 0 900 900"><defs><style>.cls-1{fill:#fff5e6;}.cls-2{fill:#945038;}.cls-3{fill:#5e9e8c;}.cls-4{fill:#e0a84f;}.cls-5{fill:#242424;}.cls-6{fill:#576355;}</style></defs><g id="Background"><rect class="cls-1" width="900" height="900"/></g><g id="Pixel_Life_8_colours" data-name="Pixel Life 8 colours"><polygon class="cls-2" points="330.01 651.68 330.01 666.68 315.01 666.68 315.01 736.68 295 736.68 295 791.68 325 791.68 325 736.68 345.01 736.68 345.01 666.68 360.01 666.68 360.01 651.68 330.01 651.68"/><rect class="cls-2" x="370" y="651.68" width="30" height="150"/><polygon class="cls-3" points="355 391.68 355 514.96 315 514.96 315 651.68 355 651.68 415 651.68 415 514.96 415 391.68 355 391.68"/><rect class="cls-4" x="350" y="316.68" width="45" height="75"/><polygon class="cls-5" points="495 361.68 495 411.68 415 411.68 415 441.68 495 441.68 500 441.68 520 441.68 520 361.68 495 361.68"/><rect class="cls-5" x="370" y="391.68" width="30" height="30"/><rect class="cls-5" x="435" y="336.68" width="185" height="10"/><polygon class="cls-5" points="355 391.68 310 391.68 310 451.68 280 451.68 280 541.68 315 541.68 315 514.96 355 514.96 355 391.68"/><rect class="cls-4" x="495" y="346.68" width="55" height="15"/><polygon class="cls-6" points="501.25 271.68 501.25 236.68 486.25 236.68 486.25 271.68 473.75 271.68 473.75 336.68 486.25 336.68 501.25 336.68 513.75 336.68 513.75 271.68 501.25 271.68"/><rect class="cls-6" x="350" y="331.68" width="15" height="20"/><rect class="cls-6" x="525" y="296.68" width="30" height="40"/></g></svg>