<svg xmlns="http://www.w3.org/2000/svg" viewBox="0 0 900 900"><defs><style>.cls-1{fill:#fff5e6;}.cls-2{fill:#bdaf9e;}.cls-3{fill:#5e9e8c;}.cls-4{fill:#945038;}.cls-5{fill:#ed855f;}.cls-6{fill:#576355;}.cls-7{fill:#d63335;}.cls-8{fill:#242424;}</style></defs><g id="Background"><rect class="cls-1" width="900" height="900"/></g><g id="Pixel_Life_8_colours" data-name="Pixel Life 8 colours"><rect class="cls-2" x="545" y="656.55" width="30" height="30"/><rect class="cls-2" x="530" y="626.55" width="30" height="30"/><rect class="cls-2" x="510" y="656.55" width="30" height="30"/><rect class="cls-3" x="585" y="646.55" width="30" height="40"/><rect class="cls-3" x="595" y="616.55" width="10" height="30"/><rect class="cls-3" x="590" y="606.55" width="20" height="10"/><polygon class="cls-4" points="310 581.55 280 581.55 280 656.55 265 656.55 265 731.55 250 731.55 250 786.55 280 786.55 280 731.55 295 731.55 295 656.55 310 656.55 310 796.55 340 796.55 340 581.55 310 581.55"/><rect class="cls-5" x="350" y="376.55" width="40" height="55.21"/><rect class="cls-6" x="350" y="356.55" width="50" height="20"/><polygon class="cls-7" points="415 516.55 350 516.55 350 431.55 350 411.55 280 411.55 280 431.55 260 431.55 260 581.55 280 581.55 350 581.55 350 541.55 415 541.55 415 516.55"/><rect class="cls-5" x="415" y="511.55" width="25" height="25" transform="translate(855 1048.1) rotate(180)"/><rect class="cls-2" x="490" y="761.55" width="20" height="30" transform="translate(1000 1553.1) rotate(180)"/><rect class="cls-2" x="490" y="761.55" width="20" height="30" transform="translate(-276.55 1276.55) rotate(-90)"/><rect class="cls-8" x="495" y="771.55" width="10" height="10" transform="translate(1000 1553.1) rotate(180)"/><rect class="cls-2" x="590" y="761.55" width="20" height="30"/><rect class="cls-2" x="590" y="761.55" width="20" height="30" transform="translate(-176.55 1376.55) rotate(-90)"/><rect class="cls-8" x="595" y="771.55" width="10" height="10"/><rect class="cls-8" x="460" y="646.55" width="10" height="40"/><rect class="cls-8" x="630" y="626.55" width="10" height="60"/><polygon class="cls-8" points="465 696.55 475 696.55 475 746.55 485 746.55 485 696.55 630 696.55 630 686.55 465 686.55 465 696.55"/><rect class="cls-8" x="485" y="746.55" width="130" height="10"/><polygon class="cls-8" points="640 586.55 460 586.55 460 556.55 450 556.55 450 536.55 440 536.55 440 561.55 450 561.55 450 646.55 460 646.55 460 596.55 485 596.55 485 686.55 495 686.55 495 596.55 515 596.55 515 686.55 525 686.55 525 596.55 545 596.55 545 686.55 555 686.55 555 596.55 575 596.55 575 686.55 585 686.55 585 596.55 605 596.55 605 686.55 615 686.55 615 596.55 640 596.55 640 626.55 650 626.55 650 586.55 640 586.55"/></g></svg>