<?xml version="1.0" encoding="utf-8"?>
<!-- Generator: Adobe Illustrator 25.4.1, SVG Export Plug-In . SVG Version: 6.00 Build 0)  -->
<svg version="1.1" xmlns="http://www.w3.org/2000/svg" xmlns:xlink="http://www.w3.org/1999/xlink" x="0px" y="0px"
	 viewBox="0 0 900 900" style="enable-background:new 0 0 900 900;" xml:space="preserve">
<style type="text/css">
	.st0{fill:#FFF5E6;}
	.st1{fill:#D63335;}
	.st2{fill:#5E9E8C;}
	.st3{fill:#242424;}
	.st4{fill:#ED855F;}
	.st5{fill:#945038;}
	.st6{fill:#BDAF9E;}
	.st7{fill:#576355;}
	.st8{fill:#E0A84F;}
</style>
<g id="Background">
	<rect x="950" class="st0" width="900" height="900"/>
	<rect x="-2850" class="st0" width="900" height="900"/>
	<rect x="-1900" class="st0" width="900" height="900"/>
	<rect x="-950" class="st0" width="900" height="900"/>
	<rect class="st0" width="900" height="900"/>
</g>
<g id="Pixel_Life_8_colours">
	<polygon class="st1" points="-502.5,610 -535.9,610 -554.8,610 -647.5,610 -647.5,640 -727.5,640 -727.5,745 -647.5,745 
		-634.7,745 -535.9,745 -535.9,629.2 -502.5,629.2 	"/>
	<polygon class="st2" points="-2235,776.2 -2235,586.2 -2260,586.2 -2260,776.2 -2325,776.2 -2325,796.2 -2260,796.2 -2235,796.2 
		-2170,796.2 -2170,776.2 	"/>
	<rect x="-2630" y="581.2" class="st3" width="30" height="215"/>
	<rect x="-2585" y="581.2" class="st3" width="30" height="215"/>
	<rect x="-2610" y="331.2" class="st4" width="45" height="60"/>
	<rect x="-2610" y="306.2" class="st5" width="60" height="25"/>
	<rect x="-2420" y="411.2" class="st4" width="35" height="30"/>
	<polygon class="st1" points="-2540,411.2 -2540,391.2 -2655,391.2 -2655,416.2 -2670,416.2 -2670,571.2 -2655,571.2 -2655,581.2 
		-2540,581.2 -2540,441.2 -2420,441.2 -2420,411.2 	"/>
	<rect x="-2670" y="571.2" class="st4" width="30" height="35"/>
	<rect x="-2365" y="306.2" class="st6" width="235" height="280"/>
	<rect x="-2295" y="441.2" class="st7" width="10" height="35"/>
	<rect x="-2275" y="431.2" class="st7" width="10" height="45"/>
	<rect x="-2255" y="411.2" class="st7" width="10" height="65"/>
	<rect x="-2235" y="446.2" class="st7" width="10" height="30"/>
	<rect x="-2215" y="436.2" class="st7" width="10" height="40"/>
	
		<rect x="-2252.5" y="423.7" transform="matrix(-1.836970e-16 1 -1 -1.836970e-16 -1766.3455 2733.7358)" class="st7" width="5" height="120"/>
	<rect x="-2585" y="391.2" class="st3" width="15" height="135"/>
	<rect x="-2400" y="416.2" class="st3" width="80" height="10"/>
	<polygon class="st3" points="-582.5,745 -697.5,745 -697.5,780 -682.5,780 -682.5,795 -597.5,795 -597.5,780 -582.5,780 	"/>
	<rect x="-672.5" y="745" class="st6" width="65" height="25"/>
	<polygon class="st3" points="-247.5,730 -362.5,730 -362.5,780 -347.5,780 -347.5,795 -262.5,795 -262.5,780 -247.5,780 	"/>
	<rect x="-337.5" y="730" class="st6" width="65" height="40"/>
	
		<rect x="-712.5" y="666.2" transform="matrix(-1 -1.224647e-16 1.224647e-16 -1 -1280 1411.1715)" class="st5" width="145" height="78.8"/>
	<rect x="-556.8" y="715" class="st1" width="194.3" height="30"/>
	<rect x="-567.5" y="730" class="st5" width="205" height="15"/>
	<rect x="-362.5" y="630" class="st1" width="15" height="55"/>
	<polygon class="st7" points="-572.5,395 -572.5,420 -602.5,420 -602.5,550 -572.5,550 -492.5,550 -492.5,420 -492.5,395 	"/>
	<rect x="-492.5" y="375" class="st4" width="35" height="45"/>
	<rect x="-522.5" y="475" transform="matrix(-1 1.734112e-11 -1.734112e-11 -1 -1015 995)" class="st4" width="30" height="45"/>
	
		<rect x="-522.5" y="495" transform="matrix(-1 4.324617e-11 -4.324617e-11 -1 -925 1015.0001)" class="st4" width="120" height="25"/>
	<rect x="-602.5" y="550" class="st6" width="145" height="35"/>
	<rect x="-487.5" y="566.4" class="st6" width="30" height="143.6"/>
	<rect x="-622.5" y="585" class="st3" width="130" height="25"/>
	<polygon class="st3" points="-457.5,350 -457.5,340 -507.5,340 -507.5,350 -522.5,350 -522.5,415 -472.5,415 -472.5,375 
		-447.5,375 -447.5,350 	"/>
	<rect x="-392.5" y="520" class="st1" width="15" height="50"/>
	<rect x="-377.5" y="570" class="st1" width="15" height="60"/>
	<rect x="-362.5" y="655" class="st5" width="115" height="59.4"/>
	<rect x="-352.5" y="525" class="st1" width="20" height="35"/>
	<rect x="-337.5" y="525" class="st6" width="5" height="35"/>
	<rect x="-373" y="530" class="st1" width="20.5" height="25"/>
	
		<rect x="-682.5" y="650" transform="matrix(-1 -1.224647e-16 1.224647e-16 -1 -1280 1335.2883)" class="st5" width="85" height="35.3"/>
	<rect x="-772.5" y="595" class="st5" width="125" height="15"/>
	<rect x="-762.5" y="495" class="st1" width="105" height="100"/>
	<rect x="-382.5" y="690" class="st5" width="155" height="40"/>
	<rect x="-402.5" y="495" class="st3" width="25" height="25"/>
	<rect x="-757.5" y="610" class="st6" width="15" height="15"/>
	<rect x="-742.5" y="625" class="st6" width="15" height="15"/>
	<rect x="1334.9" y="401.7" class="st3" width="30.1" height="55"/>
	<rect x="1520" y="683.4" class="st3" width="10" height="113.3"/>
	<polygon class="st1" points="1545,648.4 1540,648.4 1540,643.4 1510,643.4 1510,648.4 1505,648.4 1505,678.4 1510,678.4 
		1510,683.4 1540,683.4 1540,678.4 1545,678.4 	"/>
	<rect x="1485" y="713.4" class="st2" width="30" height="25"/>
	<rect x="1535" y="693.4" class="st2" width="30" height="30"/>
	<polygon class="st2" points="1260,391.7 1260,421.7 1235,421.7 1235,582.8 1260,582.8 1334.4,582.8 1335,582.8 1335,391.7 	"/>
	<rect x="1334.4" y="361.6" class="st4" width="45.6" height="65.1"/>
	<rect x="1355" y="341.7" class="st3" width="35" height="30"/>
	<polygon class="st5" points="1310,526.7 1310,476.7 1280,476.7 1280,526.7 1280,556.7 1310,556.7 1403.7,556.7 1403.7,526.7 	"/>
	<rect x="1375" y="526.7" class="st4" width="30" height="30"/>
	<polygon class="st3" points="1300,341.7 1300,371.7 1270,371.7 1270,456.7 1334.9,456.7 1334.9,455 1334.9,371.7 1334.9,341.7 	"/>
	<rect x="1335" y="341.7" class="st2" width="20" height="30"/>
	<rect x="1265" y="756.7" class="st1" width="25" height="40"/>
	<rect x="1300" y="756.7" class="st1" width="25" height="40"/>
	<g>
		<polygon class="st6" points="1470,496.5 1415,496.5 1415,516.7 1394.9,516.7 1394.9,526.7 1415,526.7 1415,556.7 1405,556.7 
			1405,566.7 1415,566.7 1415,586.7 1470,586.7 1470,566.4 1485,566.4 1485,551.7 1470,551.7 		"/>
		<rect x="1485" y="536.7" class="st6" width="15" height="15"/>
		<rect x="1500" y="521.7" class="st6" width="15" height="15"/>
		<rect x="1515" y="506.7" class="st6" width="15" height="15"/>
	</g>
	<rect x="1235" y="581.7" class="st2" width="100" height="175"/>
	<rect x="-1355" y="656.5" class="st6" width="30" height="30"/>
	<rect x="-1370" y="626.5" class="st6" width="30" height="30"/>
	<rect x="-1390" y="656.5" class="st6" width="30" height="30"/>
	<rect x="-1315" y="646.5" class="st2" width="30" height="40"/>
	<rect x="-1305" y="616.5" class="st2" width="10" height="30"/>
	<rect x="-1310" y="606.5" class="st2" width="20" height="10"/>
	<polygon class="st5" points="-1590,581.5 -1620,581.5 -1620,656.5 -1635,656.5 -1635,731.5 -1650,731.5 -1650,786.5 -1620,786.5 
		-1620,731.5 -1605,731.5 -1605,656.5 -1590,656.5 -1590,796.5 -1560,796.5 -1560,581.5 	"/>
	<rect x="-1550" y="376.5" class="st4" width="40" height="55.2"/>
	<rect x="-1550" y="356.5" class="st7" width="50" height="20"/>
	<polygon class="st1" points="-1485,516.5 -1550,516.5 -1550,431.5 -1550,411.5 -1620,411.5 -1620,431.5 -1640,431.5 -1640,581.5 
		-1620,581.5 -1550,581.5 -1550,541.5 -1485,541.5 	"/>
	
		<rect x="-1485" y="511.5" transform="matrix(-1 3.317823e-11 -3.317823e-11 -1 -2945 1048.0999)" class="st4" width="25" height="25"/>
	
		<rect x="-1410" y="761.5" transform="matrix(-1 3.001320e-11 -3.001320e-11 -1 -2800 1553.0999)" class="st6" width="20" height="30"/>
	
		<rect x="-1410" y="761.5" transform="matrix(-3.051331e-11 -1 1 -3.051331e-11 -2176.5498 -623.4501)" class="st6" width="20" height="30"/>
	
		<rect x="-1405" y="771.5" transform="matrix(-1 2.000876e-11 -2.000876e-11 -1 -2800 1553.0999)" class="st3" width="10" height="10"/>
	<rect x="-1310" y="761.5" class="st6" width="20" height="30"/>
	
		<rect x="-1310" y="761.5" transform="matrix(-1.450656e-11 -1 1 -1.450656e-11 -2076.5498 -523.4501)" class="st6" width="20" height="30"/>
	<rect x="-1305" y="771.5" class="st3" width="10" height="10"/>
	<rect x="-1440" y="646.5" class="st3" width="10" height="40"/>
	<rect x="-1270" y="626.5" class="st3" width="10" height="60"/>
	<polygon class="st3" points="-1435,696.5 -1425,696.5 -1425,746.5 -1415,746.5 -1415,696.5 -1270,696.5 -1270,686.5 -1435,686.5 	
		"/>
	<rect x="-1415" y="746.5" class="st3" width="130" height="10"/>
	<polygon class="st3" points="-1260,586.5 -1440,586.5 -1440,556.5 -1450,556.5 -1450,536.5 -1460,536.5 -1460,561.5 -1450,561.5 
		-1450,646.5 -1440,646.5 -1440,596.5 -1415,596.5 -1415,686.5 -1405,686.5 -1405,596.5 -1385,596.5 -1385,686.5 -1375,686.5 
		-1375,596.5 -1355,596.5 -1355,686.5 -1345,686.5 -1345,596.5 -1325,596.5 -1325,686.5 -1315,686.5 -1315,596.5 -1295,596.5 
		-1295,686.5 -1285,686.5 -1285,596.5 -1260,596.5 -1260,626.5 -1250,626.5 -1250,586.5 	"/>
	<polygon class="st5" points="330,651.7 330,666.7 315,666.7 315,736.7 295,736.7 295,791.7 325,791.7 325,736.7 345,736.7 
		345,666.7 360,666.7 360,651.7 	"/>
	<rect x="370" y="651.7" class="st5" width="30" height="150"/>
	<polygon class="st2" points="355,391.7 355,515 315,515 315,651.7 355,651.7 415,651.7 415,515 415,391.7 	"/>
	<rect x="350" y="316.7" class="st8" width="45" height="75"/>
	<polygon class="st3" points="495,361.7 495,411.7 415,411.7 415,441.7 495,441.7 500,441.7 520,441.7 520,361.7 	"/>
	<rect x="370" y="391.7" class="st3" width="30" height="30"/>
	<rect x="435" y="336.7" class="st3" width="185" height="10"/>
	<polygon class="st3" points="355,391.7 310,391.7 310,451.7 280,451.7 280,541.7 315,541.7 315,515 355,515 	"/>
	<rect x="495" y="346.7" class="st8" width="55" height="15"/>
	<polygon class="st7" points="501.2,271.7 501.2,236.7 486.2,236.7 486.2,271.7 473.7,271.7 473.7,336.7 486.2,336.7 501.2,336.7 
		513.8,336.7 513.8,271.7 	"/>
	<rect x="350" y="331.7" class="st7" width="15" height="20"/>
	<rect x="525" y="296.7" class="st7" width="30" height="40"/>
</g>
</svg>
