<svg xmlns="http://www.w3.org/2000/svg" viewBox="0 0 900 900"><defs><style>.cls-1{fill:#fff5e6;}.cls-2{fill:#242424;}.cls-3{fill:#d63335;}.cls-4{fill:#5e9e8c;}.cls-5{fill:#ed855f;}.cls-6{fill:#945038;}.cls-7{fill:#bdaf9e;}</style></defs><g id="Background"><rect class="cls-1" width="900" height="900"/></g><g id="Pixel_Life_8_colours" data-name="Pixel Life 8 colours"><rect class="cls-2" x="384.88" y="401.7" width="30.12" height="55"/><rect class="cls-2" x="570" y="683.37" width="10" height="113.33"/><polygon class="cls-3" points="595 648.37 590 648.37 590 643.37 560 643.37 560 648.37 555 648.37 555 678.37 560 678.37 560 683.37 590 683.37 590 678.37 595 678.37 595 648.37"/><rect class="cls-4" x="535" y="713.37" width="30" height="25"/><rect class="cls-4" x="585" y="693.37" width="30" height="30"/><polygon class="cls-4" points="310 391.7 310 421.7 285 421.7 285 582.77 310 582.77 384.41 582.77 385 582.77 385 391.7 310 391.7"/><rect class="cls-5" x="384.41" y="361.57" width="45.59" height="65.13"/><rect class="cls-2" x="405" y="341.7" width="35" height="30"/><polygon class="cls-6" points="360 526.7 360 476.7 330 476.7 330 526.7 330 556.7 360 556.7 453.65 556.7 453.65 526.7 360 526.7"/><rect class="cls-5" x="425" y="526.7" width="30" height="30"/><polygon class="cls-2" points="350 341.7 350 371.7 320 371.7 320 456.7 384.88 456.7 384.88 454.98 384.88 371.7 384.88 341.7 350 341.7"/><rect class="cls-4" x="385" y="341.7" width="20" height="30"/><rect class="cls-3" x="315" y="756.7" width="25" height="40"/><rect class="cls-3" x="350" y="756.7" width="25" height="40"/><polygon class="cls-7" points="520 496.5 465 496.5 465 516.7 444.86 516.7 444.86 526.7 465 526.7 465 556.7 455 556.7 455 566.7 465 566.7 465 586.7 520 586.7 520 566.4 535 566.4 535 551.7 520 551.7 520 496.5"/><rect class="cls-7" x="535" y="536.7" width="15" height="15"/><rect class="cls-7" x="550" y="521.7" width="15" height="15"/><rect class="cls-7" x="565" y="506.7" width="15" height="15"/><rect class="cls-4" x="285" y="581.7" width="100" height="175"/></g></svg>