<svg xmlns="http://www.w3.org/2000/svg" viewBox="0 0 900 900"><defs><style>.cls-1{fill:#fff5e6;}.cls-2{fill:#d63335;}.cls-3{fill:#242424;}.cls-4{fill:#bdaf9e;}.cls-5{fill:#945038;}.cls-6{fill:#576355;}.cls-7{fill:#ed855f;}</style></defs><g id="Background"><rect class="cls-1" width="900" height="900"/></g><g id="Pixel_Life_8_colours" data-name="Pixel Life 8 colours"><polygon class="cls-2" points="447.5 610 414.08 610 395.23 610 302.5 610 302.5 640 222.5 640 222.5 745 302.5 745 315.27 745 414.08 745 414.08 629.16 447.5 629.16 447.5 610"/><polygon class="cls-3" points="367.5 745 252.5 745 252.5 780 267.5 780 267.5 795 352.5 795 352.5 780 367.5 780 367.5 745"/><rect class="cls-4" x="277.5" y="745" width="65" height="25"/><polygon class="cls-3" points="702.5 730 587.5 730 587.5 780 602.5 780 602.5 795 687.5 795 687.5 780 702.5 780 702.5 730"/><rect class="cls-4" x="612.5" y="730" width="65" height="40"/><rect class="cls-5" x="237.5" y="666.17" width="145" height="78.83" transform="translate(620 1411.17) rotate(180)"/><rect class="cls-2" x="393.17" y="715" width="194.33" height="30"/><rect class="cls-5" x="382.5" y="730" width="205" height="15"/><rect class="cls-2" x="587.5" y="630" width="15" height="55"/><polygon class="cls-6" points="377.5 395 377.5 420 347.5 420 347.5 550.02 377.5 550.02 457.5 550.02 457.5 420 457.5 395 377.5 395"/><rect class="cls-7" x="457.5" y="375" width="35" height="45"/><rect class="cls-7" x="427.5" y="475" width="30" height="45" transform="translate(885 995) rotate(180)"/><rect class="cls-7" x="427.5" y="495" width="120" height="25" transform="translate(975 1015) rotate(180)"/><rect class="cls-4" x="347.5" y="550.02" width="145" height="34.98"/><rect class="cls-4" x="462.5" y="566.44" width="30" height="143.56"/><rect class="cls-3" x="327.5" y="585" width="130" height="25"/><polygon class="cls-3" points="492.5 350 492.5 340 442.5 340 442.5 350 427.5 350 427.5 415 477.5 415 477.5 375 502.5 375 502.5 350 492.5 350"/><rect class="cls-2" x="557.5" y="520" width="15" height="50"/><rect class="cls-2" x="572.5" y="570" width="15" height="60"/><rect class="cls-5" x="587.5" y="655" width="115" height="59.38"/><rect class="cls-2" x="597.5" y="525" width="20" height="35"/><rect class="cls-4" x="612.5" y="525" width="5" height="35"/><rect class="cls-2" x="577.02" y="530" width="20.48" height="25"/><rect class="cls-5" x="267.5" y="650" width="85" height="35.29" transform="translate(620 1335.29) rotate(180)"/><rect class="cls-5" x="177.5" y="595.01" width="125" height="14.99"/><rect class="cls-2" x="187.5" y="495" width="105" height="100"/><rect class="cls-5" x="567.5" y="690" width="155" height="40"/><rect class="cls-3" x="547.5" y="495" width="25" height="25"/><rect class="cls-4" x="192.5" y="610" width="15" height="15"/><rect class="cls-4" x="207.5" y="625" width="15" height="15"/></g></svg>