<svg xmlns="http://www.w3.org/2000/svg" viewBox="0 0 900 900"><defs><style>.cls-1{fill:#fff5e6;}.cls-2{fill:#5e9e8c;}.cls-3{fill:#242424;}.cls-4{fill:#ed855f;}.cls-5{fill:#945038;}.cls-6{fill:#d63335;}.cls-7{fill:#bdaf9e;}.cls-8{fill:#576355;}</style></defs><g id="Background"><rect class="cls-1" width="900" height="900"/></g><g id="Pixel_Life_8_colours" data-name="Pixel Life 8 colours"><polygon class="cls-2" points="615 776.2 615 586.2 590 586.2 590 776.2 525 776.2 525 796.2 590 796.2 615 796.2 680 796.2 680 776.2 615 776.2"/><rect class="cls-3" x="220" y="581.2" width="30" height="215"/><rect class="cls-3" x="265" y="581.2" width="30" height="215"/><rect class="cls-4" x="240" y="331.2" width="45" height="60"/><rect class="cls-5" x="240" y="306.2" width="60" height="25"/><rect class="cls-4" x="430" y="411.2" width="35" height="30"/><polygon class="cls-6" points="310 411.19 310 391.19 195 391.19 195 416.19 180 416.19 180 571.2 195 571.2 195 581.2 310 581.2 310 441.19 430 441.19 430 411.19 310 411.19"/><rect class="cls-4" x="180" y="571.2" width="29.96" height="35"/><rect class="cls-7" x="485" y="306.2" width="235" height="280"/><rect class="cls-8" x="554.96" y="441.2" width="10" height="35"/><rect class="cls-8" x="574.96" y="431.2" width="10" height="45"/><rect class="cls-8" x="594.96" y="411.2" width="10" height="65"/><rect class="cls-8" x="614.96" y="446.2" width="10" height="30"/><rect class="cls-8" x="634.96" y="436.2" width="10" height="40"/><rect class="cls-8" x="597.46" y="423.7" width="5" height="120" transform="translate(1083.65 -116.26) rotate(90)"/><rect class="cls-3" x="265" y="391.2" width="15" height="135"/><rect class="cls-3" x="450" y="416.2" width="80" height="10"/></g></svg>