<svg id="color" xmlns="http://www.w3.org/2000/svg" xmlns:xlink="http://www.w3.org/1999/xlink" viewBox="0 0 2048 1152"><defs><style>.cls-1{fill:none;}.cls-2{fill:#a6664b;}.cls-3{fill:#4f2721;}.cls-4{fill:#fff;}.cls-5{fill:#d9cfc6;}.cls-6{fill:#d88d68;}.cls-7{fill:#bea486;}.cls-8{fill:#42352a;}.cls-9{fill:url(#Nueva_muestra_de_motivo_2);}</style><pattern id="Nueva_muestra_de_motivo_2" data-name="Nueva muestra de motivo 2" width="868.57" height="809.14" patternTransform="translate(35514.74 30800.6) scale(0.51 0.51)" patternUnits="userSpaceOnUse" viewBox="0 0 868.57 809.14"><rect class="cls-1" width="868.57" height="809.14"/><rect class="cls-2" x="537.74" y="578.59" width="204" height="76"/><path class="cls-3" d="M739.74,580.59h-200v72h200v-72m4-4v80h-208v-80Z"/><rect class="cls-4" x="539.74" y="592.59" width="172" height="4"/><polygon class="cls-3" points="711.74 592.59 539.74 592.59 539.74 596.59 711.74 596.59 711.74 592.59 711.74 592.59"/><path class="cls-4" d="M709.74,650.59"/><polygon class="cls-3" points="711.74 576.59 707.74 576.59 707.74 652.59 711.74 652.59 711.74 576.59 711.74 576.59"/><rect class="cls-5" x="709.74" y="594.59" width="32" height="32"/><path class="cls-3" d="M739.74,596.59h-28v28h28v-28m4-4v36h-36v-36Z"/><rect class="cls-5" x="565.74" y="610.59" width="12" height="12"/><path class="cls-3" d="M575.74,612.59h-8v8h8v-8m4-4v16h-16v-16Z"/><rect class="cls-5" x="589.74" y="610.59" width="12" height="12"/><path class="cls-3" d="M599.74,612.59h-8v8h8v-8m4-4v16h-16v-16Z"/><rect class="cls-5" x="613.74" y="610.59" width="12" height="12"/><path class="cls-3" d="M623.74,612.59h-8v8h8v-8m4-4v16h-16v-16Z"/><rect class="cls-5" x="637.74" y="610.59" width="12" height="12"/><path class="cls-3" d="M647.74,612.59h-8v8h8v-8m4-4v16h-16v-16Z"/><rect class="cls-5" x="661.74" y="610.59" width="12" height="12"/><path class="cls-3" d="M671.74,612.59h-8v8h8v-8m4-4v16h-16v-16Z"/><circle class="cls-2" cx="565.74" cy="654.59" r="16"/><path class="cls-3" d="M565.74,640.59a14,14,0,1,0,14,14,14,14,0,0,0-14-14m0-4a18,18,0,1,1-18,18,18,18,0,0,1,18-18Z"/><circle class="cls-6" cx="565.74" cy="654.59" r="7"/><path class="cls-3" d="M565.74,649.59a5,5,0,1,0,5,5,5,5,0,0,0-5-5m0-4a9,9,0,1,1-9,9,9,9,0,0,1,9-9Z"/><circle class="cls-2" cx="673.74" cy="654.59" r="16"/><path class="cls-3" d="M673.74,640.59a14,14,0,1,0,14,14,14,14,0,0,0-14-14m0-4a18,18,0,1,1-18,18,18,18,0,0,1,18-18Z"/><circle class="cls-6" cx="673.74" cy="654.59" r="7"/><path class="cls-3" d="M673.74,649.59a5,5,0,1,0,5,5,5,5,0,0,0-5-5m0-4a9,9,0,1,1-9,9,9,9,0,0,1,9-9Z"/><polygon class="cls-7" points="846.62 779.59 846.62 719.59 875.3 719.59 887.3 747.59 910.62 747.59 910.62 779.59 846.62 779.59"/><path class="cls-3" d="M874,721.59H848.62v56h60v-28H886l-1-2.42-11-25.58m2.64-4,12,28h24v36h-68v-64Z"/><polygon class="cls-5" points="854.62 747.59 854.62 727.59 869.01 727.59 877.58 747.59 854.62 747.59"/><path class="cls-3" d="M867.69,729.59H856.62v16h17.93l-6.86-16m2.64-4,10.29,24h-28v-24Z"/><circle class="cls-2" cx="878.62" cy="779.59" r="16"/><path class="cls-3" d="M878.62,765.59a14,14,0,1,0,14,14,14,14,0,0,0-14-14m0-4a18,18,0,1,1-18,18,18,18,0,0,1,18-18Z"/><rect class="cls-2" x="722.62" y="751.59" width="124" height="28"/><path class="cls-3" d="M844.62,753.59h-120v24h120v-24m4-4v32h-128v-32Z"/><rect class="cls-6" x="718.74" y="687.59" width="127.75" height="64" rx="29.8"/><path class="cls-3" d="M816.69,689.59H748.54a27.83,27.83,0,0,0-27.8,27.8v4.4a27.83,27.83,0,0,0,27.8,27.8h68.15a27.83,27.83,0,0,0,27.8-27.8v-4.4a27.83,27.83,0,0,0-27.8-27.8m0-4a31.8,31.8,0,0,1,31.8,31.8v4.4a31.8,31.8,0,0,1-31.8,31.8H748.54a31.8,31.8,0,0,1-31.8-31.8v-4.4a31.8,31.8,0,0,1,31.8-31.8Z"/><circle class="cls-2" cx="750.62" cy="779.59" r="16"/><path class="cls-3" d="M750.62,765.59a14,14,0,1,0,14,14,14,14,0,0,0-14-14m0-4a18,18,0,1,1-18,18,18,18,0,0,1,18-18Z"/><circle class="cls-6" cx="750.62" cy="779.59" r="7"/><path class="cls-3" d="M750.62,774.59a5,5,0,1,0,5,5,5,5,0,0,0-5-5m0-4a9,9,0,1,1-9,9,9,9,0,0,1,9-9Z"/><path class="cls-4" d="M778.62,747.59"/><polygon class="cls-3" points="780.62 689.59 776.62 689.59 776.62 749.59 780.62 749.59 780.62 689.59 780.62 689.59"/><path class="cls-4" d="M802.62,747.59"/><polygon class="cls-3" points="804.62 689.59 800.62 689.59 800.62 749.59 804.62 749.59 804.62 689.59 804.62 689.59"/><rect class="cls-4" x="780.62" y="709.59" width="20" height="4"/><polygon class="cls-3" points="800.62 709.59 780.62 709.59 780.62 713.59 800.62 713.59 800.62 709.59 800.62 709.59"/><rect class="cls-4" x="780.62" y="701.59" width="20" height="4"/><polygon class="cls-3" points="800.62 701.59 780.62 701.59 780.62 705.59 800.62 705.59 800.62 701.59 800.62 701.59"/><rect class="cls-4" x="780.62" y="693.59" width="20" height="4"/><polygon class="cls-3" points="800.62 693.59 780.62 693.59 780.62 697.59 800.62 697.59 800.62 693.59 800.62 693.59"/><rect class="cls-4" x="780.62" y="717.59" width="20" height="4"/><polygon class="cls-3" points="800.62 717.59 780.62 717.59 780.62 721.59 800.62 721.59 800.62 717.59 800.62 717.59"/><rect class="cls-4" x="780.62" y="725.59" width="20" height="4"/><polygon class="cls-3" points="800.62 725.59 780.62 725.59 780.62 729.59 800.62 729.59 800.62 725.59 800.62 725.59"/><rect class="cls-4" x="780.62" y="733.59" width="20" height="4"/><polygon class="cls-3" points="800.62 733.59 780.62 733.59 780.62 737.59 800.62 737.59 800.62 733.59 800.62 733.59"/><rect class="cls-4" x="780.62" y="741.59" width="20" height="4"/><polygon class="cls-3" points="800.62 741.59 780.62 741.59 780.62 745.59 800.62 745.59 800.62 741.59 800.62 741.59"/><polygon class="cls-7" points="534.74 781.59 534.74 748.23 553.77 721.59 627.42 721.59 639.42 749.59 662.74 749.59 662.74 781.59 534.74 781.59"/><path class="cls-3" d="M626.1,723.59H554.8l-18.06,25.28v30.72h124v-28H638.1l-1-2.42-11-25.58m2.64-4,12,28h24v36h-132v-36l20-28Z"/><polygon class="cls-5" points="606.74 749.59 606.74 729.59 621.14 729.59 629.71 749.59 606.74 749.59"/><path class="cls-3" d="M619.82,731.59H608.74v16h17.93l-6.85-16m2.63-4,10.29,24h-28v-24Z"/><circle class="cls-2" cx="630.74" cy="781.59" r="16"/><path class="cls-3" d="M630.74,767.59a14,14,0,1,0,14,14,14,14,0,0,0-14-14m0-4a18,18,0,1,1-18,18,18,18,0,0,1,18-18Z"/><circle class="cls-6" cx="630.74" cy="781.59" r="7"/><path class="cls-3" d="M630.74,776.59a5,5,0,1,0,5,5,5,5,0,0,0-5-5m0-4a9,9,0,1,1-9,9,9,9,0,0,1,9-9Z"/><circle class="cls-2" cx="566.74" cy="781.59" r="16"/><path class="cls-3" d="M566.74,767.59a14,14,0,1,0,14,14,14,14,0,0,0-14-14m0-4a18,18,0,1,1-18,18,18,18,0,0,1,18-18Z"/><circle class="cls-6" cx="566.74" cy="781.59" r="7"/><path class="cls-3" d="M566.74,776.59a5,5,0,1,0,5,5,5,5,0,0,0-5-5m0-4a9,9,0,1,1-9,9,9,9,0,0,1,9-9Z"/><polygon class="cls-5" points="552.48 749.59 565.81 729.59 606.74 729.59 606.74 749.59 552.48 749.59"/><path class="cls-3" d="M604.74,731.59H566.88l-10.67,16h48.53v-16m4-4v24h-60l16-24Z"/><path class="cls-4" d="M578.74,745.59"/><polygon class="cls-3" points="580.74 727.59 576.74 727.59 576.74 747.59 580.74 747.59 580.74 727.59 580.74 727.59"/><rect class="cls-5" x="534.74" y="761.59" width="8" height="8"/><path class="cls-3" d="M540.74,763.59h-4v4h4v-4m4-4v12h-12v-12Z"/><rect class="cls-5" x="654.74" y="761.59" width="8" height="8"/><path class="cls-3" d="M660.74,763.59h-4v4h4v-4m4-4v12h-12v-12Z"/><polygon class="cls-7" points="865.39 654.59 865.39 594.59 894.07 594.59 906.07 622.59 929.39 622.59 929.39 654.59 865.39 654.59"/><path class="cls-3" d="M892.75,596.59l11,25.58,1,2.42h22.64v28h-60v-56h25.36m2.64-4h-32v64h68v-36h-24l-12-28Z"/><rect class="cls-2" x="789.39" y="558.59" width="76" height="96"/><path class="cls-3" d="M863.39,560.59v92h-72v-92h72m4-4h-80v100h80v-100Z"/><circle class="cls-2" cx="821.39" cy="654.59" r="16"/><path class="cls-3" d="M821.39,640.59a14,14,0,1,1-14,14,14,14,0,0,1,14-14m0-4a18,18,0,1,0,18,18,18,18,0,0,0-18-18Z"/><circle class="cls-6" cx="821.39" cy="654.59" r="7"/><path class="cls-3" d="M821.39,649.59a5,5,0,1,1-5,5,5,5,0,0,1,5-5m0-4a9,9,0,1,0,9,9,9,9,0,0,0-9-9Z"/><rect class="cls-2" x="103.45" y="578.59" width="204" height="76"/><path class="cls-3" d="M305.45,580.59h-200v72h200v-72m4-4v80h-208v-80Z"/><rect class="cls-4" x="105.45" y="592.59" width="172" height="4"/><polygon class="cls-3" points="277.45 592.59 105.45 592.59 105.45 596.59 277.45 596.59 277.45 592.59 277.45 592.59"/><path class="cls-4" d="M275.45,650.59"/><polygon class="cls-3" points="277.45 576.59 273.45 576.59 273.45 652.59 277.45 652.59 277.45 576.59 277.45 576.59"/><rect class="cls-5" x="275.45" y="594.59" width="32" height="32"/><path class="cls-3" d="M305.45,596.59h-28v28h28v-28m4-4v36h-36v-36Z"/><rect class="cls-5" x="131.45" y="610.59" width="12" height="12"/><path class="cls-3" d="M141.45,612.59h-8v8h8v-8m4-4v16h-16v-16Z"/><rect class="cls-5" x="155.45" y="610.59" width="12" height="12"/><path class="cls-3" d="M165.45,612.59h-8v8h8v-8m4-4v16h-16v-16Z"/><rect class="cls-5" x="179.45" y="610.59" width="12" height="12"/><path class="cls-3" d="M189.45,612.59h-8v8h8v-8m4-4v16h-16v-16Z"/><rect class="cls-5" x="203.45" y="610.59" width="12" height="12"/><path class="cls-3" d="M213.45,612.59h-8v8h8v-8m4-4v16h-16v-16Z"/><rect class="cls-5" x="227.45" y="610.59" width="12" height="12"/><path class="cls-3" d="M237.45,612.59h-8v8h8v-8m4-4v16h-16v-16Z"/><circle class="cls-2" cx="131.45" cy="654.59" r="16"/><path class="cls-3" d="M131.45,640.59a14,14,0,1,0,14,14,14,14,0,0,0-14-14m0-4a18,18,0,1,1-18,18,18,18,0,0,1,18-18Z"/><circle class="cls-6" cx="131.45" cy="654.59" r="7"/><path class="cls-3" d="M131.45,649.59a5,5,0,1,0,5,5,5,5,0,0,0-5-5m0-4a9,9,0,1,1-9,9,9,9,0,0,1,9-9Z"/><circle class="cls-2" cx="239.45" cy="654.59" r="16"/><path class="cls-3" d="M239.45,640.59a14,14,0,1,0,14,14,14,14,0,0,0-14-14m0-4a18,18,0,1,1-18,18,18,18,0,0,1,18-18Z"/><circle class="cls-6" cx="239.45" cy="654.59" r="7"/><path class="cls-3" d="M239.45,649.59a5,5,0,1,0,5,5,5,5,0,0,0-5-5m0-4a9,9,0,1,1-9,9,9,9,0,0,1,9-9Z"/><polygon class="cls-7" points="412.33 779.59 412.33 719.59 441.01 719.59 453.01 747.59 476.33 747.59 476.33 779.59 412.33 779.59"/><path class="cls-3" d="M439.69,721.59H414.33v56h60v-28H451.69l-1-2.42-11-25.58m2.64-4,12,28h24v36h-68v-64Z"/><polygon class="cls-5" points="420.33 747.59 420.33 727.59 434.72 727.59 443.3 747.59 420.33 747.59"/><path class="cls-3" d="M433.41,729.59H422.33v16h17.93l-6.85-16m2.63-4,10.29,24h-28v-24Z"/><circle class="cls-2" cx="444.33" cy="779.59" r="16"/><path class="cls-3" d="M444.33,765.59a14,14,0,1,0,14,14,14,14,0,0,0-14-14m0-4a18,18,0,1,1-18,18,18,18,0,0,1,18-18Z"/><circle class="cls-6" cx="444.33" cy="779.59" r="7"/><path class="cls-3" d="M444.33,774.59a5,5,0,1,0,5,5,5,5,0,0,0-5-5m0-4a9,9,0,1,1-9,9,9,9,0,0,1,9-9Z"/><rect class="cls-2" x="288.33" y="751.59" width="124" height="28"/><path class="cls-3" d="M410.33,753.59h-120v24h120v-24m4-4v32h-128v-32Z"/><rect class="cls-6" x="284.45" y="687.59" width="127.75" height="64" rx="29.8"/><path class="cls-3" d="M382.4,689.59H314.26a27.84,27.84,0,0,0-27.81,27.8v4.4a27.84,27.84,0,0,0,27.81,27.8H382.4a27.83,27.83,0,0,0,27.8-27.8v-4.4a27.83,27.83,0,0,0-27.8-27.8m0-4a31.8,31.8,0,0,1,31.8,31.8v4.4a31.8,31.8,0,0,1-31.8,31.8H314.26a31.81,31.81,0,0,1-31.81-31.8v-4.4a31.81,31.81,0,0,1,31.81-31.8Z"/><circle class="cls-2" cx="316.33" cy="779.59" r="16"/><path class="cls-3" d="M316.33,765.59a14,14,0,1,0,14,14,14,14,0,0,0-14-14m0-4a18,18,0,1,1-18,18,18,18,0,0,1,18-18Z"/><circle class="cls-6" cx="316.33" cy="779.59" r="7"/><path class="cls-3" d="M316.33,774.59a5,5,0,1,0,5,5,5,5,0,0,0-5-5m0-4a9,9,0,1,1-9,9,9,9,0,0,1,9-9Z"/><path class="cls-4" d="M344.33,747.59"/><polygon class="cls-3" points="346.33 689.59 342.33 689.59 342.33 749.59 346.33 749.59 346.33 689.59 346.33 689.59"/><path class="cls-4" d="M368.33,747.59"/><polygon class="cls-3" points="370.33 689.59 366.33 689.59 366.33 749.59 370.33 749.59 370.33 689.59 370.33 689.59"/><rect class="cls-4" x="346.33" y="709.59" width="20" height="4"/><polygon class="cls-3" points="366.33 709.59 346.33 709.59 346.33 713.59 366.33 713.59 366.33 709.59 366.33 709.59"/><rect class="cls-4" x="346.33" y="701.59" width="20" height="4"/><polygon class="cls-3" points="366.33 701.59 346.33 701.59 346.33 705.59 366.33 705.59 366.33 701.59 366.33 701.59"/><rect class="cls-4" x="346.33" y="693.59" width="20" height="4"/><polygon class="cls-3" points="366.33 693.59 346.33 693.59 346.33 697.59 366.33 697.59 366.33 693.59 366.33 693.59"/><rect class="cls-4" x="346.33" y="717.59" width="20" height="4"/><polygon class="cls-3" points="366.33 717.59 346.33 717.59 346.33 721.59 366.33 721.59 366.33 717.59 366.33 717.59"/><rect class="cls-4" x="346.33" y="725.59" width="20" height="4"/><polygon class="cls-3" points="366.33 725.59 346.33 725.59 346.33 729.59 366.33 729.59 366.33 725.59 366.33 725.59"/><rect class="cls-4" x="346.33" y="733.59" width="20" height="4"/><polygon class="cls-3" points="366.33 733.59 346.33 733.59 346.33 737.59 366.33 737.59 366.33 733.59 366.33 733.59"/><rect class="cls-4" x="346.33" y="741.59" width="20" height="4"/><polygon class="cls-3" points="366.33 741.59 346.33 741.59 346.33 745.59 366.33 745.59 366.33 741.59 366.33 741.59"/><polygon class="cls-7" points="100.45 781.59 100.45 748.23 119.48 721.59 193.13 721.59 205.13 749.59 228.45 749.59 228.45 781.59 100.45 781.59"/><path class="cls-3" d="M191.82,723.59H120.51l-18.06,25.28v30.72h124v-28H203.82l-1-2.42-11-25.58m2.63-4,12,28h24v36h-132v-36l20-28Z"/><polygon class="cls-5" points="172.45 749.59 172.45 729.59 186.85 729.59 195.42 749.59 172.45 749.59"/><path class="cls-3" d="M185.53,731.59H174.45v16h17.94l-6.86-16m2.64-4,10.28,24h-28v-24Z"/><circle class="cls-2" cx="196.45" cy="781.59" r="16"/><path class="cls-3" d="M196.45,767.59a14,14,0,1,0,14,14,14,14,0,0,0-14-14m0-4a18,18,0,1,1-18,18,18,18,0,0,1,18-18Z"/><circle class="cls-6" cx="196.45" cy="781.59" r="7"/><path class="cls-3" d="M196.45,776.59a5,5,0,1,0,5,5,5,5,0,0,0-5-5m0-4a9,9,0,1,1-9,9,9,9,0,0,1,9-9Z"/><circle class="cls-2" cx="132.45" cy="781.59" r="16"/><path class="cls-3" d="M132.45,767.59a14,14,0,1,0,14,14,14,14,0,0,0-14-14m0-4a18,18,0,1,1-18,18,18,18,0,0,1,18-18Z"/><circle class="cls-6" cx="132.45" cy="781.59" r="7"/><path class="cls-3" d="M132.45,776.59a5,5,0,1,0,5,5,5,5,0,0,0-5-5m0-4a9,9,0,1,1-9,9,9,9,0,0,1,9-9Z"/><polygon class="cls-5" points="118.19 749.59 131.52 729.59 172.45 729.59 172.45 749.59 118.19 749.59"/><path class="cls-3" d="M170.45,731.59H132.59l-10.66,16h48.52v-16m4-4v24h-60l16-24Z"/><path class="cls-4" d="M144.45,745.59"/><polygon class="cls-3" points="146.45 727.59 142.45 727.59 142.45 747.59 146.45 747.59 146.45 727.59 146.45 727.59"/><rect class="cls-5" x="100.45" y="761.59" width="8" height="8"/><path class="cls-3" d="M106.45,763.59h-4v4h4v-4m4-4v12h-12v-12Z"/><rect class="cls-5" x="220.45" y="761.59" width="8" height="8"/><path class="cls-3" d="M226.45,763.59h-4v4h4v-4m4-4v12h-12v-12Z"/><polygon class="cls-7" points="431.1 654.59 431.1 594.59 459.78 594.59 471.78 622.59 495.1 622.59 495.1 654.59 431.1 654.59"/><path class="cls-3" d="M458.46,596.59l11,25.58,1,2.42H493.1v28h-60v-56h25.36m2.64-4h-32v64h68v-36h-24l-12-28Z"/><polygon class="cls-5" points="439.1 622.59 439.1 602.59 453.5 602.59 462.07 622.59 439.1 622.59"/><path class="cls-3" d="M452.18,604.59l6.85,16H441.1v-16h11.08m2.64-4H437.1v24h28l-10.28-24Z"/><rect class="cls-2" x="355.1" y="558.59" width="76" height="96"/><path class="cls-3" d="M429.1,560.59v92h-72v-92h72m4-4h-80v100h80v-100Z"/><circle class="cls-2" cx="387.1" cy="654.59" r="16"/><path class="cls-3" d="M387.1,640.59a14,14,0,1,1-14,14,14,14,0,0,1,14-14m0-4a18,18,0,1,0,18,18,18,18,0,0,0-18-18Z"/><circle class="cls-6" cx="387.1" cy="654.59" r="7"/><path class="cls-3" d="M387.1,649.59a5,5,0,1,1-5,5,5,5,0,0,1,5-5m0-4a9,9,0,1,0,9,9,9,9,0,0,0-9-9Z"/><circle class="cls-2" cx="463.1" cy="654.59" r="16"/><path class="cls-3" d="M463.1,640.59a14,14,0,1,1-14,14,14,14,0,0,1,14-14m0-4a18,18,0,1,0,18,18,18,18,0,0,0-18-18Z"/><circle class="cls-6" cx="463.1" cy="654.59" r="7"/><path class="cls-3" d="M463.1,649.59a5,5,0,1,1-5,5,5,5,0,0,1,5-5m0-4a9,9,0,1,0,9,9,9,9,0,0,0-9-9Z"/><polygon class="cls-7" points="-21.96 779.59 -21.96 719.59 6.72 719.59 18.72 747.59 42.04 747.59 42.04 779.59 -21.96 779.59"/><path class="cls-3" d="M5.4,721.59H-20v56H40v-28H17.4l-1-2.42-11-25.58m2.64-4,12,28H44v36H-24v-64Z"/><polygon class="cls-5" points="-13.96 747.59 -13.96 727.59 0.44 727.59 9.01 747.59 -13.96 747.59"/><path class="cls-3" d="M-.88,729.59H-12v16H6l-6.86-16m2.64-4,10.28,24H-16v-24Z"/><circle class="cls-2" cx="10.04" cy="779.59" r="16"/><path class="cls-3" d="M10,765.59a14,14,0,1,0,14,14,14,14,0,0,0-14-14m0-4a18,18,0,1,1-18,18,18,18,0,0,1,18-18Z"/><circle class="cls-6" cx="10.04" cy="779.59" r="7"/><path class="cls-3" d="M10,774.59a5,5,0,1,0,5,5,5,5,0,0,0-5-5m0-4a9,9,0,1,1-9,9,9,9,0,0,1,9-9Z"/><polygon class="cls-7" points="-3.19 654.59 -3.19 594.59 25.5 594.59 37.5 622.59 60.81 622.59 60.81 654.59 -3.19 654.59"/><path class="cls-3" d="M24.18,596.59l11,25.58,1,2.42H58.81v28h-60v-56H24.18m2.63-4h-32v64h68v-36h-24l-12-28Z"/><polygon class="cls-5" points="4.82 622.59 4.82 602.59 19.21 602.59 27.78 622.59 4.82 622.59"/><path class="cls-3" d="M17.89,604.59l6.86,16H6.81v-16H17.89m2.64-4H2.81v24h28l-10.28-24Z"/><circle class="cls-2" cx="28.81" cy="654.59" r="16"/><path class="cls-3" d="M28.81,640.59a14,14,0,1,1-14,14,14,14,0,0,1,14-14m0-4a18,18,0,1,0,18,18,18,18,0,0,0-18-18Z"/><circle class="cls-6" cx="28.81" cy="654.59" r="7"/><path class="cls-3" d="M28.81,649.59a5,5,0,1,1-5,5,5,5,0,0,1,5-5m0-4a9,9,0,1,0,9,9,9,9,0,0,0-9-9Z"/><rect class="cls-2" x="682.5" y="308.88" width="204" height="76"/><path class="cls-3" d="M884.5,310.88h-200v72h200v-72m4-4v80h-208v-80Z"/><rect class="cls-4" x="684.5" y="322.88" width="172" height="4"/><polygon class="cls-3" points="856.5 322.88 684.5 322.88 684.5 326.88 856.5 326.88 856.5 322.88 856.5 322.88"/><path class="cls-4" d="M854.5,380.88"/><polygon class="cls-3" points="856.5 306.88 852.5 306.88 852.5 382.88 856.5 382.88 856.5 306.88 856.5 306.88"/><rect class="cls-5" x="854.5" y="324.88" width="32" height="32"/><path class="cls-3" d="M884.5,326.88h-28v28h28v-28m4-4v36h-36v-36Z"/><rect class="cls-5" x="710.5" y="340.88" width="12" height="12"/><path class="cls-3" d="M720.5,342.88h-8v8h8v-8m4-4v16h-16v-16Z"/><rect class="cls-5" x="734.5" y="340.88" width="12" height="12"/><path class="cls-3" d="M744.5,342.88h-8v8h8v-8m4-4v16h-16v-16Z"/><rect class="cls-5" x="758.5" y="340.88" width="12" height="12"/><path class="cls-3" d="M768.5,342.88h-8v8h8v-8m4-4v16h-16v-16Z"/><rect class="cls-5" x="782.5" y="340.88" width="12" height="12"/><path class="cls-3" d="M792.5,342.88h-8v8h8v-8m4-4v16h-16v-16Z"/><rect class="cls-5" x="806.5" y="340.88" width="12" height="12"/><path class="cls-3" d="M816.5,342.88h-8v8h8v-8m4-4v16h-16v-16Z"/><circle class="cls-2" cx="710.5" cy="384.88" r="16"/><path class="cls-3" d="M710.5,370.88a14,14,0,1,0,14,14,14,14,0,0,0-14-14m0-4a18,18,0,1,1-18,18,18,18,0,0,1,18-18Z"/><circle class="cls-6" cx="710.5" cy="384.88" r="7"/><path class="cls-3" d="M710.5,379.88a5,5,0,1,0,5,5,5,5,0,0,0-5-5m0-4a9,9,0,1,1-9,9,9,9,0,0,1,9-9Z"/><circle class="cls-2" cx="818.5" cy="384.88" r="16"/><path class="cls-3" d="M818.5,370.88a14,14,0,1,0,14,14,14,14,0,0,0-14-14m0-4a18,18,0,1,1-18,18,18,18,0,0,1,18-18Z"/><circle class="cls-6" cx="818.5" cy="384.88" r="7"/><path class="cls-3" d="M818.5,379.88a5,5,0,1,0,5,5,5,5,0,0,0-5-5m0-4a9,9,0,1,1-9,9,9,9,0,0,1,9-9Z"/><rect class="cls-2" x="867.38" y="481.88" width="124" height="28"/><path class="cls-3" d="M989.38,483.88h-120v24h120v-24m4-4v32h-128v-32Z"/><rect class="cls-6" x="863.5" y="417.88" width="127.75" height="64" rx="29.8"/><path class="cls-3" d="M961.45,419.88H893.31a27.84,27.84,0,0,0-27.81,27.8v4.39a27.85,27.85,0,0,0,27.81,27.81h68.14a27.84,27.84,0,0,0,27.8-27.81v-4.39a27.83,27.83,0,0,0-27.8-27.8m0-4a31.8,31.8,0,0,1,31.8,31.8v4.39a31.81,31.81,0,0,1-31.8,31.81H893.31a31.81,31.81,0,0,1-31.81-31.81v-4.39a31.8,31.8,0,0,1,31.81-31.8Z"/><polygon class="cls-7" points="679.5 511.88 679.5 478.52 698.53 451.88 772.18 451.88 784.18 479.88 807.5 479.88 807.5 511.88 679.5 511.88"/><path class="cls-3" d="M770.86,453.88h-71.3L681.5,479.16v30.72h124v-28H782.86l-1-2.43-11-25.57m2.64-4,12,28h24v36h-132v-36l20-28Z"/><polygon class="cls-5" points="751.5 479.88 751.5 459.88 765.9 459.88 774.47 479.88 751.5 479.88"/><path class="cls-3" d="M764.58,461.88H753.5v16h17.94l-6.86-16m2.64-4,10.28,24h-28v-24Z"/><circle class="cls-2" cx="775.5" cy="511.88" r="16"/><path class="cls-3" d="M775.5,497.88a14,14,0,1,0,14,14,14,14,0,0,0-14-14m0-4a18,18,0,1,1-18,18,18,18,0,0,1,18-18Z"/><circle class="cls-6" cx="775.5" cy="511.88" r="7"/><path class="cls-3" d="M775.5,506.88a5,5,0,1,0,5,5,5,5,0,0,0-5-5m0-4a9,9,0,1,1-9,9,9,9,0,0,1,9-9Z"/><circle class="cls-2" cx="711.5" cy="511.88" r="16"/><path class="cls-3" d="M711.5,497.88a14,14,0,1,0,14,14,14,14,0,0,0-14-14m0-4a18,18,0,1,1-18,18,18,18,0,0,1,18-18Z"/><circle class="cls-6" cx="711.5" cy="511.88" r="7"/><path class="cls-3" d="M711.5,506.88a5,5,0,1,0,5,5,5,5,0,0,0-5-5m0-4a9,9,0,1,1-9,9,9,9,0,0,1,9-9Z"/><polygon class="cls-5" points="697.24 479.88 710.57 459.88 751.5 459.88 751.5 479.88 697.24 479.88"/><path class="cls-3" d="M749.5,461.88H711.64l-10.66,16H749.5v-16m4-4v24h-60l16-24Z"/><path class="cls-4" d="M723.5,475.88"/><polygon class="cls-3" points="725.5 457.88 721.5 457.88 721.5 477.88 725.5 477.88 725.5 457.88 725.5 457.88"/><rect class="cls-5" x="679.5" y="491.88" width="8" height="8"/><path class="cls-3" d="M685.5,493.88h-4v4h4v-4m4-4v12h-12v-12Z"/><rect class="cls-5" x="799.5" y="491.88" width="8" height="8"/><path class="cls-3" d="M805.5,493.88h-4v4h4v-4m4-4v12h-12v-12Z"/><rect class="cls-2" x="248.22" y="308.88" width="204" height="76"/><path class="cls-3" d="M450.22,310.88h-200v72h200v-72m4-4v80h-208v-80Z"/><rect class="cls-4" x="250.22" y="322.88" width="172" height="4"/><polygon class="cls-3" points="422.22 322.88 250.22 322.88 250.22 326.88 422.22 326.88 422.22 322.88 422.22 322.88"/><path class="cls-4" d="M420.22,380.88"/><polygon class="cls-3" points="422.22 306.88 418.22 306.88 418.22 382.88 422.22 382.88 422.22 306.88 422.22 306.88"/><rect class="cls-5" x="420.22" y="324.88" width="32" height="32"/><path class="cls-3" d="M450.22,326.88h-28v28h28v-28m4-4v36h-36v-36Z"/><rect class="cls-5" x="276.22" y="340.88" width="12" height="12"/><path class="cls-3" d="M286.22,342.88h-8v8h8v-8m4-4v16h-16v-16Z"/><rect class="cls-5" x="300.22" y="340.88" width="12" height="12"/><path class="cls-3" d="M310.22,342.88h-8v8h8v-8m4-4v16h-16v-16Z"/><rect class="cls-5" x="324.22" y="340.88" width="12" height="12"/><path class="cls-3" d="M334.22,342.88h-8v8h8v-8m4-4v16h-16v-16Z"/><rect class="cls-5" x="348.22" y="340.88" width="12" height="12"/><path class="cls-3" d="M358.22,342.88h-8v8h8v-8m4-4v16h-16v-16Z"/><rect class="cls-5" x="372.22" y="340.88" width="12" height="12"/><path class="cls-3" d="M382.22,342.88h-8v8h8v-8m4-4v16h-16v-16Z"/><circle class="cls-2" cx="276.22" cy="384.88" r="16"/><path class="cls-3" d="M276.22,370.88a14,14,0,1,0,14,14,14,14,0,0,0-14-14m0-4a18,18,0,1,1-18,18,18,18,0,0,1,18-18Z"/><circle class="cls-6" cx="276.22" cy="384.88" r="7"/><path class="cls-3" d="M276.22,379.88a5,5,0,1,0,5,5,5,5,0,0,0-5-5m0-4a9,9,0,1,1-9,9,9,9,0,0,1,9-9Z"/><circle class="cls-2" cx="384.22" cy="384.88" r="16"/><path class="cls-3" d="M384.22,370.88a14,14,0,1,0,14,14,14,14,0,0,0-14-14m0-4a18,18,0,1,1-18,18,18,18,0,0,1,18-18Z"/><circle class="cls-6" cx="384.22" cy="384.88" r="7"/><path class="cls-3" d="M384.22,379.88a5,5,0,1,0,5,5,5,5,0,0,0-5-5m0-4a9,9,0,1,1-9,9,9,9,0,0,1,9-9Z"/><polygon class="cls-7" points="557.09 509.88 557.09 449.88 585.77 449.88 597.77 477.88 621.09 477.88 621.09 509.88 557.09 509.88"/><path class="cls-3" d="M584.45,451.88H559.09v56h60v-28H596.45l-1-2.43-11-25.57m2.64-4,12,28h24v36h-68v-64Z"/><polygon class="cls-5" points="565.09 477.88 565.09 457.88 579.49 457.88 588.06 477.88 565.09 477.88"/><path class="cls-3" d="M578.17,459.88H567.09v16H585l-6.85-16m2.64-4,10.28,24h-28v-24Z"/><circle class="cls-2" cx="589.09" cy="509.88" r="16"/><path class="cls-3" d="M589.09,495.88a14,14,0,1,0,14,14,14,14,0,0,0-14-14m0-4a18,18,0,1,1-18,18,18,18,0,0,1,18-18Z"/><circle class="cls-6" cx="589.09" cy="509.88" r="7"/><path class="cls-3" d="M589.09,504.88a5,5,0,1,0,5,5,5,5,0,0,0-5-5m0-4a9,9,0,1,1-9,9,9,9,0,0,1,9-9Z"/><rect class="cls-2" x="433.09" y="481.88" width="124" height="28"/><path class="cls-3" d="M555.09,483.88h-120v24h120v-24m4-4v32h-128v-32Z"/><rect class="cls-6" x="429.22" y="417.88" width="127.75" height="64" rx="29.8"/><path class="cls-3" d="M527.16,419.88H459a27.83,27.83,0,0,0-27.8,27.8v4.39A27.84,27.84,0,0,0,459,479.88h68.14A27.85,27.85,0,0,0,555,452.07v-4.39a27.84,27.84,0,0,0-27.81-27.8m0-4A31.8,31.8,0,0,1,559,447.68v4.39a31.81,31.81,0,0,1-31.81,31.81H459a31.81,31.81,0,0,1-31.8-31.81v-4.39a31.8,31.8,0,0,1,31.8-31.8Z"/><circle class="cls-2" cx="461.09" cy="509.88" r="16"/><path class="cls-3" d="M461.09,495.88a14,14,0,1,0,14,14,14,14,0,0,0-14-14m0-4a18,18,0,1,1-18,18,18,18,0,0,1,18-18Z"/><circle class="cls-6" cx="461.09" cy="509.88" r="7"/><path class="cls-3" d="M461.09,504.88a5,5,0,1,0,5,5,5,5,0,0,0-5-5m0-4a9,9,0,1,1-9,9,9,9,0,0,1,9-9Z"/><path class="cls-4" d="M489.09,477.88"/><polygon class="cls-3" points="491.09 419.88 487.09 419.88 487.09 479.88 491.09 479.88 491.09 419.88 491.09 419.88"/><path class="cls-4" d="M513.09,477.88"/><polygon class="cls-3" points="515.09 419.88 511.09 419.88 511.09 479.88 515.09 479.88 515.09 419.88 515.09 419.88"/><rect class="cls-4" x="491.09" y="439.88" width="20" height="4"/><polygon class="cls-3" points="511.09 439.88 491.09 439.88 491.09 443.88 511.09 443.88 511.09 439.88 511.09 439.88"/><rect class="cls-4" x="491.09" y="431.88" width="20" height="4"/><polygon class="cls-3" points="511.09 431.88 491.09 431.88 491.09 435.88 511.09 435.88 511.09 431.88 511.09 431.88"/><rect class="cls-4" x="491.09" y="423.88" width="20" height="4"/><polygon class="cls-3" points="511.09 423.88 491.09 423.88 491.09 427.88 511.09 427.88 511.09 423.88 511.09 423.88"/><rect class="cls-4" x="491.09" y="447.88" width="20" height="4"/><polygon class="cls-3" points="511.09 447.88 491.09 447.88 491.09 451.88 511.09 451.88 511.09 447.88 511.09 447.88"/><rect class="cls-4" x="491.09" y="455.88" width="20" height="4"/><polygon class="cls-3" points="511.09 455.88 491.09 455.88 491.09 459.88 511.09 459.88 511.09 455.88 511.09 455.88"/><rect class="cls-4" x="491.09" y="463.88" width="20" height="4"/><polygon class="cls-3" points="511.09 463.88 491.09 463.88 491.09 467.88 511.09 467.88 511.09 463.88 511.09 463.88"/><rect class="cls-4" x="491.09" y="471.88" width="20" height="4"/><polygon class="cls-3" points="511.09 471.88 491.09 471.88 491.09 475.88 511.09 475.88 511.09 471.88 511.09 471.88"/><polygon class="cls-7" points="245.22 511.88 245.22 478.52 264.25 451.88 337.9 451.88 349.9 479.88 373.22 479.88 373.22 511.88 245.22 511.88"/><path class="cls-3" d="M336.58,453.88H265.27l-18,25.28v30.72h124v-28H348.58l-1-2.43-11-25.57m2.64-4,12,28h24v36h-132v-36l20-28Z"/><polygon class="cls-5" points="317.22 479.88 317.22 459.88 331.61 459.88 340.18 479.88 317.22 479.88"/><path class="cls-3" d="M330.29,461.88H319.22v16h17.93l-6.86-16m2.64-4,10.29,24h-28v-24Z"/><circle class="cls-2" cx="341.22" cy="511.88" r="16"/><path class="cls-3" d="M341.22,497.88a14,14,0,1,0,14,14,14,14,0,0,0-14-14m0-4a18,18,0,1,1-18,18,18,18,0,0,1,18-18Z"/><circle class="cls-6" cx="341.22" cy="511.88" r="7"/><path class="cls-3" d="M341.22,506.88a5,5,0,1,0,5,5,5,5,0,0,0-5-5m0-4a9,9,0,1,1-9,9,9,9,0,0,1,9-9Z"/><circle class="cls-2" cx="277.22" cy="511.88" r="16"/><path class="cls-3" d="M277.22,497.88a14,14,0,1,0,14,14,14,14,0,0,0-14-14m0-4a18,18,0,1,1-18,18,18,18,0,0,1,18-18Z"/><circle class="cls-6" cx="277.22" cy="511.88" r="7"/><path class="cls-3" d="M277.22,506.88a5,5,0,1,0,5,5,5,5,0,0,0-5-5m0-4a9,9,0,1,1-9,9,9,9,0,0,1,9-9Z"/><polygon class="cls-5" points="262.95 479.88 276.29 459.88 317.22 459.88 317.22 479.88 262.95 479.88"/><path class="cls-3" d="M315.22,461.88H277.36l-10.67,16h48.53v-16m4-4v24h-60l16-24Z"/><path class="cls-4" d="M289.22,475.88"/><polygon class="cls-3" points="291.22 457.88 287.22 457.88 287.22 477.88 291.22 477.88 291.22 457.88 291.22 457.88"/><rect class="cls-5" x="245.22" y="491.88" width="8" height="8"/><path class="cls-3" d="M251.22,493.88h-4v4h4v-4m4-4v12h-12v-12Z"/><rect class="cls-5" x="365.22" y="491.88" width="8" height="8"/><path class="cls-3" d="M371.22,493.88h-4v4h4v-4m4-4v12h-12v-12Z"/><polygon class="cls-7" points="575.86 384.88 575.86 324.88 604.54 324.88 616.54 352.88 639.86 352.88 639.86 384.88 575.86 384.88"/><path class="cls-3" d="M603.23,326.88l11,25.57,1,2.43h22.63v28h-60v-56h25.37m2.63-4h-32v64h68v-36h-24l-12-28Z"/><polygon class="cls-5" points="583.86 352.88 583.86 332.88 598.26 332.88 606.83 352.88 583.86 352.88"/><path class="cls-3" d="M596.94,334.88l6.86,16H585.86v-16h11.08m2.64-4H581.86v24h28l-10.28-24Z"/><rect class="cls-2" x="499.86" y="288.88" width="76" height="96"/><path class="cls-3" d="M573.86,290.88v92h-72v-92h72m4-4h-80v100h80v-100Z"/><circle class="cls-2" cx="531.86" cy="384.88" r="16"/><path class="cls-3" d="M531.86,370.88a14,14,0,1,1-14,14,14,14,0,0,1,14-14m0-4a18,18,0,1,0,18,18,18,18,0,0,0-18-18Z"/><circle class="cls-6" cx="531.86" cy="384.88" r="7"/><path class="cls-3" d="M531.86,379.88a5,5,0,1,1-5,5,5,5,0,0,1,5-5m0-4a9,9,0,1,0,9,9,9,9,0,0,0-9-9Z"/><circle class="cls-2" cx="607.86" cy="384.88" r="16"/><path class="cls-3" d="M607.86,370.88a14,14,0,1,1-14,14,14,14,0,0,1,14-14m0-4a18,18,0,1,0,18,18,18,18,0,0,0-18-18Z"/><circle class="cls-6" cx="607.86" cy="384.88" r="7"/><path class="cls-3" d="M607.86,379.88a5,5,0,1,1-5,5,5,5,0,0,1,5-5m0-4a9,9,0,1,0,9,9,9,9,0,0,0-9-9Z"/><rect class="cls-2" x="-186.07" y="308.88" width="204" height="76"/><path class="cls-3" d="M15.93,310.88h-200v72h200v-72m4-4v80h-208v-80Z"/><rect class="cls-5" x="-14.07" y="324.88" width="32" height="32"/><path class="cls-3" d="M15.93,326.88h-28v28h28v-28m4-4v36h-36v-36Z"/><polygon class="cls-7" points="122.8 509.88 122.8 449.88 151.49 449.88 163.49 477.88 186.8 477.88 186.8 509.88 122.8 509.88"/><path class="cls-3" d="M150.17,451.88H124.8v56h60v-28H162.17l-1-2.43-11-25.57m2.63-4,12,28h24v36h-68v-64Z"/><polygon class="cls-5" points="130.8 477.88 130.8 457.88 145.2 457.88 153.77 477.88 130.8 477.88"/><path class="cls-3" d="M143.88,459.88H132.8v16h17.94l-6.86-16m2.64-4,10.28,24h-28v-24Z"/><circle class="cls-2" cx="154.8" cy="509.88" r="16"/><path class="cls-3" d="M154.8,495.88a14,14,0,1,0,14,14,14,14,0,0,0-14-14m0-4a18,18,0,1,1-18,18,18,18,0,0,1,18-18Z"/><circle class="cls-6" cx="154.8" cy="509.88" r="7"/><path class="cls-3" d="M154.8,504.88a5,5,0,1,0,5,5,5,5,0,0,0-5-5m0-4a9,9,0,1,1-9,9,9,9,0,0,1,9-9Z"/><rect class="cls-2" x="-1.2" y="481.88" width="124" height="28"/><path class="cls-3" d="M120.8,483.88H.8v24h120v-24m4-4v32H-3.2v-32Z"/><rect class="cls-6" x="-5.07" y="417.88" width="127.75" height="64" rx="29.8"/><path class="cls-3" d="M92.88,419.88H24.73a27.83,27.83,0,0,0-27.8,27.8v4.39a27.84,27.84,0,0,0,27.8,27.81H92.88a27.84,27.84,0,0,0,27.8-27.81v-4.39a27.83,27.83,0,0,0-27.8-27.8m0-4a31.8,31.8,0,0,1,31.8,31.8v4.39a31.81,31.81,0,0,1-31.8,31.81H24.73a31.81,31.81,0,0,1-31.8-31.81v-4.39a31.8,31.8,0,0,1,31.8-31.8Z"/><circle class="cls-2" cx="26.8" cy="509.88" r="16"/><path class="cls-3" d="M26.8,495.88a14,14,0,1,0,14,14,14,14,0,0,0-14-14m0-4a18,18,0,1,1-18,18,18,18,0,0,1,18-18Z"/><circle class="cls-6" cx="26.8" cy="509.88" r="7"/><path class="cls-3" d="M26.8,504.88a5,5,0,1,0,5,5,5,5,0,0,0-5-5m0-4a9,9,0,1,1-9,9,9,9,0,0,1,9-9Z"/><path class="cls-4" d="M54.8,477.88"/><polygon class="cls-3" points="56.8 419.88 52.8 419.88 52.8 479.88 56.8 479.88 56.8 419.88 56.8 419.88"/><path class="cls-4" d="M78.8,477.88"/><polygon class="cls-3" points="80.8 419.88 76.8 419.88 76.8 479.88 80.8 479.88 80.8 419.88 80.8 419.88"/><rect class="cls-4" x="56.8" y="439.88" width="20" height="4"/><polygon class="cls-3" points="76.8 439.88 56.8 439.88 56.8 443.88 76.8 443.88 76.8 439.88 76.8 439.88"/><rect class="cls-4" x="56.8" y="431.88" width="20" height="4"/><polygon class="cls-3" points="76.8 431.88 56.8 431.88 56.8 435.88 76.8 435.88 76.8 431.88 76.8 431.88"/><rect class="cls-4" x="56.8" y="423.88" width="20" height="4"/><polygon class="cls-3" points="76.8 423.88 56.8 423.88 56.8 427.88 76.8 427.88 76.8 423.88 76.8 423.88"/><rect class="cls-4" x="56.8" y="447.88" width="20" height="4"/><polygon class="cls-3" points="76.8 447.88 56.8 447.88 56.8 451.88 76.8 451.88 76.8 447.88 76.8 447.88"/><rect class="cls-4" x="56.8" y="455.88" width="20" height="4"/><polygon class="cls-3" points="76.8 455.88 56.8 455.88 56.8 459.88 76.8 459.88 76.8 455.88 76.8 455.88"/><rect class="cls-4" x="56.8" y="463.88" width="20" height="4"/><polygon class="cls-3" points="76.8 463.88 56.8 463.88 56.8 467.88 76.8 467.88 76.8 463.88 76.8 463.88"/><rect class="cls-4" x="56.8" y="471.88" width="20" height="4"/><polygon class="cls-3" points="76.8 471.88 56.8 471.88 56.8 475.88 76.8 475.88 76.8 471.88 76.8 471.88"/><polygon class="cls-7" points="141.58 384.88 141.58 324.88 170.26 324.88 182.26 352.88 205.58 352.88 205.58 384.88 141.58 384.88"/><path class="cls-3" d="M168.94,326.88l11,25.57,1,2.43h22.64v28h-60v-56h25.36m2.64-4h-32v64h68v-36h-24l-12-28Z"/><polygon class="cls-5" points="149.58 352.88 149.58 332.88 163.97 332.88 172.54 352.88 149.58 352.88"/><path class="cls-3" d="M162.65,334.88l6.86,16H151.58v-16h11.07m2.64-4H147.58v24h28l-10.29-24Z"/><rect class="cls-2" x="65.58" y="288.88" width="76" height="96"/><path class="cls-3" d="M139.58,290.88v92h-72v-92h72m4-4h-80v100h80v-100Z"/><circle class="cls-2" cx="97.58" cy="384.88" r="16"/><path class="cls-3" d="M97.58,370.88a14,14,0,1,1-14,14,14,14,0,0,1,14-14m0-4a18,18,0,1,0,18,18,18,18,0,0,0-18-18Z"/><circle class="cls-6" cx="97.58" cy="384.88" r="7"/><path class="cls-3" d="M97.58,379.88a5,5,0,1,1-5,5,5,5,0,0,1,5-5m0-4a9,9,0,1,0,9,9,9,9,0,0,0-9-9Z"/><circle class="cls-2" cx="173.58" cy="384.88" r="16"/><path class="cls-3" d="M173.58,370.88a14,14,0,1,1-14,14,14,14,0,0,1,14-14m0-4a18,18,0,1,0,18,18,18,18,0,0,0-18-18Z"/><circle class="cls-6" cx="173.58" cy="384.88" r="7"/><path class="cls-3" d="M173.58,379.88a5,5,0,1,1-5,5,5,5,0,0,1,5-5m0-4a9,9,0,1,0,9,9,9,9,0,0,0-9-9Z"/><rect class="cls-2" x="827.26" y="39.16" width="204" height="76"/><path class="cls-3" d="M1029.26,41.16h-200v72h200v-72m4-4v80h-208v-80Z"/><rect class="cls-4" x="829.26" y="53.16" width="172" height="4"/><polygon class="cls-3" points="1001.26 53.16 829.26 53.16 829.26 57.16 1001.26 57.16 1001.26 53.16 1001.26 53.16"/><rect class="cls-5" x="855.26" y="71.16" width="12" height="12"/><path class="cls-3" d="M865.26,73.16h-8v8h8v-8m4-4v16h-16v-16Z"/><circle class="cls-2" cx="855.26" cy="115.16" r="16"/><path class="cls-3" d="M855.26,101.16a14,14,0,1,0,14,14,14,14,0,0,0-14-14m0-4a18,18,0,1,1-18,18,18,18,0,0,1,18-18Z"/><circle class="cls-6" cx="855.26" cy="115.16" r="7"/><path class="cls-3" d="M855.26,110.16a5,5,0,1,0,5,5,5,5,0,0,0-5-5m0-4a9,9,0,1,1-9,9,9,9,0,0,1,9-9Z"/><polygon class="cls-7" points="824.26 242.16 824.26 208.8 843.29 182.16 916.95 182.16 928.95 210.16 952.26 210.16 952.26 242.16 824.26 242.16"/><path class="cls-3" d="M915.63,184.16H844.32l-18.06,25.28v30.72h124v-28H927.63l-1-2.42-11-25.58m2.63-4,12,28h24v36h-132v-36l20-28Z"/><circle class="cls-2" cx="856.26" cy="242.16" r="16"/><path class="cls-3" d="M856.26,228.16a14,14,0,1,0,14,14,14,14,0,0,0-14-14m0-4a18,18,0,1,1-18,18,18,18,0,0,1,18-18Z"/><circle class="cls-6" cx="856.26" cy="242.16" r="7"/><path class="cls-3" d="M856.26,237.16a5,5,0,1,0,5,5,5,5,0,0,0-5-5m0-4a9,9,0,1,1-9,9,9,9,0,0,1,9-9Z"/><polygon class="cls-5" points="842 210.16 855.34 190.16 896.26 190.16 896.26 210.16 842 210.16"/><path class="cls-3" d="M894.26,192.16H856.41l-10.67,16h48.52v-16m4-4v24h-60l16-24Z"/><path class="cls-4" d="M868.26,206.16"/><polygon class="cls-3" points="870.26 188.16 866.26 188.16 866.26 208.16 870.26 208.16 870.26 188.16 870.26 188.16"/><rect class="cls-5" x="824.26" y="222.16" width="8" height="8"/><path class="cls-3" d="M830.26,224.16h-4v4h4v-4m4-4v12h-12v-12Z"/><rect class="cls-2" x="392.98" y="39.16" width="204" height="76"/><path class="cls-3" d="M595,41.16H395v72H595v-72m4-4v80H391v-80Z"/><rect class="cls-4" x="394.98" y="53.16" width="172" height="4"/><polygon class="cls-3" points="566.98 53.16 394.98 53.16 394.98 57.16 566.98 57.16 566.98 53.16 566.98 53.16"/><path class="cls-4" d="M565,111.16"/><polygon class="cls-3" points="566.98 37.16 562.98 37.16 562.98 113.16 566.98 113.16 566.98 37.16 566.98 37.16"/><rect class="cls-5" x="564.98" y="55.16" width="32" height="32"/><path class="cls-3" d="M595,57.16H567v28h28v-28m4-4v36H563v-36Z"/><rect class="cls-5" x="420.98" y="71.16" width="12" height="12"/><path class="cls-3" d="M431,73.16h-8v8h8v-8m4-4v16H419v-16Z"/><rect class="cls-5" x="444.98" y="71.16" width="12" height="12"/><path class="cls-3" d="M455,73.16h-8v8h8v-8m4-4v16H443v-16Z"/><rect class="cls-5" x="468.98" y="71.16" width="12" height="12"/><path class="cls-3" d="M479,73.16h-8v8h8v-8m4-4v16H467v-16Z"/><rect class="cls-5" x="492.98" y="71.16" width="12" height="12"/><path class="cls-3" d="M503,73.16h-8v8h8v-8m4-4v16H491v-16Z"/><rect class="cls-5" x="516.98" y="71.16" width="12" height="12"/><path class="cls-3" d="M527,73.16h-8v8h8v-8m4-4v16H515v-16Z"/><circle class="cls-2" cx="420.98" cy="115.16" r="16"/><path class="cls-3" d="M421,101.16a14,14,0,1,0,14,14,14,14,0,0,0-14-14m0-4a18,18,0,1,1-18,18,18,18,0,0,1,18-18Z"/><circle class="cls-6" cx="420.98" cy="115.16" r="7"/><path class="cls-3" d="M421,110.16a5,5,0,1,0,5,5,5,5,0,0,0-5-5m0-4a9,9,0,1,1-9,9,9,9,0,0,1,9-9Z"/><circle class="cls-2" cx="528.98" cy="115.16" r="16"/><path class="cls-3" d="M529,101.16a14,14,0,1,0,14,14,14,14,0,0,0-14-14m0-4a18,18,0,1,1-18,18,18,18,0,0,1,18-18Z"/><circle class="cls-6" cx="528.98" cy="115.16" r="7"/><path class="cls-3" d="M529,110.16a5,5,0,1,0,5,5,5,5,0,0,0-5-5m0-4a9,9,0,1,1-9,9,9,9,0,0,1,9-9Z"/><polygon class="cls-7" points="701.85 240.16 701.85 180.16 730.53 180.16 742.53 208.16 765.85 208.16 765.85 240.16 701.85 240.16"/><path class="cls-3" d="M729.22,182.16H703.85v56h60v-28H741.22l-1-2.42-11-25.58m2.63-4,12,28h24v36h-68v-64Z"/><polygon class="cls-5" points="709.85 208.16 709.85 188.16 724.25 188.16 732.82 208.16 709.85 208.16"/><path class="cls-3" d="M722.93,190.16H711.85v16h17.94l-6.86-16m2.64-4,10.28,24h-28v-24Z"/><circle class="cls-2" cx="733.85" cy="240.16" r="16"/><path class="cls-3" d="M733.85,226.16a14,14,0,1,0,14,14,14,14,0,0,0-14-14m0-4a18,18,0,1,1-18,18,18,18,0,0,1,18-18Z"/><circle class="cls-6" cx="733.85" cy="240.16" r="7"/><path class="cls-3" d="M733.85,235.16a5,5,0,1,0,5,5,5,5,0,0,0-5-5m0-4a9,9,0,1,1-9,9,9,9,0,0,1,9-9Z"/><rect class="cls-2" x="577.85" y="212.16" width="124" height="28"/><path class="cls-3" d="M699.85,214.16h-120v24h120v-24m4-4v32h-128v-32Z"/><rect class="cls-6" x="573.98" y="148.16" width="127.75" height="64" rx="29.8"/><path class="cls-3" d="M671.92,150.16H603.78A27.83,27.83,0,0,0,576,178v4.4a27.83,27.83,0,0,0,27.8,27.8h68.14a27.83,27.83,0,0,0,27.81-27.8V178a27.83,27.83,0,0,0-27.81-27.8m0-4A31.81,31.81,0,0,1,703.73,178v4.4a31.81,31.81,0,0,1-31.81,31.8H603.78a31.8,31.8,0,0,1-31.8-31.8V178a31.8,31.8,0,0,1,31.8-31.8Z"/><circle class="cls-2" cx="605.85" cy="240.16" r="16"/><path class="cls-3" d="M605.85,226.16a14,14,0,1,0,14,14,14,14,0,0,0-14-14m0-4a18,18,0,1,1-18,18,18,18,0,0,1,18-18Z"/><circle class="cls-6" cx="605.85" cy="240.16" r="7"/><path class="cls-3" d="M605.85,235.16a5,5,0,1,0,5,5,5,5,0,0,0-5-5m0-4a9,9,0,1,1-9,9,9,9,0,0,1,9-9Z"/><path class="cls-4" d="M633.85,208.16"/><polygon class="cls-3" points="635.85 150.16 631.85 150.16 631.85 210.16 635.85 210.16 635.85 150.16 635.85 150.16"/><path class="cls-4" d="M657.85,208.16"/><polygon class="cls-3" points="659.85 150.16 655.85 150.16 655.85 210.16 659.85 210.16 659.85 150.16 659.85 150.16"/><rect class="cls-4" x="635.85" y="170.16" width="20" height="4"/><polygon class="cls-3" points="655.85 170.16 635.85 170.16 635.85 174.16 655.85 174.16 655.85 170.16 655.85 170.16"/><rect class="cls-4" x="635.85" y="162.16" width="20" height="4"/><polygon class="cls-3" points="655.85 162.16 635.85 162.16 635.85 166.16 655.85 166.16 655.85 162.16 655.85 162.16"/><rect class="cls-4" x="635.85" y="154.16" width="20" height="4"/><polygon class="cls-3" points="655.85 154.16 635.85 154.16 635.85 158.16 655.85 158.16 655.85 154.16 655.85 154.16"/><rect class="cls-4" x="635.85" y="178.16" width="20" height="4"/><polygon class="cls-3" points="655.85 178.16 635.85 178.16 635.85 182.16 655.85 182.16 655.85 178.16 655.85 178.16"/><rect class="cls-4" x="635.85" y="186.16" width="20" height="4"/><polygon class="cls-3" points="655.85 186.16 635.85 186.16 635.85 190.16 655.85 190.16 655.85 186.16 655.85 186.16"/><rect class="cls-4" x="635.85" y="194.16" width="20" height="4"/><polygon class="cls-3" points="655.85 194.16 635.85 194.16 635.85 198.16 655.85 198.16 655.85 194.16 655.85 194.16"/><rect class="cls-4" x="635.85" y="202.16" width="20" height="4"/><polygon class="cls-3" points="655.85 202.16 635.85 202.16 635.85 206.16 655.85 206.16 655.85 202.16 655.85 202.16"/><polygon class="cls-7" points="389.98 242.16 389.98 208.8 409.01 182.16 482.66 182.16 494.66 210.16 517.98 210.16 517.98 242.16 389.98 242.16"/><path class="cls-3" d="M481.34,184.16H410L392,209.44v30.72H516v-28H493.34l-1-2.42-11-25.58m2.64-4,12,28h24v36H388v-36l20-28Z"/><polygon class="cls-5" points="461.98 210.16 461.98 190.16 476.37 190.16 484.94 210.16 461.98 210.16"/><path class="cls-3" d="M475.05,192.16H464v16h17.93l-6.86-16m2.64-4,10.29,24H460v-24Z"/><circle class="cls-2" cx="485.98" cy="242.16" r="16"/><path class="cls-3" d="M486,228.16a14,14,0,1,0,14,14,14,14,0,0,0-14-14m0-4a18,18,0,1,1-18,18,18,18,0,0,1,18-18Z"/><circle class="cls-6" cx="485.98" cy="242.16" r="7"/><path class="cls-3" d="M486,237.16a5,5,0,1,0,5,5,5,5,0,0,0-5-5m0-4a9,9,0,1,1-9,9,9,9,0,0,1,9-9Z"/><circle class="cls-2" cx="421.98" cy="242.16" r="16"/><path class="cls-3" d="M422,228.16a14,14,0,1,0,14,14,14,14,0,0,0-14-14m0-4a18,18,0,1,1-18,18,18,18,0,0,1,18-18Z"/><circle class="cls-6" cx="421.98" cy="242.16" r="7"/><path class="cls-3" d="M422,237.16a5,5,0,1,0,5,5,5,5,0,0,0-5-5m0-4a9,9,0,1,1-9,9,9,9,0,0,1,9-9Z"/><polygon class="cls-5" points="407.71 210.16 421.05 190.16 461.98 190.16 461.98 210.16 407.71 210.16"/><path class="cls-3" d="M460,192.16H422.12l-10.67,16H460v-16m4-4v24H404l16-24Z"/><path class="cls-4" d="M434,206.16"/><polygon class="cls-3" points="435.98 188.16 431.98 188.16 431.98 208.16 435.98 208.16 435.98 188.16 435.98 188.16"/><rect class="cls-5" x="389.98" y="222.16" width="8" height="8"/><path class="cls-3" d="M396,224.16h-4v4h4v-4m4-4v12H388v-12Z"/><rect class="cls-5" x="509.98" y="222.16" width="8" height="8"/><path class="cls-3" d="M516,224.16h-4v4h4v-4m4-4v12H508v-12Z"/><polygon class="cls-7" points="720.63 115.16 720.63 55.16 749.31 55.16 761.31 83.16 784.63 83.16 784.63 115.16 720.63 115.16"/><path class="cls-3" d="M748,57.16l11,25.58,1,2.42h22.64v28h-60v-56H748m2.64-4h-32v64h68v-36h-24l-12-28Z"/><polygon class="cls-5" points="728.63 83.16 728.63 63.16 743.02 63.16 751.59 83.16 728.63 83.16"/><path class="cls-3" d="M741.7,65.16l6.86,16H730.63v-16H741.7m2.64-4H726.63v24h28l-10.29-24Z"/><rect class="cls-2" x="644.63" y="19.16" width="76" height="96"/><path class="cls-3" d="M718.63,21.16v92h-72v-92h72m4-4h-80v100h80v-100Z"/><circle class="cls-2" cx="676.63" cy="115.16" r="16"/><path class="cls-3" d="M676.63,101.16a14,14,0,1,1-14,14,14,14,0,0,1,14-14m0-4a18,18,0,1,0,18,18,18,18,0,0,0-18-18Z"/><circle class="cls-6" cx="676.63" cy="115.16" r="7"/><path class="cls-3" d="M676.63,110.16a5,5,0,1,1-5,5,5,5,0,0,1,5-5m0-4a9,9,0,1,0,9,9,9,9,0,0,0-9-9Z"/><circle class="cls-2" cx="752.63" cy="115.16" r="16"/><path class="cls-3" d="M752.63,101.16a14,14,0,1,1-14,14,14,14,0,0,1,14-14m0-4a18,18,0,1,0,18,18,18,18,0,0,0-18-18Z"/><circle class="cls-6" cx="752.63" cy="115.16" r="7"/><path class="cls-3" d="M752.63,110.16a5,5,0,1,1-5,5,5,5,0,0,1,5-5m0-4a9,9,0,1,0,9,9,9,9,0,0,0-9-9Z"/><rect class="cls-2" x="-41.31" y="39.16" width="204" height="76"/><path class="cls-3" d="M160.69,41.16h-200v72h200v-72m4-4v80h-208v-80Z"/><rect class="cls-4" x="-39.31" y="53.16" width="172" height="4"/><polygon class="cls-3" points="132.69 53.16 -39.31 53.16 -39.31 57.16 132.69 57.16 132.69 53.16 132.69 53.16"/><path class="cls-4" d="M130.69,111.16"/><polygon class="cls-3" points="132.69 37.16 128.69 37.16 128.69 113.16 132.69 113.16 132.69 37.16 132.69 37.16"/><rect class="cls-5" x="130.69" y="55.16" width="32" height="32"/><path class="cls-3" d="M160.69,57.16h-28v28h28v-28m4-4v36h-36v-36Z"/><path class="cls-3" d="M-3.31,73.16h-8v8h8v-8m4-4v16h-16v-16Z"/><rect class="cls-5" x="10.69" y="71.16" width="12" height="12"/><path class="cls-3" d="M20.69,73.16h-8v8h8v-8m4-4v16h-16v-16Z"/><rect class="cls-5" x="34.69" y="71.16" width="12" height="12"/><path class="cls-3" d="M44.69,73.16h-8v8h8v-8m4-4v16h-16v-16Z"/><rect class="cls-5" x="58.69" y="71.16" width="12" height="12"/><path class="cls-3" d="M68.69,73.16h-8v8h8v-8m4-4v16h-16v-16Z"/><rect class="cls-5" x="82.69" y="71.16" width="12" height="12"/><path class="cls-3" d="M92.69,73.16h-8v8h8v-8m4-4v16h-16v-16Z"/><circle class="cls-2" cx="-13.31" cy="115.16" r="16"/><path class="cls-3" d="M-13.31,101.16a14,14,0,0,0-14,14,14,14,0,0,0,14,14,14,14,0,0,0,14-14,14,14,0,0,0-14-14m0-4a18,18,0,0,1,18,18,18,18,0,0,1-18,18,18,18,0,0,1-18-18,18,18,0,0,1,18-18Z"/><circle class="cls-2" cx="94.69" cy="115.16" r="16"/><path class="cls-3" d="M94.69,101.16a14,14,0,1,0,14,14,14,14,0,0,0-14-14m0-4a18,18,0,1,1-18,18,18,18,0,0,1,18-18Z"/><circle class="cls-6" cx="94.69" cy="115.16" r="7"/><path class="cls-3" d="M94.69,110.16a5,5,0,1,0,5,5,5,5,0,0,0-5-5m0-4a9,9,0,1,1-9,9,9,9,0,0,1,9-9Z"/><polygon class="cls-7" points="267.57 240.16 267.57 180.16 296.25 180.16 308.25 208.16 331.57 208.16 331.57 240.16 267.57 240.16"/><path class="cls-3" d="M294.93,182.16H269.57v56h60v-28H306.93l-1-2.42-11-25.58m2.64-4,12,28h24v36h-68v-64Z"/><polygon class="cls-5" points="275.57 208.16 275.57 188.16 289.96 188.16 298.53 208.16 275.57 208.16"/><path class="cls-3" d="M288.64,190.16H277.57v16H295.5l-6.86-16m2.64-4,10.29,24h-28v-24Z"/><circle class="cls-2" cx="299.57" cy="240.16" r="16"/><path class="cls-3" d="M299.57,226.16a14,14,0,1,0,14,14,14,14,0,0,0-14-14m0-4a18,18,0,1,1-18,18,18,18,0,0,1,18-18Z"/><circle class="cls-6" cx="299.57" cy="240.16" r="7"/><path class="cls-3" d="M299.57,235.16a5,5,0,1,0,5,5,5,5,0,0,0-5-5m0-4a9,9,0,1,1-9,9,9,9,0,0,1,9-9Z"/><rect class="cls-2" x="143.57" y="212.16" width="124" height="28"/><path class="cls-3" d="M265.57,214.16h-120v24h120v-24m4-4v32h-128v-32Z"/><rect class="cls-6" x="139.69" y="148.16" width="127.75" height="64" rx="29.8"/><path class="cls-3" d="M237.64,150.16H169.5A27.83,27.83,0,0,0,141.69,178v4.4a27.83,27.83,0,0,0,27.81,27.8h68.14a27.83,27.83,0,0,0,27.8-27.8V178a27.83,27.83,0,0,0-27.8-27.8m0-4a31.8,31.8,0,0,1,31.8,31.8v4.4a31.8,31.8,0,0,1-31.8,31.8H169.5a31.81,31.81,0,0,1-31.81-31.8V178a31.81,31.81,0,0,1,31.81-31.8Z"/><circle class="cls-2" cx="171.57" cy="240.16" r="16"/><path class="cls-3" d="M171.57,226.16a14,14,0,1,0,14,14,14,14,0,0,0-14-14m0-4a18,18,0,1,1-18,18,18,18,0,0,1,18-18Z"/><circle class="cls-6" cx="171.57" cy="240.16" r="7"/><path class="cls-3" d="M171.57,235.16a5,5,0,1,0,5,5,5,5,0,0,0-5-5m0-4a9,9,0,1,1-9,9,9,9,0,0,1,9-9Z"/><path class="cls-4" d="M199.57,208.16"/><polygon class="cls-3" points="201.57 150.16 197.57 150.16 197.57 210.16 201.57 210.16 201.57 150.16 201.57 150.16"/><path class="cls-4" d="M223.57,208.16"/><polygon class="cls-3" points="225.57 150.16 221.57 150.16 221.57 210.16 225.57 210.16 225.57 150.16 225.57 150.16"/><rect class="cls-4" x="201.57" y="170.16" width="20" height="4"/><polygon class="cls-3" points="221.57 170.16 201.57 170.16 201.57 174.16 221.57 174.16 221.57 170.16 221.57 170.16"/><rect class="cls-4" x="201.57" y="162.16" width="20" height="4"/><polygon class="cls-3" points="221.57 162.16 201.57 162.16 201.57 166.16 221.57 166.16 221.57 162.16 221.57 162.16"/><rect class="cls-4" x="201.57" y="154.16" width="20" height="4"/><polygon class="cls-3" points="221.57 154.16 201.57 154.16 201.57 158.16 221.57 158.16 221.57 154.16 221.57 154.16"/><rect class="cls-4" x="201.57" y="178.16" width="20" height="4"/><polygon class="cls-3" points="221.57 178.16 201.57 178.16 201.57 182.16 221.57 182.16 221.57 178.16 221.57 178.16"/><rect class="cls-4" x="201.57" y="186.16" width="20" height="4"/><polygon class="cls-3" points="221.57 186.16 201.57 186.16 201.57 190.16 221.57 190.16 221.57 186.16 221.57 186.16"/><rect class="cls-4" x="201.57" y="194.16" width="20" height="4"/><polygon class="cls-3" points="221.57 194.16 201.57 194.16 201.57 198.16 221.57 198.16 221.57 194.16 221.57 194.16"/><rect class="cls-4" x="201.57" y="202.16" width="20" height="4"/><polygon class="cls-3" points="221.57 202.16 201.57 202.16 201.57 206.16 221.57 206.16 221.57 202.16 221.57 202.16"/><polygon class="cls-7" points="-44.31 242.16 -44.31 208.8 -25.28 182.16 48.37 182.16 60.37 210.16 83.69 210.16 83.69 242.16 -44.31 242.16"/><path class="cls-3" d="M47.05,184.16h-71.3l-18.06,25.28v30.72h124v-28H59.05l-1-2.42-11-25.58m2.64-4,12,28h24v36h-132v-36l20-28Z"/><polygon class="cls-5" points="27.69 210.16 27.69 190.16 42.09 190.16 50.66 210.16 27.69 210.16"/><path class="cls-3" d="M40.77,192.16H29.69v16H47.63l-6.86-16m2.64-4,10.28,24h-28v-24Z"/><circle class="cls-2" cx="51.69" cy="242.16" r="16"/><path class="cls-3" d="M51.69,228.16a14,14,0,1,0,14,14,14,14,0,0,0-14-14m0-4a18,18,0,1,1-18,18,18,18,0,0,1,18-18Z"/><circle class="cls-6" cx="51.69" cy="242.16" r="7"/><path class="cls-3" d="M51.69,237.16a5,5,0,1,0,5,5,5,5,0,0,0-5-5m0-4a9,9,0,1,1-9,9,9,9,0,0,1,9-9Z"/><circle class="cls-2" cx="-12.31" cy="242.16" r="16"/><path class="cls-3" d="M-12.31,228.16a14,14,0,0,0-14,14,14,14,0,0,0,14,14,14,14,0,0,0,14-14,14,14,0,0,0-14-14m0-4a18,18,0,0,1,18,18,18,18,0,0,1-18,18,18,18,0,0,1-18-18,18,18,0,0,1,18-18Z"/><polygon class="cls-5" points="-26.57 210.16 -13.24 190.16 27.69 190.16 27.69 210.16 -26.57 210.16"/><path class="cls-3" d="M25.69,192.16H-12.17l-10.66,16H25.69v-16m4-4v24h-60l16-24Z"/><polygon class="cls-3" points="1.69 188.16 -2.31 188.16 -2.31 208.16 1.69 208.16 1.69 188.16 1.69 188.16"/><rect class="cls-5" x="75.69" y="222.16" width="8" height="8"/><path class="cls-3" d="M81.69,224.16h-4v4h4v-4m4-4v12h-12v-12Z"/><polygon class="cls-7" points="286.34 115.16 286.34 55.16 315.02 55.16 327.02 83.16 350.34 83.16 350.34 115.16 286.34 115.16"/><path class="cls-3" d="M313.7,57.16l11,25.58,1,2.42h22.64v28h-60v-56H313.7m2.64-4h-32v64h68v-36h-24l-12-28Z"/><polygon class="cls-5" points="294.34 83.16 294.34 63.16 308.73 63.16 317.31 83.16 294.34 83.16"/><path class="cls-3" d="M307.42,65.16l6.85,16H296.34v-16h11.08m2.63-4H292.34v24h28l-10.29-24Z"/><rect class="cls-2" x="210.34" y="19.16" width="76" height="96"/><path class="cls-3" d="M284.34,21.16v92h-72v-92h72m4-4h-80v100h80v-100Z"/><circle class="cls-2" cx="242.34" cy="115.16" r="16"/><path class="cls-3" d="M242.34,101.16a14,14,0,1,1-14,14,14,14,0,0,1,14-14m0-4a18,18,0,1,0,18,18,18,18,0,0,0-18-18Z"/><circle class="cls-6" cx="242.34" cy="115.16" r="7"/><path class="cls-3" d="M242.34,110.16a5,5,0,1,1-5,5,5,5,0,0,1,5-5m0-4a9,9,0,1,0,9,9,9,9,0,0,0-9-9Z"/><circle class="cls-2" cx="318.34" cy="115.16" r="16"/><path class="cls-3" d="M318.34,101.16a14,14,0,1,1-14,14,14,14,0,0,1,14-14m0-4a18,18,0,1,0,18,18,18,18,0,0,0-18-18Z"/><circle class="cls-6" cx="318.34" cy="115.16" r="7"/><path class="cls-3" d="M318.34,110.16a5,5,0,1,1-5,5,5,5,0,0,1,5-5m0-4a9,9,0,1,0,9,9,9,9,0,0,0-9-9Z"/></pattern></defs><rect class="cls-8" width="2048" height="1152"/><rect class="cls-9" width="2048" height="1152"/></svg>