<svg xmlns="http://www.w3.org/2000/svg" viewBox="0 0 841.89 595.28"><defs><style>.cls-1{fill:#8c8a85;}.cls-2,.cls-3{fill:none;stroke:#8c8a85;stroke-miterlimit:10;}.cls-2{stroke-width:0.8px;}.cls-3{stroke-width:0.4px;}</style></defs><g id="Background"><rect class="cls-1" width="841.89" height="595.28"/></g><g id="Device_Silhouette_" data-name="Device Silhouette
"><path d="M723.7,498.42l-.2.09c-.2.11-21.14,10.14-68.45,10.14H186.84c-47.31,0-68.25-10-68.45-10.14l-.2-.09v-4.1H173c-.05-.5-.09-1-.09-1.5V176.06a15.79,15.79,0,0,1,15.77-15.77H653.18A15.79,15.79,0,0,1,669,176.06V492.82c0,.5,0,1-.08,1.5H723.7Z"/></g><g id="Device_Outline" data-name="Device Outline"><path class="cls-2" d="M173.39,494.63a15.44,15.44,0,0,1-.1-1.81V176.06a15.42,15.42,0,0,1,15.42-15.42H653.18a15.42,15.42,0,0,1,15.42,15.42V492.82a16.3,16.3,0,0,1-.11,1.86"/><path class="cls-2" d="M175.39,494.65a13,13,0,0,1-.09-1.54V175.78a13.16,13.16,0,0,1,13.16-13.16h465a13.16,13.16,0,0,1,13.16,13.16V493.11a13.6,13.6,0,0,1-.09,1.56"/><circle class="cls-2" cx="421.41" cy="172.3" r="3.69"/><circle class="cls-2" cx="421.41" cy="172.3" r="2.34"/><rect class="cls-3" x="185.96" y="182.38" width="469.97" height="293.28"/><line class="cls-2" x1="175.3" y1="483.02" x2="666.61" y2="483.02"/><line class="cls-2" x1="472.77" y1="498.2" x2="723.35" y2="498.2"/><line class="cls-2" x1="118.54" y1="498.2" x2="368.82" y2="498.2"/><path class="cls-2" d="M494.49,494.67H723.35v3.53s-20.52,10.1-68.3,10.1H186.84c-47.78,0-68.3-10.1-68.3-10.1v-3.53H458.63"/><path class="cls-2" d="M472.77,494.67v3.53s-1.4,2.21-13.12,2.21H381.94c-11.72,0-13.12-2.21-13.12-2.21v-3.53"/></g><g id="Sampe_Design" data-name="Sampe Design"><path class="cls-1" d="M206.52,244.37h8.1c4.5,0,7.56,2.41,7.56,6.55a5.88,5.88,0,0,1-2.45,5.15v.15c2.06,1,3.39,2.77,3.39,6.08,0,4.61-3.1,7.27-8,7.27h-8.57Zm7.63,9.72a2.38,2.38,0,0,0,0-4.75h-2v4.75Zm0,10.48c2.42,0,3.21-1.3,3.21-2.81,0-1.26-.76-2.77-3.21-2.77h-2v5.58Z"/><path class="cls-1" d="M244.25,269.21v.36h-6.19l-.94-4.79h-5.9l-.94,4.79h-5.9v-.36l6.3-24.84h7.23Zm-8.14-9.4-1.87-9.43h-.14l-1.87,9.43Z"/><path class="cls-1" d="M245.33,260.93h5.72c.25,2.88,1.08,4,2.74,4a2.39,2.39,0,0,0,2.55-2.59c0-1.37-.5-2.09-2-2.74L251,258.05c-2-.9-4.86-2-4.86-6.77,0-4.24,3.16-7.23,7.66-7.23,5,0,7.85,3.38,7.89,8.21H256c-.11-1.8-.61-3.17-2.23-3.17-1.37,0-1.8,1.15-1.8,2.19s.11,1.7,1.76,2.45l3.42,1.59c2.06.93,5,2.08,5,6.83,0,4.5-2.59,7.74-8.35,7.74C247.78,269.89,245.65,266.37,245.33,260.93Z"/><path class="cls-1" d="M265.49,244.37h14v5h-8.38v4.65h7.27v5h-7.27v5.47h8.38v5h-14Z"/><path class="cls-1" d="M283.48,244.37h6.91c7.17,0,10.52,5,10.52,12.6,0,7-3,12.6-10.52,12.6h-6.91Zm6.59,20.2c3.64,0,5.08-2.34,5.08-7.6s-1.44-7.56-5.08-7.56h-1.3v15.16Z"/><path class="cls-1" d="M349.64,257.19l-6.22,6.73v-6.19H313.87v-1.12h29.55v-6.12Z"/><path class="cls-1" d="M364,244.37h5.69v25.2H364Z"/><path class="cls-1" d="M374.77,244.37h6.66l5.69,15.16h.14V244.37h5.62v25.2h-6.7l-5.69-15.08h-.14v15.08h-5.58Z"/><path class="cls-1" d="M408,244.37h8.1c4.49,0,7.55,2.41,7.55,6.55a5.87,5.87,0,0,1-2.44,5.15v.15c2.05,1,3.38,2.77,3.38,6.08,0,4.61-3.1,7.27-8,7.27H408Zm7.63,9.72a2.38,2.38,0,0,0,0-4.75h-2v4.75Zm0,10.48c2.41,0,3.2-1.3,3.2-2.81,0-1.26-.76-2.77-3.2-2.77h-2v5.58Z"/><path class="cls-1" d="M445.65,269.21v.36H439l-3.63-8.86h-1.73v8.86H428v-25.2h8.93c4.42,0,7.59,3.64,7.59,8.1a8.08,8.08,0,0,1-3.42,7.06Zm-12-13.53h2.52c1.69,0,2.59-.69,2.59-3.21,0-1.94-1-3.09-2.59-3.09h-2.52Z"/><path class="cls-1" d="M447.09,257c0-7.23,2.73-12.92,9.79-12.92s9.79,5.69,9.79,12.92-2.77,12.92-9.79,12.92S447.09,264.17,447.09,257Zm13.82,0c0-5.07-.94-7.81-4-7.81s-4,2.74-4,7.81.93,7.81,4,7.81S460.91,262.05,460.91,257Z"/><path class="cls-1" d="M468.83,257c0-7.23,2.73-12.92,9.79-12.92s9.79,5.69,9.79,12.92-2.77,12.92-9.79,12.92S468.83,264.17,468.83,257Zm13.82,0c0-5.07-.93-7.81-4-7.81s-4,2.74-4,7.81.93,7.81,4,7.81S482.65,262.05,482.65,257Z"/><path class="cls-1" d="M509.86,269.21v.36h-6.69l-5.51-9.29v9.29H492v-25.2h5.65v8.39l5.15-8.39h6.62v.36l-7.81,11.59Z"/><path class="cls-1" d="M512.74,244.37h5.65v20.16h7.49v5H512.74Z"/><path class="cls-1" d="M528.8,259.78l-7.24-15v-.36H528l3.6,9.15h.14l3.46-9.15h6.44v.36l-7.16,15v9.86H528.8Z"/><path class="cls-1" d="M544.53,244.37h6.66l5.69,15.16H557V244.37h5.61v25.2h-6.69l-5.69-15.08h-.14v15.08h-5.58Z"/><path class="cls-1" d="M603,240.74l-20.88,20.87,4.36,4.4-9.14-.36L577,256.5l4.32,4.32L602.23,240Z"/><path class="cls-1" d="M206.52,274.37h6.66l5.69,15.16H219V274.37h5.62v25.2h-6.7l-5.68-15.08h-.15v15.08h-5.58Z"/><path class="cls-1" d="M229.67,274.37h14v5h-8.39v4.65h7.27v5h-7.27v5.47h8.39v5h-14Z"/><path class="cls-1" d="M245.51,274.73v-.36h6.08l1.91,17h.14l3.31-17h6.27l3.38,17h.14l1.88-17h6v.36l-4.32,24.84H263l-2.81-15.95h-.14l-2.92,15.95h-7.3Z"/><path class="cls-1" d="M292.66,289.78l-7.23-15v-.36h6.44l3.6,9.15h.14l3.46-9.15h6.44v.36l-7.16,15v9.86h-5.69Z"/><path class="cls-1" d="M305.15,287c0-7.23,2.74-12.92,9.79-12.92s9.79,5.69,9.79,12.92-2.77,12.92-9.79,12.92S305.15,294.17,305.15,287ZM319,287c0-5.07-.94-7.81-4-7.81s-4,2.74-4,7.81.94,7.81,4,7.81S319,292.05,319,287Z"/><path class="cls-1" d="M346,299.21v.36h-6.62l-3.64-8.86H334v8.86h-5.65v-25.2h8.93c4.43,0,7.6,3.64,7.6,8.1a8.1,8.1,0,0,1-3.42,7.06Zm-12-13.53h2.52c1.7,0,2.6-.69,2.6-3.21,0-1.94-1-3.09-2.6-3.09H334Z"/><path class="cls-1" d="M366.7,299.21v.36H360l-5.51-9.29v9.29h-5.65v-25.2h5.65v8.39l5.15-8.39h6.62v.36l-7.81,11.59Z"/><path class="cls-1" d="M368.22,304.39l.75-9.61h5.73v.36l-2.6,9.61h-3.88Z"/><path class="cls-1" d="M387.87,289.6V274.37h5.65v15.16c0,2.8.33,5.32,3,5.32s3.05-2.52,3.05-5.32V274.37h5.69V289.6q0,10.31-8.74,10.29C390.82,299.89,387.87,296.47,387.87,289.6Z"/><path class="cls-1" d="M410,274.37h5.65v20.16h7.49v5H410Z"/><path class="cls-1" d="M426,274.37h6.19l5.29,11.2h.15l5.29-11.2H449v25.2h-5.47V283.48h-.15l-5.72,11.91h-.36l-5.73-12h-.14v16.2H426Z"/><path class="cls-1" d="M454.07,274.37h14v5h-8.38v4.65H467v5h-7.27v5.47h8.38v5h-14Z"/><path class="cls-1" d="M489.7,299.21v.36h-6.62l-3.64-8.86h-1.72v8.86h-5.66v-25.2H481c4.43,0,7.6,3.64,7.6,8.1a8.08,8.08,0,0,1-3.42,7.06Zm-12-13.53h2.52c1.69,0,2.59-.69,2.59-3.21,0-1.94-1-3.09-2.59-3.09h-2.52Z"/><path class="cls-1" d="M206.52,304.37h5.69v25.2h-5.69Z"/><path class="cls-1" d="M215.45,320.93h5.72c.26,2.88,1.08,4,2.74,4a2.39,2.39,0,0,0,2.55-2.59c0-1.37-.5-2.09-2-2.74l-3.34-1.51c-2-.9-4.86-2-4.86-6.77,0-4.24,3.17-7.23,7.66-7.23,5,0,7.85,3.38,7.89,8.21H226.1c-.1-1.8-.61-3.17-2.23-3.17-1.36,0-1.8,1.15-1.8,2.19s.11,1.7,1.77,2.45l3.42,1.59c2.05.93,5,2.08,5,6.83,0,4.5-2.59,7.74-8.35,7.74C217.9,329.89,215.77,326.37,215.45,320.93Z"/><path class="cls-1" d="M263.4,329.21v.36h-6.19l-.94-4.79h-5.9l-.94,4.79h-5.9v-.36l6.3-24.84h7.23Zm-8.14-9.4-1.87-9.43h-.14l-1.88,9.43Z"/><path class="cls-1" d="M311.42,317.19l-6.23,6.73v-6.19H275.64v-1.12h29.55v-6.12Z"/><path class="cls-1" d="M343.45,316v2.85c0,6.73-3.06,11.08-9,11.08-7.38,0-10-5.72-10-12.88s2.66-13,10-13c6.15,0,8.35,4.14,8.89,9.11h-5.54c-.22-2.06-1.26-4-3.42-4-2.81,0-4.22,2.77-4.22,7.85s1.41,7.81,4.29,7.81c2.12,0,3.31-1.62,3.53-4.18h-4.14V316Z"/><path class="cls-1" d="M364.69,329.21v.36h-6.62l-3.64-8.86H352.7v8.86h-5.65v-25.2H356c4.43,0,7.6,3.64,7.6,8.1a8.1,8.1,0,0,1-3.42,7.06Zm-12-13.53h2.52c1.7,0,2.6-.69,2.6-3.21,0-1.94-1-3.09-2.6-3.09H352.7Z"/><path class="cls-1" d="M385.28,329.21v.36h-6.19l-.94-4.79h-5.9l-.94,4.79h-5.9v-.36l6.3-24.84H379Zm-8.13-9.4-1.88-9.43h-.14l-1.87,9.43Z"/><path class="cls-1" d="M388.16,304.37h8.57c4.42,0,7.59,3.64,7.59,8.32s-3.24,8.46-7.59,8.46h-2.92v8.42h-5.65ZM396,316.11c1.69,0,2.59-1.12,2.59-3.42s-1-3.31-2.59-3.31h-2.16v6.73Z"/><path class="cls-1" d="M425.38,304.37v25.2h-5.65V319.1h-6.16v10.47h-5.65v-25.2h5.65V314h6.16v-9.65Z"/><path class="cls-1" d="M430.42,304.37h5.69v25.2h-5.69Z"/><path class="cls-1" d="M439.71,317c0-7.63,3-13,9.86-13,6.62,0,8.82,4.5,9.18,9.83h-5.62c-.21-2.42-.93-4.72-3.78-4.72-2.34,0-3.88,2.77-3.88,7.85s1.54,7.77,3.88,7.77c2.7,0,3.5-2.09,3.82-4.46h5.58c-.51,5.18-2.59,9.57-9.18,9.57C442.73,329.89,439.71,324.53,439.71,317Z"/><path class="cls-1" d="M472.43,304.37h6.91c7.16,0,10.51,5,10.51,12.6,0,7-3,12.6-10.51,12.6h-6.91Zm6.59,20.2c3.63,0,5.07-2.34,5.07-7.6s-1.44-7.56-5.07-7.56h-1.3v15.16Z"/><path class="cls-1" d="M493.45,304.37h14v5H499.1v4.65h7.27v5H499.1v5.47h8.39v5h-14Z"/><path class="cls-1" d="M509.65,320.93h5.72c.25,2.88,1.08,4,2.74,4a2.39,2.39,0,0,0,2.55-2.59c0-1.37-.5-2.09-2-2.74l-3.34-1.51c-2-.9-4.86-2-4.86-6.77,0-4.24,3.16-7.23,7.66-7.23,5,0,7.85,3.38,7.89,8.21H520.3c-.1-1.8-.61-3.17-2.23-3.17-1.37,0-1.8,1.15-1.8,2.19s.11,1.7,1.77,2.45l3.42,1.59c2,.93,5,2.08,5,6.83,0,4.5-2.59,7.74-8.35,7.74C512.1,329.89,510,326.37,509.65,320.93Z"/><path class="cls-1" d="M529.81,304.37h5.68v25.2h-5.68Z"/><path class="cls-1" d="M558.17,316v2.85c0,6.73-3.06,11.08-9,11.08-7.38,0-10-5.72-10-12.88s2.67-13,10-13c6.15,0,8.35,4.14,8.89,9.11h-5.55c-.21-2.06-1.26-4-3.42-4-2.8,0-4.21,2.77-4.21,7.85s1.41,7.81,4.29,7.81c2.12,0,3.31-1.62,3.52-4.18h-4.14V316Z"/><path class="cls-1" d="M561.77,304.37h6.66l5.69,15.16h.14V304.37h5.62v25.2h-6.7l-5.68-15.08h-.15v15.08h-5.58Z"/><path class="cls-1" d="M584.92,304.37h14v5h-8.39v4.65h7.27v5h-7.27v5.47H599v5h-14Z"/><path class="cls-1" d="M620.55,329.21v.36h-6.62l-3.64-8.86h-1.72v8.86h-5.65v-25.2h8.92c4.43,0,7.6,3.64,7.6,8.1a8.08,8.08,0,0,1-3.42,7.06Zm-12-13.53h2.52c1.69,0,2.59-.69,2.59-3.21,0-1.94-1-3.09-2.59-3.09h-2.52Z"/><path class="cls-1" d="M621.35,334.39l.75-9.61h5.72v.36l-2.59,9.61h-3.88Z"/><path class="cls-1" d="M241.58,347.19l-6.22,6.73v-6.19H205.8v-1.12h29.56v-6.12Z"/><path class="cls-1" d="M254.72,334.37h5.69v25.2h-5.69Z"/><path class="cls-1" d="M265.45,334.37h5.65v20.16h7.49v5H265.45Z"/><path class="cls-1" d="M281.47,334.37h5.65v20.16h7.49v5H281.47Z"/><path class="cls-1" d="M297.13,349.6V334.37h5.65v15.16c0,2.8.32,5.32,3,5.32s3.06-2.52,3.06-5.32V334.37h5.69V349.6q0,10.31-8.75,10.29C300.08,359.89,297.13,356.47,297.13,349.6Z"/><path class="cls-1" d="M317.43,350.93h5.72c.25,2.88,1.08,4,2.74,4a2.39,2.39,0,0,0,2.55-2.59c0-1.37-.5-2.09-2-2.74l-3.35-1.51c-2-.9-4.85-2-4.85-6.77,0-4.24,3.16-7.23,7.66-7.23,5,0,7.85,3.38,7.89,8.21h-5.73c-.11-1.8-.61-3.17-2.23-3.17-1.37,0-1.8,1.15-1.8,2.19s.11,1.7,1.76,2.45l3.42,1.59c2.06.93,5,2.08,5,6.83,0,4.5-2.59,7.74-8.35,7.74C319.88,359.89,317.75,356.37,317.43,350.93Z"/><path class="cls-1" d="M340.86,339.45h-5.25v-5.08H351.8v5.08h-5.25v20.12h-5.69Z"/><path class="cls-1" d="M372.5,359.21v.36h-6.62l-3.64-8.86h-1.72v8.86h-5.66v-25.2h8.93c4.43,0,7.6,3.64,7.6,8.1a8.1,8.1,0,0,1-3.42,7.06Zm-12-13.53H363c1.7,0,2.6-.69,2.6-3.21,0-1.94-1-3.09-2.6-3.09h-2.51Z"/><path class="cls-1" d="M393.09,359.21v.36H386.9l-.94-4.79h-5.9l-.93,4.79h-5.91v-.36l6.3-24.84h7.24Zm-8.13-9.4-1.88-9.43h-.14l-1.87,9.43Z"/><path class="cls-1" d="M397.45,339.45h-5.26v-5.08h16.2v5.08h-5.26v20.12h-5.68Z"/><path class="cls-1" d="M410,347c0-7.23,2.74-12.92,9.79-12.92s9.79,5.69,9.79,12.92-2.77,12.92-9.79,12.92S410,354.17,410,347Zm13.82,0c0-5.07-.93-7.81-4-7.81s-4,2.74-4,7.81.94,7.81,4,7.81S423.83,352.05,423.83,347Z"/><path class="cls-1" d="M450.83,359.21v.36h-6.62l-3.64-8.86h-1.73v8.86h-5.65v-25.2h8.93c4.43,0,7.59,3.64,7.59,8.1a8.08,8.08,0,0,1-3.42,7.06Zm-12-13.53h2.52c1.69,0,2.59-.69,2.59-3.21,0-1.94-1-3.09-2.59-3.09h-2.52Z"/><path class="cls-1" d="M489.06,330.74l-20.88,20.87,4.35,4.4-9.14-.36-.32-9.15,4.32,4.32L488.27,330Z"/><path class="cls-1" d="M225.28,375.6l-4.68,7.53,4.6,6.08v.36h-5.72l-1.58-2.16a7,7,0,0,1-5.76,2.48c-3.42,0-6.52-2.44-6.52-7a8,8,0,0,1,3.6-6.76l.15-.11a8.91,8.91,0,0,1-2-5.54c0-3.46,2.34-6.41,6-6.41a5.93,5.93,0,0,1,6.27,6.23c0,2.84-1.37,4.6-3.28,6.12l-.57.43,1.76,2.37,2.45-4h5.22ZM215,383.49l-2.81-3.78a3,3,0,0,0-1.48,2.66c0,1.26.72,2.56,2,2.56A2.7,2.7,0,0,0,215,383.49Zm-1.84-10.26.79-.61a2.59,2.59,0,0,0,1.23-2.09,1.68,1.68,0,0,0-1.73-1.91,1.71,1.71,0,0,0-1.59,1.84A4.89,4.89,0,0,0,213.11,373.23Z"/><path class="cls-1" d="M243.1,364.37l3.81,18.11h.15l3.7-18.11h6.41v.36l-6.73,24.84h-6.8l-6.84-24.84v-.36Z"/><path class="cls-1" d="M260.05,364.37h5.69v25.2h-5.69Z"/><path class="cls-1" d="M269,380.93h5.72c.25,2.88,1.08,4,2.74,4A2.39,2.39,0,0,0,280,382.3c0-1.37-.5-2.09-2-2.74l-3.35-1.51c-2-.9-4.86-2-4.86-6.77,0-4.24,3.17-7.23,7.67-7.23,5,0,7.85,3.38,7.88,8.21h-5.72c-.11-1.8-.61-3.17-2.23-3.17-1.37,0-1.8,1.15-1.8,2.19s.11,1.7,1.76,2.45l3.42,1.59c2.05.93,5,2.08,5,6.83,0,4.5-2.6,7.74-8.35,7.74C271.42,389.89,269.3,386.37,269,380.93Z"/><path class="cls-1" d="M288.77,379.6V364.37h5.66v15.16c0,2.8.32,5.32,3,5.32s3.06-2.52,3.06-5.32V364.37h5.69V379.6q0,10.31-8.75,10.29C291.73,389.89,288.77,386.47,288.77,379.6Z"/><path class="cls-1" d="M328.23,389.21v.36H322l-.93-4.79h-5.9l-.94,4.79h-5.9v-.36l6.3-24.84h7.23Zm-8.14-9.4-1.87-9.43h-.14l-1.88,9.43Z"/><path class="cls-1" d="M331.11,364.37h5.65v20.16h7.48v5H331.11Z"/><path class="cls-1" d="M374.91,389.21v.36h-6.19l-.93-4.79h-5.91l-.93,4.79H355v-.36l6.3-24.84h7.24Zm-8.13-9.4-1.87-9.43h-.15l-1.87,9.43Z"/><path class="cls-1" d="M395.43,389.21v.36h-6.62l-3.64-8.86h-1.73v8.86h-5.65v-25.2h8.93c4.43,0,7.6,3.64,7.6,8.1a8.1,8.1,0,0,1-3.42,7.06Zm-12-13.53H386c1.7,0,2.6-.69,2.6-3.21,0-1.94-1-3.09-2.6-3.09h-2.52Z"/><path class="cls-1" d="M401.59,369.45h-5.26v-5.08h16.2v5.08h-5.26v20.12h-5.68Z"/><path class="cls-1" d="M415.59,364.37h5.69v25.2h-5.69Z"/><path class="cls-1" d="M424.52,380.93h5.72c.25,2.88,1.08,4,2.74,4a2.39,2.39,0,0,0,2.55-2.59c0-1.37-.5-2.09-2-2.74l-3.35-1.51c-2-.9-4.86-2-4.86-6.77,0-4.24,3.17-7.23,7.67-7.23,5,0,7.85,3.38,7.88,8.21h-5.72c-.11-1.8-.61-3.17-2.23-3.17-1.37,0-1.8,1.15-1.8,2.19s.11,1.7,1.76,2.45l3.42,1.59c2.05.93,5,2.08,5,6.83,0,4.5-2.6,7.74-8.35,7.74C427,389.89,424.84,386.37,424.52,380.93Z"/><path class="cls-1" d="M448,369.45h-5.26v-5.08h16.2v5.08h-5.25v20.12H448Z"/><path class="cls-1" d="M207.07,201.7v3.51h-.42V203.6h-1.76v1.61h-.42V201.7h.42v1.49h1.76V201.7Z"/><path class="cls-1" d="M208.77,203.93c0-.74.36-1.33,1.13-1.33s1.12.59,1.12,1.33-.35,1.32-1.12,1.32S208.77,204.67,208.77,203.93Zm1.84,0c0-.55-.21-1-.71-1s-.71.4-.71,1,.2.95.71.95S210.61,204.48,210.61,203.93Z"/><path class="cls-1" d="M216.25,203.54v1.67h-.4v-1.6c0-.39-.17-.63-.55-.63s-.63.3-.63.82v1.41h-.41v-1.6c0-.39-.17-.63-.55-.63s-.63.3-.63.82v1.41h-.41v-2.56H213l0,.4h0a.78.78,0,0,1,.75-.45.76.76,0,0,1,.74.45h0a.85.85,0,0,1,.81-.45A.83.83,0,0,1,216.25,203.54Z"/><path class="cls-1" d="M217.86,203.93c0-.74.35-1.33,1.12-1.33s1.08.54,1.08,1.25v.21h-1.78c0,.48.24.82.71.82a.57.57,0,0,0,.62-.41H220a1,1,0,0,1-1,.78C218.25,205.25,217.86,204.68,217.86,203.93Zm1.77-.22A.64.64,0,0,0,219,203a.66.66,0,0,0-.69.73Z"/><path class="cls-1" d="M204,205.83v-.25h17.29v.25Z"/><path class="cls-1" d="M233.11,201.75v-.05h.42l.65,2.83h0l.75-2.83h.44l.76,2.83h0l.64-2.83h.42v.05l-.85,3.46H236l-.78-2.8h0l-.79,2.8H234Z"/><path class="cls-1" d="M238.35,203.93c0-.74.35-1.33,1.12-1.33s1.13.59,1.13,1.33-.35,1.32-1.13,1.32S238.35,204.67,238.35,203.93Zm1.83,0c0-.55-.2-1-.71-1s-.71.4-.71,1,.21.95.71.95S240.18,204.48,240.18,203.93Z"/><path class="cls-1" d="M242.25,202.65h.35l0,.43h0a.67.67,0,0,1,.65-.46h.23v.4h-.2c-.47,0-.68.34-.68.95v1.24h-.41Z"/><path class="cls-1" d="M245.52,201.5v3.71h-.4V201.5Zm1.57,3.66v.05h-.47l-1.1-1.44,1.06-1.12h.48v0l-1,1.07Z"/><path class="cls-1" d="M260.51,204.16h.43c0,.43.32.7.86.7s.83-.2.83-.61-.24-.49-.61-.57l-.5-.12c-.59-.12-.9-.41-.9-.94s.43-1,1.18-1a1.07,1.07,0,0,1,1.21,1h-.43c0-.38-.26-.64-.79-.64s-.73.16-.73.56.22.44.58.52l.46.1c.63.13,1,.47,1,1s-.49,1-1.27,1S260.52,204.82,260.51,204.16Z"/><path class="cls-1" d="M264.92,204.52V203h-.42v-.35h.43V202h.4v.69h.6V203h-.6v1.49c0,.24.1.35.32.35h.29v.37h-.37C265.08,205.21,264.92,205,264.92,204.52Z"/><path class="cls-1" d="M267.52,204.31v-1.66h.41v1.59c0,.4.18.63.58.63s.65-.3.65-.81v-1.41h.41v2.56h-.35l0-.41h0a.81.81,0,0,1-.77.45A.83.83,0,0,1,267.52,204.31Z"/><path class="cls-1" d="M271.17,203.93c0-.76.36-1.33,1.06-1.33a.84.84,0,0,1,.75.4h0v-1.5h.41v3.71h-.36l-.05-.36h0a.82.82,0,0,1-.75.4C271.58,205.25,271.18,204.75,271.17,203.93Zm1.84,0c0-.51-.21-1-.71-1s-.71.43-.71,1,.19.95.71.95S273,204.44,273,203.93Z"/><path class="cls-1" d="M275.18,201.63h.46v.49h-.46Zm0,1h.4v2.56h-.4Z"/><path class="cls-1" d="M277.22,203.93c0-.74.35-1.33,1.12-1.33s1.13.59,1.13,1.33-.35,1.32-1.13,1.32S277.22,204.67,277.22,203.93Zm1.83,0c0-.55-.2-1-.71-1s-.71.4-.71,1,.21.95.71.95S279.05,204.48,279.05,203.93Z"/><path class="cls-1" d="M293.55,201.7H294v3.11h1.64v.4h-2.07Z"/><path class="cls-1" d="M297,203.93c0-.74.35-1.33,1.12-1.33s1.12.59,1.12,1.33-.34,1.32-1.12,1.32S297,204.67,297,203.93Zm1.83,0c0-.55-.2-1-.71-1s-.71.4-.71,1,.21.95.71.95S298.79,204.48,298.79,203.93Z"/><path class="cls-1" d="M300.66,203.93c0-.8.39-1.33,1.13-1.33a.94.94,0,0,1,1,.92h-.41a.55.55,0,0,0-.61-.54c-.52,0-.71.42-.71,1s.19.95.71.95a.55.55,0,0,0,.62-.53h.41a.93.93,0,0,1-1,.9C301.05,205.25,300.66,204.74,300.66,203.93Z"/><path class="cls-1" d="M304.27,203.94c0-.77.36-1.34,1.06-1.34a.84.84,0,0,1,.75.4h0l0-.35h.36v2.56h-.36l0-.36h0a.81.81,0,0,1-.76.4C304.63,205.25,304.27,204.67,304.27,203.94Zm1.84,0c0-.51-.21-1-.71-1s-.71.43-.71,1,.19.95.71.95S306.11,204.45,306.11,203.93Z"/><path class="cls-1" d="M308.48,204.52V203h-.42v-.35h.43V202h.4v.69h.6V203h-.6v1.49c0,.24.1.35.32.35h.29v.37h-.37C308.64,205.21,308.48,205,308.48,204.52Z"/><path class="cls-1" d="M311.11,201.63h.45v.49h-.45Zm0,1h.41v2.56h-.41Z"/><path class="cls-1" d="M313.14,203.93c0-.74.36-1.33,1.13-1.33s1.12.59,1.12,1.33-.34,1.32-1.12,1.32S313.14,204.67,313.14,203.93Zm1.84,0c0-.55-.2-1-.71-1s-.71.4-.71,1,.21.95.71.95S315,204.48,315,203.93Z"/><path class="cls-1" d="M317.05,202.65h.35l0,.4h0a.83.83,0,0,1,.77-.45.84.84,0,0,1,.88.94v1.67h-.41v-1.6c0-.4-.18-.63-.58-.63s-.66.3-.66.82v1.41h-.4Z"/><path class="cls-1" d="M335.46,203.46c0-1.08.53-1.8,1.5-1.8a1.26,1.26,0,0,1,1.37,1.21h-.44a.84.84,0,0,0-.93-.8c-.79,0-1.06.68-1.06,1.39s.27,1.39,1.06,1.39a.85.85,0,0,0,.93-.78h.44a1.26,1.26,0,0,1-1.37,1.18C336,205.25,335.46,204.53,335.46,203.46Z"/><path class="cls-1" d="M339.83,203.93c0-.74.36-1.33,1.13-1.33s1.12.59,1.12,1.33-.34,1.32-1.12,1.32S339.83,204.67,339.83,203.93Zm1.84,0c0-.55-.21-1-.71-1s-.71.4-.71,1,.21.95.71.95S341.67,204.48,341.67,203.93Z"/><path class="cls-1" d="M343.73,202.65h.36l0,.4h0a.82.82,0,0,1,.77-.45.83.83,0,0,1,.87.94v1.67h-.41v-1.6c0-.4-.18-.63-.57-.63s-.66.3-.66.82v1.41h-.41Z"/><path class="cls-1" d="M347.75,204.52V203h-.41v-.35h.42V202h.4v.69h.61V203h-.61v1.49c0,.24.1.35.33.35h.29v.37h-.37C347.92,205.21,347.75,205,347.75,204.52Z"/><path class="cls-1" d="M350.21,203.94c0-.77.35-1.34,1.06-1.34a.84.84,0,0,1,.75.4h0l0-.35h.35v2.56h-.35l0-.36h0a.83.83,0,0,1-.77.4C350.56,205.25,350.21,204.67,350.21,203.94Zm1.84,0c0-.51-.22-1-.71-1s-.72.43-.72,1,.2.95.72.95S352.05,204.45,352.05,203.93Z"/><path class="cls-1" d="M354.05,203.93c0-.8.38-1.33,1.12-1.33a.93.93,0,0,1,1,.92h-.4a.56.56,0,0,0-.62-.54c-.51,0-.71.42-.71,1s.2.95.71.95a.57.57,0,0,0,.63-.53h.4a.92.92,0,0,1-1,.9C354.43,205.25,354.05,204.74,354.05,203.93Z"/><path class="cls-1" d="M358,204.52V203h-.42v-.35H358V202h.4v.69h.6V203h-.6v1.49c0,.24.1.35.32.35h.29v.37h-.37C358.19,205.21,358,205,358,204.52Z"/><path class="cls-1" d="M397.74,431.19v.07h-.65l-1.25-1.94h-1.16v1.94h-.59v-4.9H396a1.48,1.48,0,0,1,.48,2.89Zm-3.06-2.43h1.26a.92.92,0,1,0,0-1.84h-1.26Z"/><path class="cls-1" d="M398.62,426.26h.64v.68h-.64Zm0,1.42h.58v3.58h-.58Z"/><path class="cls-1" d="M400.18,429.48c0-1.12.54-1.86,1.57-1.86a1.31,1.31,0,0,1,1.43,1.29h-.57a.79.79,0,0,0-.86-.76c-.71,0-1,.59-1,1.33s.28,1.33,1,1.33a.78.78,0,0,0,.87-.75h.57a1.29,1.29,0,0,1-1.43,1.27C400.72,431.33,400.18,430.61,400.18,429.48Z"/><path class="cls-1" d="M404.22,426.08h.57v2.17h0a1.12,1.12,0,0,1,1.07-.63,1.18,1.18,0,0,1,1.23,1.32v2.32h-.57V429c0-.56-.27-.88-.82-.88s-.93.43-.93,1.15v2h-.57Z"/><path class="cls-1" d="M408.06,429.48c0-1.06.49-1.86,1.48-1.86a1.17,1.17,0,0,1,1,.56h0l.07-.5h.5v3.58h-.5l-.05-.49h0a1.17,1.17,0,0,1-1.07.56C408.55,431.33,408.06,430.51,408.06,429.48Zm2.57,0c0-.72-.3-1.33-1-1.33s-1,.61-1,1.33.27,1.32,1,1.32S410.63,430.2,410.63,429.48Z"/><path class="cls-1" d="M412.41,427.68h.5l0,.61h0a1,1,0,0,1,.91-.65h.32v.57H414c-.66,0-1,.48-1,1.32v1.73h-.58Z"/><path class="cls-1" d="M414.73,429.47c0-1.06.5-1.85,1.48-1.85a1.16,1.16,0,0,1,1,.56h0v-2.1h.57v5.18h-.49l-.08-.49h0a1.16,1.16,0,0,1-1,.56C415.29,431.33,414.74,430.63,414.73,429.47Zm2.57,0c0-.71-.3-1.32-1-1.32s-1,.61-1,1.32.27,1.33,1,1.33S417.3,430.19,417.3,429.47Z"/><path class="cls-1" d="M420.92,429.48c0-1.12.54-1.86,1.57-1.86a1.31,1.31,0,0,1,1.43,1.29h-.57a.78.78,0,0,0-.86-.76c-.71,0-1,.59-1,1.33s.28,1.33,1,1.33a.78.78,0,0,0,.87-.75h.58a1.31,1.31,0,0,1-1.44,1.27C421.46,431.33,420.92,430.61,420.92,429.48Z"/><path class="cls-1" d="M425,427.68h.49l.05.61h0a1,1,0,0,1,.92-.65h.31v.57h-.27c-.66,0-1,.48-1,1.32v1.73H425Z"/><path class="cls-1" d="M427.27,429.48c0-1,.5-1.86,1.57-1.86s1.51.75,1.51,1.75v.28h-2.48c0,.68.33,1.15,1,1.15a.81.81,0,0,0,.88-.57h.57a1.38,1.38,0,0,1-1.45,1.1C427.82,431.33,427.27,430.53,427.27,429.48Zm2.49-.32a.9.9,0,0,0-.92-1,.93.93,0,0,0-1,1Z"/><path class="cls-1" d="M431.1,429.48c0-1.06.49-1.86,1.48-1.86a1.16,1.16,0,0,1,1,.56h0l.08-.5h.49v3.58h-.49l-.05-.49h0a1.16,1.16,0,0,1-1.07.56C431.59,431.33,431.1,430.51,431.1,429.48Zm2.56,0c0-.72-.3-1.33-1-1.33s-1,.61-1,1.33.27,1.32,1,1.32S433.66,430.2,433.66,429.48Z"/><path class="cls-1" d="M435.69,430.3v-2.12h-.58v-.5h.59v-.95h.56v.95h.85v.5h-.85v2.08c0,.34.14.49.46.49h.4v.51h-.51C435.92,431.26,435.69,430.9,435.69,430.3Z"/><path class="cls-1" d="M437.84,429.48c0-1,.5-1.86,1.57-1.86s1.5.75,1.5,1.75v.28h-2.47c0,.68.33,1.15,1,1.15a.81.81,0,0,0,.88-.57h.57a1.38,1.38,0,0,1-1.45,1.1C438.39,431.33,437.84,430.53,437.84,429.48Zm2.48-.32a.89.89,0,0,0-.91-1,.94.94,0,0,0-1,1Z"/><path class="cls-1" d="M441.67,430.08h.57c0,.48.35.72.85.72s.79-.17.79-.51-.15-.43-.53-.51l-.69-.13a1,1,0,0,1-.89-1c0-.59.5-1,1.27-1a1.19,1.19,0,0,1,1.34,1.16h-.56c0-.46-.34-.66-.78-.66s-.71.17-.71.52.22.45.6.51l.55.1c.65.16,1,.42,1,1s-.62,1-1.37,1A1.28,1.28,0,0,1,441.67,430.08Z"/><path class="cls-1" d="M447.32,429.48c0-1.06.49-1.86,1.48-1.86a1.16,1.16,0,0,1,1.05.56h0l.07-.5h.5v3.58H450l-.05-.49h0a1.16,1.16,0,0,1-1.07.56C447.81,431.33,447.32,430.51,447.32,429.48Zm2.57,0c0-.72-.3-1.33-1-1.33s-1,.61-1,1.33.28,1.32,1,1.32S449.89,430.2,449.89,429.48Z"/><path class="cls-1" d="M451.91,430.3v-2.12h-.57v-.5h.59v-.95h.55v.95h.86v.5h-.86v2.08c0,.34.15.49.46.49h.41v.51h-.52C452.14,431.26,451.91,430.9,451.91,430.3Z"/><path class="cls-1" d="M459.35,428.94v2.32h-.58V429c0-.55-.23-.88-.76-.88s-.88.42-.88,1.14v2h-.57V429c0-.55-.24-.88-.77-.88s-.88.42-.88,1.14v2h-.57v-3.58h.49l.05.57h0a1.07,1.07,0,0,1,1-.63,1.09,1.09,0,0,1,1.05.63h0a1.14,1.14,0,0,1,1.12-.63A1.16,1.16,0,0,1,459.35,428.94Z"/><path class="cls-1" d="M460.3,429.48c0-1,.5-1.86,1.57-1.86s1.58.83,1.58,1.86-.49,1.85-1.58,1.85S460.3,430.51,460.3,429.48Zm2.57,0c0-.77-.29-1.33-1-1.33s-1,.56-1,1.33.29,1.32,1,1.32S462.87,430.25,462.87,429.48Z"/><path class="cls-1" d="M464.2,430.08h.57c0,.48.35.72.85.72s.79-.17.79-.51-.15-.43-.53-.51l-.69-.13a1,1,0,0,1-.88-1c0-.59.49-1,1.26-1a1.19,1.19,0,0,1,1.34,1.16h-.56c0-.46-.34-.66-.78-.66s-.71.17-.71.52.22.45.6.51l.55.1c.65.16,1,.42,1,1s-.62,1-1.37,1A1.28,1.28,0,0,1,464.2,430.08Z"/><path class="cls-1" d="M468,427.68h.49l.08.5h0a1.19,1.19,0,0,1,1.05-.56c.91,0,1.47.7,1.48,1.86s-.5,1.85-1.48,1.85a1.19,1.19,0,0,1-1.05-.56h0v2.1H468Zm2.54,1.8c0-.72-.27-1.33-1-1.33s-1,.61-1,1.33.3,1.32,1,1.32S470.56,430.19,470.56,429.48Z"/><path class="cls-1" d="M472.16,426.08h.57v2.17h0a1.12,1.12,0,0,1,1.06-.63,1.18,1.18,0,0,1,1.24,1.32v2.32h-.58V429c0-.56-.26-.88-.81-.88s-.94.43-.94,1.15v2h-.57Z"/><path class="cls-1" d="M476,429.48c0-1,.5-1.86,1.57-1.86s1.51.75,1.51,1.75v.28h-2.48c0,.68.33,1.15,1,1.15a.81.81,0,0,0,.88-.57H479a1.38,1.38,0,0,1-1.45,1.1C476.56,431.33,476,430.53,476,429.48Zm2.48-.32a.89.89,0,0,0-.91-1,.93.93,0,0,0-1,1Z"/><path class="cls-1" d="M480.11,427.68h.49l0,.61h0a1,1,0,0,1,.92-.65h.31v.57h-.27c-.66,0-1,.48-1,1.32v1.73h-.57Z"/><path class="cls-1" d="M482.8,426.26h.64v.68h-.64Zm0,1.42h.57v3.58h-.57Z"/><path class="cls-1" d="M484.36,429.48c0-1.12.53-1.86,1.57-1.86a1.31,1.31,0,0,1,1.43,1.29h-.57a.79.79,0,0,0-.86-.76c-.72,0-1,.59-1,1.33s.27,1.33,1,1.33a.78.78,0,0,0,.87-.75h.57a1.3,1.3,0,0,1-1.43,1.27C484.89,431.33,484.36,430.61,484.36,429.48Z"/><path class="cls-1" d="M490.23,429.48c0-1.06.49-1.86,1.48-1.86a1.17,1.17,0,0,1,1.05.56h0l.07-.5h.5v3.58h-.5l-.05-.49h0a1.17,1.17,0,0,1-1.07.56C490.72,431.33,490.23,430.51,490.23,429.48Zm2.57,0c0-.72-.3-1.33-1-1.33s-1,.61-1,1.33.27,1.32,1,1.32S492.8,430.2,492.8,429.48Z"/><path class="cls-1" d="M494.58,427.68h.5l.05.57h0a1.11,1.11,0,0,1,1.07-.63,1.17,1.17,0,0,1,1.22,1.32v2.32h-.57V429c0-.56-.25-.88-.81-.88s-.91.42-.91,1.14v2h-.58Z"/><path class="cls-1" d="M498.4,429.47c0-1.06.5-1.85,1.48-1.85a1.16,1.16,0,0,1,1.05.56h0v-2.1h.57v5.18H501l-.07-.49h0a1.16,1.16,0,0,1-1.05.56C499,431.33,498.41,430.63,498.4,429.47Zm2.57,0c0-.71-.3-1.32-1-1.32s-1,.61-1,1.32.28,1.33,1,1.33S501,430.19,501,429.47Z"/><path class="cls-1" d="M504.59,429.48c0-1.12.54-1.86,1.58-1.86a1.31,1.31,0,0,1,1.43,1.29H507a.77.77,0,0,0-.85-.76c-.72,0-1,.59-1,1.33s.28,1.33,1,1.33a.79.79,0,0,0,.87-.75h.57a1.3,1.3,0,0,1-1.44,1.27C505.13,431.33,504.59,430.61,504.59,429.48Z"/><path class="cls-1" d="M508.63,426.08h.57v2.17h0a1.12,1.12,0,0,1,1.06-.63,1.18,1.18,0,0,1,1.23,1.32v2.32H511V429c0-.56-.26-.88-.81-.88s-.94.43-.94,1.15v2h-.57Z"/><path class="cls-1" d="M512.48,429.48c0-1.06.49-1.86,1.48-1.86a1.16,1.16,0,0,1,1,.56h0l.08-.5h.49v3.58h-.49l-.05-.49h0a1.16,1.16,0,0,1-1.07.56C513,431.33,512.48,430.51,512.48,429.48Zm2.57,0c0-.72-.3-1.33-1-1.33s-1,.61-1,1.33.27,1.32,1,1.32S515.05,430.2,515.05,429.48Z"/><path class="cls-1" d="M516.83,427.68h.5l0,.61h0a1,1,0,0,1,.92-.65h.31v.57h-.27c-.66,0-1,.48-1,1.32v1.73h-.57Z"/><path class="cls-1" d="M519.14,429.48c0-1.06.5-1.86,1.48-1.86a1.16,1.16,0,0,1,1,.56h0l.07-.5h.5v3.58h-.5l0-.49h0a1.16,1.16,0,0,1-1.07.56C519.64,431.33,519.14,430.51,519.14,429.48Zm2.57,0c0-.72-.3-1.33-1-1.33s-1,.61-1,1.33.28,1.32,1,1.32S521.71,430.2,521.71,429.48Z"/><path class="cls-1" d="M523.22,429.48c0-1.12.54-1.86,1.58-1.86a1.31,1.31,0,0,1,1.43,1.29h-.58a.77.77,0,0,0-.85-.76c-.72,0-1,.59-1,1.33s.28,1.33,1,1.33a.79.79,0,0,0,.87-.75h.57a1.3,1.3,0,0,1-1.44,1.27C523.76,431.33,523.22,430.61,523.22,429.48Z"/><path class="cls-1" d="M527.5,430.3v-2.12h-.58v-.5h.59v-.95h.56v.95h.85v.5h-.85v2.08c0,.34.15.49.46.49h.41v.51h-.52C527.73,431.26,527.5,430.9,527.5,430.3Z"/><path class="cls-1" d="M529.65,429.48c0-1,.5-1.86,1.57-1.86s1.51.75,1.51,1.75v.28h-2.48c0,.68.33,1.15,1,1.15a.81.81,0,0,0,.88-.57h.57a1.38,1.38,0,0,1-1.45,1.1C530.2,431.33,529.65,430.53,529.65,429.48Zm2.49-.32a.9.9,0,0,0-.92-1,.93.93,0,0,0-1,1Z"/><path class="cls-1" d="M533.75,427.68h.5l0,.61h0a1,1,0,0,1,.92-.65h.31v.57h-.27c-.66,0-1,.48-1,1.32v1.73h-.57Z"/><path class="cls-1" d="M536.83,428.17h-.62v-.49h.62v-.62a1,1,0,0,1,1-1.05h.44v.51h-.34a.49.49,0,0,0-.54.54v.62h.84v.49h-.84v3.09h-.57Z"/><path class="cls-1" d="M539.13,430v-2.32h.57v2.23c0,.56.25.88.8.88s.92-.42.92-1.14v-2H542v3.58h-.49l0-.56h0a1.13,1.13,0,0,1-1.07.62A1.17,1.17,0,0,1,539.13,430Z"/><path class="cls-1" d="M543.22,426.08h.57v5.18h-.57Z"/><path class="cls-1" d="M394,435.26h.64v.68H394Zm0,1.42h.58v3.58H394Z"/><path class="cls-1" d="M400.83,437.94v2.32h-.57V438c0-.55-.24-.88-.77-.88s-.87.42-.87,1.14v2h-.57V438c0-.55-.24-.88-.77-.88s-.89.42-.89,1.14v2h-.57v-3.58h.5l.05.57h0a1.09,1.09,0,0,1,1.05-.63,1.06,1.06,0,0,1,1,.63h0a1.24,1.24,0,0,1,2.32.69Z"/><path class="cls-1" d="M401.79,438.48c0-1.06.49-1.86,1.47-1.86a1.16,1.16,0,0,1,1.05.56h0l.07-.5h.5v3.58h-.5l0-.49h0a1.16,1.16,0,0,1-1.07.56C402.28,440.33,401.79,439.51,401.79,438.48Zm2.56,0c0-.72-.3-1.33-1-1.33s-1,.61-1,1.33.28,1.32,1,1.32S404.35,439.2,404.35,438.48Z"/><path class="cls-1" d="M406,440.72h.55c0,.34.29.71.93.71a.89.89,0,0,0,1-1v-.69h0a1.16,1.16,0,0,1-1.05.56c-1,0-1.47-.79-1.48-1.85s.57-1.86,1.48-1.86a1.16,1.16,0,0,1,1.05.56h0l.07-.5h.5v3.79a1.41,1.41,0,0,1-1.54,1.46A1.32,1.32,0,0,1,406,440.72Zm2.46-2.24c0-.72-.3-1.33-1-1.33s-1,.61-1,1.33.28,1.32,1,1.32S408.43,439.19,408.43,438.48Z"/><path class="cls-1" d="M409.94,438.48c0-1,.5-1.86,1.58-1.86s1.5.75,1.5,1.75v.28h-2.48c0,.68.34,1.15,1,1.15a.8.8,0,0,0,.88-.57H413a1.37,1.37,0,0,1-1.45,1.1C410.5,440.33,409.94,439.53,409.94,438.48Zm2.49-.32a.89.89,0,0,0-.91-1,.93.93,0,0,0-1,1Z"/><path class="cls-1" d="M413.77,439.08h.57c0,.48.36.72.85.72s.8-.17.8-.51-.16-.43-.53-.51l-.69-.13a1,1,0,0,1-.89-1c0-.59.5-1,1.27-1a1.19,1.19,0,0,1,1.34,1.16h-.56c0-.46-.35-.66-.78-.66s-.72.17-.72.52.23.45.61.51l.54.1c.65.16,1,.42,1,1s-.63,1-1.38,1A1.28,1.28,0,0,1,413.77,439.08Z"/><path class="cls-1" d="M419.43,438.48c0-1,.5-1.86,1.57-1.86s1.57.83,1.57,1.86-.48,1.85-1.57,1.85S419.43,439.51,419.43,438.48Zm2.57,0c0-.77-.29-1.33-1-1.33s-1,.56-1,1.33.29,1.32,1,1.32S422,439.25,422,438.48Z"/><path class="cls-1" d="M423.81,437.17h-.62v-.49h.62v-.62a1,1,0,0,1,1-1.05h.43v.51h-.34a.48.48,0,0,0-.53.54v.62h.84v.49h-.84v3.09h-.58Z"/><path class="cls-1" d="M428.29,436.68h.5l.08.5h0a1.17,1.17,0,0,1,1.05-.56c.91,0,1.47.7,1.48,1.86s-.5,1.85-1.48,1.85a1.17,1.17,0,0,1-1.05-.56h0v2.1h-.58Zm2.55,1.8c0-.72-.27-1.33-1-1.33s-1,.61-1,1.33.3,1.32,1,1.32S430.84,439.19,430.84,438.48Z"/><path class="cls-1" d="M432.17,438.48c0-1,.5-1.86,1.57-1.86s1.5.75,1.5,1.75v.28h-2.47c0,.68.33,1.15,1,1.15a.81.81,0,0,0,.88-.57h.57a1.38,1.38,0,0,1-1.45,1.1C432.72,440.33,432.17,439.53,432.17,438.48Zm2.48-.32a.89.89,0,0,0-.91-1,.94.94,0,0,0-1,1Z"/><path class="cls-1" d="M436,438.48c0-1,.49-1.86,1.57-1.86s1.57.83,1.57,1.86-.48,1.85-1.57,1.85S436,439.51,436,438.48Zm2.56,0c0-.77-.28-1.33-1-1.33s-1,.56-1,1.33.3,1.32,1,1.32S438.56,439.25,438.56,438.48Z"/><path class="cls-1" d="M440.16,436.68h.5l.07.5h0a1.16,1.16,0,0,1,1.05-.56c.91,0,1.47.7,1.48,1.86s-.5,1.85-1.48,1.85a1.16,1.16,0,0,1-1.05-.56h0v2.1h-.57Zm2.55,1.8c0-.72-.27-1.33-1-1.33s-1,.61-1,1.33.3,1.32,1,1.32S442.71,439.19,442.71,438.48Z"/><path class="cls-1" d="M444.31,435.08h.57v5.18h-.57Z"/><path class="cls-1" d="M445.83,438.48c0-1,.5-1.86,1.58-1.86s1.5.75,1.5,1.75v.28h-2.48c0,.68.34,1.15,1,1.15a.8.8,0,0,0,.88-.57h.57a1.37,1.37,0,0,1-1.45,1.1C446.39,440.33,445.83,439.53,445.83,438.48Zm2.49-.32a.9.9,0,0,0-.91-1,.93.93,0,0,0-1,1Z"/><path class="cls-1" d="M449.61,441.13l.21-1.59h.67v.07l-.42,1.59h-.46Z"/><path class="cls-1" d="M454,439.3v-2.12h-.58v-.5H454v-.95h.56v.95h.85v.5h-.85v2.08c0,.34.15.49.46.49h.41v.51h-.52C454.2,440.26,454,439.9,454,439.3Z"/><path class="cls-1" d="M456.39,435.08H457v2.17h0a1.12,1.12,0,0,1,1.07-.63,1.18,1.18,0,0,1,1.23,1.32v2.32h-.57V438c0-.56-.27-.88-.82-.88s-.93.43-.93,1.15v2h-.58Z"/><path class="cls-1" d="M460.24,438.48c0-1.06.49-1.86,1.48-1.86a1.19,1.19,0,0,1,1,.56h0l.08-.5h.49v3.58h-.49l-.05-.49h0a1.15,1.15,0,0,1-1.07.56C460.73,440.33,460.24,439.51,460.24,438.48Zm2.57,0c0-.72-.3-1.33-1-1.33s-1,.61-1,1.33.27,1.32,1,1.32S462.81,439.2,462.81,438.48Z"/><path class="cls-1" d="M464.83,439.3v-2.12h-.58v-.5h.59v-.95h.56v.95h.85v.5h-.85v2.08c0,.34.14.49.46.49h.41v.51h-.52C465.06,440.26,464.83,439.9,464.83,439.3Z"/><path class="cls-1" d="M469.3,439v-2.32h.57v2.23c0,.56.25.88.8.88s.92-.42.92-1.14v-2h.57v3.58h-.49l-.05-.56h0a1.13,1.13,0,0,1-1.07.62A1.17,1.17,0,0,1,469.3,439Z"/><path class="cls-1" d="M473.63,439.3v-2.12h-.58v-.5h.59v-.95h.56v.95h.85v.5h-.85v2.08c0,.34.14.49.45.49h.41v.51h-.51C473.86,440.26,473.63,439.9,473.63,439.3Z"/><path class="cls-1" d="M476,435.26h.64v.68H476Zm0,1.42h.57v3.58h-.57Z"/><path class="cls-1" d="M477.85,435.08h.57v5.18h-.57Z"/><path class="cls-1" d="M479.61,435.26h.64v.68h-.64Zm0,1.42h.57v3.58h-.57Z"/><path class="cls-1" d="M481.17,439.08h.57c0,.48.36.72.85.72s.8-.17.8-.51-.16-.43-.53-.51l-.7-.13a1,1,0,0,1-.88-1c0-.59.5-1,1.27-1a1.19,1.19,0,0,1,1.34,1.16h-.56c0-.46-.35-.66-.78-.66s-.72.17-.72.52.23.45.61.51l.54.1c.65.16,1,.42,1,1s-.63,1-1.38,1A1.28,1.28,0,0,1,481.17,439.08Z"/><path class="cls-1" d="M484.72,438.48c0-1,.5-1.86,1.57-1.86s1.5.75,1.5,1.75v.28h-2.47c0,.68.33,1.15,1,1.15a.81.81,0,0,0,.88-.57h.57a1.38,1.38,0,0,1-1.45,1.1C485.27,440.33,484.72,439.53,484.72,438.48Zm2.48-.32a.89.89,0,0,0-.91-1,.94.94,0,0,0-1,1Z"/><path class="cls-1" d="M490.93,435.08h.57v5.18h-.57Z"/><path class="cls-1" d="M492.69,435.26h.64v.68h-.64Zm0,1.42h.57v3.58h-.57Z"/><path class="cls-1" d="M494.35,440.72h.55c0,.34.3.71.94.71a.89.89,0,0,0,1-1v-.69h0a1.17,1.17,0,0,1-1,.56c-1,0-1.47-.79-1.48-1.85s.57-1.86,1.48-1.86a1.17,1.17,0,0,1,1,.56h0l.08-.5h.5v3.79a1.41,1.41,0,0,1-1.54,1.46A1.33,1.33,0,0,1,494.35,440.72Zm2.47-2.24c0-.72-.3-1.33-1-1.33s-1,.61-1,1.33.27,1.32,1,1.32S496.82,439.19,496.82,438.48Z"/><path class="cls-1" d="M498.6,435.08h.58v2.17h0a1.12,1.12,0,0,1,1.06-.63,1.18,1.18,0,0,1,1.24,1.32v2.32h-.58V438c0-.56-.26-.88-.81-.88s-.93.43-.93,1.15v2h-.58Z"/><path class="cls-1" d="M503,439.3v-2.12h-.58v-.5H503v-.95h.56v.95h.85v.5h-.85v2.08c0,.34.14.49.46.49h.41v.51h-.52C503.19,440.26,503,439.9,503,439.3Z"/><path class="cls-1" d="M507.22,439.08h.57c0,.48.36.72.85.72s.8-.17.8-.51-.16-.43-.53-.51l-.69-.13a1,1,0,0,1-.89-1c0-.59.5-1,1.27-1a1.19,1.19,0,0,1,1.34,1.16h-.56c0-.46-.35-.66-.78-.66s-.72.17-.72.52.23.45.61.51l.54.1c.66.16,1,.42,1,1s-.63,1-1.38,1A1.28,1.28,0,0,1,507.22,439.08Z"/><path class="cls-1" d="M511.61,435.08v5.18H511v-5.18Zm2.19,5.11v.07h-.66l-1.53-2,1.47-1.57h.68v.07l-1.41,1.5Z"/><path class="cls-1" d="M514.58,435.26h.64v.68h-.64Zm0,1.42h.57v3.58h-.57Z"/><path class="cls-1" d="M516.41,435.08H517v5.18h-.58Z"/><path class="cls-1" d="M518.43,437.17h-.62v-.49h.62v-.62a1,1,0,0,1,1-1.05h.44v.51h-.34a.49.49,0,0,0-.54.54v.62h.85v.49H519v3.09h-.57Z"/><path class="cls-1" d="M520.73,439v-2.32h.57v2.23c0,.56.26.88.81.88s.91-.42.91-1.14v-2h.58v3.58h-.5l-.05-.56h0a1.12,1.12,0,0,1-1.07.62A1.17,1.17,0,0,1,520.73,439Z"/><path class="cls-1" d="M524.82,435.08h.58v5.18h-.58Z"/><path class="cls-1" d="M526.62,435.08h.57v5.18h-.57Z"/><path class="cls-1" d="M528.56,436.68l1.05,2.81h0l1-2.81h.6v.07l-1.93,5.12h-.58v-.07l.6-1.56v0l-1.4-3.46v-.07Z"/><path class="cls-1" d="M533.91,438.48c0-1,.5-1.86,1.58-1.86s1.57.83,1.57,1.86-.49,1.85-1.57,1.85S533.91,439.51,533.91,438.48Zm2.57,0c0-.77-.29-1.33-1-1.33s-1,.56-1,1.33.29,1.32,1,1.32S536.48,439.25,536.48,438.48Z"/><path class="cls-1" d="M538.08,436.68h.5l0,.61h0a1,1,0,0,1,.92-.65h.31v.57h-.27c-.66,0-1,.48-1,1.32v1.73h-.57Z"/><path class="cls-1" d="M399,446.94v2.32h-.57V447c0-.55-.24-.88-.77-.88s-.87.42-.87,1.14v2h-.57V447c0-.55-.24-.88-.77-.88s-.88.42-.88,1.14v2H394v-3.58h.5l.05.57h0a1.07,1.07,0,0,1,1-.63,1.09,1.09,0,0,1,1.05.63h0a1.24,1.24,0,0,1,2.32.69Z"/><path class="cls-1" d="M400,447.48c0-1.06.49-1.86,1.48-1.86a1.16,1.16,0,0,1,1,.56h0l.08-.5h.49v3.58h-.49l-.05-.49h0a1.16,1.16,0,0,1-1.07.56C400.48,449.33,400,448.51,400,447.48Zm2.57,0c0-.72-.3-1.33-1-1.33s-1,.61-1,1.33.27,1.32,1,1.32S402.56,448.2,402.56,447.48Z"/><path class="cls-1" d="M403.8,449.19l1.21-1.73-1.17-1.71v-.07h.61l.92,1.38h0l.92-1.38h.62v.07l-1.19,1.7,1.21,1.74v.07h-.6l-1-1.41h0l-1,1.41h-.6Z"/><path class="cls-1" d="M407.66,444.26h.64v.68h-.64Zm0,1.42h.57v3.58h-.57Z"/><path class="cls-1" d="M414.5,446.94v2.32h-.57V447c0-.55-.24-.88-.77-.88s-.87.42-.87,1.14v2h-.57V447c0-.55-.24-.88-.77-.88s-.88.42-.88,1.14v2h-.58v-3.58h.5l.05.57h0a1.07,1.07,0,0,1,1-.63,1.09,1.09,0,0,1,1.05.63h0a1.24,1.24,0,0,1,2.32.69Z"/><path class="cls-1" d="M415.7,444.26h.64v.68h-.64Zm0,1.42h.57v3.58h-.57Z"/><path class="cls-1" d="M417.26,448.08h.57c0,.48.35.72.85.72s.8-.17.8-.51-.16-.43-.54-.51l-.69-.13a1,1,0,0,1-.88-1c0-.59.49-1,1.26-1a1.19,1.19,0,0,1,1.34,1.16h-.56c0-.46-.34-.66-.78-.66s-.71.17-.71.52.22.45.6.51l.55.1c.65.16,1,.42,1,1s-.62,1-1.37,1A1.28,1.28,0,0,1,417.26,448.08Z"/><path class="cls-1" d="M420.8,447.48c0-1,.5-1.86,1.58-1.86s1.5.75,1.5,1.75v.28H421.4c0,.68.34,1.15,1,1.15a.8.8,0,0,0,.88-.57h.57a1.37,1.37,0,0,1-1.45,1.1C421.36,449.33,420.8,448.53,420.8,447.48Zm2.49-.32a.89.89,0,0,0-.91-1,.93.93,0,0,0-1,1Z"/><path class="cls-1" d="M427,444.08h.57v5.18H427Z"/><path class="cls-1" d="M428.54,447.48c0-1,.5-1.86,1.57-1.86s1.57.83,1.57,1.86-.48,1.85-1.57,1.85S428.54,448.51,428.54,447.48Zm2.57,0c0-.77-.29-1.33-1-1.33s-1,.56-1,1.33.29,1.32,1,1.32S431.11,448.25,431.11,447.48Z"/><path class="cls-1" d="M432.43,447.48c0-1.12.54-1.86,1.58-1.86a1.31,1.31,0,0,1,1.43,1.29h-.58a.77.77,0,0,0-.85-.76c-.72,0-1,.59-1,1.33s.28,1.33,1,1.33a.79.79,0,0,0,.87-.75h.57a1.3,1.3,0,0,1-1.44,1.27C433,449.33,432.43,448.61,432.43,447.48Z"/><path class="cls-1" d="M436.2,447.48c0-1.06.49-1.86,1.48-1.86a1.19,1.19,0,0,1,1.05.56h0l.08-.5h.49v3.58h-.49l-.05-.49h0a1.15,1.15,0,0,1-1.07.56C436.69,449.33,436.2,448.51,436.2,447.48Zm2.57,0c0-.72-.3-1.33-1-1.33s-1,.61-1,1.33.27,1.32,1,1.32S438.77,448.2,438.77,447.48Z"/><path class="cls-1" d="M440.79,448.3v-2.12h-.58v-.5h.59v-.95h.56v.95h.85v.5h-.85v2.08c0,.34.14.49.46.49h.4v.51h-.51C441,449.26,440.79,448.9,440.79,448.3Z"/><path class="cls-1" d="M443.18,444.26h.64v.68h-.64Zm0,1.42h.57v3.58h-.57Z"/><path class="cls-1" d="M444.74,447.48c0-1,.49-1.86,1.57-1.86s1.57.83,1.57,1.86-.48,1.85-1.57,1.85S444.74,448.51,444.74,447.48Zm2.56,0c0-.77-.28-1.33-1-1.33s-1,.56-1,1.33.29,1.32,1,1.32S447.3,448.25,447.3,447.48Z"/><path class="cls-1" d="M448.9,445.68h.5l.05.57h0a1.11,1.11,0,0,1,1.07-.63,1.17,1.17,0,0,1,1.22,1.32v2.32h-.57V447c0-.56-.25-.88-.81-.88s-.91.42-.91,1.14v2h-.58Z"/><path class="cls-1" d="M452.83,448.49h.73v.77h-.73Z"/><path class="cls-1" d="M460.51,444.36v4.9h-.6V447h-2.45v2.24h-.6v-4.9h.6v2.09h2.45v-2.09Z"/><path class="cls-1" d="M461.6,447.48c0-1,.49-1.86,1.57-1.86s1.5.75,1.5,1.75v.28H462.2c0,.68.33,1.15,1,1.15a.79.79,0,0,0,.87-.57h.58a1.38,1.38,0,0,1-1.45,1.1C462.15,449.33,461.6,448.53,461.6,447.48Zm2.48-.32a.89.89,0,0,0-.91-1,.93.93,0,0,0-1,1Z"/><path class="cls-1" d="M467.53,447.48c0-1.06.49-1.86,1.48-1.86a1.16,1.16,0,0,1,1.05.56h0l.07-.5h.5v3.58h-.5l-.05-.49h0a1.16,1.16,0,0,1-1.07.56C468,449.33,467.53,448.51,467.53,447.48Zm2.57,0c0-.72-.3-1.33-1-1.33s-1,.61-1,1.33.28,1.32,1,1.32S470.1,448.2,470.1,447.48Z"/><path class="cls-1" d="M471.89,445.68h.49l.08.5h0a1.19,1.19,0,0,1,1-.56c.91,0,1.47.7,1.48,1.86s-.5,1.85-1.48,1.85a1.19,1.19,0,0,1-1-.56h0v2.1h-.57Zm2.54,1.8c0-.72-.27-1.33-1-1.33s-1,.61-1,1.33.3,1.32,1,1.32S474.43,448.19,474.43,447.48Z"/><path class="cls-1" d="M476,445.68h.5l.07.5h0a1.16,1.16,0,0,1,1.05-.56c.91,0,1.47.7,1.48,1.86s-.5,1.85-1.48,1.85a1.16,1.16,0,0,1-1.05-.56h0v2.1H476Zm2.55,1.8c0-.72-.27-1.33-1-1.33s-1,.61-1,1.33.3,1.32,1,1.32S478.58,448.19,478.58,447.48Z"/><path class="cls-1" d="M480.18,445.68h.5l0,.61h0a1,1,0,0,1,.92-.65H482v.57h-.27c-.66,0-1,.48-1,1.32v1.73h-.57Z"/><path class="cls-1" d="M482.49,447.48c0-1,.5-1.86,1.58-1.86s1.5.75,1.5,1.75v.28h-2.48c0,.68.34,1.15,1,1.15a.8.8,0,0,0,.88-.57h.57a1.37,1.37,0,0,1-1.45,1.1C483.05,449.33,482.49,448.53,482.49,447.48Zm2.49-.32a.89.89,0,0,0-.91-1,.93.93,0,0,0-1,1Z"/><path class="cls-1" d="M486.32,447.48c0-1.12.54-1.86,1.57-1.86a1.3,1.3,0,0,1,1.43,1.29h-.57a.77.77,0,0,0-.86-.76c-.71,0-1,.59-1,1.33s.28,1.33,1,1.33a.78.78,0,0,0,.87-.75h.58a1.3,1.3,0,0,1-1.44,1.27C486.86,449.33,486.32,448.61,486.32,447.48Z"/><path class="cls-1" d="M490.32,444.26H491v.68h-.64Zm0,1.42h.57v3.58h-.57Z"/><path class="cls-1" d="M491.88,447.48c0-1.06.49-1.86,1.48-1.86a1.16,1.16,0,0,1,1.05.56h0l.07-.5h.5v3.58h-.5l-.05-.49h0a1.17,1.17,0,0,1-1.07.56C492.37,449.33,491.88,448.51,491.88,447.48Zm2.57,0c0-.72-.3-1.33-1-1.33s-1,.61-1,1.33.27,1.32,1,1.32S494.45,448.2,494.45,447.48Z"/><path class="cls-1" d="M496.47,448.3v-2.12h-.58v-.5h.6v-.95H497v.95h.86v.5H497v2.08c0,.34.15.49.46.49h.41v.51h-.52C496.7,449.26,496.47,448.9,496.47,448.3Z"/><path class="cls-1" d="M498.62,447.48c0-1,.5-1.86,1.58-1.86s1.5.75,1.5,1.75v.28h-2.48c0,.68.34,1.15,1,1.15a.8.8,0,0,0,.88-.57h.57a1.37,1.37,0,0,1-1.45,1.1C499.18,449.33,498.62,448.53,498.62,447.48Zm2.49-.32a.9.9,0,0,0-.91-1,.93.93,0,0,0-1,1Z"/><path class="cls-1" d="M502.45,448.08H503c0,.48.36.72.85.72s.8-.17.8-.51-.16-.43-.53-.51l-.7-.13a1,1,0,0,1-.88-1c0-.59.5-1,1.27-1a1.19,1.19,0,0,1,1.34,1.16h-.56c0-.46-.35-.66-.78-.66s-.72.17-.72.52.23.45.61.51l.54.1c.65.16,1,.42,1,1s-.63,1-1.38,1A1.28,1.28,0,0,1,502.45,448.08Z"/><path class="cls-1" d="M508.38,445.68h.5l.07.5h0a1.17,1.17,0,0,1,1-.56c.91,0,1.47.7,1.48,1.86s-.5,1.85-1.48,1.85a1.17,1.17,0,0,1-1-.56h0v2.1h-.57Zm2.55,1.8c0-.72-.27-1.33-1-1.33s-1,.61-1,1.33.3,1.32,1,1.32S510.93,448.19,510.93,447.48Z"/><path class="cls-1" d="M512.53,444.08h.57v2.17h0a1.1,1.1,0,0,1,1.06-.63,1.18,1.18,0,0,1,1.23,1.32v2.32h-.57V447c0-.56-.27-.88-.82-.88s-.93.43-.93,1.15v2h-.57Z"/><path class="cls-1" d="M516.37,447.48c0-1,.5-1.86,1.58-1.86s1.57.83,1.57,1.86-.48,1.85-1.57,1.85S516.37,448.51,516.37,447.48Zm2.57,0c0-.77-.29-1.33-1-1.33s-1,.56-1,1.33.3,1.32,1,1.32S518.94,448.25,518.94,447.48Z"/><path class="cls-1" d="M520.78,448.3v-2.12h-.58v-.5h.59v-.95h.56v.95h.85v.5h-.85v2.08c0,.34.14.49.46.49h.41v.51h-.52C521,449.26,520.78,448.9,520.78,448.3Z"/><path class="cls-1" d="M522.93,447.48c0-1,.5-1.86,1.57-1.86s1.58.83,1.58,1.86-.49,1.85-1.58,1.85S522.93,448.51,522.93,447.48Zm2.57,0c0-.77-.29-1.33-1-1.33s-1,.56-1,1.33.29,1.32,1,1.32S525.5,448.25,525.5,447.48Z"/><path class="cls-1" d="M526.93,449.72h.55c0,.34.29.71.93.71a.89.89,0,0,0,1-1v-.69h0a1.16,1.16,0,0,1-1.05.56c-1,0-1.47-.79-1.48-1.85s.57-1.86,1.48-1.86a1.16,1.16,0,0,1,1.05.56h0l.07-.5h.5v3.79a1.41,1.41,0,0,1-1.54,1.46A1.32,1.32,0,0,1,526.93,449.72Zm2.46-2.24c0-.72-.3-1.33-1-1.33s-1,.61-1,1.33.28,1.32,1,1.32S529.39,448.19,529.39,447.48Z"/><path class="cls-1" d="M531.18,445.68h.49l.05.61h0a1,1,0,0,1,.92-.65H533v.57h-.27c-.66,0-1,.48-1,1.32v1.73h-.57Z"/><path class="cls-1" d="M533.49,447.48c0-1.06.49-1.86,1.48-1.86a1.19,1.19,0,0,1,1,.56h0l.08-.5h.49v3.58h-.49l0-.49h0a1.14,1.14,0,0,1-1.06.56C534,449.33,533.49,448.51,533.49,447.48Zm2.57,0c0-.72-.3-1.33-1-1.33s-1,.61-1,1.33.27,1.32,1,1.32S536.06,448.2,536.06,447.48Z"/><path class="cls-1" d="M537.84,445.68h.5l.07.5h0a1.16,1.16,0,0,1,1-.56c.91,0,1.47.7,1.48,1.86s-.5,1.85-1.48,1.85a1.16,1.16,0,0,1-1-.56h0v2.1h-.57Zm2.55,1.8c0-.72-.28-1.33-1-1.33s-1,.61-1,1.33.3,1.32,1,1.32S540.39,448.19,540.39,447.48Z"/><path class="cls-1" d="M542,444.08h.57v2.17h0a1.1,1.1,0,0,1,1.06-.63,1.18,1.18,0,0,1,1.23,1.32v2.32h-.57V447c0-.56-.27-.88-.82-.88s-.93.43-.93,1.15v2H542Z"/><path class="cls-1" d="M546.18,445.68l1.05,2.81h0l1-2.81h.6v.07L547,450.87h-.58v-.07l.6-1.56v0l-1.4-3.46v-.07Z"/><path class="cls-1" d="M556.81,446.94v2.32h-.57V447c0-.55-.23-.88-.77-.88s-.87.42-.87,1.14v2H554V447c0-.55-.24-.88-.77-.88s-.88.42-.88,1.14v2h-.57v-3.58h.49l.05.57h0a1.07,1.07,0,0,1,1-.63,1.09,1.09,0,0,1,1.05.63h0a1.17,1.17,0,0,1,1.13-.63C556.39,445.62,556.81,446.13,556.81,446.94Z"/><path class="cls-1" d="M557.77,447.48c0-1,.5-1.86,1.57-1.86s1.58.83,1.58,1.86-.49,1.85-1.58,1.85S557.77,448.51,557.77,447.48Zm2.57,0c0-.77-.29-1.33-1-1.33s-1,.56-1,1.33.29,1.32,1,1.32S560.34,448.25,560.34,447.48Z"/><path class="cls-1" d="M561.67,448.08h.57c0,.48.35.72.85.72s.79-.17.79-.51-.15-.43-.53-.51l-.69-.13a1,1,0,0,1-.89-1c0-.59.5-1,1.27-1a1.19,1.19,0,0,1,1.34,1.16h-.56c0-.46-.34-.66-.78-.66s-.71.17-.71.52.22.45.6.51l.55.1c.65.16,1,.42,1,1s-.62,1-1.37,1A1.28,1.28,0,0,1,561.67,448.08Z"/><path class="cls-1" d="M565.72,448.3v-2.12h-.58v-.5h.6v-.95h.55v.95h.86v.5h-.86v2.08c0,.34.15.49.46.49h.41v.51h-.52C566,449.26,565.72,448.9,565.72,448.3Z"/><path class="cls-1" d="M393.55,454.76v-.07h.59l.69,2.78h0l.82-2.78h.58l.82,2.78h0l.69-2.78h.58v.07l-1,3.5h-.59l-.82-2.78h0l-.83,2.78h-.6Z"/><path class="cls-1" d="M399.2,453.08h.57v2.17h0a1.1,1.1,0,0,1,1.06-.63,1.18,1.18,0,0,1,1.23,1.32v2.32h-.57V456c0-.56-.27-.88-.82-.88s-.93.43-.93,1.15v2h-.57Z"/><path class="cls-1" d="M403,456.48c0-1,.5-1.86,1.58-1.86s1.5.75,1.5,1.75v.28h-2.48c0,.68.34,1.15,1,1.15a.8.8,0,0,0,.88-.57h.57a1.37,1.37,0,0,1-1.45,1.1C403.6,458.33,403,457.53,403,456.48Zm2.49-.32a.89.89,0,0,0-.91-1,.93.93,0,0,0-1,1Z"/><path class="cls-1" d="M407.14,454.69h.5l.05.56h0a1.11,1.11,0,0,1,1.07-.63,1.17,1.17,0,0,1,1.22,1.32v2.32h-.57V456c0-.56-.25-.88-.81-.88s-.91.42-.91,1.14v2h-.58Z"/><path class="cls-1" d="M413.35,453.08h.57v2.17h0a1.1,1.1,0,0,1,1.06-.63,1.18,1.18,0,0,1,1.23,1.32v2.32h-.57V456c0-.56-.27-.88-.82-.88s-.93.43-.93,1.15v2h-.57Z"/><path class="cls-1" d="M417.19,456.48c0-1,.5-1.86,1.58-1.86s1.5.75,1.5,1.75v.28h-2.48c0,.68.34,1.15,1,1.15a.8.8,0,0,0,.88-.57h.57a1.37,1.37,0,0,1-1.45,1.1C417.75,458.33,417.19,457.53,417.19,456.48Zm2.49-.32a.89.89,0,0,0-.91-1,.93.93,0,0,0-1,1Z"/><path class="cls-1" d="M423.62,455.18H423v-.49h.62v-.63a1,1,0,0,1,1-1.05h.43v.51h-.34a.49.49,0,0,0-.54.54v.63H425v.49h-.85v3.08h-.57Z"/><path class="cls-1" d="M426,453.26h.64v.68H426Zm0,1.43h.57v3.57H426Z"/><path class="cls-1" d="M427.79,454.69h.5l0,.56h0a1.14,1.14,0,0,1,1.08-.63,1.16,1.16,0,0,1,1.21,1.32v2.32h-.57V456c0-.56-.25-.88-.8-.88s-.92.42-.92,1.14v2h-.57Z"/><path class="cls-1" d="M431.61,456.47c0-1.06.5-1.85,1.48-1.85a1.19,1.19,0,0,1,1.05.56h0v-2.1h.57v5.18h-.49l-.08-.49h0a1.19,1.19,0,0,1-1.05.56C432.18,458.33,431.62,457.63,431.61,456.47Zm2.57,0c0-.71-.3-1.32-1-1.32s-1,.61-1,1.32.27,1.33,1,1.33S434.18,457.19,434.18,456.47Z"/><path class="cls-1" d="M435.69,457.08h.57c0,.48.35.72.85.72s.8-.17.8-.51-.16-.43-.53-.51l-.7-.13a1,1,0,0,1-.88-1c0-.59.5-1,1.26-1a1.18,1.18,0,0,1,1.34,1.16h-.55c0-.46-.35-.66-.79-.66s-.71.17-.71.52.22.45.61.51l.54.1c.65.16,1,.42,1,1s-.63,1-1.38,1A1.28,1.28,0,0,1,435.69,457.08Z"/><path class="cls-1" d="M441.86,457.3v-2.12h-.58v-.49h.59v-1h.56v1h.85v.49h-.85v2.08c0,.34.14.49.46.49h.4v.51h-.51C442.09,458.26,441.86,457.9,441.86,457.3Z"/><path class="cls-1" d="M444,456.48c0-1,.5-1.86,1.57-1.86s1.51.75,1.51,1.75v.28h-2.48c0,.68.33,1.15,1,1.15a.81.81,0,0,0,.88-.57H447a1.38,1.38,0,0,1-1.45,1.1C444.56,458.33,444,457.53,444,456.48Zm2.48-.32a.89.89,0,0,0-.91-1,.93.93,0,0,0-1,1Z"/><path class="cls-1" d="M447.84,456.48c0-1.12.53-1.86,1.57-1.86a1.31,1.31,0,0,1,1.43,1.29h-.57a.79.79,0,0,0-.86-.76c-.72,0-1,.59-1,1.33s.27,1.33,1,1.33a.78.78,0,0,0,.87-.75h.57a1.3,1.3,0,0,1-1.43,1.27C448.37,458.33,447.84,457.61,447.84,456.48Z"/><path class="cls-1" d="M451.87,453.08h.58v2.17h0a1.12,1.12,0,0,1,1.06-.63,1.18,1.18,0,0,1,1.24,1.32v2.32h-.58V456c0-.56-.26-.88-.81-.88s-.93.43-.93,1.15v2h-.58Z"/><path class="cls-1" d="M456,454.69h.5l.05.56h0a1.14,1.14,0,0,1,1.08-.63,1.17,1.17,0,0,1,1.22,1.32v2.32h-.57V456c0-.56-.26-.88-.81-.88s-.92.42-.92,1.14v2H456Z"/><path class="cls-1" d="M460.05,453.26h.64v.68h-.64Zm0,1.43h.57v3.57h-.57Z"/><path class="cls-1" d="M461.61,456.48c0-1.12.54-1.86,1.57-1.86a1.31,1.31,0,0,1,1.43,1.29H464a.77.77,0,0,0-.86-.76c-.71,0-1,.59-1,1.33s.28,1.33,1,1.33a.78.78,0,0,0,.87-.75h.58a1.31,1.31,0,0,1-1.44,1.27C462.15,458.33,461.61,457.61,461.61,456.48Z"/><path class="cls-1" d="M465.38,456.49c0-1.07.49-1.87,1.47-1.87a1.16,1.16,0,0,1,1,.56h0l.07-.49h.5v3.57H468l0-.49h0a1.16,1.16,0,0,1-1.07.56C465.87,458.33,465.38,457.51,465.38,456.49Zm2.56,0c0-.72-.3-1.33-1-1.33s-1,.61-1,1.33.28,1.32,1,1.32S467.94,457.2,467.94,456.48Z"/><path class="cls-1" d="M469.73,453.08h.57v5.18h-.57Z"/><path class="cls-1" d="M473.36,456.49c0-1.07.49-1.87,1.48-1.87a1.17,1.17,0,0,1,1.05.56h0l.07-.49h.5v3.57H476l-.05-.49h0a1.17,1.17,0,0,1-1.07.56C473.85,458.33,473.36,457.51,473.36,456.49Zm2.57,0c0-.72-.3-1.33-1-1.33s-1,.61-1,1.33.27,1.32,1,1.32S475.93,457.2,475.93,456.48Z"/><path class="cls-1" d="M477.71,454.69h.5l.05.56h0a1.11,1.11,0,0,1,1.07-.63,1.17,1.17,0,0,1,1.22,1.32v2.32H480V456c0-.56-.25-.88-.81-.88s-.91.42-.91,1.14v2h-.58Z"/><path class="cls-1" d="M481.53,456.47c0-1.06.5-1.85,1.48-1.85a1.16,1.16,0,0,1,1.05.56h0v-2.1h.57v5.18h-.5l-.07-.49h0a1.16,1.16,0,0,1-1.05.56C482.1,458.33,481.54,457.63,481.53,456.47Zm2.57,0c0-.71-.3-1.32-1-1.32s-1,.61-1,1.32.28,1.33,1,1.33S484.1,457.19,484.1,456.47Z"/><path class="cls-1" d="M487.72,456.48c0-1.12.54-1.86,1.58-1.86a1.31,1.31,0,0,1,1.43,1.29h-.58a.77.77,0,0,0-.85-.76c-.72,0-1,.59-1,1.33s.28,1.33,1,1.33a.79.79,0,0,0,.87-.75h.57a1.3,1.3,0,0,1-1.44,1.27C488.26,458.33,487.72,457.61,487.72,456.48Z"/><path class="cls-1" d="M491.49,456.48c0-1,.5-1.86,1.57-1.86s1.57.83,1.57,1.86-.48,1.85-1.57,1.85S491.49,457.51,491.49,456.48Zm2.57,0c0-.77-.29-1.33-1-1.33s-1,.56-1,1.33.29,1.32,1,1.32S494.06,457.25,494.06,456.48Z"/><path class="cls-1" d="M495.66,454.69h.49l.05.56h0a1.12,1.12,0,0,1,1.07-.63,1.17,1.17,0,0,1,1.22,1.32v2.32H498V456c0-.56-.25-.88-.8-.88s-.92.42-.92,1.14v2h-.57Z"/><path class="cls-1" d="M499.48,456.48c0-1.12.53-1.86,1.57-1.86a1.31,1.31,0,0,1,1.43,1.29h-.57a.79.79,0,0,0-.86-.76c-.72,0-1,.59-1,1.33s.27,1.33,1,1.33a.78.78,0,0,0,.87-.75h.57a1.3,1.3,0,0,1-1.43,1.27C500,458.33,499.48,457.61,499.48,456.48Z"/><path class="cls-1" d="M503.24,456.48c0-1,.5-1.86,1.57-1.86s1.51.75,1.51,1.75v.28h-2.48c0,.68.33,1.15,1,1.15a.81.81,0,0,0,.88-.57h.57a1.37,1.37,0,0,1-1.45,1.1C503.79,458.33,503.24,457.53,503.24,456.48Zm2.49-.32a.9.9,0,0,0-.92-1,.93.93,0,0,0-1,1Z"/><path class="cls-1" d="M507.34,454.69h.5l.07.49h0a1.16,1.16,0,0,1,1.05-.56c.91,0,1.47.7,1.48,1.86s-.5,1.85-1.48,1.85a1.16,1.16,0,0,1-1.05-.56h0v2.1h-.57Zm2.55,1.79c0-.72-.28-1.33-1-1.33s-1,.61-1,1.33.3,1.32,1,1.32S509.89,457.19,509.89,456.48Z"/><path class="cls-1" d="M511.73,457.3v-2.12h-.58v-.49h.59v-1h.56v1h.85v.49h-.85v2.08c0,.34.14.49.45.49h.41v.51h-.52C512,458.26,511.73,457.9,511.73,457.3Z"/><path class="cls-1" d="M514.08,457v-2.31h.57v2.22c0,.56.25.88.81.88s.91-.42.91-1.14v-2H517v3.57h-.5l-.05-.56h0a1.12,1.12,0,0,1-1.07.62A1.17,1.17,0,0,1,514.08,457Z"/><path class="cls-1" d="M517.9,456.49c0-1.07.49-1.87,1.48-1.87a1.19,1.19,0,0,1,1,.56h0l.08-.49H521v3.57h-.49l0-.49h0a1.14,1.14,0,0,1-1.06.56C518.39,458.33,517.9,457.51,517.9,456.49Zm2.57,0c0-.72-.3-1.33-1-1.33s-1,.61-1,1.33.27,1.32,1,1.32S520.47,457.2,520.47,456.48Z"/><path class="cls-1" d="M522.25,453.08h.57v5.18h-.57Z"/><path class="cls-1" d="M525.89,456.49c0-1.07.49-1.87,1.48-1.87a1.16,1.16,0,0,1,1,.56h0l.08-.49H529v3.57h-.49l0-.49h0a1.16,1.16,0,0,1-1.07.56C526.38,458.33,525.89,457.51,525.89,456.49Zm2.56,0c0-.72-.3-1.33-1-1.33s-1,.61-1,1.33.27,1.32,1,1.32S528.45,457.2,528.45,456.48Z"/><path class="cls-1" d="M530.84,457.77h0l-.07.49h-.5v-5.18h.57v2.1h0a1.16,1.16,0,0,1,1-.56c1,0,1.47.79,1.47,1.85s-.56,1.86-1.47,1.86A1.16,1.16,0,0,1,530.84,457.77Zm1.94-1.3c0-.71-.27-1.32-1-1.32s-1,.61-1,1.32.3,1.33,1,1.33S532.78,457.19,532.78,456.47Z"/><path class="cls-1" d="M534.35,453.26H535v.68h-.64Zm0,1.43H535v3.57h-.57Z"/><path class="cls-1" d="M536.18,453.08h.58v5.18h-.58Z"/><path class="cls-1" d="M538,453.26h.64v.68H538Zm0,1.43h.57v3.57H538Z"/><path class="cls-1" d="M540,457.3v-2.12h-.58v-.49H540v-1h.56v1h.85v.49h-.85v2.08c0,.34.14.49.45.49h.41v.51h-.51C540.25,458.26,540,457.9,540,457.3Z"/><path class="cls-1" d="M542.58,454.69l1,2.8h0l1-2.8h.6v.07l-1.93,5.11h-.58v-.07l.6-1.56v0l-1.4-3.46v-.07Z"/><path class="cls-1" d="M548.14,457v-2.31h.57v2.22c0,.56.25.88.8.88s.92-.42.92-1.14v-2H551v3.57h-.49l0-.56h0a1.13,1.13,0,0,1-1.07.62A1.17,1.17,0,0,1,548.14,457Z"/><path class="cls-1" d="M552,457.08h.57c0,.48.36.72.85.72s.8-.17.8-.51-.16-.43-.53-.51l-.7-.13a1,1,0,0,1-.88-1c0-.59.5-1,1.26-1a1.19,1.19,0,0,1,1.35,1.16h-.56c0-.46-.35-.66-.79-.66s-.71.17-.71.52.22.45.61.51l.54.1c.65.16,1,.42,1,1s-.63,1-1.38,1A1.28,1.28,0,0,1,552,457.08Z"/><path class="cls-1" d="M555.51,456.48c0-1,.49-1.86,1.57-1.86s1.5.75,1.5,1.75v.28h-2.47c0,.68.33,1.15,1,1.15a.79.79,0,0,0,.87-.57h.58a1.38,1.38,0,0,1-1.45,1.1C556.06,458.33,555.51,457.53,555.51,456.48Zm2.48-.32a.89.89,0,0,0-.91-1,.93.93,0,0,0-1,1Z"/><path class="cls-1" d="M559.33,456.47c0-1.06.5-1.85,1.48-1.85a1.16,1.16,0,0,1,1.05.56h0v-2.1h.57v5.18H562l-.07-.49h0a1.16,1.16,0,0,1-1.05.56C559.9,458.33,559.34,457.63,559.33,456.47Zm2.57,0c0-.71-.3-1.32-1-1.32s-1,.61-1,1.32.28,1.33,1,1.33S561.9,457.19,561.9,456.47Z"/><path class="cls-1" d="M394,462.26h.64v.68H394Zm0,1.43h.58v3.57H394Z"/><path class="cls-1" d="M395.82,463.69h.5l.05.56h0a1.14,1.14,0,0,1,1.08-.63,1.17,1.17,0,0,1,1.22,1.32v2.32h-.57V465c0-.56-.26-.88-.81-.88s-.92.42-.92,1.14v2h-.57Z"/><path class="cls-1" d="M401.75,465.48c0-1,.5-1.86,1.57-1.86s1.51.75,1.51,1.75v.28h-2.48c0,.68.34,1.15,1,1.15a.81.81,0,0,0,.88-.57h.57a1.37,1.37,0,0,1-1.45,1.1C402.3,467.33,401.75,466.53,401.75,465.48Zm2.49-.32a.9.9,0,0,0-.92-1,.93.93,0,0,0-1,1Z"/><path class="cls-1" d="M408.13,466.77h0a1.16,1.16,0,0,1-1,.56c-1,0-1.47-.79-1.48-1.85s.56-1.86,1.48-1.86a1.16,1.16,0,0,1,1,.56h0l.08-.49h.49v5.18h-.57Zm0-1.29c0-.72-.3-1.33-1-1.33s-1,.61-1,1.33.27,1.32,1,1.32S408.15,466.19,408.15,465.48Z"/><path class="cls-1" d="M409.86,466v-2.31h.58v2.22c0,.56.25.88.8.88s.92-.42.92-1.14v-2h.57v3.57h-.5l-.05-.56h0a1.15,1.15,0,0,1-1.08.62A1.17,1.17,0,0,1,409.86,466Z"/><path class="cls-1" d="M413.68,465.49c0-1.07.49-1.87,1.48-1.87a1.17,1.17,0,0,1,1,.56h0l.08-.49h.5v3.57h-.5l-.05-.49h0a1.14,1.14,0,0,1-1.06.56C414.17,467.33,413.68,466.51,413.68,465.49Zm2.57,0c0-.72-.3-1.33-1-1.33s-1,.61-1,1.33.27,1.32,1,1.32S416.25,466.2,416.25,465.48Z"/><path class="cls-1" d="M418,462.08h.58v5.18H418Z"/><path class="cls-1" d="M427,464.94v2.32h-.57V465c0-.55-.24-.88-.77-.88s-.87.42-.87,1.14v2h-.57V465c0-.55-.24-.88-.77-.88s-.88.42-.88,1.14v2h-.58v-3.57h.5l.05.56h0a1.17,1.17,0,0,1,2.08,0h0a1.24,1.24,0,0,1,2.32.69Z"/><path class="cls-1" d="M427.91,465.48c0-1,.49-1.86,1.57-1.86s1.5.75,1.5,1.75v.28h-2.47c0,.68.33,1.15,1,1.15a.79.79,0,0,0,.87-.57h.58a1.38,1.38,0,0,1-1.45,1.1C428.46,467.33,427.91,466.53,427.91,465.48Zm2.48-.32a.89.89,0,0,0-.91-1,.93.93,0,0,0-1,1Z"/><path class="cls-1" d="M431.73,465.49c0-1.07.49-1.87,1.48-1.87a1.16,1.16,0,0,1,1.05.56h0l.07-.49h.5v3.57h-.5l-.05-.49h0a1.17,1.17,0,0,1-1.07.56C432.22,467.33,431.73,466.51,431.73,465.49Zm2.57,0c0-.72-.3-1.33-1-1.33s-1,.61-1,1.33.28,1.32,1,1.32S434.3,466.2,434.3,465.48Z"/><path class="cls-1" d="M435.81,466.08h.58c0,.48.35.72.85.72s.79-.17.79-.51-.15-.43-.53-.51l-.69-.13a1,1,0,0,1-.89-1c0-.59.5-1,1.27-1a1.19,1.19,0,0,1,1.34,1.16H438c0-.46-.35-.66-.78-.66s-.72.17-.72.52.23.45.61.51l.54.1c.66.16,1,.42,1,1s-.63,1-1.37,1A1.28,1.28,0,0,1,435.81,466.08Z"/><path class="cls-1" d="M439.56,466v-2.31h.58v2.22c0,.56.25.88.8.88s.92-.42.92-1.14v-2h.57v3.57h-.5l0-.56h0a1.15,1.15,0,0,1-1.08.62A1.17,1.17,0,0,1,439.56,466Z"/><path class="cls-1" d="M443.66,463.69h.49l.05.6h0a1,1,0,0,1,.92-.65h.31v.57h-.27c-.66,0-1,.48-1,1.32v1.73h-.57Z"/><path class="cls-1" d="M446,465.48c0-1,.5-1.86,1.57-1.86s1.51.75,1.51,1.75v.28h-2.48c0,.68.33,1.15,1,1.15a.81.81,0,0,0,.88-.57H449a1.37,1.37,0,0,1-1.45,1.1C446.52,467.33,446,466.53,446,465.48Zm2.49-.32a.9.9,0,0,0-.92-1,.93.93,0,0,0-1,1Z"/><path class="cls-1" d="M449.75,468.13l.21-1.59h.67v.07l-.42,1.59h-.46Z"/><path class="cls-1" d="M453.6,465.48c0-1,.5-1.86,1.57-1.86s1.57.83,1.57,1.86-.48,1.85-1.57,1.85S453.6,466.51,453.6,465.48Zm2.56,0c0-.77-.28-1.33-1-1.33s-1,.56-1,1.33.29,1.32,1,1.32S456.16,466.25,456.16,465.48Z"/><path class="cls-1" d="M457.77,463.69h.49l.05.6h0a1,1,0,0,1,.92-.65h.31v.57h-.27c-.66,0-1,.48-1,1.32v1.73h-.57Z"/><path class="cls-1" d="M462.12,463.76v-.07h.6l.69,2.78h0l.81-2.78h.59l.81,2.78h0l.7-2.78H467v.07l-1,3.5h-.6l-.81-2.78h0l-.84,2.78h-.59Z"/><path class="cls-1" d="M467.77,462.08h.58v2.17h0a1.12,1.12,0,0,1,1.07-.63,1.18,1.18,0,0,1,1.23,1.32v2.32h-.57V465c0-.56-.27-.88-.82-.88s-.93.43-.93,1.15v2h-.58Z"/><path class="cls-1" d="M471.62,465.48c0-1,.5-1.86,1.57-1.86s1.51.75,1.51,1.75v.28h-2.48c0,.68.33,1.15,1,1.15a.81.81,0,0,0,.88-.57h.57a1.38,1.38,0,0,1-1.45,1.1C472.17,467.33,471.62,466.53,471.62,465.48Zm2.48-.32a.89.89,0,0,0-.91-1,.93.93,0,0,0-1,1Z"/><path class="cls-1" d="M475.72,463.69h.5l0,.56h0a1.14,1.14,0,0,1,1.08-.63,1.16,1.16,0,0,1,1.21,1.32v2.32H478V465c0-.56-.25-.88-.8-.88s-.92.42-.92,1.14v2h-.57Z"/><path class="cls-1" d="M481.92,462.08h.58v2.17h0a1.12,1.12,0,0,1,1.06-.63,1.18,1.18,0,0,1,1.24,1.32v2.32h-.58V465c0-.56-.26-.88-.81-.88s-.93.43-.93,1.15v2h-.58Z"/><path class="cls-1" d="M485.77,465.48c0-1,.5-1.86,1.57-1.86s1.51.75,1.51,1.75v.28h-2.48c0,.68.33,1.15,1,1.15a.81.81,0,0,0,.88-.57h.57a1.38,1.38,0,0,1-1.45,1.1C486.32,467.33,485.77,466.53,485.77,465.48Zm2.48-.32a.89.89,0,0,0-.91-1,.93.93,0,0,0-1,1Z"/><path class="cls-1" d="M492.2,464.18h-.62v-.49h.62v-.63a1,1,0,0,1,1-1.05h.44v.51h-.34a.49.49,0,0,0-.54.54v.63h.84v.49h-.84v3.08h-.57Z"/><path class="cls-1" d="M494.53,462.26h.64v.68h-.64Zm0,1.43h.57v3.57h-.57Z"/><path class="cls-1" d="M496.36,463.69h.5l.05.56h0a1.11,1.11,0,0,1,1.07-.63,1.17,1.17,0,0,1,1.22,1.32v2.32h-.57V465c0-.56-.25-.88-.81-.88s-.91.42-.91,1.14v2h-.58Z"/><path class="cls-1" d="M500.19,465.47c0-1.06.49-1.85,1.47-1.85a1.16,1.16,0,0,1,1,.56h0v-2.1h.57v5.18h-.5l-.07-.49h0a1.16,1.16,0,0,1-1,.56C500.75,467.33,500.19,466.63,500.19,465.47Zm2.56,0c0-.71-.3-1.32-1-1.32s-1,.61-1,1.32.28,1.33,1,1.33S502.75,466.19,502.75,465.47Z"/><path class="cls-1" d="M504.26,466.08h.58c0,.48.35.72.85.72s.79-.17.79-.51-.15-.43-.53-.51l-.69-.13a1,1,0,0,1-.89-1c0-.59.5-1,1.27-1a1.19,1.19,0,0,1,1.34,1.16h-.56c0-.46-.35-.66-.78-.66s-.72.17-.72.52.23.45.61.51l.54.1c.66.16,1,.42,1,1s-.62,1-1.37,1A1.28,1.28,0,0,1,504.26,466.08Z"/><path class="cls-1" d="M509.92,465.49c0-1.07.49-1.87,1.48-1.87a1.17,1.17,0,0,1,1.05.56h0l.07-.49h.5v3.57h-.5l0-.49h0a1.17,1.17,0,0,1-1.07.56C510.41,467.33,509.92,466.51,509.92,465.49Zm2.57,0c0-.72-.3-1.33-1-1.33s-1,.61-1,1.33.27,1.32,1,1.32S512.49,466.2,512.49,465.48Z"/><path class="cls-1" d="M516.11,465.48c0-1.12.54-1.86,1.58-1.86a1.29,1.29,0,0,1,1.42,1.29h-.57a.77.77,0,0,0-.85-.76c-.72,0-1,.59-1,1.33s.28,1.33,1,1.33a.79.79,0,0,0,.87-.75h.57a1.3,1.3,0,0,1-1.44,1.27C516.65,467.33,516.11,466.61,516.11,465.48Z"/><path class="cls-1" d="M520.08,466v-2.31h.57v2.22c0,.56.26.88.81.88s.92-.42.92-1.14v-2H523v3.57h-.5l-.05-.56h0a1.15,1.15,0,0,1-1.08.62A1.17,1.17,0,0,1,520.08,466Z"/><path class="cls-1" d="M524.17,463.69h.5l.05.6h0a1,1,0,0,1,.91-.65H526v.57h-.27c-.66,0-1,.48-1,1.32v1.73h-.58Z"/><path class="cls-1" d="M526.86,462.26h.64v.68h-.64Zm0,1.43h.57v3.57h-.57Z"/><path class="cls-1" d="M528.42,465.48c0-1,.5-1.86,1.58-1.86s1.57.83,1.57,1.86-.49,1.85-1.57,1.85S528.42,466.51,528.42,465.48Zm2.57,0c0-.77-.29-1.33-1-1.33s-1,.56-1,1.33.29,1.32,1,1.32S531,466.25,531,465.48Z"/><path class="cls-1" d="M532.52,466v-2.31h.57v2.22c0,.56.26.88.81.88s.91-.42.91-1.14v-2h.58v3.57h-.5l0-.56h0a1.12,1.12,0,0,1-1.07.62A1.17,1.17,0,0,1,532.52,466Z"/><path class="cls-1" d="M536.34,466.08h.57c0,.48.36.72.85.72s.8-.17.8-.51-.16-.43-.53-.51l-.69-.13a1,1,0,0,1-.89-1c0-.59.5-1,1.27-1a1.19,1.19,0,0,1,1.34,1.16h-.56c0-.46-.35-.66-.78-.66s-.72.17-.72.52.23.45.61.51l.54.1c.66.16,1,.42,1,1s-.63,1-1.38,1A1.28,1.28,0,0,1,536.34,466.08Z"/><path class="cls-1" d="M394,472.69h.5l.05.56h0a1.11,1.11,0,0,1,1.07-.63,1.17,1.17,0,0,1,1.22,1.32v2.32h-.57V474c0-.56-.25-.88-.81-.88s-.91.42-.91,1.14v2H394Z"/><path class="cls-1" d="M397.84,474.49c0-1.07.49-1.87,1.48-1.87a1.16,1.16,0,0,1,1.05.56h0l.07-.49h.5v3.57h-.5l-.05-.49h0a1.16,1.16,0,0,1-1.07.56C398.33,476.33,397.84,475.51,397.84,474.49Zm2.57,0c0-.72-.3-1.33-1-1.33s-1,.61-1,1.33.28,1.32,1,1.32S400.41,475.2,400.41,474.48Z"/><path class="cls-1" d="M402.19,472.69h.5l.05.6h0a1,1,0,0,1,.92-.65H404v.57h-.27c-.66,0-1,.48-1,1.32v1.73h-.58Z"/><path class="cls-1" d="M405.14,472.69h.49l.05.6h0a1,1,0,0,1,.92-.65h.31v.57h-.27c-.66,0-1,.48-1,1.32v1.73h-.57Z"/><path class="cls-1" d="M407.45,474.49c0-1.07.49-1.87,1.48-1.87a1.17,1.17,0,0,1,1.05.56h0l.08-.49h.5v3.57h-.5l-.05-.49h0a1.14,1.14,0,0,1-1.06.56C407.94,476.33,407.45,475.51,407.45,474.49Zm2.57,0c0-.72-.3-1.33-1-1.33s-1,.61-1,1.33.27,1.32,1,1.32S410,475.2,410,474.48Z"/><path class="cls-1" d="M412,475.3v-2.12h-.58v-.49h.6v-1h.55v1h.85v.49h-.85v2.08c0,.34.15.49.46.49h.41v.51H413C412.27,476.26,412,475.9,412,475.3Z"/><path class="cls-1" d="M414.43,471.26h.64v.68h-.64Zm0,1.43H415v3.57h-.58Z"/><path class="cls-1" d="M415.79,472.76v-.07h.59l1.07,2.89h0l1-2.89h.59v.07l-1.34,3.5h-.6Z"/><path class="cls-1" d="M419.54,474.48c0-1,.49-1.86,1.57-1.86s1.5.75,1.5,1.75v.28h-2.47c0,.68.33,1.15,1,1.15a.79.79,0,0,0,.87-.57h.58a1.38,1.38,0,0,1-1.45,1.1C420.09,476.33,419.54,475.53,419.54,474.48Zm2.48-.32a.89.89,0,0,0-.91-1,.93.93,0,0,0-1,1Z"/><path class="cls-1" d="M426,475.3v-2.12h-.57v-.49H426v-1h.56v1h.85v.49h-.85v2.08c0,.34.14.49.45.49h.41v.51h-.52C426.22,476.26,426,475.9,426,475.3Z"/><path class="cls-1" d="M428.41,471.08H429v2.17h0a1.1,1.1,0,0,1,1.06-.63,1.18,1.18,0,0,1,1.23,1.32v2.32h-.57V474c0-.56-.27-.88-.82-.88s-.93.43-.93,1.15v2h-.57Z"/><path class="cls-1" d="M432.26,474.49c0-1.07.49-1.87,1.47-1.87a1.16,1.16,0,0,1,1,.56h0l.07-.49h.5v3.57h-.5l0-.49h0a1.16,1.16,0,0,1-1.07.56C432.75,476.33,432.26,475.51,432.26,474.49Zm2.56,0c0-.72-.3-1.33-1-1.33s-1,.61-1,1.33.28,1.32,1,1.32S434.82,475.2,434.82,474.48Z"/><path class="cls-1" d="M436.84,475.3v-2.12h-.57v-.49h.59v-1h.56v1h.85v.49h-.85v2.08c0,.34.14.49.45.49h.41v.51h-.52C437.08,476.26,436.84,475.9,436.84,475.3Z"/><path class="cls-1" d="M441.11,474.48c0-1.12.53-1.86,1.57-1.86a1.31,1.31,0,0,1,1.43,1.29h-.57a.79.79,0,0,0-.86-.76c-.72,0-1,.59-1,1.33s.27,1.33,1,1.33a.78.78,0,0,0,.87-.75h.57a1.3,1.3,0,0,1-1.43,1.27C441.64,476.33,441.11,475.61,441.11,474.48Z"/><path class="cls-1" d="M444.87,474.48c0-1,.5-1.86,1.57-1.86s1.58.83,1.58,1.86-.49,1.85-1.58,1.85S444.87,475.51,444.87,474.48Zm2.57,0c0-.77-.29-1.33-1-1.33s-1,.56-1,1.33.29,1.32,1,1.32S447.44,475.25,447.44,474.48Z"/><path class="cls-1" d="M454.05,473.94v2.32h-.57V474c0-.55-.24-.88-.77-.88s-.87.42-.87,1.14v2h-.58V474c0-.55-.23-.88-.76-.88s-.89.42-.89,1.14v2H449v-3.57h.5l0,.56h0a1.18,1.18,0,0,1,2.09,0h0a1.14,1.14,0,0,1,1.12-.63A1.16,1.16,0,0,1,454.05,473.94Z"/><path class="cls-1" d="M455.28,472.69h.49l.08.49h0a1.19,1.19,0,0,1,1.05-.56c.91,0,1.47.7,1.48,1.86s-.5,1.85-1.48,1.85a1.19,1.19,0,0,1-1.05-.56h0v2.1h-.57Zm2.54,1.79c0-.72-.27-1.33-1-1.33s-1,.61-1,1.33.3,1.32,1,1.32S457.82,475.19,457.82,474.48Z"/><path class="cls-1" d="M459.15,474.48c0-1,.5-1.86,1.57-1.86s1.51.75,1.51,1.75v.28h-2.48c0,.68.33,1.15,1,1.15a.81.81,0,0,0,.88-.57h.57a1.38,1.38,0,0,1-1.45,1.1C459.7,476.33,459.15,475.53,459.15,474.48Zm2.48-.32a.89.89,0,0,0-.91-1,.93.93,0,0,0-1,1Z"/><path class="cls-1" d="M463.25,471.08h.57v5.18h-.57Z"/><path class="cls-1" d="M464.77,475.08h.58c0,.48.35.72.85.72s.79-.17.79-.51-.15-.43-.53-.51l-.69-.13a1,1,0,0,1-.89-1c0-.59.5-1,1.27-1a1.19,1.19,0,0,1,1.34,1.16h-.56c0-.46-.35-.66-.78-.66s-.72.17-.72.52.23.45.61.51l.54.1c.66.16,1,.42,1,1s-.63,1-1.37,1A1.28,1.28,0,0,1,464.77,475.08Z"/><path class="cls-1" d="M470.84,472.69l1.06,2.8h0l1-2.8h.6v.07l-1.92,5.11H471v-.07l.59-1.56v0l-1.39-3.46v-.07Z"/><path class="cls-1" d="M474,474.48c0-1,.5-1.86,1.57-1.86s1.57.83,1.57,1.86-.48,1.85-1.57,1.85S474,475.51,474,474.48Zm2.57,0c0-.77-.29-1.33-1-1.33s-1,.56-1,1.33.29,1.32,1,1.32S476.59,475.25,476.59,474.48Z"/><path class="cls-1" d="M478.12,475v-2.31h.57v2.22c0,.56.25.88.8.88s.92-.42.92-1.14v-2H481v3.57h-.49l-.05-.56h0a1.13,1.13,0,0,1-1.07.62A1.17,1.17,0,0,1,478.12,475Z"/><path class="cls-1" d="M484.56,475.3v-2.12H484v-.49h.59v-1h.56v1H486v.49h-.85v2.08c0,.34.15.49.46.49H486v.51h-.52C484.79,476.26,484.56,475.9,484.56,475.3Z"/><path class="cls-1" d="M486.71,474.48c0-1,.5-1.86,1.57-1.86s1.58.83,1.58,1.86-.49,1.85-1.58,1.85S486.71,475.51,486.71,474.48Zm2.57,0c0-.77-.29-1.33-1-1.33s-1,.56-1,1.33.29,1.32,1,1.32S489.28,475.25,489.28,474.48Z"/><path class="cls-1" d="M493,471.08h.57v5.18H493Z"/><path class="cls-1" d="M494.51,474.48c0-1,.5-1.86,1.58-1.86s1.57.83,1.57,1.86-.48,1.85-1.57,1.85S494.51,475.51,494.51,474.48Zm2.57,0c0-.77-.29-1.33-1-1.33s-1,.56-1,1.33.3,1.32,1,1.32S497.08,475.25,497.08,474.48Z"/><path class="cls-1" d="M498.41,474.48c0-1,.5-1.86,1.57-1.86s1.57.83,1.57,1.86-.48,1.85-1.57,1.85S498.41,475.51,498.41,474.48Zm2.57,0c0-.77-.29-1.33-1-1.33s-1,.56-1,1.33.29,1.32,1,1.32S501,475.25,501,474.48Z"/><path class="cls-1" d="M503.15,471.08v5.18h-.57v-5.18Zm2.18,5.11v.07h-.66l-1.52-2,1.47-1.56h.67v.07l-1.41,1.49Z"/><path class="cls-1" d="M508,474.49c0-1.07.49-1.87,1.48-1.87a1.16,1.16,0,0,1,1,.56h0l.08-.49h.49v3.57h-.49l-.05-.49h0a1.16,1.16,0,0,1-1.07.56C508.48,476.33,508,475.51,508,474.49Zm2.57,0c0-.72-.3-1.33-1-1.33s-1,.61-1,1.33.27,1.32,1,1.32S510.56,475.2,510.56,474.48Z"/><path class="cls-1" d="M512.17,476.72h.55c0,.34.29.71.93.71a.89.89,0,0,0,1-1v-.69h0a1.16,1.16,0,0,1-1,.56c-1,0-1.48-.79-1.48-1.85s.56-1.86,1.48-1.86a1.16,1.16,0,0,1,1,.56h0l.07-.49h.5v3.78a1.41,1.41,0,0,1-1.54,1.46A1.32,1.32,0,0,1,512.17,476.72Zm2.46-2.24c0-.72-.3-1.33-1-1.33s-1,.61-1,1.33.27,1.32,1,1.32S514.63,475.19,514.63,474.48Z"/><path class="cls-1" d="M516.15,474.49c0-1.07.49-1.87,1.47-1.87a1.16,1.16,0,0,1,1,.56h0l.07-.49h.5v3.57h-.5l0-.49h0a1.16,1.16,0,0,1-1.07.56C516.64,476.33,516.15,475.51,516.15,474.49Zm2.56,0c0-.72-.3-1.33-1-1.33s-1,.61-1,1.33.27,1.32,1,1.32S518.71,475.2,518.71,474.48Z"/><path class="cls-1" d="M520.46,471.26h.64v.68h-.64Zm0,1.43h.57v3.57h-.57Z"/><path class="cls-1" d="M522.3,472.69h.49l.05.56h0a1.11,1.11,0,0,1,1.07-.63,1.17,1.17,0,0,1,1.22,1.32v2.32h-.57V474c0-.56-.25-.88-.8-.88s-.92.42-.92,1.14v2h-.57Z"/><path class="cls-1" d="M526.22,475.49H527v.77h-.73Z"/></g><g id="Credits"><path d="M33.23,27.47h1.52a1.74,1.74,0,0,1,1.85,1.75v1.46a1.69,1.69,0,0,1-1.85,1.7H33.23Zm1.52,4.25a1,1,0,0,0,1.1-1V29.23a1,1,0,0,0-1.1-1.09H34v3.58Z"/><path d="M37.87,30.55a1.8,1.8,0,0,1,1.82-1.93,1.75,1.75,0,0,1,1.8,1.89v.27H38.6a1.15,1.15,0,0,0,2.14.49h.71a1.69,1.69,0,0,1-1.74,1.2A1.81,1.81,0,0,1,37.87,30.55Zm2.88-.34a1,1,0,0,0-1.06-1,1.05,1.05,0,0,0-1.07,1Z"/><path d="M42.64,28.71h.78l1,2.78h0l1-2.78h.79l-1.39,3.67H44Z"/><path d="M50.78,31.77v.61H47.6v-.61h1.26V29.32H47.74v-.61H49.6v3.06Zm-2-4.1a.49.49,0,1,1,.48.47A.46.46,0,0,1,48.75,27.67Z"/><path d="M52.12,30.55A1.86,1.86,0,0,1,54,28.62,1.74,1.74,0,0,1,55.79,30H55a1,1,0,0,0-1-.71,1.26,1.26,0,0,0,0,2.51,1,1,0,0,0,1-.69h.75A1.72,1.72,0,0,1,54,32.47,1.85,1.85,0,0,1,52.12,30.55Z"/><path d="M56.91,30.55a1.8,1.8,0,0,1,1.82-1.93,1.75,1.75,0,0,1,1.8,1.89v.27H57.64a1.15,1.15,0,0,0,2.14.49h.71a1.69,1.69,0,0,1-1.74,1.2A1.81,1.81,0,0,1,56.91,30.55Zm2.88-.34a1,1,0,0,0-1.06-1,1.07,1.07,0,0,0-1.08,1Z"/><path d="M66.12,27.47h.7l.92,3h0v-3h.66v4.91h-.73l-.89-3h0v3h-.66Zm2.66,1.27v-.66a.74.74,0,0,1,1.48,0v.66a.74.74,0,0,1-1.48,0Zm0,1.14h1.44v.49H68.8Zm1-1.18v-.58a.29.29,0,1,0-.58,0v.58a.29.29,0,1,0,.58,0Z"/><path d="M71.37,30.88V29a1.63,1.63,0,0,1,3.25,0v1.92a1.63,1.63,0,0,1-3.25,0Zm2.5,0V29a.88.88,0,1,0-1.76,0v1.83a.88.88,0,1,0,1.76,0Zm-1.26-.93a.39.39,0,0,1,.39-.38.38.38,0,1,1,0,.76A.39.39,0,0,1,72.61,29.91Z"/><path d="M76.11,31h.7a.85.85,0,0,0,.9.74.91.91,0,0,0,.92-.95.89.89,0,0,0-1-.92.88.88,0,0,0-.77.41h-.7l.18-2.84h2.7v.68H77l-.09,1.38h0a1.33,1.33,0,0,1,.84-.29,1.56,1.56,0,0,1,1.58,1.58,1.62,1.62,0,0,1-1.66,1.65A1.54,1.54,0,0,1,76.11,31Z"/><path d="M781.71,561.44a2.27,2.27,0,0,1,1.78.66h0a1.66,1.66,0,0,1,0-.34v-.18h2v6.24h-2v-.41a3.16,3.16,0,0,1,0-.35h0a2.08,2.08,0,0,1-1.8.91c-1.7,0-2.81-1.34-2.81-3.27S780.05,561.44,781.71,561.44Zm.49,4.79c.63,0,1.22-.46,1.22-1.53,0-.76-.4-1.49-1.22-1.49-.66,0-1.23.53-1.23,1.49S781.47,566.23,782.2,566.23Z"/><path d="M786.3,559.91h2.1v1.67h1.31v1.64H788.4v2c0,.7.71.8,1.11.8h.28v1.8a3.67,3.67,0,0,1-.57,0c-1,0-2.92-.27-2.92-2.35Z"/><path d="M790.65,561.58h2.1v6.24h-2.1Zm0-2.42h2.05v1.64h-2.05Z"/><path d="M793.69,561.58h1.89v.32c0,.2,0,.4,0,.4h0a2.28,2.28,0,0,1,1.89-.86c1.69,0,2.81,1.33,2.81,3.27a3,3,0,0,1-2.91,3.26,2.26,2.26,0,0,1-1.58-.6h0a4.42,4.42,0,0,1,0,.54v2.33h-2.1Zm3.26,4.65c.65,0,1.22-.53,1.22-1.49s-.5-1.53-1.22-1.53-1.23.46-1.23,1.53C795.72,565.5,796.12,566.23,797,566.23Z"/><path d="M804.11,561.44a3.28,3.28,0,1,1-3.53,3.28A3.32,3.32,0,0,1,804.11,561.44Zm0,4.78a1.41,1.41,0,0,0,1.41-1.5,1.42,1.42,0,1,0-2.83,0A1.41,1.41,0,0,0,804.12,566.22Z"/><path d="M808.5,566.22a.88.88,0,1,1-.85.87A.86.86,0,0,1,808.5,566.22Zm0,1.58a.71.71,0,1,0-.67-.71A.68.68,0,0,0,808.5,567.8Zm-.29-1.16h.35a.26.26,0,0,1,.28.27.24.24,0,0,1-.16.24h0l0,.05.17.33h-.19l-.16-.35h-.15v.35h-.17Zm.31.43a.14.14,0,0,0,.15-.16.13.13,0,0,0-.15-.14h-.14v.3Z"/><path d="M31.6,565.79v-.94a1.87,1.87,0,0,1,3.74,0v.94a1.87,1.87,0,0,1-3.74,0Zm3.28,0v-.9a1.41,1.41,0,0,0-2.82,0v.9a1.41,1.41,0,0,0,2.82,0Zm-2.39-.07V565a.94.94,0,0,1,1-1,.9.9,0,0,1,1,.93h-.5a.43.43,0,0,0-.46-.44A.47.47,0,0,0,33,565v.67c0,.3.14.53.48.53a.41.41,0,0,0,.47-.44h.51a.91.91,0,0,1-1,.93A.94.94,0,0,1,32.49,565.7Z"/><path d="M41.18,566A1.77,1.77,0,0,1,42.92,564a1.39,1.39,0,0,1,1.2.62h0v-.53h.74v3.66h-.71v-.52h0a1.36,1.36,0,0,1-1.18.61A1.76,1.76,0,0,1,41.18,566Zm3,0a1.13,1.13,0,0,0-1.14-1.26A1.14,1.14,0,0,0,41.93,566a1.13,1.13,0,0,0,1.13,1.25A1.14,1.14,0,0,0,44.19,566Z"/><path d="M47.27,566.61v-1.9h-1.1v-.59h.93a.21.21,0,0,0,.21-.24v-.81H48v1h1.43v.6H48v1.88c0,.35.14.56.53.56h.76v.62h-.87A1.05,1.05,0,0,1,47.27,566.61Z"/><path d="M54.15,567.17v.6H51v-.6h1.26v-2.46H51.11v-.6H53v3.06Zm-2-4.1a.47.47,0,0,1,.49-.47.46.46,0,0,1,.48.47.45.45,0,0,1-.48.47A.46.46,0,0,1,52.12,563.07Z"/><path d="M55.46,564.11h.72v.53h0a1.4,1.4,0,0,1,1.19-.62,1.93,1.93,0,0,1,0,3.84,1.35,1.35,0,0,1-1.19-.62h0v2.14h-.74Zm3,1.83a1.13,1.13,0,0,0-1.13-1.26,1.15,1.15,0,0,0-1.12,1.26,1.13,1.13,0,1,0,2.25,0Z"/><path d="M60.15,566a1.94,1.94,0,1,1,1.93,1.91A1.88,1.88,0,0,1,60.15,566Zm3.12,0a1.19,1.19,0,0,0-1.19-1.26A1.26,1.26,0,1,0,63.27,566Z"/><path d="M66.52,567h.76l-.34,1.66H66.4Z"/><path d="M74.8,567.08a1.64,1.64,0,0,1,1-1.46l.9-.56a1,1,0,0,0,.49-.82.75.75,0,0,0-.84-.76.79.79,0,0,0-.82.79h-.7a1.56,1.56,0,0,1,3.12,0,1.56,1.56,0,0,1-.87,1.4l-.9.55c-.45.29-.6.53-.6.84v.09h2.39v.67H74.8Z"/><path d="M79.5,566.28v-1.92a1.63,1.63,0,0,1,3.26,0v1.92a1.63,1.63,0,0,1-3.26,0Zm2.51,0V564.4a.89.89,0,1,0-1.77,0v1.84a.89.89,0,1,0,1.77,0Zm-1.26-.93a.38.38,0,1,1,.38.38A.38.38,0,0,1,80.75,565.31Z"/><path d="M84.31,567.08a1.65,1.65,0,0,1,1-1.46l.9-.56a1,1,0,0,0,.49-.82.75.75,0,0,0-.84-.76.79.79,0,0,0-.82.79h-.7a1.56,1.56,0,0,1,3.12,0,1.56,1.56,0,0,1-.87,1.4l-.9.55c-.46.29-.6.53-.6.84v.09h2.39v.67H84.31Z"/><path d="M92.29,567.1v.67H89.07v-.67h1.1v-2.93H89v-.59c.92,0,1.23-.21,1.23-.71h.69v4.23Z"/><path d="M98.31,565.34H102V566h-3.7Z"/><path d="M108.23,562.87h2.91v.67H109V565h2v.66h-2v2.08h-.75Z"/><path d="M112.51,566a1.94,1.94,0,1,1,1.93,1.91A1.88,1.88,0,0,1,112.51,566Zm3.12,0a1.19,1.19,0,0,0-1.19-1.26,1.26,1.26,0,1,0,1.19,1.26Z"/><path d="M117.61,564.11h.72v.49h0a1.15,1.15,0,0,1,1.07-.58,1.31,1.31,0,0,1,1.34,1.4v2.35h-.73v-2.21a.81.81,0,0,0-.82-.85.89.89,0,0,0-.89.93v2.13h-.74Z"/><path d="M123.43,566.61v-1.9h-1.1v-.59h.93a.21.21,0,0,0,.21-.24v-.81h.7v1h1.43v.6h-1.43v1.88c0,.35.14.56.53.56h.76v.62h-.87A1.05,1.05,0,0,1,123.43,566.61Z"/><path d="M127.25,566.69h.69c0,.38.32.57.8.57s.75-.22.75-.54c0-.89-2.15-.14-2.15-1.63,0-.62.55-1.07,1.39-1.07a1.24,1.24,0,0,1,1.37,1.1h-.68c0-.31-.28-.51-.72-.51s-.67.19-.67.47c0,.81,2.17,0,2.17,1.61,0,.69-.57,1.17-1.48,1.17S127.29,567.4,127.25,566.69Z"/><path d="M136.75,562.87h2.91v.67h-2.15V565h1.85v.66h-1.85v1.5h2.22v.65h-3Z"/><path d="M142.53,565.87l-1.19-1.76h.82l.82,1.27h0l.82-1.27h.83l-1.19,1.78,1.29,1.88h-.84l-.91-1.35H143l-.91,1.35h-.82Z"/><path d="M145.9,566a1.77,1.77,0,0,1,1.74-1.93,1.41,1.41,0,0,1,1.2.62h0v-.53h.74v3.66h-.72v-.52h-.05a1.34,1.34,0,0,1-1.17.61A1.76,1.76,0,0,1,145.9,566Zm3,0a1.13,1.13,0,0,0-1.13-1.26,1.14,1.14,0,0,0-1.12,1.26,1.12,1.12,0,0,0,1.13,1.25A1.14,1.14,0,0,0,148.9,566Z"/><path d="M150.51,564.11h.68v.53h0a.7.7,0,0,1,.7-.62.73.73,0,0,1,.75.65h0a.79.79,0,0,1,.81-.65c.55,0,.92.41.92,1.17v2.58h-.7v-2.41c0-.43-.16-.65-.49-.65s-.47.21-.47.62v2.44h-.63v-2.41c0-.39-.12-.65-.49-.65s-.47.21-.47.62v2.44h-.7Z"/><path d="M155.42,564.11h.71v.53h.05a1.4,1.4,0,0,1,1.19-.62,1.93,1.93,0,0,1,0,3.84,1.37,1.37,0,0,1-1.2-.62h0v2.14h-.74Zm3,1.83a1.13,1.13,0,0,0-1.13-1.26,1.16,1.16,0,0,0-1.13,1.26,1.14,1.14,0,0,0,1.14,1.26A1.15,1.15,0,0,0,158.39,565.94Z"/><path d="M163.7,567.12v.65h-1.18a.81.81,0,0,1-.87-.91v-3.74h-1.26v-.6h2v4.3c0,.2.09.3.28.3Z"/><path d="M165,566a1.8,1.8,0,0,1,1.82-1.93,1.75,1.75,0,0,1,1.8,1.88v.28h-2.89a1.06,1.06,0,0,0,1.12,1.07,1.09,1.09,0,0,0,1-.58h.71a1.69,1.69,0,0,1-1.74,1.19A1.8,1.8,0,0,1,165,566Zm2.88-.34a1,1,0,0,0-1.06-1,1.07,1.07,0,0,0-1.08,1Z"/><path d="M170.08,566.69h.7c.05.38.32.57.8.57s.75-.22.75-.54c0-.89-2.15-.14-2.15-1.63,0-.62.55-1.07,1.39-1.07a1.24,1.24,0,0,1,1.37,1.1h-.68c0-.31-.28-.51-.72-.51s-.67.19-.67.47c0,.81,2.17,0,2.17,1.61,0,.69-.57,1.17-1.48,1.17S170.13,567.4,170.08,566.69Z"/><path d="M175.86,564.8a.45.45,0,0,1,.47-.45.44.44,0,0,1,.46.45.46.46,0,0,1-.46.47A.47.47,0,0,1,175.86,564.8Zm0,2.61a.46.46,0,0,1,.47-.46.45.45,0,0,1,.46.46.44.44,0,0,1-.46.45A.45.45,0,0,1,175.86,567.41Z"/><path d="M184,566a1.77,1.77,0,0,1,1.74-1.93,1.41,1.41,0,0,1,1.2.62h0v-.53h.74v3.66H187v-.52h0a1.38,1.38,0,0,1-1.18.61A1.76,1.76,0,0,1,184,566Zm3,0a1.13,1.13,0,0,0-1.13-1.26,1.14,1.14,0,0,0-1.12,1.26,1.12,1.12,0,0,0,1.13,1.25A1.14,1.14,0,0,0,187,566Z"/><path d="M190.07,566.61v-1.9H189v-.59h.92a.22.22,0,0,0,.22-.24v-.81h.7v1h1.42v.6h-1.42v1.88c0,.35.14.56.53.56h.76v.62h-.87A1,1,0,0,1,190.07,566.61Z"/><path d="M197,567.17v.6h-3.18v-.6H195v-2.46h-1.12v-.6h1.86v3.06Zm-2-4.1a.49.49,0,1,1,.48.47A.45.45,0,0,1,194.92,563.07Z"/><path d="M198.26,564.11H199v.53H199a1.4,1.4,0,0,1,1.19-.62,1.93,1.93,0,0,1,0,3.84,1.37,1.37,0,0,1-1.2-.62h0v2.14h-.74Zm3,1.83a1.13,1.13,0,0,0-1.13-1.26,1.16,1.16,0,0,0-1.13,1.26,1.14,1.14,0,0,0,1.14,1.26A1.15,1.15,0,0,0,201.23,565.94Z"/><path d="M203,566a1.94,1.94,0,1,1,1.93,1.91A1.88,1.88,0,0,1,203,566Zm3.12,0a1.19,1.19,0,0,0-1.19-1.26,1.26,1.26,0,1,0,1.19,1.26Z"/><path d="M209.1,564.71h-1.17v-.6h1.18v-.36a1.18,1.18,0,0,1,1.3-1.23h.86v.62h-.82a.56.56,0,0,0-.62.63v.34h1.52v.6h-1.51v3.06h-.74Z"/><path d="M212.47,566a1.94,1.94,0,1,1,1.92,1.91A1.86,1.86,0,0,1,212.47,566Zm3.12,0a1.19,1.19,0,0,0-1.2-1.26,1.26,1.26,0,0,0,0,2.51A1.19,1.19,0,0,0,215.59,566Z"/><path d="M217.57,566.46v-2.35h.74v2.22a.8.8,0,0,0,.82.86.89.89,0,0,0,.89-.93v-2.15h.73v3.66H220v-.49h0a1.17,1.17,0,0,1-1.07.58A1.31,1.31,0,0,1,217.57,566.46Z"/><path d="M222.33,564.11h.72v.49h0a1.15,1.15,0,0,1,1.07-.58,1.31,1.31,0,0,1,1.34,1.4v2.35h-.73v-2.21a.81.81,0,0,0-.82-.85.89.89,0,0,0-.89.93v2.13h-.74Z"/><path d="M226.83,566a1.77,1.77,0,0,1,1.73-1.93,1.43,1.43,0,0,1,1.21.62h0v-2.12h.74v5.25h-.72v-.52h-.05a1.37,1.37,0,0,1-1.17.61A1.75,1.75,0,0,1,226.83,566Zm3,0a1.13,1.13,0,1,0-1.12,1.25A1.15,1.15,0,0,0,229.83,566Z"/><path d="M233.49,566v1.2H235v.6h-3.26v-.6h1v-2.46h-.89v-.6h1.59v.64h0a1,1,0,0,1,1-.65h.63v.72h-.65C233.85,564.82,233.49,565.29,233.49,566Z"/><path d="M236.75,568.73h.32a.62.62,0,0,0,.63-.45l.14-.35-1.47-3.82h.79l1,2.83h0l1-2.83h.8l-1.68,4.39a1.16,1.16,0,0,1-1.2.88h-.41Z"/><path d="M242.5,567.41A.46.46,0,0,1,243,567a.45.45,0,0,1,.46.46.44.44,0,0,1-.46.45A.45.45,0,0,1,242.5,567.41Z"/><path d="M245.89,566a1.86,1.86,0,0,1,1.89-1.93,1.74,1.74,0,0,1,1.78,1.37h-.76a1,1,0,0,0-1-.7,1.26,1.26,0,0,0,0,2.51,1,1,0,0,0,1-.69h.75a1.71,1.71,0,0,1-1.77,1.35A1.85,1.85,0,0,1,245.89,566Z"/><path d="M250.55,566a1.94,1.94,0,1,1,1.93,1.91A1.88,1.88,0,0,1,250.55,566Zm3.12,0a1.19,1.19,0,0,0-1.19-1.26,1.26,1.26,0,1,0,1.19,1.26Z"/><path d="M255.23,564.11h.67v.53h0a.7.7,0,0,1,.7-.62.73.73,0,0,1,.75.65h0a.81.81,0,0,1,.82-.65c.55,0,.92.41.92,1.17v2.58h-.7v-2.41c0-.43-.17-.65-.49-.65s-.47.21-.47.62v2.44h-.63v-2.41c0-.39-.12-.65-.49-.65s-.47.21-.47.62v2.44h-.7Z"/></g></svg>