<svg xmlns="http://www.w3.org/2000/svg" viewBox="0 0 841.89 595.28"><defs><style>.cls-1{fill:#8c8a85;}.cls-2,.cls-3,.cls-4{fill:none;stroke:#000;stroke-miterlimit:10;}.cls-2,.cls-4{stroke-linecap:square;}.cls-2,.cls-3{stroke-width:0.8px;}.cls-3{stroke-linecap:round;}.cls-4{stroke-width:0.4px;}</style></defs><g id="Background"><rect class="cls-1" width="841.89" height="595.28"/></g><g id="Packages_Outline" data-name="Packages Outline"><path class="cls-2" d="M397,173l-1.36,11.34c-4.74,17.32-48.47,39.54-53.66,79.8V478.71c0,11.3,3.51,21.92,8.85,29.09a17.19,17.19,0,0,0,13.83,6.78H477.27a17.2,17.2,0,0,0,13.84-6.78c5.34-7.17,8.85-17.79,8.85-29.09V264.1c-5.19-40.26-48.92-62.48-53.66-79.8L444.94,173"/><path class="cls-2" d="M445.2,156.49a18.29,18.29,0,0,0,1.73-6.68V148a5.4,5.4,0,0,0-5.73-5.6H400.4a5.4,5.4,0,0,0-5.73,5.6v6.11a3.32,3.32,0,0,0,.34,1.45l1.45,2.88a1.29,1.29,0,0,1,0,1.22l-2.34,4a3.05,3.05,0,0,0-.43,1.56v5.5c0,1.3,1,1.94,2.26,1.91H445.7a2.24,2.24,0,0,0,2.17-1.83c.15-.7.29-1.44.36-2,.17-1.23-2.37-6.75-2.63-7.37-.15-.39.45-.8.85-1.63a1.91,1.91,0,0,0-.06-1.77l-1.19-1.6"/><line class="cls-2" x1="445.12" y1="156.32" x2="396.77" y2="159.06"/><line class="cls-2" x1="445.12" y1="156.32" x2="445.12" y2="156.32"/><line class="cls-2" x1="445.12" y1="156.32" x2="445.12" y2="156.32"/><line class="cls-2" x1="445.2" y1="156.49" x2="445.2" y2="156.49"/><line class="cls-3" x1="445.6" y1="161.49" x2="393.76" y2="164.43"/><line class="cls-2" x1="446.27" y1="151.99" x2="395.05" y2="154.58"/><line class="cls-3" x1="397.36" y1="146.31" x2="397.36" y2="150.37"/><line class="cls-3" x1="400.13" y1="146.31" x2="400.13" y2="150.37"/><line class="cls-3" x1="402.91" y1="146.31" x2="402.91" y2="150.37"/><line class="cls-3" x1="405.68" y1="146.31" x2="405.68" y2="150.37"/><line class="cls-3" x1="408.46" y1="146.31" x2="408.46" y2="150.37"/><line class="cls-3" x1="411.23" y1="146.31" x2="411.23" y2="150.37"/><line class="cls-3" x1="414.01" y1="146.31" x2="414.01" y2="150.37"/><line class="cls-3" x1="416.78" y1="146.31" x2="416.78" y2="150.37"/><line class="cls-3" x1="419.56" y1="146.31" x2="419.56" y2="150.37"/><line class="cls-3" x1="422.33" y1="146.31" x2="422.33" y2="150.37"/><line class="cls-3" x1="425.11" y1="146.31" x2="425.11" y2="150.37"/><line class="cls-3" x1="427.88" y1="146.31" x2="427.88" y2="150.37"/><line class="cls-3" x1="430.66" y1="146.31" x2="430.66" y2="150.37"/><line class="cls-3" x1="433.43" y1="146.31" x2="433.43" y2="150.37"/><line class="cls-3" x1="436.21" y1="146.31" x2="436.21" y2="150.37"/><line class="cls-3" x1="438.98" y1="146.31" x2="438.98" y2="150.37"/><line class="cls-3" x1="441.76" y1="146.31" x2="441.76" y2="150.37"/><line class="cls-3" x1="444.53" y1="146.31" x2="444.53" y2="150.37"/><path class="cls-3" d="M393.65,166.81h13.79a.84.84,0,0,1,.84.84v.08a.83.83,0,0,1-.84.84H393.65"/><rect class="cls-3" x="413.21" y="166.81" width="15.47" height="1.76" rx="0.84"/><path class="cls-3" d="M448.23,168.57H434a.84.84,0,0,1-.84-.84v-.08a.85.85,0,0,1,.84-.84h13.79"/><line class="cls-4" x1="341.93" y1="296.26" x2="499.96" y2="296.26"/><line class="cls-4" x1="341.93" y1="448.78" x2="499.96" y2="448.78"/></g><g id="Sample_Design" data-name="Sample Design"><path d="M392.76,335.4h-6.32V324.2h2.14v9.14h4.18Z"/><path d="M401.11,326.2v2.51h3.78v2h-3.78v2.69h4.46v2H399V324.2h6.41v2Z"/><path d="M412.42,335.4V324.2h2.51l2.39,8,2.38-8h2.53v11.2h-2v-6.35l-1.93,6.35h-1.92l-1.94-6.34v6.34Z"/><path d="M428.83,329.75a5.82,5.82,0,1,1,5.81,5.84A5.63,5.63,0,0,1,428.83,329.75Zm9.3,0a3.49,3.49,0,1,0-7,0,3.49,3.49,0,1,0,7,0Z"/><path d="M453.2,335.4l-4-7.09v7.09h-2.12V324.2h2.18l4,7.09V324.2h2.1v11.2Z"/><path d="M377,350.41v-11.2h3.76a3.2,3.2,0,0,1,3.44,3.13,2.76,2.76,0,0,1-1.21,2.39,2.73,2.73,0,0,1,1.25,2.39c0,2.11-1.64,3.29-3.77,3.29Zm2.11-6.62h1.56a1.3,1.3,0,0,0,1.39-1.33,1.34,1.34,0,0,0-1.39-1.32h-1.56Zm0,4.69h1.48a1.42,1.42,0,1,0,0-2.84h-1.48Z"/><path d="M390.64,346.75v-7.54h2.15v7.46a1.68,1.68,0,0,0,1.77,1.89,1.7,1.7,0,0,0,1.8-1.89v-7.46h2.14v7.54a3.93,3.93,0,0,1-7.86,0Z"/><path d="M405.67,350.41v-11.2h3.76a3.21,3.21,0,0,1,3.44,3.13,2.74,2.74,0,0,1-1.22,2.39,2.71,2.71,0,0,1,1.25,2.39c0,2.11-1.63,3.29-3.76,3.29Zm2.11-6.62h1.55a1.31,1.31,0,0,0,1.4-1.33,1.34,1.34,0,0,0-1.4-1.32h-1.55Zm0,4.69h1.47a1.42,1.42,0,1,0,0-2.84h-1.47Z"/><path d="M419.57,350.41v-11.2h3.76a3.2,3.2,0,0,1,3.44,3.13,2.76,2.76,0,0,1-1.21,2.39,2.73,2.73,0,0,1,1.25,2.39c0,2.11-1.64,3.29-3.77,3.29Zm2.11-6.62h1.56a1.3,1.3,0,0,0,1.39-1.33,1.34,1.34,0,0,0-1.39-1.32h-1.56Zm0,4.69h1.48a1.42,1.42,0,1,0,0-2.84h-1.48Z"/><path d="M439.8,350.41h-6.33v-11.2h2.15v9.14h4.18Z"/><path d="M448.15,341.21v2.51h3.77v2h-3.77v2.69h4.46v2H446v-11.2h6.42v2Z"/><path d="M458.5,348.16l2-.81a1.48,1.48,0,0,0,1.4,1.13,1.18,1.18,0,0,0,1.29-1.19c0-.56-.37-.93-1-1.26l-1.36-.74a3.43,3.43,0,0,1-2.11-3.17,3.17,3.17,0,0,1,3.42-3.12,3.27,3.27,0,0,1,2.92,1.66l-1.83,1.16a1.18,1.18,0,0,0-1.13-.77,1.07,1.07,0,0,0-1.12,1.07,1.46,1.46,0,0,0,.91,1.31l1.39.71a3.41,3.41,0,0,1,2.19,3.1,3.31,3.31,0,0,1-3.55,3.38A3.44,3.44,0,0,1,458.5,348.16Z"/><path d="M361,386.53c-1.24,0-1.22,1.49-1.22,3.88v2.29c0,.68,0,1.53.07,1.95-1.67-2.31-3.44-4.93-4.66-6.72v3.43c0,2,.51,2.94,1.79,2.94h-2.82c.9,0,.88-.58.88-2.94V389c0-1-.2-2.46-1.66-2.46h2.39a2.6,2.6,0,0,0,.43,1c1.14,1.74,2.25,3.23,3.43,4.88v-1.95c0-3.14,0-3.88-.87-3.88Z"/><path d="M365.47,391.86c0,1.47-.83,2.62-2.22,2.62s-2.22-1.15-2.22-2.62.82-2.62,2.22-2.62S365.47,390.38,365.47,391.86Zm-1,0c0-1.41-.35-2.46-1.18-2.46s-1.19,1.05-1.19,2.46.35,2.46,1.19,2.46S364.43,393.27,364.43,391.86Z"/><path d="M367.14,393.12a.68.68,0,1,1,0,1.36.68.68,0,1,1,0-1.36Z"/><path d="M376.74,390.43c0,2.18-1,4.06-2.52,4.06s-2.52-1.88-2.52-4.06,1-4.05,2.52-4.05S376.74,388.25,376.74,390.43Zm-1.1,0c0-2-.37-3.9-1.42-3.9s-1.42,1.91-1.42,3.9.37,3.89,1.42,3.89S375.64,392.42,375.64,390.43Z"/><path d="M382.63,392a2.29,2.29,0,0,1-2.17,2.46c-1.17,0-2.39-1.34-2.39-3.94,0-2.36,1.12-4.14,2.7-4.14a2,2,0,0,1,1.5.58v3.09c0-1.9-.25-3.52-1.52-3.52s-1.63,2.62-1.62,4c0,2.67.59,3.8,1.32,3.8s1.11-1.13,1.11-2.32c0-.95-.26-2-1.08-2-.53,0-1.18.54-1.19,1.84,0-1.56.75-2.2,1.5-2.2C381.91,389.64,382.63,390.69,382.63,392Z"/><path d="M409.73,359.84c3.94.83,6.33,6.64,2,6.64a3.65,3.65,0,0,1-2.48-1.1,3.07,3.07,0,0,1-2.41,1.1,2.54,2.54,0,0,1-2.68-2.7,3.13,3.13,0,0,1,2.56-3,8.71,8.71,0,0,1-.33-2.21c0-2.69,1.65-3.79,3.1-3.79a3.09,3.09,0,0,1,2.16.8l-.76,4a10.08,10.08,0,0,0,3.56-1.17l-.57,1.42Zm-.48,5.49a10.11,10.11,0,0,1-2.44-4.45,3.29,3.29,0,0,0-1.09,2.48,2.1,2.1,0,0,0,2.22,2.31A2.64,2.64,0,0,0,409.25,365.33Zm-.46-5.49h-.51l.05-.09a20.59,20.59,0,0,0,2.59-.16c.38-2.57.16-4.57-1.41-4.57-1.09,0-1.76,1.17-1.76,2.8,0,2.85,2.47,8.41,4.67,8.41C413.29,366.23,412,359.84,408.79,359.84Z"/><path d="M426.42,363.41a4.34,4.34,0,0,1-3.9,3.07c-2.28,0-3.33-2.06-3.36-4.43,0-3.44,2.22-7.25,5.55-7.25a18.71,18.71,0,0,1,2.32.43l-.22,4.5c.11-2.8-.59-4.71-2.15-4.71-2.59,0-3.82,4.29-3.82,7.64,0,1.89.7,3.52,2,3.52A4.22,4.22,0,0,0,426.42,363.41Z"/><path d="M432.85,362.71c-.32,2.13-1.61,3.77-3.39,3.77s-2.58-1.64-2.26-3.77,1.65-3.78,3.44-3.78S433.19,360.58,432.85,362.71Zm-1.44,0c.32-2,.08-3.56-.8-3.56s-1.61,1.52-1.92,3.56-.09,3.55.8,3.55S431.11,364.74,431.41,362.71Z"/><path d="M434.88,364.53a.78.78,0,0,1,.82.82,1.15,1.15,0,0,1-1.12,1.13.78.78,0,0,1-.8-.83A1.16,1.16,0,0,1,434.88,364.53Z"/><path d="M400.43,307h.75v-2.33h0l-.75.55h-.05v-.37l.81-.6h.38V307h.69v.33h-1.82Z"/><path d="M403.67,305.79c0-.91.27-1.58,1.07-1.58s1.07.67,1.07,1.58-.28,1.59-1.07,1.59S403.67,306.71,403.67,305.79Zm1.76,0c0-.67-.14-1.25-.69-1.25s-.69.58-.69,1.25.13,1.25.69,1.25S405.43,306.46,405.43,305.79Z"/><path d="M407.27,305.79c0-.91.27-1.58,1.07-1.58s1.07.67,1.07,1.58-.28,1.59-1.07,1.59S407.27,306.71,407.27,305.79Zm1.76,0c0-.67-.14-1.25-.69-1.25s-.69.58-.69,1.25.13,1.25.69,1.25S409,306.46,409,305.79Z"/><path d="M410.88,304.88c0-.38.16-.67.55-.67s.53.29.53.67-.16.66-.53.66S410.88,305.25,410.88,304.88Zm0,1.8,1.88-1.95.21.19-1.88,1.95Zm.81-1.8c0-.27-.07-.44-.27-.44s-.29.17-.29.44.08.43.29.43S411.7,305.13,411.7,304.88Zm.21,1.83c0-.38.16-.66.54-.66s.54.28.54.66-.16.67-.54.67S411.91,307.09,411.91,306.71Zm.82,0c0-.26-.07-.43-.28-.43s-.28.17-.28.43.08.43.28.43S412.73,307,412.73,306.71Z"/><path d="M418.14,304.26h.42l1.18,2.33h0v-2.33h.37v3.08h-.42L418.54,305h0v2.32h-.38Z"/><path d="M423.91,307.29v0h-.41l-.23-.81H422.2l-.23.81h-.4v0l.91-3H423Zm-.73-1.1-.43-1.5h0l-.43,1.5Z"/><path d="M426.15,304.61h-.94v-.35h2.25v.35h-.93v2.73h-.38Z"/><path d="M429,306.25v-2h.38v2c0,.4.06.78.59.78s.6-.37.6-.78v-2h.39v2c0,.64-.26,1.12-1,1.12S429,306.9,429,306.25Z"/><path d="M434.63,307.29v0h-.42l-.8-1.21h-.58v1.21h-.38v-3.07h1a.89.89,0,0,1,1,.92.88.88,0,0,1-.67.89Zm-1.8-1.53h.64a.58.58,0,1,0,0-1.15h-.64Z"/><path d="M438.32,307.29v0h-.41l-.23-.8h-1.07l-.23.8H436v0l.91-3h.51Zm-.74-1.1-.43-1.51h0l-.43,1.51Z"/><path d="M439.83,304.26h.39V307h1.44v.35h-1.83Z"/><path d="M398.64,386.14h1.89v.35H399v1h1.36v.36H399v1.34h-.38Z"/><path d="M404.27,389.17v.05h-.42l-.8-1.22h-.58v1.22h-.38v-3.08h1a.89.89,0,0,1,1,.92.87.87,0,0,1-.66.89Zm-1.8-1.52h.64a.58.58,0,1,0,0-1.16h-.64Z"/><path d="M405.84,386.14h1.89v.35h-1.5v1h1.36v.35h-1.36v1.07h1.5v.34h-1.89Z"/><path d="M409.27,388.29h.39a.64.64,0,0,0,.73.62c.47,0,.71-.18.71-.54s-.17-.43-.5-.5l-.45-.1c-.53-.11-.78-.36-.78-.83s.37-.84,1-.84a.94.94,0,0,1,1.05.91h-.39c0-.33-.22-.56-.67-.56s-.62.17-.62.49.16.39.48.46l.42.09c.57.12.83.41.83.88s-.42.89-1.11.89A1,1,0,0,1,409.27,388.29Z"/><path d="M415,386.14v3.07h-.39V387.8h-1.19v1.41H413v-3.07h.38v1.31h1.19v-1.31Z"/><path d="M422.38,387.51l-.52,1,.49.63v0h-.46l-.24-.32a.86.86,0,0,1-.73.36.76.76,0,0,1-.79-.84.92.92,0,0,1,.48-.83l0,0a1.29,1.29,0,0,1-.24-.75.64.64,0,0,1,.63-.71h0a.64.64,0,0,1,.65.72.92.92,0,0,1-.49.79l0,0,.47.61.38-.79h.37Zm-.95,1.1-.58-.78,0,0a.59.59,0,0,0-.31.54c0,.31.14.51.42.51A.57.57,0,0,0,421.43,388.61Zm-.48-1.24,0,0a.59.59,0,0,0,.35-.53c0-.22-.06-.38-.29-.38h0c-.18,0-.27.16-.27.37A1,1,0,0,0,421,387.37Z"/><path d="M398.64,390.54h1.89v.35H399v1h1.37v.35H399v1.06h1.51v.35h-1.89Z"/><path d="M402.13,393.57l.79-1.5h0l-.76-1.48v0h.39l.62,1.25h0l.63-1.25h.39v0l-.77,1.48h0l.8,1.5v0h-.39l-.66-1.23h0l-.66,1.23h-.38Z"/><path d="M405.84,390.54h1.89v.36h-1.5v1h1.35v.35h-1.35v1.34h-.39Z"/><path d="M409.27,392.07c0-.9.3-1.57,1.12-1.57s1.12.67,1.12,1.57-.31,1.58-1.12,1.58S409.27,393,409.27,392.07Zm1.84,0c0-.64-.12-1.22-.72-1.22s-.73.58-.73,1.22.13,1.22.73,1.22S411.11,392.71,411.11,392.07Z"/><path d="M413.08,390.53h.38v2.73h1.44v.35h-1.82Z"/><path d="M416.63,393.28h.76v-2.42h-.76v-.33h1.9v.33h-.75v2.42h.75v.33h-1.9Z"/><path d="M422.36,393.56v.05H422l-.23-.81h-1.07l-.23.81H420v0l.91-3h.52Zm-.73-1.1-.43-1.5h0l-.43,1.5Z"/><path d="M423.8,390.53h.41l1.18,2.33h0v-2.33h.38v3.08h-.43l-1.17-2.32h0v2.32h-.37Z"/><path d="M428.2,390.88h-.94v-.35h2.25v.35h-.93v2.73h-.38Z"/><path d="M431,393.28h.75v-2.42H431v-.33h1.9v.33h-.76v2.42h.76v.33H431Z"/><path d="M434.6,390.53H435l1.17,2.33h0v-2.33h.38v3.08h-.42L435,391.29h0v2.32h-.37Z"/><path d="M438.1,392.07c0-.95.33-1.58,1.12-1.58a1,1,0,0,1,1.08,1h-.4c0-.39-.2-.66-.68-.66-.63,0-.73.6-.73,1.22s.1,1.22.73,1.22.76-.42.76-1h-.85V392h1.21v.26c0,.85-.29,1.39-1.12,1.4S438.1,393,438.1,392.07Z"/><path d="M379.84,416.23h.4c0,.38.26.61.73.61s.7-.17.7-.53-.17-.43-.5-.5l-.45-.1c-.53-.12-.77-.36-.77-.83s.36-.85,1-.85a.94.94,0,0,1,1,.92h-.39c0-.34-.22-.56-.67-.56s-.62.16-.62.49.16.38.48.46l.42.08c.57.12.83.42.83.89s-.42.88-1.1.88S379.86,416.81,379.84,416.23Z"/><path d="M385.73,417.11v0h-.41l-.23-.8H384l-.23.8h-.4v0l.91-3h.52ZM385,416l-.43-1.5h0l-.43,1.5Z"/><path d="M387.17,414.07h1a1,1,0,0,1,0,2h-.62v1.12h-.39Zm1,1.61a.55.55,0,0,0,.62-.63.56.56,0,0,0-.62-.63h-.57v1.26Z"/><path d="M390.64,415.61c0-.9.31-1.58,1.12-1.58s1.12.68,1.12,1.58-.3,1.58-1.12,1.58S390.64,416.51,390.64,415.61Zm1.85,0c0-.64-.13-1.22-.73-1.22s-.72.58-.72,1.22.13,1.22.72,1.22S392.49,416.25,392.49,415.61Z"/><path d="M394.37,414.07h.41L396,416.4h0v-2.33h.38v3.08h-.42l-1.18-2.32h0v2.32h-.37Z"/><path d="M398,416.82h.75V414.4H398v-.33h1.9v.33h-.76v2.42h.76v.33H398Z"/><path d="M401.62,414.07h1.89v.35H402v1h1.36v.35H402v1.34h-.38Z"/><path d="M405.21,416.82H406V414.4h-.76v-.33h1.9v.33h-.76v2.42h.76v.33h-1.9Z"/><path d="M408.82,414.07h1.89v.35h-1.5v1h1.36v.36h-1.36v1.06h1.5v.35h-1.89Z"/><path d="M412.37,414.07h.75c.87,0,1.24.61,1.24,1.54s-.32,1.54-1.24,1.54h-.75Zm.71,2.73c.71,0,.89-.55.89-1.19s-.18-1.19-.89-1.19h-.33v2.38Z"/><path d="M419.45,415.61c0-.91.3-1.58,1.12-1.58s1.12.67,1.12,1.58-.31,1.57-1.12,1.57S419.45,416.51,419.45,415.61Zm1.85,0c0-.65-.13-1.22-.73-1.22s-.72.57-.72,1.22.12,1.21.72,1.21S421.3,416.25,421.3,415.61Z"/><path d="M423.21,416.82H424V414.4h-.76v-.33h1.9v.33h-.75v2.41h.75v.33h-1.9Z"/><path d="M426.86,414.07h.38v2.72h1.44v.35h-1.82Z"/><path d="M430.26,416.22h.39a.64.64,0,0,0,.73.62c.46,0,.71-.18.71-.54s-.17-.43-.51-.5l-.45-.1c-.53-.11-.77-.36-.77-.83s.36-.84,1-.84a.93.93,0,0,1,1.05.91H432c0-.33-.21-.56-.67-.56s-.61.17-.61.49.15.39.48.46l.42.09c.57.11.83.41.83.88s-.42.88-1.11.88S430.28,416.8,430.26,416.22Z"/><path d="M437.46,415.6c0-.9.3-1.57,1.12-1.57s1.12.67,1.12,1.57-.31,1.58-1.12,1.58S437.46,416.5,437.46,415.6Zm1.84,0c0-.64-.13-1.21-.72-1.21s-.73.57-.73,1.21.13,1.22.73,1.22S439.3,416.25,439.3,415.6Z"/><path d="M441.23,414.07h1.89v.35h-1.5v1H443v.35h-1.35v1.34h-.39Z"/><path d="M448.26,416.22h.39a.64.64,0,0,0,.73.61c.47,0,.71-.17.71-.53s-.17-.43-.5-.5l-.45-.1c-.53-.11-.78-.36-.78-.83s.37-.85,1-.85a.94.94,0,0,1,1.05.92h-.39c0-.34-.22-.56-.67-.56s-.62.16-.62.49.16.39.48.46l.42.08c.57.12.83.42.83.89s-.42.88-1.11.88S448.28,416.8,448.26,416.22Z"/><path d="M451.86,415.6c0-.9.3-1.58,1.12-1.58s1.12.68,1.12,1.58-.31,1.58-1.12,1.58S451.86,416.5,451.86,415.6Zm1.85,0c0-.64-.13-1.22-.73-1.22s-.72.58-.72,1.22.12,1.22.72,1.22S453.71,416.24,453.71,415.6Z"/><path d="M456.39,415.86l-.93-1.75v-.05h.39l.73,1.43h0l.73-1.43h.38v.05l-.93,1.75v1.28h-.38Z"/><path d="M459.89,417.68l.14-1h.43v0l-.27,1h-.3Z"/><path d="M390.66,420c0-.95.33-1.58,1.12-1.58s1,.42,1.08,1.07h-.39c0-.44-.21-.71-.69-.71s-.72.6-.72,1.22.1,1.22.72,1.22c.46,0,.61-.26.69-.68h.39c-.08.63-.38,1-1.08,1S390.66,420.94,390.66,420Z"/><path d="M394.24,420c0-.91.31-1.58,1.12-1.58s1.12.67,1.12,1.58-.3,1.57-1.12,1.57S394.24,420.91,394.24,420Zm1.85,0c0-.65-.13-1.22-.73-1.22s-.72.57-.72,1.22.13,1.21.72,1.21S396.09,420.65,396.09,420Z"/><path d="M397.87,420c0-.95.33-1.58,1.12-1.58s1,.41,1.07,1.07h-.39c0-.44-.2-.71-.68-.71s-.73.59-.73,1.22.1,1.22.73,1.22c.45,0,.61-.26.68-.68h.39c-.08.63-.38,1-1.07,1S397.87,420.94,397.87,420Z"/><path d="M401.44,420c0-.91.31-1.58,1.13-1.58s1.12.67,1.12,1.58-.31,1.57-1.12,1.57S401.44,420.91,401.44,420Zm1.85,0c0-.65-.13-1.22-.72-1.22s-.73.57-.73,1.22.13,1.21.73,1.21S403.29,420.65,403.29,420Z"/><path d="M405.17,418.47h.42l1.17,2.33h0v-2.33h.38v3.07h-.42l-1.18-2.31h0v2.31h-.37Z"/><path d="M408.79,420.46v-2h.38v2c0,.4.07.78.59.78s.6-.37.6-.78v-2h.39v2c0,.63-.25,1.12-1,1.12S408.79,421.1,408.79,420.46Z"/><path d="M413.17,418.82h-.93v-.36h2.25v.36h-.93v2.72h-.39Z"/><path d="M421.74,421.5v0h-.41l-.23-.8H420l-.23.8h-.4v0l.91-3h.52Zm-.73-1.11-.44-1.5h0l-.43,1.5Z"/><path d="M423.17,418.46h.42l1.18,2.33h0v-2.33h.37v3.08h-.42l-1.18-2.32h0v2.32h-.38Z"/><path d="M426.77,418.46h.75c.88,0,1.25.62,1.25,1.54s-.33,1.54-1.25,1.54h-.75Zm.71,2.73c.71,0,.89-.55.89-1.19s-.18-1.19-.89-1.19h-.33v2.38Z"/><path d="M433.85,420c0-.91.31-1.58,1.12-1.58s1.12.67,1.12,1.58-.3,1.58-1.12,1.58S433.85,420.9,433.85,420Zm1.85,0c0-.64-.13-1.22-.73-1.22s-.72.58-.72,1.22.13,1.22.72,1.22S435.7,420.64,435.7,420Z"/><path d="M437.66,418.46H438v2.73h1.44v.35h-1.82Z"/><path d="M441.22,421.21H442v-2.42h-.75v-.33h1.9v.33h-.76v2.42h.76v.33h-1.9Z"/><path d="M444.63,418.5v0h.4l.74,2.52h0l.73-2.52h.41v0l-1,3h-.39Z"/><path d="M448.43,418.46h1.89v.35h-1.5v1h1.36v.36h-1.36v1.06h1.5v.35h-1.89Z"/><path d="M391.05,439.31h.76V437h0l-.75.55h0v-.38l.81-.59h.37v2.75h.69v.33h-1.82Z"/><path d="M394.3,438.15c0-.86.3-1.64,1.13-1.64a.9.9,0,0,1,1,.79H396a.53.53,0,0,0-.58-.45c-.55,0-.75.56-.75,1.2h0a.77.77,0,0,1,.74-.42.94.94,0,0,1,1,1,1,1,0,0,1-1,1C394.6,439.68,394.3,439,394.3,438.15Zm1.74.5a.65.65,0,1,0-1.3,0,.64.64,0,0,0,.65.7A.63.63,0,0,0,396,438.65Z"/><path d="M401.62,436.56h1.89v.35H402v1h1.36v.35H402v1.34h-.38Z"/><path d="M405.25,436.56h.38v2.72h1.45v.35h-1.83Z"/><path d="M412.25,438.09c0-.9.3-1.57,1.12-1.57s1.12.67,1.12,1.57-.31,1.58-1.12,1.58S412.25,439,412.25,438.09Zm1.84,0c0-.64-.12-1.21-.72-1.21s-.73.57-.73,1.21.13,1.22.73,1.22S414.09,438.74,414.09,438.09Z"/><path d="M415.94,439.29l1.57-2.37v0H416v-.34h2v.33l-1.57,2.37v0H418v.35h-2.05Z"/><path d="M424.66,436.38a3.29,3.29,0,0,0,0,3.9v.05h-.28a3.11,3.11,0,0,1-.7-2,3.06,3.06,0,0,1,.7-2h.28Z"/><path d="M428.08,439h-1.4v-.39l1.24-2h.53v2.1h.42V439h-.42v.65h-.37Zm0-.33v-1.72h0l-1,1.7v0Z"/><path d="M430.64,439.59l1.34-2.67v0h-1.6v-.35h2v.37L431,439.63h-.37Z"/><path d="M433.9,438.08c0-.91.28-1.58,1.07-1.58s1.08.67,1.08,1.58-.28,1.59-1.08,1.59S433.9,439,433.9,438.08Zm1.76,0c0-.66-.13-1.24-.69-1.24s-.69.58-.69,1.24.14,1.26.69,1.26S435.66,438.76,435.66,438.08Z"/><path d="M443.21,438v1.59h-.35V438c0-.17-.05-.34-.23-.34s-.28.14-.28.5v1.46H442V438c0-.22-.08-.37-.26-.37s-.27.18-.27.5v1.46h-.35v-2.25h.3l0,.33h0a.4.4,0,0,1,.41-.37.4.4,0,0,1,.43.37h0a.41.41,0,0,1,.42-.37C443.14,437.34,443.21,437.64,443.21,438Z"/><path d="M444.81,439.32h.78v-2.64h-.71v-.3H446v2.94h.78v.31h-1.93Z"/><path d="M449.87,438.33a3.11,3.11,0,0,1-.7,2h-.29v0a3.29,3.29,0,0,0,0-3.9v-.05h.29A3.17,3.17,0,0,1,449.87,438.33Z"/><path d="M454,388.29h.39a.64.64,0,0,0,.73.62c.47,0,.71-.18.71-.54s-.17-.43-.51-.5l-.44-.1c-.54-.11-.78-.36-.78-.83s.37-.84,1-.84a.94.94,0,0,1,1.05.91h-.39c0-.33-.22-.56-.67-.56s-.62.17-.62.49.16.39.48.46l.42.09c.57.12.83.41.83.88s-.42.89-1.11.89A1,1,0,0,1,454,388.29Z"/><path d="M457.68,386.14h.44l.55,1.63h0l.59-1.63h.44v3.07h-.36V387h0l-.65,1.73h0l-.61-1.74h0v2.26h-.36Z"/><path d="M463.47,389.17v0h-.41l-.23-.8h-1.07l-.23.8h-.4v0l.91-3h.51Zm-.73-1.1-.44-1.51h0l-.43,1.51Z"/><path d="M465,386.14h.38v2.72h1.44v.35H465Z"/><path d="M468.59,386.14H469v2.72h1.44v.35h-1.82Z"/><path d="M454.08,390.53h1.06a.77.77,0,0,1,.85.8.62.62,0,0,1-.38.63v0a.76.76,0,0,1,.5.74.83.83,0,0,1-.94.89h-1.09Zm1,1.32c.36,0,.55-.16.55-.52s-.15-.45-.5-.45h-.64v1Zm.08,1.41a.51.51,0,0,0,.58-.54c0-.36-.19-.53-.58-.53h-.67v1.07Z"/><path d="M459.87,393.57v0h-.41l-.23-.81h-1.07l-.23.81h-.4v0l.91-3H459Zm-.74-1.11-.43-1.5h0l-.43,1.5Z"/><path d="M462.1,390.88h-.93v-.35h2.25v.35h-.93v2.73h-.39Z"/><path d="M464.8,392.07c0-.95.33-1.58,1.12-1.58s1,.42,1.08,1.07h-.4c0-.44-.2-.71-.68-.71s-.72.6-.72,1.22.1,1.22.72,1.22c.46,0,.61-.26.69-.68H467c-.08.63-.38,1-1.08,1S464.8,393,464.8,392.07Z"/><path d="M470.48,390.53v3.08h-.38V392.2h-1.2v1.41h-.38v-3.08h.38v1.31h1.2v-1.31Z"/><rect class="cls-4" x="351.68" y="380.53" width="137.78" height="19.23"/><line class="cls-4" x1="389.09" y1="380.53" x2="389.09" y2="395.38"/><line class="cls-4" x1="447.82" y1="380.53" x2="447.82" y2="395.38"/></g><g id="Credits"><path d="M33.22,27.47H35A1.48,1.48,0,0,1,36.61,29,1.51,1.51,0,0,1,35,30.55H34v1.83h-.76ZM35,29.9a.85.85,0,0,0,.88-.9.83.83,0,0,0-.88-.87H34V29.9Z"/><path d="M37.81,30.55a1.77,1.77,0,0,1,1.74-1.93,1.4,1.4,0,0,1,1.2.63h0v-.54h.74v3.67h-.71v-.52h0a1.38,1.38,0,0,1-1.18.61A1.77,1.77,0,0,1,37.81,30.55Zm3,0A1.14,1.14,0,1,0,39.7,31.8,1.14,1.14,0,0,0,40.82,30.55Z"/><path d="M42.6,30.55a1.86,1.86,0,0,1,1.9-1.93A1.74,1.74,0,0,1,46.27,30h-.76a1,1,0,0,0-1-.71,1.26,1.26,0,0,0,0,2.51,1,1,0,0,0,1-.69h.75a1.72,1.72,0,0,1-1.77,1.36A1.85,1.85,0,0,1,42.6,30.55Z"/><path d="M50,32.38l-1-1.73-.57.62v1.11H47.6V27.12h.74v3.15h0l1.39-1.56h.92L49.41,30.1l1.37,2.28Z"/><path d="M52.09,30.55a1.77,1.77,0,0,1,1.74-1.93,1.41,1.41,0,0,1,1.2.63h0v-.54h.74v3.67h-.72v-.52h0a1.4,1.4,0,0,1-1.18.61A1.77,1.77,0,0,1,52.09,30.55Zm3,0A1.13,1.13,0,1,0,54,31.8,1.13,1.13,0,0,0,55.09,30.55Z"/><path d="M57.11,32.87h.69c.08.37.44.59,1,.59a1,1,0,0,0,1.11-1.1v-.52h0a1.42,1.42,0,0,1-1.18.61,1.76,1.76,0,0,1-1.77-1.91,1.76,1.76,0,0,1,1.73-1.92,1.4,1.4,0,0,1,1.21.63h0v-.54h.74v3.65a1.64,1.64,0,0,1-1.83,1.72A1.49,1.49,0,0,1,57.11,32.87Zm2.75-2.33a1.13,1.13,0,1,0-1.12,1.25A1.15,1.15,0,0,0,59.86,30.54Z"/><path d="M61.67,30.55a1.8,1.8,0,0,1,1.82-1.93,1.75,1.75,0,0,1,1.8,1.89v.27H62.4a1.15,1.15,0,0,0,2.14.49h.71a1.69,1.69,0,0,1-1.74,1.2A1.81,1.81,0,0,1,61.67,30.55Zm2.88-.34a1,1,0,0,0-1.06-1,1.07,1.07,0,0,0-1.08,1Z"/><path d="M70.88,27.47h.7l.92,3h0v-3h.66v4.91h-.73l-.89-3h0v3h-.66Zm2.66,1.27v-.66a.74.74,0,0,1,1.48,0v.66a.74.74,0,0,1-1.48,0Zm0,1.14H75v.49H73.56Zm1-1.18v-.57a.29.29,0,1,0-.58,0v.57a.29.29,0,1,0,.58,0Z"/><path d="M76.13,31h.7a.82.82,0,0,0,.87.78.85.85,0,0,0,.91-.89.87.87,0,0,0-.93-.87h-.61v-.6l1.19-1.2v0h-2v-.68h3v.68L78,29.34v0a1.46,1.46,0,0,1,1.38,1.48,1.57,1.57,0,0,1-1.66,1.6A1.51,1.51,0,0,1,76.13,31Z"/><path d="M80.89,31h.7a.82.82,0,0,0,.87.78.85.85,0,0,0,.91-.89.87.87,0,0,0-.93-.87h-.61v-.6L83,28.19v0H81v-.68h3v.68l-1.22,1.19v0a1.46,1.46,0,0,1,1.38,1.48,1.57,1.57,0,0,1-1.66,1.6A1.51,1.51,0,0,1,80.89,31Z"/><path d="M781.71,561.44a2.27,2.27,0,0,1,1.78.66h0a1.66,1.66,0,0,1,0-.34v-.18h2v6.24h-2v-.41a3.16,3.16,0,0,1,0-.35h0a2.08,2.08,0,0,1-1.8.91c-1.7,0-2.81-1.34-2.81-3.27S780.05,561.44,781.71,561.44Zm.49,4.79c.63,0,1.22-.46,1.22-1.53,0-.76-.4-1.49-1.22-1.49-.66,0-1.23.53-1.23,1.49S781.47,566.23,782.2,566.23Z"/><path d="M786.3,559.91h2.1v1.67h1.31v1.64H788.4v2c0,.7.71.8,1.11.8h.28v1.8a3.67,3.67,0,0,1-.57,0c-1,0-2.92-.27-2.92-2.35Z"/><path d="M790.65,561.58h2.1v6.24h-2.1Zm0-2.42h2.05v1.64h-2.05Z"/><path d="M793.69,561.58h1.89v.32c0,.2,0,.4,0,.4h0a2.28,2.28,0,0,1,1.89-.86c1.69,0,2.81,1.33,2.81,3.27a3,3,0,0,1-2.91,3.26,2.26,2.26,0,0,1-1.58-.6h0a4.42,4.42,0,0,1,0,.54v2.33h-2.1Zm3.26,4.65c.65,0,1.22-.53,1.22-1.49s-.5-1.53-1.22-1.53-1.23.46-1.23,1.53C795.72,565.5,796.12,566.23,797,566.23Z"/><path d="M804.11,561.44a3.28,3.28,0,1,1-3.53,3.28A3.32,3.32,0,0,1,804.11,561.44Zm0,4.78a1.41,1.41,0,0,0,1.41-1.5,1.42,1.42,0,1,0-2.83,0A1.41,1.41,0,0,0,804.12,566.22Z"/><path d="M808.5,566.22a.88.88,0,1,1-.85.87A.86.86,0,0,1,808.5,566.22Zm0,1.58a.71.71,0,1,0-.67-.71A.68.68,0,0,0,808.5,567.8Zm-.29-1.16h.35a.26.26,0,0,1,.28.27.24.24,0,0,1-.16.24h0l0,.05.17.33h-.19l-.16-.35h-.15v.35h-.17Zm.31.43a.14.14,0,0,0,.15-.16.13.13,0,0,0-.15-.14h-.14v.3Z"/><path d="M31.6,565.79v-.94a1.87,1.87,0,0,1,3.74,0v.94a1.87,1.87,0,0,1-3.74,0Zm3.28,0v-.9a1.41,1.41,0,0,0-2.82,0v.9a1.41,1.41,0,0,0,2.82,0Zm-2.39-.07V565a.94.94,0,0,1,1-1,.9.9,0,0,1,1,.93h-.5a.43.43,0,0,0-.47-.44c-.33,0-.47.24-.47.53v.67c0,.3.14.53.47.53a.42.42,0,0,0,.48-.44h.51a.91.91,0,0,1-1,.93A.93.93,0,0,1,32.49,565.7Z"/><path d="M41.18,566A1.77,1.77,0,0,1,42.92,564a1.39,1.39,0,0,1,1.2.62h0v-.53h.74v3.66h-.72v-.51h0a1.38,1.38,0,0,1-1.18.6A1.76,1.76,0,0,1,41.18,566Zm3,0a1.13,1.13,0,0,0-1.13-1.26A1.14,1.14,0,0,0,41.93,566a1.12,1.12,0,0,0,1.13,1.25A1.14,1.14,0,0,0,44.18,566Z"/><path d="M47.27,566.61v-1.9h-1.1v-.59h.93a.21.21,0,0,0,.21-.24v-.81H48v1h1.43v.6H48v1.88c0,.35.14.56.53.56h.76v.62h-.87A1.05,1.05,0,0,1,47.27,566.61Z"/><path d="M54.15,567.17v.6H51v-.6h1.26v-2.46H51.11v-.6H53v3.06Zm-2-4.1a.47.47,0,0,1,.49-.47.46.46,0,0,1,.48.47.45.45,0,0,1-.48.47A.46.46,0,0,1,52.12,563.07Z"/><path d="M55.46,564.11h.72v.53h0a1.4,1.4,0,0,1,1.19-.62,1.93,1.93,0,0,1,0,3.84,1.35,1.35,0,0,1-1.19-.62h0v2.14h-.74Zm3,1.83a1.13,1.13,0,0,0-1.13-1.26,1.15,1.15,0,0,0-1.12,1.26,1.14,1.14,0,0,0,1.13,1.26A1.15,1.15,0,0,0,58.43,565.94Z"/><path d="M60.15,566a1.94,1.94,0,1,1,1.93,1.91A1.88,1.88,0,0,1,60.15,566Zm3.12,0a1.19,1.19,0,0,0-1.19-1.26A1.26,1.26,0,1,0,63.27,566Z"/><path d="M66.52,567h.76l-.35,1.66H66.4Z"/><path d="M74.8,567.08a1.64,1.64,0,0,1,1-1.46l.9-.56a1,1,0,0,0,.49-.82.75.75,0,0,0-.84-.76.79.79,0,0,0-.82.79h-.7a1.56,1.56,0,0,1,3.12,0,1.56,1.56,0,0,1-.87,1.4l-.9.55c-.46.29-.6.53-.6.84v.09h2.39v.67H74.8Z"/><path d="M79.5,566.28v-1.92a1.63,1.63,0,0,1,3.26,0v1.92a1.63,1.63,0,0,1-3.26,0Zm2.51,0V564.4a.89.89,0,1,0-1.77,0v1.84a.89.89,0,1,0,1.77,0Zm-1.26-.93a.38.38,0,1,1,.38.38A.38.38,0,0,1,80.75,565.31Z"/><path d="M84.31,567.08a1.65,1.65,0,0,1,1-1.46l.9-.56a1,1,0,0,0,.49-.82.75.75,0,0,0-.84-.76.79.79,0,0,0-.82.79h-.7a1.56,1.56,0,0,1,3.12,0,1.56,1.56,0,0,1-.87,1.4l-.9.55c-.46.29-.6.53-.6.84v.09h2.39v.67H84.31Z"/><path d="M92.29,567.1v.67H89.07v-.67h1.1v-2.93H89v-.58c.92,0,1.23-.22,1.23-.72h.69v4.23Z"/><path d="M98.31,565.34H102V566h-3.7Z"/><path d="M108.23,562.87h2.91v.67H109V565h2v.66h-2v2.08h-.75Z"/><path d="M112.51,566a1.94,1.94,0,1,1,1.93,1.91A1.88,1.88,0,0,1,112.51,566Zm3.12,0a1.19,1.19,0,0,0-1.19-1.26,1.26,1.26,0,1,0,1.19,1.26Z"/><path d="M117.61,564.11h.72v.49h0a1.15,1.15,0,0,1,1.07-.58,1.31,1.31,0,0,1,1.34,1.4v2.35h-.73v-2.21a.81.81,0,0,0-.82-.85.89.89,0,0,0-.89.93v2.13h-.74Z"/><path d="M123.43,566.61v-1.9h-1.1v-.59h.93a.21.21,0,0,0,.21-.24v-.81h.7v1h1.42v.6h-1.42v1.88c0,.35.14.56.53.56h.76v.62h-.87A1.05,1.05,0,0,1,123.43,566.61Z"/><path d="M127.25,566.69h.69c0,.38.32.57.8.57s.75-.21.75-.54c0-.89-2.15-.14-2.15-1.63,0-.62.55-1.07,1.39-1.07a1.24,1.24,0,0,1,1.37,1.1h-.68c0-.31-.28-.51-.72-.51s-.67.19-.67.47c0,.81,2.17,0,2.17,1.61,0,.69-.57,1.17-1.48,1.17S127.29,567.4,127.25,566.69Z"/><path d="M136.75,562.87h2.91v.67h-2.15V565h1.85v.66h-1.85v1.5h2.22v.65h-3Z"/><path d="M142.53,565.87l-1.19-1.76h.82l.82,1.27h0l.82-1.27h.83l-1.19,1.78,1.29,1.88h-.84l-.91-1.35H143l-.91,1.35h-.82Z"/><path d="M145.9,566a1.77,1.77,0,0,1,1.74-1.93,1.41,1.41,0,0,1,1.2.62h0v-.53h.74v3.66h-.72v-.51h-.05a1.36,1.36,0,0,1-1.17.6A1.76,1.76,0,0,1,145.9,566Zm3,0a1.13,1.13,0,0,0-1.13-1.26,1.14,1.14,0,0,0-1.12,1.26,1.12,1.12,0,0,0,1.13,1.25A1.14,1.14,0,0,0,148.9,566Z"/><path d="M150.51,564.11h.68v.53h0a.7.7,0,0,1,.7-.62.73.73,0,0,1,.75.65h0a.79.79,0,0,1,.81-.65c.55,0,.92.41.92,1.17v2.58h-.7v-2.41c0-.43-.17-.65-.49-.65s-.47.21-.47.62v2.44h-.63v-2.41c0-.39-.12-.65-.49-.65s-.47.21-.47.62v2.44h-.7Z"/><path d="M155.42,564.11h.71v.53h.05a1.4,1.4,0,0,1,1.19-.62,1.93,1.93,0,0,1,0,3.84,1.37,1.37,0,0,1-1.2-.62h0v2.14h-.74Zm3,1.83a1.13,1.13,0,0,0-1.13-1.26,1.16,1.16,0,0,0-1.13,1.26,1.14,1.14,0,0,0,1.14,1.26A1.15,1.15,0,0,0,158.39,565.94Z"/><path d="M163.7,567.12v.65h-1.18a.81.81,0,0,1-.87-.91v-3.74h-1.26v-.6h2v4.3c0,.2.09.3.28.3Z"/><path d="M165,566a1.8,1.8,0,0,1,1.82-1.93,1.75,1.75,0,0,1,1.8,1.88v.28h-2.89a1.06,1.06,0,0,0,1.12,1.07,1.09,1.09,0,0,0,1-.58h.71a1.7,1.7,0,0,1-1.74,1.19A1.8,1.8,0,0,1,165,566Zm2.88-.34a1,1,0,0,0-1.06-1,1.07,1.07,0,0,0-1.08,1Z"/><path d="M170.08,566.69h.7c.05.38.32.57.8.57s.75-.21.75-.54c0-.89-2.15-.14-2.15-1.63,0-.62.55-1.07,1.39-1.07a1.23,1.23,0,0,1,1.36,1.1h-.67c0-.31-.28-.51-.72-.51s-.67.19-.67.47c0,.81,2.17,0,2.17,1.61,0,.69-.57,1.17-1.49,1.17S170.13,567.4,170.08,566.69Z"/><path d="M175.86,564.8a.46.46,0,0,1,.47-.45.45.45,0,0,1,.46.45.46.46,0,0,1-.46.47A.47.47,0,0,1,175.86,564.8Zm0,2.61a.46.46,0,0,1,.47-.46.45.45,0,0,1,.46.46.44.44,0,0,1-.46.45A.45.45,0,0,1,175.86,567.41Z"/><path d="M184,566a1.77,1.77,0,0,1,1.74-1.93,1.41,1.41,0,0,1,1.2.62h0v-.53h.74v3.66H187v-.51h0a1.36,1.36,0,0,1-1.17.6A1.76,1.76,0,0,1,184,566Zm3,0a1.13,1.13,0,0,0-1.13-1.26,1.14,1.14,0,0,0-1.12,1.26,1.12,1.12,0,0,0,1.13,1.25A1.14,1.14,0,0,0,187,566Z"/><path d="M190.07,566.61v-1.9H189v-.59h.92a.22.22,0,0,0,.22-.24v-.81h.69v1h1.43v.6H190.8v1.88c0,.35.15.56.54.56h.76v.62h-.87A1,1,0,0,1,190.07,566.61Z"/><path d="M197,567.17v.6h-3.18v-.6H195v-2.46h-1.12v-.6h1.86v3.06Zm-2-4.1a.49.49,0,1,1,.48.47A.45.45,0,0,1,194.92,563.07Z"/><path d="M198.26,564.11H199v.53H199a1.4,1.4,0,0,1,1.19-.62,1.93,1.93,0,0,1,0,3.84,1.37,1.37,0,0,1-1.2-.62h0v2.14h-.74Zm3,1.83a1.13,1.13,0,0,0-1.14-1.26,1.15,1.15,0,0,0-1.12,1.26,1.14,1.14,0,0,0,1.14,1.26A1.15,1.15,0,0,0,201.23,565.94Z"/><path d="M203,566a1.94,1.94,0,1,1,1.93,1.91A1.88,1.88,0,0,1,203,566Zm3.12,0a1.19,1.19,0,0,0-1.19-1.26,1.26,1.26,0,1,0,1.19,1.26Z"/><path d="M209.1,564.71h-1.17v-.6h1.18v-.36a1.18,1.18,0,0,1,1.3-1.23h.86v.62h-.82a.56.56,0,0,0-.62.63v.34h1.52v.6h-1.51v3.06h-.74Z"/><path d="M212.47,566a1.94,1.94,0,1,1,1.92,1.91A1.85,1.85,0,0,1,212.47,566Zm3.12,0a1.19,1.19,0,0,0-1.2-1.26,1.26,1.26,0,0,0,0,2.51A1.19,1.19,0,0,0,215.59,566Z"/><path d="M217.57,566.46v-2.35h.74v2.22a.8.8,0,0,0,.82.86.89.89,0,0,0,.89-.93v-2.15h.73v3.66H220v-.49h0a1.17,1.17,0,0,1-1.07.58A1.3,1.3,0,0,1,217.57,566.46Z"/><path d="M222.33,564.11h.72v.49h0a1.15,1.15,0,0,1,1.07-.58,1.31,1.31,0,0,1,1.34,1.4v2.35h-.73v-2.21a.81.81,0,0,0-.82-.85.89.89,0,0,0-.89.93v2.13h-.74Z"/><path d="M226.83,566a1.77,1.77,0,0,1,1.73-1.93,1.43,1.43,0,0,1,1.21.62h0v-2.12h.74v5.25h-.72v-.51h-.05a1.39,1.39,0,0,1-1.17.6A1.75,1.75,0,0,1,226.83,566Zm3,0a1.13,1.13,0,1,0-1.12,1.25A1.15,1.15,0,0,0,229.83,566Z"/><path d="M233.49,566v1.2H235v.6h-3.26v-.6h1v-2.46h-.89v-.6h1.59v.64h0a1,1,0,0,1,1-.65h.63v.72h-.65C233.85,564.82,233.49,565.29,233.49,566Z"/><path d="M236.75,568.73h.32a.62.62,0,0,0,.63-.45l.14-.35-1.47-3.82h.79l1,2.83h0l1-2.83h.8l-1.68,4.39a1.16,1.16,0,0,1-1.2.88h-.41Z"/><path d="M242.5,567.41A.46.46,0,0,1,243,567a.45.45,0,0,1,.46.46.44.44,0,0,1-.46.45A.45.45,0,0,1,242.5,567.41Z"/><path d="M245.89,566a1.86,1.86,0,0,1,1.89-1.93,1.74,1.74,0,0,1,1.78,1.37h-.76a1,1,0,0,0-1-.7,1.26,1.26,0,0,0,0,2.51,1,1,0,0,0,1-.69h.75a1.71,1.71,0,0,1-1.77,1.35A1.85,1.85,0,0,1,245.89,566Z"/><path d="M250.55,566a1.94,1.94,0,1,1,1.92,1.91A1.85,1.85,0,0,1,250.55,566Zm3.12,0a1.19,1.19,0,0,0-1.2-1.26,1.26,1.26,0,0,0,0,2.51A1.19,1.19,0,0,0,253.67,566Z"/><path d="M255.22,564.11h.68v.53h0a.7.7,0,0,1,.7-.62.73.73,0,0,1,.75.65h0a.81.81,0,0,1,.82-.65c.55,0,.92.41.92,1.17v2.58h-.71v-2.41c0-.43-.16-.65-.48-.65s-.47.21-.47.62v2.44h-.64v-2.41c0-.39-.11-.65-.48-.65s-.47.21-.47.62v2.44h-.71Z"/></g></svg>