<svg xmlns="http://www.w3.org/2000/svg" viewBox="0 0 841.89 595.28"><defs><style>.cls-1{fill:#8c8a85;}.cls-2,.cls-3{fill:none;stroke:#000;stroke-miterlimit:10;}.cls-2{stroke-width:0.8px;}.cls-3{stroke-width:0.4px;}</style></defs><g id="Background"><rect class="cls-1" width="841.89" height="595.28"/></g><g id="Prints_Outline" data-name="Prints Outline"><line class="cls-2" x1="238.35" y1="510.04" x2="603.54" y2="510.04"/><path class="cls-2" d="M519.86,106.58c3.49,0,6.14,2.43,6.14,5.41V413.45c0,3-2.17,5.41-4.83,5.41H322c-4,0-6.08-2.43-6.08-5.41V112a5.21,5.21,0,0,1,5.59-5.41H519.86m-198.38-2.67c-4.8,0-8.36,3.38-8.36,8.08V413.45c0,4.7,3.07,8.18,8.85,8.18h199.2c4.2,0,7.6-3.48,7.6-8.18V112c0-4.7-4-8.08-8.91-8.08Z"/><rect class="cls-3" x="326.06" y="120.12" width="189.77" height="285.29"/><path class="cls-2" d="M528.43,434.06h-215c-5.31,0-9.64-3.4-9.64-9.48V335.85h1.65v88.73c0,5,3.59,7.7,8,7.7h215a7.72,7.72,0,0,0,8-7.7V337.19h1.65v87.39A9.39,9.39,0,0,1,528.43,434.06Z"/><rect class="cls-2" x="305.47" y="343.98" width="7.65" height="2.37"/><rect class="cls-2" x="305.47" y="364.01" width="7.65" height="2.37"/><rect class="cls-2" x="528.77" y="343.98" width="7.65" height="2.37"/><rect class="cls-2" x="528.77" y="364.01" width="7.65" height="2.37"/><path class="cls-2" d="M353.23,478.27v-6.52a.43.43,0,0,0-.4-.45H338.16a.43.43,0,0,0-.39.45v9.81"/><path class="cls-2" d="M340.57,438.26h9.85a.7.7,0,0,1,.7.7V471.3a0,0,0,0,1,0,0H339.88a0,0,0,0,1,0,0V439A.7.7,0,0,1,340.57,438.26Z"/><path class="cls-2" d="M343.17,435.64h4.66a.72.72,0,0,1,.72.72v1.91a0,0,0,0,1,0,0h-6.09a0,0,0,0,1,0,0v-1.91A.72.72,0,0,1,343.17,435.64Z"/><rect class="cls-2" x="344.09" y="434.06" width="2.81" height="1.58"/><line class="cls-2" x1="339.88" y1="442.39" x2="351.12" y2="442.39"/><line class="cls-2" x1="339.88" y1="446.52" x2="351.12" y2="446.52"/><line class="cls-2" x1="339.88" y1="450.65" x2="351.12" y2="450.65"/><line class="cls-2" x1="339.88" y1="454.78" x2="351.12" y2="454.78"/><line class="cls-2" x1="339.88" y1="458.91" x2="351.12" y2="458.91"/><line class="cls-2" x1="339.88" y1="463.04" x2="351.12" y2="463.04"/><line class="cls-2" x1="339.88" y1="467.17" x2="351.12" y2="467.17"/><path class="cls-2" d="M504.12,481.63v-9.88a.43.43,0,0,0-.39-.45H489.06a.43.43,0,0,0-.4.45v6.56"/><path class="cls-2" d="M491.47,438.26h9.85a.7.7,0,0,1,.7.7V471.3a0,0,0,0,1,0,0H490.77a0,0,0,0,1,0,0V439A.7.7,0,0,1,491.47,438.26Z"/><path class="cls-2" d="M494.06,435.64h4.66a.72.72,0,0,1,.72.72v1.91a0,0,0,0,1,0,0h-6.09a0,0,0,0,1,0,0v-1.91A.72.72,0,0,1,494.06,435.64Z"/><rect class="cls-2" x="494.99" y="434.06" width="2.81" height="1.58"/><line class="cls-2" x1="490.77" y1="442.39" x2="502.01" y2="442.39"/><line class="cls-2" x1="490.77" y1="446.52" x2="502.01" y2="446.52"/><line class="cls-2" x1="490.77" y1="450.65" x2="502.01" y2="450.65"/><line class="cls-2" x1="490.77" y1="454.78" x2="502.01" y2="454.78"/><line class="cls-2" x1="490.77" y1="458.91" x2="502.01" y2="458.91"/><line class="cls-2" x1="490.77" y1="463.04" x2="502.01" y2="463.04"/><line class="cls-2" x1="490.77" y1="467.17" x2="502.01" y2="467.17"/><rect class="cls-2" x="337.77" y="506.14" width="15.46" height="3.9"/><rect class="cls-2" x="488.66" y="506.14" width="15.46" height="3.9"/><path class="cls-2" d="M519.71,485.65a361.4,361.4,0,0,0-197.54,0,5.27,5.27,0,0,0-3.59,5.17v12.73a2.48,2.48,0,0,0,2.32,2.6H521a2.48,2.48,0,0,0,2.32-2.6V490.82A5.27,5.27,0,0,0,519.71,485.65Z"/></g><g id="Sample_Design" data-name="Sample Design"><path d="M460.62,137.42h-.71v-.25h1.71v.25h-.72v2.19h-.28Z"/><path d="M462,137h.28v1.07h0a.61.61,0,0,1,.56-.31.67.67,0,0,1,.69.72v1.14h-.28v-1.12a.47.47,0,0,0-.47-.48.5.5,0,0,0-.52.5v1.1H462Z"/><path d="M464,138.71a.9.9,0,0,1,.88-1,.83.83,0,0,1,.86.93v.1h-1.46a.58.58,0,0,0,.62.63.53.53,0,0,0,.55-.4l.27.07a.81.81,0,0,1-.82.58A.87.87,0,0,1,464,138.71Zm1.46-.15a.55.55,0,0,0-.58-.56.58.58,0,0,0-.59.56Z"/><path d="M467.1,138.71a.88.88,0,0,1,.86-1,.68.68,0,0,1,.62.34h0v-.3h.28v1.49a.08.08,0,0,0,.09.09h.09v.24h-.18a.27.27,0,0,1-.27-.27h0a.68.68,0,0,1-.61.33A.88.88,0,0,1,467.1,138.71Zm1.51,0A.64.64,0,0,0,468,138a.71.71,0,1,0,.61.71Z"/><path d="M469.58,137.79h.27v.31h0a.53.53,0,0,1,.5-.35h.12V138h-.17c-.33,0-.47.26-.47.61v1h-.27Z"/><path d="M470.73,138.7a.92.92,0,0,1,.93-.95.85.85,0,0,1,.84.64l-.27.07a.55.55,0,0,0-.56-.46.71.71,0,0,0,0,1.41.56.56,0,0,0,.57-.46l.27.06a.85.85,0,0,1-.85.65A.92.92,0,0,1,470.73,138.7Z"/><path d="M473,137h.28v1.07h0a.61.61,0,0,1,.56-.31.67.67,0,0,1,.69.72v1.14h-.28v-1.12a.47.47,0,0,0-.47-.48.5.5,0,0,0-.52.5v1.1H473Z"/><path d="M475.37,138H475v-.24h.61v1.82h-.27Zm-.07-.77a.2.2,0,0,1,.2-.2.2.2,0,0,1,.21.2.21.21,0,0,1-.21.21A.2.2,0,0,1,475.3,137.26Z"/><path d="M476.5,139.09V138h-.34v-.24h.36v-.52h.26v.52h.56V138h-.56v1.06c0,.2.08.28.27.28h.26v.24h-.26C476.72,139.61,476.5,139.46,476.5,139.09Z"/><path d="M477.7,138.71a.9.9,0,0,1,.88-1,.84.84,0,0,1,.87.93v.1H478a.58.58,0,0,0,.62.63.53.53,0,0,0,.55-.4l.27.07a.81.81,0,0,1-.82.58A.87.87,0,0,1,477.7,138.71Zm1.46-.15a.55.55,0,0,0-.58-.56.58.58,0,0,0-.59.56Z"/><path d="M479.79,138.7a.93.93,0,0,1,.93-.95.83.83,0,0,1,.84.64l-.27.07a.55.55,0,0,0-.56-.46.71.71,0,0,0,0,1.41.56.56,0,0,0,.56-.46l.27.06a.85.85,0,0,1-.85.65A.92.92,0,0,1,479.79,138.7Z"/><path d="M482.22,139.09V138h-.34v-.24h.36v-.52h.26v.52h.56V138h-.56v1.06c0,.2.08.28.27.28H483v.24h-.26C482.44,139.61,482.22,139.46,482.22,139.09Z"/><path d="M483.53,138.94v-1.15h.27v1.14a.47.47,0,0,0,.47.48.5.5,0,0,0,.51-.53v-1.09h.28v1.82h-.28v-.26h0a.59.59,0,0,1-.55.31A.67.67,0,0,1,483.53,138.94Z"/><path d="M485.65,137.79h.27v.31h0a.54.54,0,0,1,.5-.35h.12V138h-.17c-.33,0-.46.26-.46.61v1h-.28Z"/><path d="M486.8,138.71a.9.9,0,0,1,.88-1,.84.84,0,0,1,.87.93v.1h-1.47a.58.58,0,0,0,.62.63.53.53,0,0,0,.55-.4l.27.07a.81.81,0,0,1-.82.58A.87.87,0,0,1,486.8,138.71Zm1.46-.15a.55.55,0,0,0-.58-.56.58.58,0,0,0-.59.56Z"/><path d="M489.87,138.71a.88.88,0,0,1,.87-1,.68.68,0,0,1,.61.34h0v-.3h.27v1.49c0,.06,0,.09.1.09h.08v.24h-.18a.25.25,0,0,1-.26-.27h0a.67.67,0,0,1-.6.33A.89.89,0,0,1,489.87,138.71Zm1.52,0a.62.62,0,1,0-.62.7A.64.64,0,0,0,491.39,138.71Z"/><path d="M492.35,137.79h.28v.27h0a.59.59,0,0,1,.55-.31.67.67,0,0,1,.68.72v1.14h-.28v-1.12a.46.46,0,0,0-.46-.48.5.5,0,0,0-.51.52v1.08h-.28Z"/><path d="M494.33,138.71a.88.88,0,0,1,.87-1,.7.7,0,0,1,.62.34h0V137h.28v2.62h-.27v-.28h0a.71.71,0,0,1-.61.33A.89.89,0,0,1,494.33,138.71Zm1.52,0a.62.62,0,1,0-.61.7A.64.64,0,0,0,495.85,138.71Z"/><path d="M460,143.48a.88.88,0,0,1,.87-1,.7.7,0,0,1,.62.34h0v-1.1h.27v2.62h-.26v-.29h0a.71.71,0,0,1-.61.34A.89.89,0,0,1,460,143.48Zm1.52,0a.62.62,0,1,0-.62.7A.64.64,0,0,0,461.5,143.48Z"/><path d="M462.22,143.48a.89.89,0,0,1,.88-1,.84.84,0,0,1,.86.93v.1H462.5a.58.58,0,0,0,.62.63.54.54,0,0,0,.55-.4l.26.07a.82.82,0,0,1-.82.58A.87.87,0,0,1,462.22,143.48Zm1.46-.15a.55.55,0,0,0-.58-.56.58.58,0,0,0-.59.56Z"/><path d="M464.34,143.88l.25-.07c0,.25.19.37.47.37s.42-.13.42-.31c0-.51-1.08-.12-1.08-.85,0-.3.27-.5.65-.5a.62.62,0,0,1,.66.51l-.24.07a.39.39,0,0,0-.43-.34c-.23,0-.38.11-.38.26,0,.47,1.09.08,1.09.83,0,.35-.28.58-.7.58A.65.65,0,0,1,464.34,143.88Z"/><path d="M466.53,142.8h-.34v-.24h.61v1.82h-.27Zm-.06-.77a.19.19,0,0,1,.2-.2.2.2,0,0,1,.2.2.2.2,0,0,1-.2.21A.2.2,0,0,1,466.47,142Z"/><path d="M467.8,144.93h.79c.19,0,.27-.09.27-.29v-.55h0a.68.68,0,0,1-.62.34,1,1,0,0,1,0-1.91.68.68,0,0,1,.61.33h0v-.29h.26v2.11c0,.36-.22.51-.55.51h-.79Zm1.08-1.46a.64.64,0,0,0-.62-.7.7.7,0,1,0,.62.7Z"/><path d="M469.73,142.56H470v.27h0a.6.6,0,0,1,.55-.31.67.67,0,0,1,.68.72v1.14H471v-1.12a.47.47,0,0,0-.47-.48.5.5,0,0,0-.51.52v1.08h-.28Z"/><path d="M472.69,143.48a.9.9,0,0,1,.88-1,.83.83,0,0,1,.86.93v.1H473a.58.58,0,0,0,.62.63.53.53,0,0,0,.55-.4l.27.07a.82.82,0,0,1-.82.58A.87.87,0,0,1,472.69,143.48Zm1.46-.15a.55.55,0,0,0-.58-.56.58.58,0,0,0-.59.56Z"/><path d="M474.68,142.56H475l.55,1.56h0l.55-1.56h.3l-.67,1.82h-.37Z"/><path d="M476.63,143.48a.9.9,0,0,1,.88-1,.84.84,0,0,1,.87.93v.1h-1.46a.58.58,0,0,0,.62.63.53.53,0,0,0,.54-.4l.27.07a.82.82,0,0,1-.82.58A.87.87,0,0,1,476.63,143.48Zm1.46-.15a.54.54,0,0,0-.58-.56.59.59,0,0,0-.59.56Z"/><path d="M478.86,142.56h.28v.27h0a.6.6,0,0,1,.56-.31.66.66,0,0,1,.67.72v1.14h-.27v-1.12a.46.46,0,0,0-.47-.48.5.5,0,0,0-.51.52v1.08h-.28Z"/><path d="M481.15,143.86V142.8h-.34v-.24h.36V142h.26v.52H482v.24h-.56v1.06c0,.2.08.28.27.28H482v.24h-.25C481.37,144.38,481.15,144.23,481.15,143.86Z"/><path d="M483.33,143.47a1,1,0,1,1,.95,1A.93.93,0,0,1,483.33,143.47Zm1.61,0a.66.66,0,0,0-.66-.7.7.7,0,0,0,0,1.4A.65.65,0,0,0,484.94,143.47Z"/><path d="M485.85,142.8h-.35v-.24h.35v-.28c0-.37.22-.52.55-.52h.24V142h-.24c-.2,0-.28.09-.28.28v.28h.53v.24h-.53v1.58h-.27Z"/><path d="M488.27,143.86V142.8h-.34v-.24h.36V142h.25v.52h.56v.24h-.56v1.06c0,.2.08.28.28.28h.26v.24h-.26C488.49,144.38,488.27,144.23,488.27,143.86Z"/><path d="M489.61,141.76h.27v1.07h0a.62.62,0,0,1,.57-.31.67.67,0,0,1,.68.72v1.14h-.27v-1.12a.47.47,0,0,0-.48-.48.5.5,0,0,0-.52.5v1.1h-.27Z"/><path d="M491.6,143.48a.9.9,0,0,1,.88-1,.84.84,0,0,1,.87.93v.1h-1.46a.57.57,0,0,0,.61.63.53.53,0,0,0,.55-.4l.27.07a.82.82,0,0,1-.82.58A.87.87,0,0,1,491.6,143.48Zm1.46-.15a.54.54,0,0,0-.58-.56.59.59,0,0,0-.59.56Z"/><path d="M494.71,144.93h.2a.28.28,0,0,0,.3-.21l.13-.34h-.07l-.67-1.82h.31l.53,1.56h0l.56-1.56h.31l-.88,2.28a.51.51,0,0,1-.55.34h-.19Z"/><path d="M496.58,143.48a.89.89,0,0,1,.88-1,.83.83,0,0,1,.86.93v.1h-1.46a.58.58,0,0,0,.62.63.54.54,0,0,0,.55-.4l.27.07a.85.85,0,0,1-.83.58A.87.87,0,0,1,496.58,143.48Zm1.46-.15a.55.55,0,0,0-.58-.56.58.58,0,0,0-.59.56Z"/><path d="M498.67,143.48a.88.88,0,0,1,.86-1,.68.68,0,0,1,.62.34h0v-.3h.28v1.49a.08.08,0,0,0,.09.09h.09v.24h-.18a.27.27,0,0,1-.27-.27v0h0a.66.66,0,0,1-.61.34A.88.88,0,0,1,498.67,143.48Zm1.51,0a.62.62,0,1,0-.61.7A.64.64,0,0,0,500.18,143.48Z"/><path d="M501.15,142.56h.27v.31h0a.53.53,0,0,1,.5-.35h.12v.27h-.17c-.33,0-.47.27-.47.62v1h-.27Z"/><path d="M460.36,147.57H460v-.24h.62v1.82h-.27Zm-.07-.77a.2.2,0,0,1,.2-.2.2.2,0,0,1,.21.2.2.2,0,0,1-.21.2A.19.19,0,0,1,460.29,146.8Z"/><path d="M461.22,148.65l.25-.07c0,.25.19.37.47.37s.42-.13.42-.31c0-.51-1.09-.13-1.09-.85,0-.3.28-.5.66-.5a.62.62,0,0,1,.66.51l-.24.07a.4.4,0,0,0-.44-.35c-.22,0-.37.12-.37.27,0,.46,1.09.08,1.09.83,0,.34-.28.58-.71.58A.64.64,0,0,1,461.22,148.65Z"/><path d="M464.45,149.7h.79c.19,0,.27-.1.27-.29v-.55h0a.68.68,0,0,1-.62.34,1,1,0,0,1,0-1.91.68.68,0,0,1,.61.33h0v-.29h.26v2.11c0,.36-.22.51-.55.51h-.79Zm1.08-1.46a.64.64,0,0,0-.62-.7.7.7,0,1,0,.62.7Z"/><path d="M466.24,148.24a1,1,0,1,1,.95,1A.93.93,0,0,1,466.24,148.24Zm1.62,0a.67.67,0,1,0-.67.7A.67.67,0,0,0,467.86,148.24Z"/><path d="M468.86,147.57h-.34v-.24h.62v1.82h-.28Zm-.06-.77a.2.2,0,1,1,.4,0,.2.2,0,0,1-.4,0Z"/><path d="M469.83,147.33h.27v.27h0a.57.57,0,0,1,.55-.31.67.67,0,0,1,.68.72v1.14h-.28V148a.45.45,0,0,0-.46-.47.51.51,0,0,0-.52.52v1.08h-.27Z"/><path d="M472.26,149.7h.79c.19,0,.27-.1.27-.29v-.55h0a.68.68,0,0,1-.62.34,1,1,0,0,1,0-1.91.71.71,0,0,1,.61.33h0v-.29h.27v2.11c0,.36-.22.51-.56.51h-.78Zm1.07-1.46a.62.62,0,1,0-.62.7A.63.63,0,0,0,473.33,148.24Z"/><path d="M475.33,148.63v-1.06H475v-.24h.36v-.53h.26v.53h.56v.24h-.56v1.06c0,.19.08.28.27.28h.26v.24h-.26C475.55,149.15,475.33,149,475.33,148.63Z"/><path d="M476.53,148.24a1,1,0,1,1,1,1A.93.93,0,0,1,476.53,148.24Zm1.62,0a.67.67,0,1,0-.67.7A.67.67,0,0,0,478.15,148.24Z"/><path d="M480.4,147h-.72v-.26h1.71V147h-.71v2.19h-.28Z"/><path d="M481.49,148.24a1,1,0,1,1,.95,1A.93.93,0,0,1,481.49,148.24Zm1.62,0a.67.67,0,0,0-.67-.7.7.7,0,1,0,.67.7Z"/><path d="M483.88,146.53h.27V148h.32l.52-.71h.31l-.59.81v0l.64,1H485l-.54-.86h-.33v.86h-.27Z"/><path d="M485.63,149.7h.2a.28.28,0,0,0,.3-.21l.13-.34h-.07l-.67-1.82h.31l.53,1.55h0l.56-1.55h.31l-.88,2.28a.51.51,0,0,1-.55.34h-.19Z"/><path d="M487.5,148.24a.95.95,0,1,1,.94,1A.92.92,0,0,1,487.5,148.24Zm1.61,0a.67.67,0,0,0-.67-.7.7.7,0,1,0,.67.7Z"/><path d="M489.77,149a.21.21,0,0,1,.2-.2.2.2,0,0,1,0,.4A.21.21,0,0,1,489.77,149Z"/><path d="M336.69,389.51l-.28.08v1.94h-.15l-1.18-1.88v1.66l.28.07v.12h-.72v-.12l.27-.07v-1.72l-.27-.08v-.11h.64l1,1.56v-1.37l-.27-.08v-.11h.72Z"/><path d="M337.78,391.4v.1H337v-.1l.23-.08v-1.08l-.22-.08v-.1h.49v1.27Zm-.59-1.88a.18.18,0,0,1,.19-.18.18.18,0,0,1,0,.36A.18.18,0,0,1,337.19,389.52Z"/><path d="M338.83,391.4v.1h-.74v-.1l.23-.08v-1.08l-.22-.08v-.1h.49v1.27Zm-.59-1.88a.19.19,0,0,1,.19-.18.18.18,0,0,1,0,.36A.19.19,0,0,1,338.24,389.52Z"/><path d="M340.63,390.21h-.3a.48.48,0,0,1,.12.32.56.56,0,0,1-.61.53.65.65,0,0,1-.36-.1.22.22,0,0,0-.15.2c0,.09.07.15.28.15h.49c.29,0,.49.12.49.39s-.36.51-.73.51-.6-.12-.6-.36a.41.41,0,0,1,0-.19l.29,0v0a.4.4,0,0,0-.07.21c0,.14.12.23.36.23s.5-.1.5-.34-.09-.17-.25-.17h-.52c-.33,0-.48-.13-.48-.35a.39.39,0,0,1,.24-.34.45.45,0,0,1-.14-.35.55.55,0,0,1,.6-.53.69.69,0,0,1,.32.08l.41-.08h.06Zm-.46.32c0-.22-.11-.39-.33-.39s-.33.17-.33.39.12.4.33.4S340.17,390.76,340.17,390.53Z"/><path d="M342.34,391.4v.1h-.47v-.21a.52.52,0,0,1-.47.27.44.44,0,0,1-.49-.44c0-.36.4-.55.93-.55a.37.37,0,0,0-.4-.39.44.44,0,0,0-.39.22l-.1-.08a.55.55,0,0,1,.54-.32.59.59,0,0,1,.62.64v.68Zm-.51-.7c-.41,0-.63.16-.63.41a.25.25,0,0,0,.27.28.37.37,0,0,0,.36-.39Z"/><path d="M343.49,391.41a.44.44,0,0,1-.3.12.33.33,0,0,1-.35-.36v-.95h-.27v-.12l.29,0v-.39l.25-.05v.44h.33v.16h-.33v1a.15.15,0,0,0,.15.17.32.32,0,0,0,.17-.06Z"/><path d="M345.22,391.4v.1h-.47v-.21a.52.52,0,0,1-.47.27.44.44,0,0,1-.49-.44c0-.36.4-.55.93-.55a.37.37,0,0,0-.4-.39.44.44,0,0,0-.39.22l-.1-.08a.55.55,0,0,1,.54-.32.59.59,0,0,1,.62.64v.68Zm-.51-.7c-.41,0-.63.16-.63.41a.25.25,0,0,0,.27.28.37.37,0,0,0,.36-.39Z"/><path d="M348,391.45a2.38,2.38,0,0,1-.68.11,1.11,1.11,0,0,1,0-2.22,2.84,2.84,0,0,1,.66.09v.51h-.09l-.18-.34a.79.79,0,0,0-.39-.11c-.47,0-.69.4-.69,1s.22,1,.69,1a.75.75,0,0,0,.41-.12l.18-.33H348Z"/><path d="M349.11,391.4v.1h-.74v-.1l.23-.08v-1.08l-.22-.08v-.1h.49v1.27Zm-.59-1.88a.19.19,0,0,1,.19-.18.18.18,0,0,1,0,.36A.19.19,0,0,1,348.52,389.52Z"/><path d="M350.31,391.41a.44.44,0,0,1-.3.12.33.33,0,0,1-.35-.36v-.95h-.27v-.12l.29,0v-.39l.25-.05v.44h.33v.16h-.33v1a.15.15,0,0,0,.15.17.32.32,0,0,0,.17-.06Z"/><path d="M352.21,390.06v.1l-.24.08-.74,1.69.21.08v.1h-.7V392l.28-.08.21-.44-.49-1.25-.24-.08v-.1h.74v.1l-.21.07.34.95.44-.94-.24-.08v-.1Z"/><path d="M336.74,395.38v.12h-.89v-.12l.27-.07-.17-.44h-.81l-.16.44h0l.28.07v.12h-.74v-.12l.27-.07.63-1.67-.11-.24h.35l.79,1.91Zm-.86-.68-.35-.9-.33.9Z"/><path d="M338,394.05l-.06.28a.33.33,0,0,0-.21-.07c-.2,0-.3.22-.34.38v.68l.24.08v.1h-.74v-.1l.23-.08v-1.08l-.22-.08v-.1h.49v.36a.51.51,0,0,1,.45-.41A.27.27,0,0,1,338,394.05Z"/><path d="M339.15,395.41a.46.46,0,0,1-.3.12.33.33,0,0,1-.35-.36v-.95h-.27v-.12l.28,0v-.39l.26-.05v.44h.32v.16h-.32v1c0,.11.06.17.15.17a.35.35,0,0,0,.17-.06Z"/><path d="M336.85,397.59v1.72l.28.07v.12h-.86v-.12l.28-.07v-1.69l-.65,1.88h-.19l-.63-1.83v1.64l.28.07v.12h-.72v-.12l.27-.07v-1.72l-.27-.08v-.11h.68l.56,1.71.59-1.71h.66v.11Z"/><path d="M339.12,399.4v.1h-.48v-.18a.51.51,0,0,1-.94-.26v-.83l-.22-.08v-.1H338v1c0,.23.12.37.33.37a.35.35,0,0,0,.34-.3v-.85l-.22-.08v-.1h.49v1.27Z"/><path d="M339.43,399.44V399h.09l.1.29a.47.47,0,0,0,.3.12c.22,0,.34-.1.34-.26s-.18-.24-.35-.29-.45-.2-.45-.44.22-.44.56-.44a1.17,1.17,0,0,1,.43.08v.41h-.09l-.11-.3a.56.56,0,0,0-.23-.06c-.15,0-.31.06-.31.23s.23.23.38.28.44.2.44.44-.24.48-.63.48A1.25,1.25,0,0,1,339.43,399.44Z"/><path d="M341.68,399.38a.64.64,0,0,0,.42-.16l.08.09a.7.7,0,0,1-.57.25.78.78,0,0,1,0-1.56.66.66,0,0,1,.67.75h-1.09C341.15,399.18,341.35,399.38,341.68,399.38Zm-.11-1.23c-.23,0-.38.2-.41.45h.78C341.93,398.35,341.82,398.15,341.57,398.15Z"/><path d="M344.18,399.4v.1h-.48v-.18a.46.46,0,0,1-.42.23.48.48,0,0,1-.52-.49v-.83l-.21-.08v-.1H343v1c0,.23.12.37.33.37a.35.35,0,0,0,.34-.3v-.85l-.21-.08v-.1H344v1.27Z"/><path d="M347.07,399.4v.1h-.74v-.1l.23-.08v-.8c0-.22-.11-.35-.31-.35a.33.33,0,0,0-.33.34v.81l.24.08v.1h-.74v-.1l.23-.08v-.8c0-.22-.11-.35-.32-.35a.33.33,0,0,0-.33.29v.86l.23.08v.1h-.74v-.1l.24-.08v-1.08l-.22-.08v-.1H345v.18a.43.43,0,0,1,.39-.23.52.52,0,0,1,.48.27.47.47,0,0,1,.45-.27.48.48,0,0,1,.52.49v.83Z"/><path d="M415.11,391.3a.9.9,0,0,1-.88.86,1,1,0,0,1-.45-.12l.09-.43h.05l.09.37a.41.41,0,0,0,.24.08.66.66,0,0,0,.6-.73c0-.24-.13-.42-.35-.42a.48.48,0,0,0-.36.16l-.09-.07.22-1h1l0,.23h-.87l-.14.67a.62.62,0,0,1,.39-.12A.49.49,0,0,1,415.11,391.3Z"/><path d="M416.39,391.45v.05h-.71v-.05l.26-.07.23-1.14h-.3v-.06l.53-.18h0l-.27,1.38Z"/><path d="M417.05,390.79a.83.83,0,0,1,.76-.84c.37,0,.49.33.49.67,0,.79-.51,1.54-1,1.54a.84.84,0,0,1-.37-.09l.09-.4h0l.07.34a.28.28,0,0,0,.18.06c.37,0,.6-.57.69-.95a.6.6,0,0,1-.42.18A.47.47,0,0,1,417.05,390.79Zm.25,0c0,.21.08.41.3.41a.57.57,0,0,0,.39-.2,3.59,3.59,0,0,0,.08-.53c0-.27-.08-.44-.29-.44S417.3,390.4,417.3,390.8Z"/><path d="M419.46,391.45v.05h-.71v-.05l.26-.07.23-1.14h-.3v-.06l.53-.18h0l-.27,1.38Z"/><path d="M420.61,390.75h-.67l0-.13h.67Z"/><path d="M421,390.79a.83.83,0,0,1,.76-.84c.37,0,.49.33.49.67,0,.79-.51,1.54-1,1.54a.84.84,0,0,1-.37-.09l.08-.4H421l.06.34a.33.33,0,0,0,.19.06c.37,0,.6-.57.69-.95a.6.6,0,0,1-.42.18A.47.47,0,0,1,421,390.79Zm.24,0c0,.21.09.41.31.41a.57.57,0,0,0,.39-.2,3.59,3.59,0,0,0,.08-.53c0-.27-.08-.44-.29-.44S421.21,390.4,421.21,390.8Z"/><path d="M425.43,389.4v.05l-.18.07-.39,2h-.11l-.84-1.94-.35,1.79.16.07v.05h-.48v-.05l.18-.07.36-1.86-.14-.07v-.05h.46l.71,1.68.29-1.56-.16-.07v-.05Z"/><path d="M425.88,391.36l0,.1a.4.4,0,0,1-.26.1c-.19,0-.22-.16-.18-.33l.2-1.05-.13-.07v-.05h.37l-.24,1.22c0,.1,0,.14.07.14A.26.26,0,0,0,425.88,391.36Zm-.13-1.79a.2.2,0,0,1,.19-.19.12.12,0,0,1,.13.12.2.2,0,0,1-.19.19A.12.12,0,0,1,425.75,389.57Z"/><path d="M426.13,391.44l.08-.42h.06l.07.32a.34.34,0,0,0,.26.12.31.31,0,0,0,.31-.31c0-.11-.06-.2-.25-.31a.53.53,0,0,1-.3-.41c0-.22.17-.43.53-.43a.94.94,0,0,1,.38.08l-.08.41h-.05l-.07-.32a.31.31,0,0,0-.2-.07.27.27,0,0,0-.28.26c0,.12.08.21.23.29s.34.27.34.45-.29.46-.6.46A1,1,0,0,1,426.13,391.44Z"/><path d="M428.73,391.44a.44.44,0,0,1-.27.12c-.15,0-.2-.11-.16-.27l.17-.8c0-.22,0-.37-.11-.37s-.45.29-.55.56l-.17.82h-.22l.39-2-.13-.07v-.05l.37,0-.2,1a.74.74,0,0,1,.55-.41c.26,0,.35.2.29.49l-.19.84a.06.06,0,0,0,.06.08.28.28,0,0,0,.14-.06Z"/><path d="M429.43,391.36l0,.1a.4.4,0,0,1-.26.1c-.19,0-.22-.16-.18-.33l.2-1.05-.13-.07v-.05h.37l-.24,1.22c0,.1,0,.14.07.14A.31.31,0,0,0,429.43,391.36Zm-.13-1.79a.2.2,0,0,1,.19-.19.12.12,0,0,1,.13.12.2.2,0,0,1-.19.19A.12.12,0,0,1,429.3,389.57Z"/><path d="M431.05,390.58a.91.91,0,0,1-.8,1c-.37,0-.51-.27-.51-.58a.91.91,0,0,1,.81-1C430.91,390,431.05,390.27,431.05,390.58Zm-.25,0c0-.27-.09-.47-.29-.47s-.52.44-.52.87c0,.27.09.46.29.47S430.8,391,430.8,390.58Z"/><path d="M432.54,391.44a.44.44,0,0,1-.28.12c-.14,0-.19-.11-.15-.27l.17-.8c.05-.22,0-.37-.11-.37s-.45.29-.55.56l-.17.82h-.22l.39-2-.13-.07v-.05l.37,0-.2,1a.74.74,0,0,1,.55-.41c.25,0,.35.2.28.49l-.18.84a.06.06,0,0,0,.06.08.33.33,0,0,0,.14-.06Z"/><path d="M434.1,391.35l0,.09a.42.42,0,0,1-.27.12c-.15,0-.2-.11-.16-.27l0-.14a.7.7,0,0,1-.52.41c-.27,0-.41-.19-.41-.48,0-.54.4-1.08.84-1.08a.28.28,0,0,1,.29.18l.24-.15-.26,1.3a.06.06,0,0,0,.06.08A.28.28,0,0,0,434.1,391.35Zm-.22-1a.23.23,0,0,0-.22-.21c-.31,0-.61.51-.61,1,0,.29.09.36.2.36s.46-.38.54-.64Z"/><path d="M435.24,390.06l0,.13h-.29l-.2,1.05c0,.1,0,.17.1.17a.28.28,0,0,0,.16-.07l0,.1a.48.48,0,0,1-.29.12c-.21,0-.27-.16-.22-.38l.19-1h-.23l0-.09.25,0,.07-.39.22-.05-.08.44Z"/><path d="M436.65,391.35l0,.09a.46.46,0,0,1-.28.12c-.14,0-.19-.11-.16-.27l0-.14a.7.7,0,0,1-.51.41c-.28,0-.41-.19-.41-.48,0-.54.4-1.08.84-1.08a.3.3,0,0,1,.29.18l.23-.15-.25,1.3c0,.05,0,.08.05.08A.28.28,0,0,0,436.65,391.35Zm-.22-1a.23.23,0,0,0-.21-.21c-.32,0-.61.51-.61,1,0,.29.08.36.19.36s.46-.38.54-.64Z"/><path d="M437.92,391.28l0,.08a.6.6,0,0,1-.46.2c-.37,0-.55-.22-.55-.59a.91.91,0,0,1,.85-1,1.17,1.17,0,0,1,.41.07l-.09.47h-.06l-.06-.33a.25.25,0,0,0-.22-.11c-.33,0-.56.41-.56.85,0,.27.06.47.34.47A.67.67,0,0,0,437.92,391.28Z"/><path d="M439.62,391.44a.42.42,0,0,1-.27.12c-.14,0-.2-.11-.16-.27l.17-.8c.05-.22,0-.37-.11-.37s-.44.29-.55.56l-.16.82h-.23l.39-2-.12-.07v-.05l.37,0-.2,1a.74.74,0,0,1,.56-.41c.25,0,.34.2.28.49l-.19.84a.06.06,0,0,0,.06.08.28.28,0,0,0,.14-.06Z"/><path d="M441.19,390.58a.91.91,0,0,1-.81,1c-.36,0-.5-.27-.5-.58a.91.91,0,0,1,.81-1C441.05,390,441.19,390.27,441.19,390.58Zm-.25,0c0-.27-.09-.47-.29-.47s-.52.44-.52.87c0,.27.09.46.29.47S440.94,391,440.94,390.58Z"/><path d="M441.46,391.25h.27v.07l-.46.63h-.08Z"/><path d="M444.37,391.45a2.57,2.57,0,0,1-.66.11.78.78,0,0,1-.85-.83,1.35,1.35,0,0,1,1.28-1.39,1.85,1.85,0,0,1,.6.09l-.1.48h-.06l-.11-.35a.64.64,0,0,0-.35-.1c-.55,0-1,.59-1,1.34a.55.55,0,0,0,.61.63,1,1,0,0,0,.41-.11l.24-.34h.06Z"/><path d="M446.1,391.44a.46.46,0,0,1-.28.12c-.14,0-.19-.11-.16-.27l.18-.8c.05-.22,0-.37-.12-.37s-.44.29-.55.56l-.16.82h-.22l.39-2-.13-.07v-.05l.37,0-.2,1a.72.72,0,0,1,.55-.41c.25,0,.34.2.28.49l-.18.84c0,.05,0,.08.06.08a.3.3,0,0,0,.13-.06Z"/><path d="M447.63,391.36l0,.1a.43.43,0,0,1-.25.1c-.19,0-.23-.16-.19-.33v0a.63.63,0,0,1-.51.37c-.25,0-.38-.2-.33-.49l.17-.88-.12-.08v-.05h.36l-.19,1c-.05.22,0,.37.16.37s.4-.28.52-.53l.15-.72-.13-.08v-.05h.37l-.25,1.18c0,.13,0,.18.06.18A.31.31,0,0,0,447.63,391.36Z"/><path d="M449.27,390.58a.92.92,0,0,1-.81,1c-.36,0-.51-.27-.51-.58a.92.92,0,0,1,.81-1C449.12,390,449.27,390.27,449.27,390.58Zm-.26,0c0-.27-.09-.47-.29-.47s-.51.44-.51.87c0,.27.08.46.28.47S449,391,449,390.58Z"/><path d="M453.12,389.4v.05l-.16.07-1.08,2h-.09l-.17-1.44-.77,1.44h-.07l-.25-2-.11-.07v-.05H451v.05l-.2.07.17,1.53.63-1.16,0-.37-.13-.07v-.05H452v.05l-.18.07.17,1.57.82-1.57-.18-.07v-.05Z"/><path d="M454.08,391.35l0,.09a.46.46,0,0,1-.28.12c-.14,0-.19-.11-.16-.27l0-.14a.7.7,0,0,1-.51.41c-.28,0-.41-.19-.41-.48,0-.54.4-1.08.84-1.08a.29.29,0,0,1,.29.18l.23-.15-.25,1.3c0,.05,0,.08.06.08A.3.3,0,0,0,454.08,391.35Zm-.21-1a.24.24,0,0,0-.22-.21c-.31,0-.61.51-.61,1,0,.29.08.36.2.36s.45-.38.53-.64Z"/><path d="M455.45,390.05l-.11.25a.19.19,0,0,0-.16-.08c-.17,0-.35.31-.4.49l-.16.79h-.21l.25-1.31-.12-.08v-.05h.36l-.07.39c.08-.16.26-.44.47-.44A.24.24,0,0,1,455.45,390.05Z"/><path d="M456.59,391.41a.28.28,0,0,0,.14-.06l0,.09a.44.44,0,0,1-.28.12c-.14,0-.19-.11-.15-.27l0-.15a.75.75,0,0,1-.52.42c-.28,0-.41-.19-.41-.48,0-.54.4-1.08.84-1.08a.29.29,0,0,1,.28.16l.12-.64-.13-.07v-.05l.37,0-.38,1.95A.06.06,0,0,0,456.59,391.41Zm-.08-1.09a.24.24,0,0,0-.22-.21c-.31,0-.61.51-.61,1,0,.29.09.36.2.36s.46-.38.54-.64Z"/><path d="M457.1,391.25h.28l0,.07-.46.63h-.08Z"/><path d="M416,393.4v.05l-.18.07-.39,2h-.11l-.85-1.94-.34,1.79.16.07v.05h-.48v-.05l.18-.07.36-1.86-.14-.07v-.05h.46l.71,1.68.29-1.56-.16-.07v-.05Z"/><path d="M416.44,395.36l.05.1a.4.4,0,0,1-.26.1c-.19,0-.22-.16-.18-.33l.2-1.05-.13-.07v-.05h.37l-.24,1.22c0,.1,0,.14.07.14A.22.22,0,0,0,416.44,395.36Zm-.12-1.79a.2.2,0,0,1,.19-.19.12.12,0,0,1,.13.12.21.21,0,0,1-.2.19A.12.12,0,0,1,416.32,393.57Z"/><path d="M417.2,395.36l0,.1a.38.38,0,0,1-.26.1c-.19,0-.22-.16-.18-.33l.2-1.05-.13-.07v-.05h.37l-.24,1.22c0,.1,0,.14.07.14A.26.26,0,0,0,417.2,395.36Zm-.13-1.79a.2.2,0,0,1,.19-.19.12.12,0,0,1,.13.12.2.2,0,0,1-.19.19A.12.12,0,0,1,417.07,393.57Z"/><path d="M418.87,394l-.28,1.47a.79.79,0,0,1-.83.66c-.2,0-.37-.09-.37-.25a.45.45,0,0,1,.15-.32l.35-.12v0a.51.51,0,0,0-.27.39c0,.1.08.16.21.16a.55.55,0,0,0,.49-.46l.1-.47a.63.63,0,0,1-.51.32c-.28,0-.41-.19-.41-.48a.94.94,0,0,1,.84-1,.4.4,0,0,1,.31.15Zm-.27.24a.25.25,0,0,0-.26-.16c-.31,0-.57.42-.57.85s.08.36.19.35.44-.24.53-.48Z"/><path d="M420.35,395.35l0,.09a.42.42,0,0,1-.27.12c-.14,0-.2-.11-.16-.27l0-.14a.7.7,0,0,1-.52.41c-.27,0-.4-.19-.4-.48,0-.54.39-1.08.84-1.08a.28.28,0,0,1,.28.18l.24-.15-.26,1.3c0,.05,0,.08.06.08A.28.28,0,0,0,420.35,395.35Zm-.22-1a.23.23,0,0,0-.22-.21c-.31,0-.6.51-.6,1,0,.29.08.36.19.36s.46-.38.54-.64Z"/><path d="M421.5,394.06l0,.13h-.29l-.2,1.05c0,.1,0,.17.1.17a.28.28,0,0,0,.16-.07l0,.1a.48.48,0,0,1-.29.12c-.2,0-.26-.16-.22-.38l.19-1h-.23l0-.09.25,0,.07-.39.22-.05-.08.44Z"/><path d="M422.9,395.35l0,.09a.46.46,0,0,1-.28.12c-.14,0-.19-.11-.16-.27l0-.14a.7.7,0,0,1-.51.41c-.28,0-.41-.19-.41-.48,0-.54.4-1.08.84-1.08a.29.29,0,0,1,.29.18L423,394l-.25,1.3c0,.05,0,.08.05.08A.28.28,0,0,0,422.9,395.35Zm-.21-1a.24.24,0,0,0-.22-.21c-.32,0-.61.51-.61,1,0,.29.08.36.19.36s.46-.38.54-.64Z"/><path d="M423.27,395.25h.28l0,.07-.46.63H423Z"/><path d="M424.74,394.79a.83.83,0,0,1,.76-.84c.37,0,.49.33.49.67,0,.79-.51,1.54-1,1.54a.84.84,0,0,1-.37-.09l.09-.4h.05l.07.34a.28.28,0,0,0,.18.06c.37,0,.6-.57.69-.95a.6.6,0,0,1-.42.18A.47.47,0,0,1,424.74,394.79Zm.25,0c0,.21.08.41.3.41a.57.57,0,0,0,.39-.2,3.59,3.59,0,0,0,.08-.53c0-.27-.08-.44-.29-.44S425,394.4,425,394.8Z"/><path d="M427.61,395.3a.9.9,0,0,1-.88.86,1,1,0,0,1-.45-.12l.09-.43h.06l.08.37a.43.43,0,0,0,.24.08.66.66,0,0,0,.6-.73c0-.24-.13-.42-.35-.42a.48.48,0,0,0-.36.16l-.09-.07.22-1h1l0,.23h-.87l-.14.67a.62.62,0,0,1,.39-.12A.49.49,0,0,1,427.61,395.3Z"/><path d="M428.89,395.45v.05h-.71v-.05l.27-.07.22-1.14h-.3v-.06l.53-.18h0l-.27,1.38Z"/><path d="M430,394.75h-.67l0-.13h.67Z"/><path d="M431.68,394.82a.79.79,0,0,1-.83.74c-.33,0-.55-.18-.55-.45s.36-.6.6-.71a.53.53,0,0,1-.26-.44.65.65,0,0,1,.67-.62c.27,0,.48.15.48.39a.7.7,0,0,1-.51.6C431.53,394.46,431.68,394.59,431.68,394.82Zm-.24.11c0-.2-.14-.3-.39-.44l-.05,0a.74.74,0,0,0-.5.64.35.35,0,0,0,.38.36A.56.56,0,0,0,431.44,394.93Zm-.59-1.05c0,.15.1.27.35.4a.65.65,0,0,0,.4-.55.28.28,0,0,0-.31-.29A.44.44,0,0,0,430.85,393.88Z"/><path d="M433.29,395.3a.9.9,0,0,1-.88.86A1,1,0,0,1,432,396l.09-.43h.05l.09.37a.41.41,0,0,0,.24.08.66.66,0,0,0,.6-.73c0-.24-.13-.42-.35-.42a.48.48,0,0,0-.36.16l-.09-.07.22-1h1l0,.23h-.87l-.14.67a.62.62,0,0,1,.39-.12A.49.49,0,0,1,433.29,395.3Z"/><path d="M435,395.3a.91.91,0,0,1-.89.86,1,1,0,0,1-.45-.12l.09-.43h.06l.09.37a.38.38,0,0,0,.24.08.66.66,0,0,0,.59-.73c0-.24-.13-.42-.35-.42a.48.48,0,0,0-.36.16L434,395l.22-1h1l0,.23h-.87l-.14.67a.68.68,0,0,1,.4-.12A.5.5,0,0,1,435,395.3Z"/><path d="M436.79,394.71a.83.83,0,0,1-.76.85c-.37,0-.48-.34-.48-.68,0-.78.5-1.54,1-1.54a.92.92,0,0,1,.37.09l-.09.4h-.05l-.07-.33a.3.3,0,0,0-.18-.06c-.38,0-.6.57-.7.94a.64.64,0,0,1,.43-.18A.47.47,0,0,1,436.79,394.71Zm-.24,0c0-.22-.09-.41-.31-.41a.57.57,0,0,0-.39.2c0,.1-.07.45-.07.53,0,.26.08.44.29.44S436.55,395.11,436.55,394.71Z"/><path d="M464.62,391.44a.44.44,0,0,1-.28.12c-.14,0-.19-.11-.15-.27l.17-.8c.06-.22,0-.37-.11-.37s-.45.29-.55.56l-.17.82h-.22l.26-1.32-.13-.07v-.05h.37l-.07.36a.74.74,0,0,1,.55-.41c.26,0,.35.21.29.49l-.19.84a.06.06,0,0,0,.06.08.28.28,0,0,0,.14-.06Z"/><path d="M465.85,391.28l0,.08a.6.6,0,0,1-.46.2.52.52,0,0,1-.56-.59.91.91,0,0,1,.86-1,1.22,1.22,0,0,1,.41.07l-.09.47H466l-.06-.33a.27.27,0,0,0-.22-.11c-.33,0-.57.41-.57.85,0,.27.07.47.34.47A.67.67,0,0,0,465.85,391.28Z"/><path d="M467.56,391.35l0,.09a.46.46,0,0,1-.28.12c-.14,0-.19-.11-.16-.27l0-.14a.7.7,0,0,1-.51.41c-.28,0-.41-.19-.41-.48,0-.54.4-1.08.84-1.08a.3.3,0,0,1,.29.18l.23-.15-.25,1.3c0,.05,0,.08.05.08A.28.28,0,0,0,467.56,391.35Zm-.22-1a.23.23,0,0,0-.21-.21c-.32,0-.61.51-.61,1,0,.29.08.36.19.36s.46-.38.54-.64Z"/><path d="M470,391.44a.46.46,0,0,1-.28.12c-.14,0-.19-.11-.16-.27l.18-.8c.05-.22,0-.37-.12-.37s-.39.24-.51.48l-.2.9h-.22l.22-1c.05-.22,0-.37-.12-.37s-.42.27-.53.52l-.17.86h-.22l.25-1.32-.12-.07v-.05h.37l-.06.34a.72.72,0,0,1,.54-.39c.22,0,.31.15.3.37a.72.72,0,0,1,.53-.37c.25,0,.34.2.28.49l-.18.84c0,.05,0,.08.05.08a.28.28,0,0,0,.14-.06Z"/><path d="M470.17,391.43a.2.2,0,0,1,.19-.2.13.13,0,0,1,.14.13.22.22,0,0,1-.2.2A.13.13,0,0,1,470.17,391.43Z"/><path d="M471,390.06h.4l-.29,1.49a.77.77,0,0,1-.62.67v-.07c.18-.06.32-.23.39-.64l.26-1.31-.16-.08Zm.2-.49a.2.2,0,0,1,.19-.19.12.12,0,0,1,.13.12.2.2,0,0,1-.19.19A.12.12,0,0,1,471.18,389.57Z"/><path d="M473,390.51c0,.48-.38,1.05-.83,1.05a.4.4,0,0,1-.3-.15l-.12.59.15.08v.05l-.39,0,.38-2-.12-.07v-.05h.35l-.05.29a.61.61,0,0,1,.5-.34C472.82,390,473,390.18,473,390.51Zm-.27-.07c0-.2-.06-.33-.22-.33s-.39.22-.48.48l-.14.7a.34.34,0,0,0,.29.15C472.47,391.44,472.72,390.92,472.72,390.44Z"/><path d="M465.28,393.4l-.1.48h-.05l-.1-.36h-.48l-.36,1.86.17.07v.05h-.63v-.05l.21-.07.36-1.86h-.48l-.24.36h-.06l.09-.48Z"/><path d="M465.17,395.43a.21.21,0,0,1,.2-.2.13.13,0,0,1,.13.13.21.21,0,0,1-.19.2A.13.13,0,0,1,465.17,395.43Z"/><path d="M468,394.75c-.11.53-.44.81-.81.81s-.58-.31-.49-.81a.88.88,0,0,1,.81-.8C467.85,394,468.08,394.23,468,394.75Zm-.25,0c.08-.44,0-.71-.26-.71s-.45.27-.53.71,0,.72.25.72S467.64,395.19,467.73,394.75Z"/><path d="M469.48,395.05h.06l-.09.45h-1.11l0-.17.71-.51a.71.71,0,0,0,.34-.53.25.25,0,0,0-.27-.25.45.45,0,0,0-.3.11l-.19.3h-.06l.07-.41a1.44,1.44,0,0,1,.5-.09c.3,0,.48.14.48.35a.78.78,0,0,1-.45.62l-.61.39h.73Z"/><path d="M471.22,395.3a.91.91,0,0,1-.88.86,1,1,0,0,1-.46-.12l.1-.43h0l.09.37a.41.41,0,0,0,.24.08.67.67,0,0,0,.6-.73.38.38,0,0,0-.36-.42.48.48,0,0,0-.36.16l-.08-.07.21-1h1l-.05.23h-.86l-.15.67a.68.68,0,0,1,.4-.12A.49.49,0,0,1,471.22,395.3Z"/><path d="M472.37,394.75h-.67l0-.13h.67Z"/><path d="M473.73,395.05h0l-.09.45h-1.11l0-.17.71-.51a.71.71,0,0,0,.34-.53.24.24,0,0,0-.26-.25.46.46,0,0,0-.31.11l-.19.3h0l.06-.41a1.44,1.44,0,0,1,.5-.09c.3,0,.48.14.48.35a.78.78,0,0,1-.45.62l-.6.39h.72Z"/><path d="M475.38,395.05h.05l-.09.45h-1.11l0-.17.71-.51a.71.71,0,0,0,.34-.53.24.24,0,0,0-.26-.25.46.46,0,0,0-.31.11l-.19.3h-.05l.06-.41a1.44,1.44,0,0,1,.5-.09c.3,0,.48.14.48.35a.78.78,0,0,1-.45.62l-.6.39h.72Z"/><path d="M477,395.37a.82.82,0,0,1-.84.79,1.23,1.23,0,0,1-.48-.09l.1-.48h.06l.08.38a.32.32,0,0,0,.26.11c.27,0,.54-.34.54-.68s-.19-.38-.51-.38l0-.11h.07a.59.59,0,0,0,.57-.56.29.29,0,0,0-.3-.31.41.41,0,0,0-.29.11l-.19.3h-.05l.07-.41a1.73,1.73,0,0,1,.51-.09c.31,0,.5.14.5.37a.65.65,0,0,1-.52.61A.42.42,0,0,1,477,395.37Z"/><path d="M478.19,394.75h-.67l0-.13h.67Z"/><path d="M479.16,395.45v.05h-.7v-.05l.26-.07.22-1.14h-.29v-.06l.53-.18h0l-.27,1.38Z"/><path d="M481.07,394.71a.83.83,0,0,1-.76.85c-.37,0-.48-.34-.48-.68,0-.78.5-1.54,1-1.54a.92.92,0,0,1,.37.09l-.09.4h-.06l-.06-.33a.33.33,0,0,0-.19-.06c-.37,0-.59.57-.69.94a.64.64,0,0,1,.42-.18A.47.47,0,0,1,481.07,394.71Zm-.24,0c0-.22-.09-.41-.31-.41a.55.55,0,0,0-.39.2,3.59,3.59,0,0,0-.08.53c0,.26.09.44.3.44S480.83,395.11,480.83,394.71Z"/><path d="M482.62,395.05h.05l-.09.45h-1.11l0-.17.71-.51a.71.71,0,0,0,.34-.53.25.25,0,0,0-.27-.25.45.45,0,0,0-.3.11l-.19.3h-.06l.07-.41a1.44,1.44,0,0,1,.5-.09c.3,0,.48.14.48.35a.78.78,0,0,1-.45.62l-.61.39h.73Z"/><path d="M484.26,395.05h.06l-.09.45h-1.11l0-.17.71-.51a.71.71,0,0,0,.34-.53.25.25,0,0,0-.27-.25.45.45,0,0,0-.3.11l-.19.3h-.06l.07-.41a1.44,1.44,0,0,1,.5-.09c.3,0,.48.14.48.35a.78.78,0,0,1-.45.62l-.6.39h.72Z"/><path d="M336.63,249.08h.88l1.26,3.95h0l1.27-3.95H341v4.41h-.49v-3.94h0l-1.28,3.94h-.7l-1.28-3.94h0v3.94h-.49Z"/><path d="M341.89,251.86a1.58,1.58,0,0,1,1.57-1.73,1.24,1.24,0,0,1,1.11.61h0v-.53h.5v2.69c0,.1.07.15.17.15h.15v.44h-.32a.47.47,0,0,1-.48-.48v0h0a1.22,1.22,0,0,1-1.1.59A1.6,1.6,0,0,1,341.89,251.86Zm2.74,0a1.14,1.14,0,0,0-1.12-1.28,1.28,1.28,0,1,0,1.12,1.28Z"/><path d="M346.37,250.21h.49v.55h0a1,1,0,0,1,.9-.63H348v.5h-.3c-.59,0-.84.49-.84,1.11v1.75h-.5Z"/><path d="M348.45,251.85a1.66,1.66,0,0,1,1.68-1.72,1.5,1.5,0,0,1,1.51,1.16l-.49.12a1,1,0,0,0-1-.82,1.27,1.27,0,0,0,0,2.53,1,1,0,0,0,1-.82l.49.11a1.52,1.52,0,0,1-1.53,1.16A1.65,1.65,0,0,1,348.45,251.85Z"/><path d="M352.54,248.77H353v1.92h0a1.11,1.11,0,0,1,1-.56,1.22,1.22,0,0,1,1.23,1.3v2.06h-.5v-2a.83.83,0,0,0-.85-.86.91.91,0,0,0-.94.9v2h-.49Z"/><path d="M358.33,253h.9v-3.48h0l-1,.53v-.49l1-.51h.61V253h.83v.46h-2.24Z"/><path d="M361.42,252.12a1.73,1.73,0,0,1,.22-.82l1.21-2.22h.58l-.95,1.65,0,0a1,1,0,0,1,.37-.08,1.41,1.41,0,0,1,1.42,1.45,1.44,1.44,0,0,1-1.45,1.45A1.42,1.42,0,0,1,361.42,252.12Zm2.36,0a.93.93,0,1,0-1.85,0,.93.93,0,1,0,1.85,0Z"/><path d="M367,251.38h3.26v.43H367Z"/><path d="M373,252.84l1.77-1.82a1.11,1.11,0,0,0,.35-.76.76.76,0,0,0-.82-.78.79.79,0,0,0-.82.81H373a1.27,1.27,0,0,1,1.31-1.29,1.25,1.25,0,0,1,1.33,1.25,1.43,1.43,0,0,1-.44,1L373.45,253v0h2.21v.46H373Z"/><path d="M376.7,252.17V250.4a1.43,1.43,0,0,1,2.85,0v1.77a1.43,1.43,0,0,1-2.85,0Zm2.34,0v-1.71a.92.92,0,1,0-1.84,0v1.71a.92.92,0,1,0,1.84,0Z"/><path d="M380.59,252.84l1.77-1.82a1.11,1.11,0,0,0,.35-.76.76.76,0,0,0-.83-.78.79.79,0,0,0-.82.81h-.47a1.32,1.32,0,0,1,2.64,0,1.4,1.4,0,0,1-.45,1L381.06,253v0h2.21v.46h-2.68Z"/><path d="M384.51,253h.9v-3.48h0l-1,.53v-.49l1-.51h.6V253h.83v.46h-2.24Z"/><path d="M338,161.06h8.28c0,3.78,3.06,6,6.78,6,3.95,0,5.89-1.73,5.89-4.06,0-8.4-19.79-1.11-19.79-16.85,0-6.11,5.06-11.45,13.51-11.45,6.34,0,13.79,3.45,13.79,13h-8.34c0-3.06-2.11-5.34-5.67-5.34s-5,2-5,3.78c0,7.29,20,.84,20,16.9,0,6.67-5.56,12-14.68,12C344.17,175.07,338,169.57,338,161.06Z"/><path d="M379.22,188.61h13.84c7.73,0,12.95,4.94,12.95,12.51s-5.5,12.67-12.95,12.67H387.5v13.73h-8.28Zm13.5,17.45a4.72,4.72,0,0,0,4.95-4.94,4.62,4.62,0,0,0-4.95-4.78H387.5v9.72Z"/><path d="M414.35,280.27l2.56-2.65a1.56,1.56,0,0,0,.51-1.09,1.11,1.11,0,0,0-1.2-1.13,1.13,1.13,0,0,0-1.18,1.17h-.7a1.92,1.92,0,0,1,3.83-.06,2.05,2.05,0,0,1-.64,1.48l-2.5,2.49v0h3.2v.68h-3.88Z"/><path d="M419.73,279.3v-2.57a2.07,2.07,0,0,1,4.13,0v2.57a2.07,2.07,0,0,1-4.13,0Zm3.4-.05v-2.48a1.34,1.34,0,1,0-2.67,0v2.48a1.34,1.34,0,1,0,2.67,0Z"/><path d="M425.37,280.27l2.56-2.65a1.56,1.56,0,0,0,.51-1.09,1.11,1.11,0,0,0-1.2-1.13,1.13,1.13,0,0,0-1.18,1.17h-.7a1.92,1.92,0,0,1,3.84-.06,2.06,2.06,0,0,1-.65,1.48l-2.5,2.49v0h3.2v.68h-3.88Z"/><path d="M431.06,280.53h1.29v-5h-.05l-1.5.77v-.72l1.42-.73h.87v5.71h1.21v.68h-3.24Z"/><path d="M414.52,285.64h1.22l2.88,5.71h.06v-5.71h.73V292h-1.24l-2.85-5.72h-.06V292h-.74Z"/><path d="M420.77,289.66a2.29,2.29,0,0,1,2.27-2.5,1.82,1.82,0,0,1,1.61.89h.06v-.77h.73v3.89a.21.21,0,0,0,.23.22h.22V292h-.46a.7.7,0,0,1-.7-.71v0h-.05a1.79,1.79,0,0,1-1.59.86A2.31,2.31,0,0,1,420.77,289.66Zm4,0a1.65,1.65,0,0,0-1.61-1.85,1.86,1.86,0,1,0,1.61,1.85Z"/><path d="M427.7,290.67v-2.78h-.9v-.61h.94V285.9h.68v1.38h1.46v.61h-1.46v2.78c0,.51.21.73.71.73h.69V292h-.68C428.27,292,427.7,291.63,427.7,290.67Z"/><path d="M431.82,287.89h-.89v-.61h1.61V292h-.72Zm-.16-2a.53.53,0,1,1,.52.53A.51.51,0,0,1,431.66,285.89Z"/><path d="M434,289.65a2.48,2.48,0,1,1,2.48,2.49A2.43,2.43,0,0,1,434,289.65Zm4.22,0a1.74,1.74,0,1,0-1.74,1.84A1.73,1.73,0,0,0,438.2,289.65Z"/><path d="M440.22,287.28h.72V288H441a1.54,1.54,0,0,1,1.45-.81,1.74,1.74,0,0,1,1.77,1.88v3h-.72v-2.94a1.2,1.2,0,0,0-1.22-1.25,1.31,1.31,0,0,0-1.33,1.36V292h-.72Z"/><path d="M445.4,289.66a2.28,2.28,0,0,1,2.26-2.5,1.83,1.83,0,0,1,1.62.89h.05v-.77h.73v3.89a.21.21,0,0,0,.24.22h.22V292h-.47a.69.69,0,0,1-.69-.71v0h-.06a1.75,1.75,0,0,1-1.58.86A2.31,2.31,0,0,1,445.4,289.66Zm4,0a1.66,1.66,0,0,0-1.62-1.85,1.86,1.86,0,1,0,1.62,1.85Z"/><path d="M451.66,291.4h1v-5.6h-1v-.62h1.68v6.22h1V292h-2.64Z"/><path d="M418.25,301.33h-3.12l-.56,1.51h-.78l2.39-6.38h1l2.36,6.38h-.78Zm-.25-.68-1.29-3.52h0l-1.29,3.52Z"/><path d="M420.58,298.1h.71v.79h.06a1.4,1.4,0,0,1,1.29-.91H423v.72h-.43c-.87,0-1.23.7-1.23,1.61v2.53h-.72Z"/><path d="M423.78,300.47A2.4,2.4,0,0,1,426.2,298a2.19,2.19,0,0,1,2.2,1.68l-.71.16a1.44,1.44,0,0,0-1.47-1.18,1.83,1.83,0,0,0,0,3.66,1.44,1.44,0,0,0,1.47-1.18l.71.16a2.2,2.2,0,0,1-2.21,1.68A2.39,2.39,0,0,1,423.78,300.47Z"/><path d="M429.7,296h.72v2.79h.05a1.58,1.58,0,0,1,1.47-.81,1.76,1.76,0,0,1,1.79,1.88v3H433V299.9a1.22,1.22,0,0,0-1.24-1.25,1.31,1.31,0,0,0-1.35,1.31v2.88h-.72Z"/><path d="M435.9,298.71H435v-.61h1.61v4.74h-.72Zm-.16-2a.53.53,0,1,1,.52.53A.51.51,0,0,1,435.74,296.71Z"/><path d="M438.87,301.49v-2.78H438v-.61h.94v-1.38h.68v1.38h1.46v.61h-1.46v2.77c0,.51.21.73.71.73H441v.63h-.67C439.44,302.84,438.87,302.45,438.87,301.49Z"/><path d="M442,300.49a2.34,2.34,0,0,1,2.3-2.51,2.19,2.19,0,0,1,2.26,2.43v.26h-3.82a1.51,1.51,0,0,0,1.62,1.65,1.4,1.4,0,0,0,1.43-1l.71.17a2.14,2.14,0,0,1-2.15,1.51A2.27,2.27,0,0,1,442,300.49Zm3.82-.4a1.43,1.43,0,0,0-1.52-1.46,1.53,1.53,0,0,0-1.54,1.46Z"/><path d="M447.47,300.47A2.4,2.4,0,0,1,449.9,298a2.2,2.2,0,0,1,2.2,1.68l-.72.16a1.42,1.42,0,0,0-1.46-1.18,1.83,1.83,0,0,0,0,3.66,1.43,1.43,0,0,0,1.47-1.18l.72.16a2.21,2.21,0,0,1-2.21,1.68A2.39,2.39,0,0,1,447.47,300.47Z"/><path d="M453.83,301.49v-2.78h-.89v-.61h.94v-1.38h.67v1.38H456v.61h-1.46v2.77c0,.51.21.73.71.73H456v.63h-.68C454.41,302.84,453.83,302.45,453.83,301.49Z"/><path d="M457.24,301.08v-3H458v2.95a1.2,1.2,0,0,0,1.23,1.25,1.32,1.32,0,0,0,1.33-1.36V298.1h.72v4.74h-.72v-.69h-.06A1.54,1.54,0,0,1,459,303,1.75,1.75,0,0,1,457.24,301.08Z"/><path d="M462.79,298.1h.71v.79h.06a1.39,1.39,0,0,1,1.29-.91h.31v.72h-.43c-.86,0-1.22.7-1.22,1.61v2.53h-.72Z"/><path d="M466,300.49a2.34,2.34,0,0,1,2.3-2.51,2.19,2.19,0,0,1,2.26,2.43v.26h-3.82a1.51,1.51,0,0,0,1.62,1.65,1.41,1.41,0,0,0,1.43-1l.7.17a2.13,2.13,0,0,1-2.14,1.51A2.27,2.27,0,0,1,466,300.49Zm3.82-.4a1.43,1.43,0,0,0-1.52-1.46,1.53,1.53,0,0,0-1.54,1.46Z"/><path d="M414.07,310.47a3.21,3.21,0,0,1,3.24-3.32,3.07,3.07,0,0,1,2.95,2.08h-.82a2.25,2.25,0,0,0-2.13-1.38,2.62,2.62,0,0,0,0,5.24,2.22,2.22,0,0,0,2.13-1.38h.82a3,3,0,0,1-3,2.07A3.19,3.19,0,0,1,414.07,310.47Z"/><path d="M421.13,311.29a2.48,2.48,0,1,1,2.47,2.49A2.43,2.43,0,0,1,421.13,311.29Zm4.22,0a1.74,1.74,0,1,0-3.48,0,1.74,1.74,0,1,0,3.48,0Z"/><path d="M427.36,308.92h.72v.69h.06a1.54,1.54,0,0,1,1.45-.81,1.75,1.75,0,0,1,1.77,1.88v3h-.72v-2.94a1.2,1.2,0,0,0-1.22-1.25,1.33,1.33,0,0,0-1.34,1.36v2.83h-.72Z"/><path d="M433.26,309.53h-.9v-.61h.9v-.75c0-1,.57-1.35,1.44-1.35h.63v.63h-.64c-.5,0-.71.22-.71.73v.74h1.38v.61H434v4.13h-.72Z"/><path d="M436.23,311.31a2.34,2.34,0,0,1,2.3-2.51,2.18,2.18,0,0,1,2.25,2.42v.27H437a1.5,1.5,0,0,0,1.61,1.65,1.42,1.42,0,0,0,1.44-1l.7.16a2.13,2.13,0,0,1-2.14,1.52A2.27,2.27,0,0,1,436.23,311.31Zm3.81-.41a1.43,1.43,0,0,0-1.51-1.46A1.52,1.52,0,0,0,437,310.9Z"/><path d="M442.06,308.92h.71v.79h.06a1.39,1.39,0,0,1,1.29-.91h.31v.72H444c-.86,0-1.22.7-1.22,1.6v2.54h-.72Z"/><path d="M445.25,311.31a2.34,2.34,0,0,1,2.3-2.51,2.19,2.19,0,0,1,2.26,2.42v.27H446a1.51,1.51,0,0,0,1.62,1.65,1.41,1.41,0,0,0,1.43-1l.7.16a2.13,2.13,0,0,1-2.14,1.52A2.27,2.27,0,0,1,445.25,311.31Zm3.82-.41a1.44,1.44,0,0,0-1.52-1.46A1.53,1.53,0,0,0,446,310.9Z"/><path d="M451.08,308.92h.72v.69h.06a1.54,1.54,0,0,1,1.45-.81,1.74,1.74,0,0,1,1.77,1.88v3h-.72v-2.94a1.2,1.2,0,0,0-1.22-1.25,1.33,1.33,0,0,0-1.34,1.36v2.83h-.72Z"/><path d="M456.27,311.29a2.4,2.4,0,0,1,2.42-2.49,2.19,2.19,0,0,1,2.2,1.68l-.71.16a1.45,1.45,0,0,0-1.47-1.19,1.84,1.84,0,0,0,0,3.67,1.44,1.44,0,0,0,1.47-1.18l.71.16a2.2,2.2,0,0,1-2.21,1.68A2.39,2.39,0,0,1,456.27,311.29Z"/><path d="M461.82,311.31a2.34,2.34,0,0,1,2.3-2.51,2.19,2.19,0,0,1,2.26,2.42v.27h-3.82a1.51,1.51,0,0,0,1.62,1.65,1.41,1.41,0,0,0,1.43-1l.7.16a2.13,2.13,0,0,1-2.14,1.52A2.27,2.27,0,0,1,461.82,311.31Zm3.82-.41a1.44,1.44,0,0,0-1.52-1.46,1.53,1.53,0,0,0-1.54,1.46Z"/><path d="M367,294.54c0-11.4,8.23-20.18,20.13-20.18,8.89,0,16.39,5.06,19,14.34h-8.84c-1.73-4.11-5.73-6.33-10.17-6.33-6.68,0-11.57,5.22-11.57,12.17s4.89,12.17,11.57,12.17a10.73,10.73,0,0,0,10.17-6.28h8.84c-2.62,9.34-10.12,14.34-19,14.34C375.22,314.77,367,306,367,294.54Z"/><path d="M459.89,326.93h24.46v7.78H468.17v7.5h13.95v7.73H468.17v8.17H484.9v7.73h-25Z"/><path d="M486.76,219.74H471.48l-2.5,7.78h-8.9l13.18-38.91h11.67L498,227.52h-8.72Zm-2.44-7.56L479.37,197h-.61l-4.89,15.23Z"/></g><g id="Credits"><path d="M33.07,30.7V29.15a1.85,1.85,0,0,1,3.69-.07H36a1.1,1.1,0,0,0-2.2.11v1.47a1.1,1.1,0,0,0,2.2.11h.75a1.85,1.85,0,0,1-3.69-.07Z"/><path d="M41.26,31.77v.61H38.08v-.61h1.26V29.32H38.22v-.61h1.86v3.06Zm-2-4.1a.46.46,0,0,1,.49-.46.47.47,0,1,1,0,.93A.46.46,0,0,1,39.23,27.67Z"/><path d="M43.9,31.21V29.32H42.8v-.6h.93a.21.21,0,0,0,.21-.24v-.8h.7v1h1.43v.61H44.64v1.87c0,.35.14.56.53.56h.76v.63h-.87A1.06,1.06,0,0,1,43.9,31.21Z"/><path d="M47.74,33.33h.32a.63.63,0,0,0,.64-.45l.13-.35-1.47-3.82h.79l1,2.83h0l1-2.83H51L49.35,33.1a1.16,1.16,0,0,1-1.2.89h-.41Z"/><path d="M53,29.93h1.86v.65H53Z"/><path d="M57,27.47h.75v4.21h2.7v.7H57Z"/><path d="M65.06,31.77v.61H61.88v-.61h1.26V29.32H62v-.61h1.86v3.06Zm-2-4.1a.49.49,0,1,1,.48.47A.46.46,0,0,1,63,27.67Z"/><path d="M66.63,32.87h.69c.08.37.44.59,1,.59a1,1,0,0,0,1.11-1.1v-.52h0a1.42,1.42,0,0,1-1.18.61,1.76,1.76,0,0,1-1.77-1.91,1.76,1.76,0,0,1,1.73-1.92,1.4,1.4,0,0,1,1.21.63h0v-.54h.74v3.65a1.64,1.64,0,0,1-1.83,1.72A1.49,1.49,0,0,1,66.63,32.87Zm2.75-2.33a1.13,1.13,0,1,0-1.12,1.25A1.15,1.15,0,0,0,69.38,30.54Z"/><path d="M71.39,27.12h.73V29.2h0a1.17,1.17,0,0,1,1.07-.58A1.32,1.32,0,0,1,74.6,30v2.36h-.74V30.16a.81.81,0,0,0-.83-.85.89.89,0,0,0-.91.9v2.17h-.73Z"/><path d="M77.22,31.21V29.32h-1.1v-.6H77a.22.22,0,0,0,.22-.24v-.8H78v1h1.43v.61H78v1.87c0,.35.15.56.54.56h.76v.63h-.87A1.05,1.05,0,0,1,77.22,31.21Z"/><path d="M85.58,27.47H87.4A1.48,1.48,0,0,1,89,29a1.51,1.51,0,0,1-1.57,1.55H86.33v1.83h-.75Zm1.74,2.43a.85.85,0,0,0,.88-.9.83.83,0,0,0-.88-.87h-1V29.9Z"/><path d="M90.1,30.55A1.93,1.93,0,1,1,92,32.47,1.88,1.88,0,0,1,90.1,30.55Zm3.11,0a1.18,1.18,0,1,0-2.36,0,1.18,1.18,0,1,0,2.36,0Z"/><path d="M95.31,31.29H96c0,.38.32.57.8.57s.74-.21.74-.53c0-.9-2.14-.14-2.14-1.64,0-.61.55-1.07,1.39-1.07a1.23,1.23,0,0,1,1.36,1.1h-.67c0-.31-.28-.51-.72-.51s-.67.2-.67.47c0,.81,2.17.06,2.17,1.61,0,.69-.57,1.18-1.49,1.18S95.36,32,95.31,31.29Z"/><path d="M101,31.21V29.32h-1.1v-.6h.92a.22.22,0,0,0,.22-.24v-.8h.69v1h1.43v.61h-1.43v1.87c0,.35.15.56.54.56h.76v.63h-.88A1,1,0,0,1,101,31.21Z"/><path d="M104.5,30.55a1.81,1.81,0,0,1,1.82-1.93,1.75,1.75,0,0,1,1.8,1.89v.27h-2.88a1.05,1.05,0,0,0,1.12,1.07,1.07,1.07,0,0,0,1-.58h.71a1.7,1.7,0,0,1-1.74,1.2A1.82,1.82,0,0,1,104.5,30.55Zm2.89-.34a1,1,0,0,0-1.07-1,1.06,1.06,0,0,0-1.07,1Z"/><path d="M111.12,30.57v1.2h1.55v.61H109.4v-.61h1V29.32h-.88v-.61h1.59v.64h0a1.05,1.05,0,0,1,1-.64h.62v.71h-.64C111.48,29.42,111.12,29.89,111.12,30.57Z"/><path d="M118.48,27.47h.7l.92,3h0v-3h.65v4.91h-.72l-.89-3h-.05v3h-.65Zm2.66,1.27v-.66a.74.74,0,0,1,1.48,0v.66a.74.74,0,0,1-1.48,0Zm0,1.14h1.44v.49h-1.44Zm1-1.18v-.57a.3.3,0,1,0-.59,0v.57a.3.3,0,1,0,.59,0Z"/><path d="M123.73,30.88V29A1.63,1.63,0,0,1,127,29v1.92a1.63,1.63,0,0,1-3.25,0Zm2.5,0V29a.88.88,0,1,0-1.76,0v1.83a.88.88,0,1,0,1.76,0ZM125,29.91a.39.39,0,0,1,.39-.38.38.38,0,0,1,0,.76A.39.39,0,0,1,125,29.91Z"/><path d="M128.54,31.68a1.65,1.65,0,0,1,1-1.46l.89-.56a.92.92,0,0,0,.49-.81.75.75,0,0,0-.83-.77.8.8,0,0,0-.83.79h-.7a1.57,1.57,0,0,1,3.13,0,1.58,1.58,0,0,1-.87,1.39l-.9.55c-.46.3-.6.53-.6.84v.09h2.39v.68h-3.14Z"/><path d="M781.71,561.44a2.27,2.27,0,0,1,1.78.66h0a1.66,1.66,0,0,1,0-.34v-.18h2v6.24h-2v-.41a3.16,3.16,0,0,1,0-.35h0a2.08,2.08,0,0,1-1.8.91c-1.7,0-2.81-1.34-2.81-3.27S780.05,561.44,781.71,561.44Zm.49,4.79c.63,0,1.22-.46,1.22-1.53,0-.76-.4-1.49-1.22-1.49-.66,0-1.23.53-1.23,1.49S781.47,566.23,782.2,566.23Z"/><path d="M786.3,559.91h2.1v1.67h1.31v1.64H788.4v2c0,.7.71.8,1.11.8h.28v1.8a3.67,3.67,0,0,1-.57,0c-1,0-2.92-.27-2.92-2.35Z"/><path d="M790.65,561.58h2.1v6.24h-2.1Zm0-2.42h2.05v1.64h-2.05Z"/><path d="M793.69,561.58h1.89v.32c0,.2,0,.4,0,.4h0a2.28,2.28,0,0,1,1.89-.86c1.69,0,2.81,1.33,2.81,3.27a3,3,0,0,1-2.91,3.26,2.26,2.26,0,0,1-1.58-.6h0a4.42,4.42,0,0,1,0,.54v2.33h-2.1Zm3.26,4.65c.65,0,1.22-.53,1.22-1.49s-.5-1.53-1.22-1.53-1.23.46-1.23,1.53C795.72,565.5,796.12,566.23,797,566.23Z"/><path d="M804.11,561.44a3.28,3.28,0,1,1-3.53,3.28A3.32,3.32,0,0,1,804.11,561.44Zm0,4.78a1.41,1.41,0,0,0,1.41-1.5,1.42,1.42,0,1,0-2.83,0A1.41,1.41,0,0,0,804.12,566.22Z"/><path d="M808.5,566.22a.88.88,0,1,1-.85.87A.86.86,0,0,1,808.5,566.22Zm0,1.58a.71.71,0,1,0-.67-.71A.68.68,0,0,0,808.5,567.8Zm-.29-1.16h.35a.26.26,0,0,1,.28.27.24.24,0,0,1-.16.24h0l0,.05.17.33h-.19l-.16-.35h-.15v.35h-.17Zm.31.43a.14.14,0,0,0,.15-.16.13.13,0,0,0-.15-.14h-.14v.3Z"/><path d="M31.6,565.79v-.94a1.87,1.87,0,0,1,3.74,0v.94a1.87,1.87,0,0,1-3.74,0Zm3.28,0v-.9a1.41,1.41,0,0,0-2.82,0v.9a1.41,1.41,0,0,0,2.82,0Zm-2.39-.07V565a.94.94,0,0,1,1-1,.9.9,0,0,1,1,.93h-.5a.43.43,0,0,0-.46-.44A.47.47,0,0,0,33,565v.67c0,.3.14.53.48.53a.41.41,0,0,0,.47-.44h.51a.91.91,0,0,1-1,.93A.94.94,0,0,1,32.49,565.7Z"/><path d="M41.18,566A1.77,1.77,0,0,1,42.92,564a1.39,1.39,0,0,1,1.2.62h0v-.53h.74v3.66h-.71v-.52h0a1.36,1.36,0,0,1-1.18.61A1.76,1.76,0,0,1,41.18,566Zm3,0a1.13,1.13,0,0,0-1.14-1.26A1.14,1.14,0,0,0,41.93,566a1.14,1.14,0,1,0,2.26,0Z"/><path d="M47.27,566.61v-1.9h-1.1v-.59h.93a.21.21,0,0,0,.21-.24v-.81H48v1h1.43v.6H48v1.88c0,.35.15.56.53.56h.76v.62h-.87A1.05,1.05,0,0,1,47.27,566.61Z"/><path d="M54.15,567.17v.6H51v-.6h1.27v-2.46H51.11v-.6H53v3.06Zm-2-4.1a.47.47,0,0,1,.49-.47.46.46,0,0,1,.48.47.45.45,0,0,1-.48.47A.46.46,0,0,1,52.12,563.07Z"/><path d="M55.46,564.11h.72v.53h0a1.4,1.4,0,0,1,1.19-.62,1.93,1.93,0,0,1,0,3.84,1.35,1.35,0,0,1-1.19-.62h0v2.14h-.74Zm3,1.83a1.13,1.13,0,0,0-1.13-1.26,1.15,1.15,0,0,0-1.12,1.26,1.13,1.13,0,1,0,2.25,0Z"/><path d="M60.15,566a1.94,1.94,0,1,1,1.93,1.91A1.88,1.88,0,0,1,60.15,566Zm3.12,0a1.19,1.19,0,0,0-1.19-1.26A1.26,1.26,0,1,0,63.27,566Z"/><path d="M66.52,567h.76l-.34,1.66H66.4Z"/><path d="M74.8,567.08a1.64,1.64,0,0,1,1-1.46l.9-.56a1,1,0,0,0,.49-.82.75.75,0,0,0-.83-.76.79.79,0,0,0-.83.79h-.7a1.56,1.56,0,0,1,3.12,0,1.56,1.56,0,0,1-.87,1.4l-.9.55c-.45.29-.6.53-.6.84v.09h2.39v.67H74.8Z"/><path d="M79.5,566.28v-1.92a1.63,1.63,0,0,1,3.26,0v1.92a1.63,1.63,0,0,1-3.26,0Zm2.51,0V564.4a.89.89,0,1,0-1.77,0v1.84a.89.89,0,1,0,1.77,0Zm-1.26-.93a.38.38,0,1,1,.38.38A.38.38,0,0,1,80.75,565.31Z"/><path d="M84.32,567.08a1.64,1.64,0,0,1,1-1.46l.9-.56a1,1,0,0,0,.49-.82.75.75,0,0,0-.84-.76.79.79,0,0,0-.82.79h-.7a1.56,1.56,0,0,1,3.12,0,1.56,1.56,0,0,1-.87,1.4l-.9.55c-.46.29-.6.53-.6.84v.09h2.39v.67H84.32Z"/><path d="M92.29,567.1v.67H89.07v-.67h1.1v-2.93H89v-.58c.92,0,1.23-.22,1.23-.72h.69v4.23Z"/><path d="M98.31,565.34H102V566h-3.7Z"/><path d="M108.23,562.87h2.91v.67H109V565h2v.66h-2v2.08h-.75Z"/><path d="M112.51,566a1.94,1.94,0,1,1,1.93,1.91A1.88,1.88,0,0,1,112.51,566Zm3.12,0a1.19,1.19,0,0,0-1.19-1.26,1.26,1.26,0,1,0,1.19,1.26Z"/><path d="M117.61,564.11h.72v.49h0a1.15,1.15,0,0,1,1.07-.58,1.31,1.31,0,0,1,1.34,1.4v2.35h-.73v-2.21a.81.81,0,0,0-.82-.85.89.89,0,0,0-.89.93v2.13h-.74Z"/><path d="M123.43,566.61v-1.9h-1.1v-.59h.93a.21.21,0,0,0,.21-.24v-.81h.7v1h1.43v.6h-1.43v1.88c0,.35.14.56.53.56h.76v.62h-.87A1.05,1.05,0,0,1,123.43,566.61Z"/><path d="M127.25,566.69h.69c0,.38.32.57.8.57s.75-.22.75-.54c0-.89-2.15-.14-2.15-1.63,0-.62.55-1.07,1.39-1.07a1.24,1.24,0,0,1,1.37,1.1h-.68c0-.31-.28-.51-.72-.51s-.67.19-.67.47c0,.81,2.17,0,2.17,1.61,0,.69-.57,1.17-1.48,1.17S127.29,567.4,127.25,566.69Z"/><path d="M136.75,562.87h2.91v.67h-2.15V565h1.85v.66h-1.85v1.5h2.23v.65h-3Z"/><path d="M142.53,565.87l-1.19-1.76h.82l.82,1.27h0l.82-1.27h.83l-1.19,1.78,1.29,1.88h-.84l-.91-1.35H143l-.91,1.35h-.82Z"/><path d="M145.9,566a1.77,1.77,0,0,1,1.74-1.93,1.41,1.41,0,0,1,1.2.62h0v-.53h.74v3.66h-.72v-.52h0a1.38,1.38,0,0,1-1.18.61A1.76,1.76,0,0,1,145.9,566Zm3,0a1.13,1.13,0,0,0-1.13-1.26,1.14,1.14,0,0,0-1.12,1.26,1.12,1.12,0,0,0,1.13,1.25A1.14,1.14,0,0,0,148.9,566Z"/><path d="M150.51,564.11h.68v.53h.05a.69.69,0,0,1,.69-.62.73.73,0,0,1,.75.65h0a.79.79,0,0,1,.81-.65c.55,0,.92.41.92,1.17v2.58h-.7v-2.41c0-.43-.16-.65-.49-.65s-.47.21-.47.62v2.44h-.63v-2.41c0-.39-.12-.65-.49-.65s-.47.21-.47.62v2.44h-.7Z"/><path d="M155.42,564.11h.71v.53h.05a1.4,1.4,0,0,1,1.19-.62,1.93,1.93,0,0,1,0,3.84,1.39,1.39,0,0,1-1.2-.62h0v2.14h-.74Zm3,1.83a1.13,1.13,0,0,0-1.13-1.26,1.16,1.16,0,0,0-1.13,1.26,1.14,1.14,0,0,0,1.14,1.26A1.15,1.15,0,0,0,158.39,565.94Z"/><path d="M163.7,567.12v.65h-1.18a.81.81,0,0,1-.87-.91v-3.74h-1.26v-.6h2v4.3c0,.2.09.3.28.3Z"/><path d="M165,566a1.8,1.8,0,0,1,1.82-1.93,1.75,1.75,0,0,1,1.8,1.88v.28h-2.89a1.06,1.06,0,0,0,1.12,1.07,1.09,1.09,0,0,0,1-.58h.71a1.69,1.69,0,0,1-1.74,1.19A1.8,1.8,0,0,1,165,566Zm2.88-.34a1,1,0,0,0-1.06-1,1.07,1.07,0,0,0-1.08,1Z"/><path d="M170.08,566.69h.7c.05.38.32.57.8.57s.75-.22.75-.54c0-.89-2.15-.14-2.15-1.63,0-.62.55-1.07,1.39-1.07a1.24,1.24,0,0,1,1.37,1.1h-.68c0-.31-.28-.51-.72-.51s-.67.19-.67.47c0,.81,2.17,0,2.17,1.61,0,.69-.57,1.17-1.48,1.17S170.13,567.4,170.08,566.69Z"/><path d="M175.86,564.8a.45.45,0,0,1,.47-.45.44.44,0,0,1,.46.45.46.46,0,0,1-.46.47A.47.47,0,0,1,175.86,564.8Zm0,2.61a.46.46,0,0,1,.47-.46.45.45,0,0,1,.46.46.44.44,0,0,1-.46.45A.45.45,0,0,1,175.86,567.41Z"/><path d="M184,566a1.77,1.77,0,0,1,1.74-1.93,1.41,1.41,0,0,1,1.2.62h0v-.53h.74v3.66H187v-.52h0a1.38,1.38,0,0,1-1.18.61A1.76,1.76,0,0,1,184,566Zm3,0a1.13,1.13,0,0,0-1.13-1.26,1.14,1.14,0,0,0-1.12,1.26,1.12,1.12,0,0,0,1.13,1.25A1.14,1.14,0,0,0,187,566Z"/><path d="M190.07,566.61v-1.9H189v-.59h.93a.21.21,0,0,0,.21-.24v-.81h.7v1h1.42v.6h-1.42v1.88c0,.35.14.56.53.56h.76v.62h-.87A1,1,0,0,1,190.07,566.61Z"/><path d="M197,567.17v.6h-3.18v-.6H195v-2.46h-1.12v-.6h1.86v3.06Zm-2-4.1a.49.49,0,1,1,.48.47A.45.45,0,0,1,194.92,563.07Z"/><path d="M198.26,564.11H199v.53H199a1.4,1.4,0,0,1,1.19-.62,1.93,1.93,0,0,1,0,3.84,1.37,1.37,0,0,1-1.2-.62h0v2.14h-.74Zm3,1.83a1.13,1.13,0,0,0-1.13-1.26,1.16,1.16,0,0,0-1.13,1.26,1.14,1.14,0,0,0,1.14,1.26A1.15,1.15,0,0,0,201.23,565.94Z"/><path d="M203,566a1.94,1.94,0,1,1,1.93,1.91A1.88,1.88,0,0,1,203,566Zm3.12,0a1.19,1.19,0,0,0-1.19-1.26,1.26,1.26,0,1,0,1.19,1.26Z"/><path d="M209.1,564.71h-1.17v-.6h1.18v-.36a1.18,1.18,0,0,1,1.3-1.23h.86v.62h-.82a.56.56,0,0,0-.62.63v.34h1.52v.6h-1.51v3.06h-.74Z"/><path d="M212.47,566a1.94,1.94,0,1,1,1.93,1.91A1.88,1.88,0,0,1,212.47,566Zm3.12,0a1.19,1.19,0,0,0-1.19-1.26,1.26,1.26,0,1,0,1.19,1.26Z"/><path d="M217.57,566.46v-2.35h.74v2.22a.8.8,0,0,0,.82.86.89.89,0,0,0,.89-.93v-2.15h.73v3.66H220v-.49h0a1.17,1.17,0,0,1-1.07.58A1.31,1.31,0,0,1,217.57,566.46Z"/><path d="M222.33,564.11h.72v.49h0a1.15,1.15,0,0,1,1.07-.58,1.31,1.31,0,0,1,1.34,1.4v2.35h-.73v-2.21a.81.81,0,0,0-.82-.85.89.89,0,0,0-.89.93v2.13h-.74Z"/><path d="M226.83,566a1.77,1.77,0,0,1,1.73-1.93,1.43,1.43,0,0,1,1.21.62h0v-2.12h.74v5.25h-.72v-.52h-.05a1.37,1.37,0,0,1-1.17.61A1.75,1.75,0,0,1,226.83,566Zm3,0a1.13,1.13,0,1,0-1.12,1.25A1.15,1.15,0,0,0,229.83,566Z"/><path d="M233.49,566v1.2H235v.6h-3.26v-.6h1v-2.46h-.89v-.6h1.59v.64h0a1,1,0,0,1,1-.65h.63v.72h-.65C233.85,564.82,233.49,565.29,233.49,566Z"/><path d="M236.75,568.73h.32a.62.62,0,0,0,.63-.45l.14-.35-1.47-3.82h.79l1,2.83h0l1-2.83h.8l-1.68,4.39a1.16,1.16,0,0,1-1.2.88h-.41Z"/><path d="M242.5,567.41A.46.46,0,0,1,243,567a.45.45,0,0,1,.46.46.44.44,0,0,1-.46.45A.45.45,0,0,1,242.5,567.41Z"/><path d="M245.89,566a1.86,1.86,0,0,1,1.89-1.93,1.74,1.74,0,0,1,1.78,1.37h-.76a1,1,0,0,0-1-.7,1.26,1.26,0,0,0,0,2.51,1,1,0,0,0,1-.69h.75a1.71,1.71,0,0,1-1.77,1.35A1.85,1.85,0,0,1,245.89,566Z"/><path d="M250.55,566a1.94,1.94,0,1,1,1.93,1.91A1.88,1.88,0,0,1,250.55,566Zm3.12,0a1.19,1.19,0,0,0-1.19-1.26,1.26,1.26,0,1,0,1.19,1.26Z"/><path d="M255.23,564.11h.68v.53h0a.7.7,0,0,1,.7-.62.73.73,0,0,1,.75.65h.05a.79.79,0,0,1,.81-.65c.55,0,.92.41.92,1.17v2.58h-.7v-2.41c0-.43-.17-.65-.49-.65s-.47.21-.47.62v2.44h-.63v-2.41c0-.39-.12-.65-.49-.65s-.47.21-.47.62v2.44h-.7Z"/></g></svg>