<svg xmlns="http://www.w3.org/2000/svg" viewBox="0 0 841.89 595.28"><defs><style>.cls-1{fill:#8c8a85;}.cls-2,.cls-3{fill:none;stroke:#000;stroke-miterlimit:10;stroke-width:0.8px;}.cls-3{stroke-linecap:round;}</style></defs><g id="Background"><rect class="cls-1" width="841.89" height="595.28"/></g><g id="Vehicles_Outline" data-name="Vehicles Outline"><path class="cls-2" d="M160.69,398.18a56.91,56.91,0,0,0-7,16.18c-1.36,5.69-1.71,14.81-1.71,14.81"/><path class="cls-2" d="M149,450.34s-1.31-66.22,62-66.22c44.91,0,60.06,34.72,66.66,46.85a115.89,115.89,0,0,0,14.69,20.86,74.1,74.1,0,0,0,9.58,8.73s-1.94.66-7.21.66c-4.47,0-21.11-9.39-29.84-27.49S236.71,395,210.52,395,171.13,409.46,163,425.86,152,450.43,149,450.34Z"/><path class="cls-2" d="M157.18,374.58v23.6s21.85.16,21.85-10.85C179,374.36,157.18,374.58,157.18,374.58Z"/><rect class="cls-2" x="155.85" y="374.58" width="1.34" height="23.6"/><path class="cls-2" d="M155.85,397.84c-2.32-2.32-3.72-7.12-3.72-11.81s1.4-8.57,3.72-10.88"/><polyline class="cls-2" points="301.86 460.56 440.63 460.56 440.63 457.46 440.63 272.95"/><path class="cls-2" d="M552.78,446.05c6.54-8.92,19.22-21.19,39.5-21.19,26.55,0,37.23,15.8,42.13,20.1,5.16,4.54,6.44,4.89,12.49,4.89H705a.87.87,0,0,0,.87-.87V286c0-14.06-2.44-19.76-2.44-19.76l-262.79-1.45V273S385.9,269.55,360,301.3c-20.63,25.28-37.51,47.91-40.27,51.63a1.25,1.25,0,0,1-1,.52c-9.15-.21-111.07-1.84-143.79,25.8"/><path class="cls-2" d="M440.63,455.12c1,.18,96.62,0,106,0a1.14,1.14,0,0,0,1-.65,55.63,55.63,0,0,1,5.15-8.42"/><path class="cls-2" d="M532.17,353.11H457.7c-8,0-11.68-5-11.68-11.68V294.84c0-6.71,5-12.15,11.68-12.15h74.47c6.71,0,11.67,4.51,11.67,12.15v46.59C543.84,348.15,539.65,353.11,532.17,353.11Z"/><path class="cls-2" d="M532.17,350.79H457.7c-4.91,0-9.41-2.64-9.41-9.36V294.84c0-5.81,4.23-9.84,9.41-9.84h74.47c6.71,0,9.41,5,9.41,9.84v46.59C541.58,346.08,538.88,350.79,532.17,350.79Z"/><line class="cls-2" x1="440.62" y1="357.54" x2="705.86" y2="357.54"/><line class="cls-2" x1="440.62" y1="363.46" x2="705.86" y2="363.46"/><line class="cls-2" x1="544.64" y1="366.75" x2="544.64" y2="455.13"/><line class="cls-2" x1="268.37" y1="414.91" x2="315.03" y2="353.38"/><path class="cls-2" d="M197.3,385.27s12.11-8.72,43.55-14.34c21.4-3.83,57.07-7,66.54-7.47"/><path class="cls-2" d="M294.79,364.32c-.61,1.12-6.53,7.38-9.39,10.4s-6.14,6.08-17.56,6.08-34.74-.24-45.87,0c-9.84.22-17.95,1.47-24.67,4.47"/><path class="cls-2" d="M145.31,450.86a11.73,11.73,0,0,0-2,6.46,14.08,14.08,0,0,0,2,6.72h-6.6c-2.9,0-5.3-2.36-5.3-6.63,0-4.66,3.54-6.63,5.3-6.63C141.22,450.78,145.31,450.86,145.31,450.86Z"/><path class="cls-2" d="M134.26,461.27s-2.38-.52-2.38-4.1V428.26c0-4.27,3.56-3.73,3.56-3.73s.85,6.07,5.73,13.73c2.94,4.6,8.32,3.89,8.2,5"/><line class="cls-2" x1="143.46" y1="459.16" x2="166.74" y2="462.43"/><circle class="cls-2" cx="213.34" cy="467.09" r="1.53"/><circle class="cls-2" cx="213.34" cy="467.09" r="8.31"/><circle class="cls-2" cx="213.34" cy="467.09" r="19.53"/><circle class="cls-2" cx="213.34" cy="467.09" r="30.66"/><circle class="cls-2" cx="213.34" cy="467.09" r="32.77"/><circle class="cls-2" cx="213.34" cy="467.09" r="46.83"/><path class="cls-2" d="M268.78,440.62s7.19,30.51,10.72,43.79c2.21,8.3,15.15,5.71,15.15,5.71v-28.9"/><line class="cls-2" x1="259.5" y1="475.02" x2="277.11" y2="475.02"/><path class="cls-2" d="M294.65,475c.76.15,59,0,59,0v-2h4.58v2h78.1V472h4.26v-3.05h3.52V472h16.17l29.44-3.08,4.58,3.08h53.59"/><circle class="cls-2" cx="201.39" cy="474.36" r="2.12"/><circle class="cls-2" cx="226.57" cy="474.36" r="2.12"/><circle class="cls-2" cx="213.93" cy="453.71" r="2.12"/><circle class="cls-2" cx="594.75" cy="467.09" r="1.53"/><circle class="cls-2" cx="594.75" cy="467.09" r="8.31"/><circle class="cls-2" cx="594.75" cy="467.09" r="19.53"/><circle class="cls-2" cx="594.75" cy="467.09" r="30.66"/><circle class="cls-2" cx="594.75" cy="467.09" r="32.77"/><path class="cls-2" d="M637.26,447.33c3.3,6.42,4.32,12,4.32,19.76a46.83,46.83,0,0,1-93.66,0,51.9,51.9,0,0,1,5-21.23"/><circle class="cls-2" cx="582.8" cy="474.36" r="2.12"/><circle class="cls-2" cx="607.98" cy="474.36" r="2.12"/><circle class="cls-2" cx="595.34" cy="453.71" r="2.12"/><line class="cls-3" x1="433.89" y1="363.46" x2="322.12" y2="363.46"/><path class="cls-2" d="M440.62,285s-34.32-1.23-56.47,8.46c-12.73,5.57-20,10.22-35,27.95-10.5,12.47-25.7,33.84-25.7,33.84-2.65,3.68-13.11,17.14-13.11,34.1V448.8a2.81,2.81,0,0,0,2.81,2.8H434.37a2.8,2.8,0,0,0,2.8-2.8l.47-163.89"/><path class="cls-2" d="M349.31,355.06h74.8c5.59,0,10-2.52,10-9.58V300.93c0-6-3.34-9.1-10.7-9.1-7,0-39.61.46-56.53,17.88a265,265,0,0,0-22.83,27.15c-1.66,2.22-4.25,5.83-4.25,9.71C339.82,351.43,343.15,355.06,349.31,355.06Z"/><path class="cls-2" d="M349.31,353.32h74.8c5.37,0,8.15-2.53,8.15-8.72V301.82c0-5.5-2.49-7.78-8.83-7.78-9.81,0-39.45.94-55.72,17.64-10.19,10.46-17,20.13-20.51,24.64-2.75,3.51-5.1,7-5.1,10.26C342.1,350,344.63,353.32,349.31,353.32Z"/><line class="cls-2" x1="356.2" y1="321.51" x2="434.13" y2="321.51"/><path class="cls-2" d="M428.47,369.78a3,3,0,1,1,0-2"/><path class="cls-2" d="M435.35,368.79a.72.72,0,0,1-.69.72l-9.05.4a1.14,1.14,0,0,1-1.19-1.14v0a1.14,1.14,0,0,1,1.19-1.13l9.05.4a.72.72,0,0,1,.69.71Z"/><path class="cls-2" d="M334.66,345.29c.06-.45.51-3.55.6-4.1.18-1,.54-1.86,1.54-1.86a1.29,1.29,0,0,1,1.26,1.25s1,8.59,1,10.33c0,1.94-.26,3.3-1.34,3.3-1.79,0-2.6-3.43-2.84-4.8-.11-.59-.32-2.38-.32-2.38"/><line class="cls-3" x1="445.58" y1="279.16" x2="700.06" y2="279.16"/><line class="cls-3" x1="445.58" y1="275.63" x2="700.06" y2="275.63"/><line class="cls-3" x1="445.58" y1="272.95" x2="699.58" y2="272.95"/><line class="cls-3" x1="445.58" y1="270.18" x2="699.1" y2="270.18"/><line class="cls-3" x1="445.58" y1="268.09" x2="698.62" y2="268.09"/><path class="cls-3" d="M446.16,369.4a1.84,1.84,0,0,1,1.85-1.84h90.77a1.84,1.84,0,0,1,1.84,1.84"/><path class="cls-3" d="M446.16,375.49a1.85,1.85,0,0,1,1.85-1.85h90.77a1.85,1.85,0,0,1,1.84,1.85"/><path class="cls-3" d="M446.16,381.58a1.85,1.85,0,0,1,1.85-1.85h90.77a1.85,1.85,0,0,1,1.84,1.85"/><path class="cls-3" d="M446.16,387.67a1.85,1.85,0,0,1,1.85-1.85h90.77a1.85,1.85,0,0,1,1.84,1.85"/><path class="cls-3" d="M446.16,393.75a1.85,1.85,0,0,1,1.85-1.84h90.77a1.85,1.85,0,0,1,1.84,1.84"/><path class="cls-3" d="M446.16,399.84A1.85,1.85,0,0,1,448,398h90.77a1.85,1.85,0,0,1,1.84,1.84"/><path class="cls-3" d="M446.16,405.93a1.85,1.85,0,0,1,1.85-1.84h90.77a1.85,1.85,0,0,1,1.84,1.84"/><path class="cls-3" d="M446.16,412a1.84,1.84,0,0,1,1.85-1.84h90.77a1.84,1.84,0,0,1,1.84,1.84"/><path class="cls-3" d="M446.16,418.11a1.84,1.84,0,0,1,1.85-1.84h90.77a1.84,1.84,0,0,1,1.84,1.84"/><path class="cls-3" d="M446.16,424.2a1.84,1.84,0,0,1,1.85-1.84h90.77a1.84,1.84,0,0,1,1.84,1.84"/><path class="cls-3" d="M446.16,430.29a1.84,1.84,0,0,1,1.85-1.84h90.77a1.84,1.84,0,0,1,1.84,1.84"/><path class="cls-3" d="M446.16,436.38a1.84,1.84,0,0,1,1.85-1.84h90.77a1.84,1.84,0,0,1,1.84,1.84"/><path class="cls-3" d="M446.16,442.47a1.85,1.85,0,0,1,1.85-1.85h90.77a1.85,1.85,0,0,1,1.84,1.85"/><path class="cls-3" d="M467.19,448.56a1.85,1.85,0,0,1,1.84-1.85h47.88a1.85,1.85,0,0,1,1.85,1.85"/><path class="cls-3" d="M552.68,369.4a1.84,1.84,0,0,1,1.84-1.84h143.9a1.84,1.84,0,0,1,1.84,1.84"/><path class="cls-3" d="M552.68,375.49a1.84,1.84,0,0,1,1.84-1.85h143.9a1.85,1.85,0,0,1,1.84,1.85"/><path class="cls-3" d="M552.68,381.58a1.84,1.84,0,0,1,1.84-1.85h143.9a1.85,1.85,0,0,1,1.84,1.85"/><path class="cls-3" d="M552.68,387.67a1.84,1.84,0,0,1,1.84-1.85h143.9a1.85,1.85,0,0,1,1.84,1.85"/><path class="cls-3" d="M552.68,393.75a1.84,1.84,0,0,1,1.84-1.84h143.9a1.85,1.85,0,0,1,1.84,1.84"/><path class="cls-3" d="M552.68,399.84a1.84,1.84,0,0,1,1.84-1.84h143.9a1.85,1.85,0,0,1,1.84,1.84"/><path class="cls-3" d="M552.68,405.93a1.84,1.84,0,0,1,1.84-1.84h143.9a1.85,1.85,0,0,1,1.84,1.84"/><path class="cls-3" d="M552.68,412a1.84,1.84,0,0,1,1.84-1.84h143.9a1.84,1.84,0,0,1,1.84,1.84"/><path class="cls-3" d="M552.68,418.11a1.84,1.84,0,0,1,1.84-1.84h143.9a1.84,1.84,0,0,1,1.84,1.84"/><path class="cls-3" d="M552.68,424.2a1.84,1.84,0,0,1,1.84-1.84h143.9a1.84,1.84,0,0,1,1.84,1.84"/><path class="cls-3" d="M629.24,430.29a1.84,1.84,0,0,1,1.85-1.84h67.33a1.84,1.84,0,0,1,1.84,1.84"/><path class="cls-3" d="M552.68,430.29a1.84,1.84,0,0,1,1.84-1.84h5.62a1.84,1.84,0,0,1,1.84,1.84"/><path class="cls-3" d="M635.37,436.38a1.84,1.84,0,0,1,1.85-1.84h61.2a1.84,1.84,0,0,1,1.84,1.84"/><path class="cls-3" d="M641.58,442.47a1.85,1.85,0,0,1,1.84-1.85h55a1.85,1.85,0,0,1,1.84,1.85"/><path class="cls-2" d="M688.94,300.29a1.16,1.16,0,0,0,.36.3,6.62,6.62,0,0,0,2.64.91h6.78a.54.54,0,0,0,.55-.55v-1l.29-2.83a2,2,0,0,0,0-.49l-.28-1.75v-1.14a.38.38,0,0,0-.39-.39h-6.94a18.51,18.51,0,0,0-2.51.66,1,1,0,0,0-.55.4l-1.45,2.05a1.61,1.61,0,0,0,0,1.89Z"/><path class="cls-2" d="M332.82,356.1h-2.71a.29.29,0,0,1-.28-.2l-.88-2.47a.34.34,0,0,1,0-.1v-1.77a.2.2,0,0,1,0-.11l.86-2.27a.32.32,0,0,1,.28-.19h2.72a.3.3,0,0,1,.3.3v6.51A.31.31,0,0,1,332.82,356.1Z"/><circle class="cls-2" cx="277.25" cy="455.2" r="1.13"/><circle class="cls-2" cx="290.58" cy="463.48" r="1.13"/><circle class="cls-2" cx="290.58" cy="470.04" r="1.13"/><line class="cls-2" x1="148.98" y1="450.34" x2="143.47" y2="455.49"/><circle class="cls-2" cx="456.25" cy="447.56" r="1.59"/><circle class="cls-2" cx="528.73" cy="447.56" r="1.59"/><circle class="cls-2" cx="434.13" cy="291.37" r="1.69"/><line class="cls-2" x1="440.62" y1="450.96" x2="544.64" y2="450.96"/><path class="cls-2" d="M687.29,449.85a9.47,9.47,0,0,0,16.17,0"/><path class="cls-2" d="M705.86,407.44v7.32a3.69,3.69,0,1,0,0-7.32Z"/><line class="cls-2" x1="331.38" y1="348.99" x2="331.38" y2="356.1"/><polyline class="cls-2" points="335.98 345.13 335.98 347.12 331.38 348.99"/><path class="cls-2" d="M336,347.12v-2c-.88,0-2.65.3-2.65,1.07S335.1,347.12,336,347.12Z"/></g><g id="Design_Sample" data-name="Design Sample"><path d="M577.81,332.06V310.38a.3.3,0,0,1,.32-.32h4.27a4.77,4.77,0,0,1,4.81,4.72,4.69,4.69,0,0,1-1.69,3.6.11.11,0,0,0,0,.19,7.41,7.41,0,0,1-3.79,13.8h-3.6A.3.3,0,0,1,577.81,332.06Zm4.59-14.57a2.68,2.68,0,0,0,2.48-2.71,2.5,2.5,0,0,0-2.48-2.49h-1.95a.3.3,0,0,0-.32.32v4.56a.3.3,0,0,0,.32.32Zm-.67,12.62a4.89,4.89,0,0,0,5.13-5.16,5.13,5.13,0,0,0-4.91-5.29h-1.5a.3.3,0,0,0-.32.32v9.81a.3.3,0,0,0,.32.32Z"/><path d="M595.88,332.06V310.38a.3.3,0,0,1,.32-.32H606a.3.3,0,0,1,.32.32V312a.3.3,0,0,1-.32.31h-7.4c-.19,0-.31.13-.31.39v4.91a.3.3,0,0,0,.31.32H606a.3.3,0,0,1,.32.31v1.6a.3.3,0,0,1-.32.32h-7.4a.29.29,0,0,0-.31.31v9.31a.3.3,0,0,0,.31.32H606a.3.3,0,0,1,.32.32v1.63a.3.3,0,0,1-.32.31H596.2A.3.3,0,0,1,595.88,332.06Zm5.49-24.29H600a.29.29,0,0,1-.29-.42l1.5-4a.38.38,0,0,1,.38-.26h2.07a.36.36,0,0,1,.32.55l-2.2,3.85A.42.42,0,0,1,601.37,307.77Z"/><path d="M614,332.06V310.38a.3.3,0,0,1,.32-.32H616a1.13,1.13,0,0,1,.42.13l6,3.51c.19.09.38,0,.38-.2v-3.12a.3.3,0,0,1,.32-.32h1.62a.3.3,0,0,1,.32.32v21.68a.3.3,0,0,1-.32.31h-1.62a.3.3,0,0,1-.32-.31V316.79a.32.32,0,0,0-.16-.32l-6-3.51c-.19-.09-.39,0-.39.19v18.91a.29.29,0,0,1-.31.31h-1.63A.3.3,0,0,1,614,332.06Z"/><path d="M633.31,332.06V310.38a.3.3,0,0,1,.32-.32h1.76a.3.3,0,0,1,.31.32v21.68a.29.29,0,0,1-.31.31h-1.76A.3.3,0,0,1,633.31,332.06Z"/><path d="M644,332.06V310.38a.3.3,0,0,1,.32-.32h9.79a.3.3,0,0,1,.32.32V312a.3.3,0,0,1-.32.31h-7.4c-.19,0-.32.13-.32.39v4.91a.3.3,0,0,0,.32.32h7.4a.3.3,0,0,1,.32.31v1.6a.3.3,0,0,1-.32.32h-7.4a.3.3,0,0,0-.32.31v9.31a.3.3,0,0,0,.32.32h7.4a.3.3,0,0,1,.32.32v1.63a.3.3,0,0,1-.32.31h-9.79A.3.3,0,0,1,644,332.06Z"/><path d="M662.07,332.06V310.41a.3.3,0,0,1,.32-.32h2.87c5,0,8.22,4.15,8.22,9.28a9.59,9.59,0,0,1-3.57,7.81.26.26,0,0,0-.06.35l2.36,4.43a.25.25,0,0,1-.23.41h-2.1a.36.36,0,0,1-.35-.25l-1.75-3.51a.4.4,0,0,0-.45-.22,12.75,12.75,0,0,1-2.07.26h-.48a.3.3,0,0,0-.32.31v3.1a.29.29,0,0,1-.32.31h-1.75A.3.3,0,0,1,662.07,332.06Zm3.19-5.65c3.67,0,5.77-3.18,5.77-7s-2.1-7.05-5.77-7.05h-.48a.3.3,0,0,0-.32.32V326.1a.3.3,0,0,0,.32.31Z"/><path d="M590.16,341.58h2.1v.53h-1.55v1.12h1.5v.51h-1.5v1.64h-.55Z"/><path d="M595.38,344.58H594l-.32.8h-.59l1.61-3.87,1.61,3.87h-.59Zm-1.2-.49h1l-.5-1.29Z"/><path d="M600.19,344.25a1.13,1.13,0,0,1-1.12,1.13h-1.48v-3.8h1.46a1,1,0,0,1,.63,1.8A1,1,0,0,1,600.19,344.25Zm-2-2.15v1h.8a.53.53,0,0,0,.55-.54.52.52,0,0,0-.55-.51Zm.83,2.75a.6.6,0,0,0,.63-.6.59.59,0,0,0-.63-.6h-.83v1.2Z"/><path d="M604.27,345.23v.15h-.57v-.15a.93.93,0,0,0-1-1h-.56v1.11h-.55v-3.8h1.21a1.37,1.37,0,0,1,1.45,1.36,1.23,1.23,0,0,1-.64,1.08A1.33,1.33,0,0,1,604.27,345.23Zm-1.43-3.13h-.68v1.67h.68a.83.83,0,0,0,.85-.83A.81.81,0,0,0,602.84,342.1Z"/><path d="M605.81,341.58h.56v3.8h-.56Z"/><path d="M609.46,345.44a1.94,1.94,0,1,1,.52,0v.77h-.52Zm-1.12-1.95a1.36,1.36,0,0,0,1.12,1.4v-.52H610v.52a1.42,1.42,0,1,0-1.64-1.4Z"/><path d="M613.63,341.58v2.58a.75.75,0,1,0,1.5,0v-2.58h.55v2.58a1.31,1.31,0,0,1-2.61,0v-2.58Z"/><path d="M617.26,341.58h2.11v.53h-1.55v1h1.5v.51h-1.5v1.18h1.58v.54h-2.14Z"/><path d="M624.62,344.4l-.35-.67H624a.55.55,0,0,0-.55.56.56.56,0,0,0,.59.55h1.64v.54h-1.74a1.09,1.09,0,0,1,0-2.18H624l-.85-1.62h2.15v.51H624l1.2,2.31Z"/><path d="M631.81,344.25a1.13,1.13,0,0,1-1.11,1.13h-1.48v-3.8h1.45a1,1,0,0,1,.63,1.8A1,1,0,0,1,631.81,344.25Zm-2-2.15v1h.81a.53.53,0,0,0,.54-.54.51.51,0,0,0-.54-.51Zm.83,2.75a.6.6,0,0,0,.63-.6.59.59,0,0,0-.63-.6h-.83v1.2Z"/><path d="M633,343.49a2,2,0,1,1,2,2A1.93,1.93,0,0,1,633,343.49Zm.58,0a1.37,1.37,0,1,0,1.37-1.43A1.35,1.35,0,0,0,633.58,343.49Z"/><path d="M638.85,341.58v2.58a.75.75,0,1,0,1.5,0v-2.58h.56v2.58a1.25,1.25,0,0,1-1.32,1.3,1.24,1.24,0,0,1-1.3-1.3v-2.58Z"/><path d="M643.16,342.1h-.94v-.52h2.44v.52h-.94v3.28h-.56Z"/><path d="M646,341.58h.55v3.8H646Z"/><path d="M649.67,345.44a1.95,1.95,0,1,1,.53,0v.77h-.53Zm-1.11-1.95a1.36,1.36,0,0,0,1.11,1.4v-.52h.53v.52a1.42,1.42,0,1,0-1.64-1.4Z"/><path d="M653.84,341.58v2.58a.72.72,0,0,0,.75.76.73.73,0,0,0,.76-.76v-2.58h.55v2.58a1.25,1.25,0,0,1-1.31,1.3,1.23,1.23,0,0,1-1.3-1.3v-2.58Z"/><path d="M657.48,341.58h2.11v.53H658v1h1.51v.51H658v1.18h1.59v.54h-2.14Z"/><path d="M356,376.4h.94v3.48h1.63v.87H356Z"/><path d="M360.06,376.4H361v4.35h-.93Z"/><path d="M364.28,380.82l-1.9-4.42h1l.92,2.37.92-2.37h1Z"/><path d="M370.19,379.15a1.43,1.43,0,0,1,.6,1.26v.34h-.93v-.34a.78.78,0,0,0-.78-.83h-.57v1.17h-.93V376.4h1.61a1.6,1.6,0,0,1,1.6,1.6A1.35,1.35,0,0,1,370.19,379.15Zm-1.12-1.89h-.56v1.48h.56a.74.74,0,1,0,0-1.48Z"/><path d="M373.27,380.14l-.26.61h-1l2-4.43,1.95,4.43h-1l-.26-.61Zm.7-1.84-.42,1h.85Z"/><path d="M377.28,376.4h.93v4.35h-.93Z"/><path d="M380.73,379.05l.4-1.26a1.85,1.85,0,0,1,1.95-1.39v.91a1,1,0,0,0-1,.79l-.41,1.26a1.82,1.82,0,0,1-1.94,1.39v-.91A1,1,0,0,0,380.73,379.05Z"/><path d="M386.37,380.84a2.26,2.26,0,1,1,2.22-2.26A2.19,2.19,0,0,1,386.37,380.84Zm0-.92a1.34,1.34,0,1,0-1.25-1.34A1.26,1.26,0,0,0,386.37,379.92Z"/><path d="M390.07,376.4h.79l1.8,2v-2h.89v4.43L391,377.89v2.86h-.89Z"/><path d="M356.41,384.67l-.2,1h-.11l-.21-.76h-1l-.75,3.84.35.16,0,.1h-1.3l0-.11.43-.15.74-3.84h-1l-.51.76h-.11l.19-1Z"/><path d="M358.63,387.11a1.88,1.88,0,0,1-1.67,2c-.75,0-1-.54-1-1.19a1.88,1.88,0,0,1,1.67-2C358.33,385.92,358.63,386.47,358.63,387.11Zm-.53,0c0-.55-.18-1-.59-1-.65,0-1.07.9-1.07,1.79,0,.55.18,1,.59,1C357.69,388.89,358.1,388,358.1,387.11Z"/><path d="M361.73,388.73l.09.2a.8.8,0,0,1-.51.19c-.39,0-.48-.32-.4-.67v-.09a1.32,1.32,0,0,1-1.06.76c-.52,0-.79-.41-.67-1l.34-1.83-.25-.16,0-.11.75,0-.4,2.1c-.09.47,0,.77.33.77s.84-.57,1.07-1.1l.32-1.48-.26-.16,0-.11.75,0-.51,2.44c-.05.27,0,.38.12.38A.51.51,0,0,0,361.73,388.73Z"/><path d="M364.23,386l-.05.28h-.59l-.42,2.16c0,.2,0,.36.21.36a.6.6,0,0,0,.33-.15l.07.2a.88.88,0,0,1-.59.24c-.42,0-.55-.32-.46-.77l.4-2h-.47l0-.2.51-.08.15-.81.45-.09-.17.9Z"/><path d="M365,387.83v.05c0,.62.26,1,.68,1a1.43,1.43,0,0,0,.91-.46l.09.18a1.54,1.54,0,0,1-1.17.55c-.62,0-1-.46-1-1.26a1.86,1.86,0,0,1,1.67-1.94c.53,0,.9.28.9.69C367.08,387.53,366,387.82,365,387.83Zm0-.18c.66,0,1.56-.36,1.56-1a.43.43,0,0,0-.46-.47C365.61,386.13,365.13,386.88,365.05,387.65Z"/><path d="M367.42,388.88l.18-.85h.11l.14.64a.67.67,0,0,0,.54.25.63.63,0,0,0,.64-.64c0-.23-.12-.4-.5-.63a1.09,1.09,0,0,1-.64-.85c0-.46.37-.88,1.11-.88a2.26,2.26,0,0,1,.79.15l-.17.86h-.11l-.14-.67a.71.71,0,0,0-.42-.14.54.54,0,0,0-.57.53c0,.25.17.43.46.61.47.28.72.54.72.93,0,.64-.61.93-1.25.93A1.92,1.92,0,0,1,367.42,388.88Z"/><path d="M376,386.28a2.56,2.56,0,0,1-2.62,2.73h-1.63l0-.11.37-.15.74-3.82-.31-.15,0-.11h1.59A1.6,1.6,0,0,1,376,386.28Zm-.57-.07a1.15,1.15,0,0,0-1.32-1.29h-.7l-.75,3.83h.71A2.29,2.29,0,0,0,375.42,386.21Z"/><path d="M377.36,388.73l.08.2a.83.83,0,0,1-.53.19c-.39,0-.45-.32-.38-.67l.42-2.16-.26-.15,0-.11.76,0-.5,2.53c0,.21,0,.29.14.29A.55.55,0,0,0,377.36,388.73Zm-.27-3.72a.41.41,0,0,1,.4-.39.26.26,0,0,1,.26.27.42.42,0,0,1-.39.39A.26.26,0,0,1,377.09,385Z"/><path d="M377.94,388.88l.18-.85h.11l.14.64a.67.67,0,0,0,.54.25.63.63,0,0,0,.64-.64c0-.23-.12-.4-.5-.63a1.09,1.09,0,0,1-.64-.85c0-.46.36-.88,1.11-.88a2.26,2.26,0,0,1,.79.15l-.17.86H380l-.15-.67a.66.66,0,0,0-.41-.14.54.54,0,0,0-.57.53c0,.25.17.43.46.61.47.28.72.54.72.93,0,.64-.61.93-1.25.93A1.89,1.89,0,0,1,377.94,388.88Z"/><path d="M382.56,386l-.05.28h-.59l-.42,2.16c0,.2,0,.36.21.36a.55.55,0,0,0,.33-.15l.08.2a.93.93,0,0,1-.6.24c-.42,0-.55-.32-.46-.77l.4-2H381l0-.2.51-.08.16-.81.44-.09-.17.9Z"/><path d="M385.54,388.7l0,.19a.86.86,0,0,1-.57.23c-.29,0-.4-.21-.33-.54l.06-.3a1.39,1.39,0,0,1-1.06.84c-.57,0-.84-.38-.84-1,0-1.11.82-2.22,1.73-2.22a.58.58,0,0,1,.6.37l.48-.32-.52,2.68c0,.11,0,.18.12.18A.58.58,0,0,0,385.54,388.7Zm-.45-2.12a.48.48,0,0,0-.45-.44c-.65,0-1.25,1.06-1.25,2,0,.59.16.74.4.74.44,0,.94-.78,1.11-1.32Z"/><path d="M389,388.89a.86.86,0,0,1-.57.23c-.29,0-.4-.21-.33-.54l.36-1.65c.12-.46.08-.76-.23-.76s-.92.59-1.14,1.14l-.34,1.7h-.46l.53-2.72-.26-.15,0-.11.76,0-.15.75a1.51,1.51,0,0,1,1.15-.84c.52,0,.73.42.59,1l-.38,1.74c0,.11,0,.18.12.18a.58.58,0,0,0,.28-.13Z"/><path d="M391.6,388.55l.08.17a1.27,1.27,0,0,1-.95.4,1.07,1.07,0,0,1-1.15-1.21,1.86,1.86,0,0,1,1.77-2,2.35,2.35,0,0,1,.85.14l-.19,1h-.12l-.13-.69a.56.56,0,0,0-.46-.24c-.67,0-1.16.85-1.16,1.76,0,.57.14,1,.7,1A1.31,1.31,0,0,0,391.6,388.55Z"/><path d="M393,387.83v.05c0,.62.26,1,.68,1a1.43,1.43,0,0,0,.91-.46l.08.18a1.5,1.5,0,0,1-1.16.55c-.62,0-1-.46-1-1.26a1.86,1.86,0,0,1,1.67-1.94c.53,0,.9.28.9.69C395.08,387.53,394,387.82,393,387.83Zm0-.18c.66,0,1.56-.36,1.56-1a.43.43,0,0,0-.46-.47C393.61,386.13,393.13,386.88,393.05,387.65Z"/><path d="M395.42,388.88l.18-.85h.11l.14.64a.67.67,0,0,0,.54.25.63.63,0,0,0,.64-.64c0-.23-.12-.4-.5-.63a1.09,1.09,0,0,1-.64-.85c0-.46.36-.88,1.11-.88a2.26,2.26,0,0,1,.79.15l-.17.86h-.11l-.14-.67a.71.71,0,0,0-.42-.14.54.54,0,0,0-.57.53c0,.25.17.43.46.61.47.28.72.54.72.93,0,.64-.61.94-1.25.93A1.92,1.92,0,0,1,395.42,388.88Z"/><path d="M365.7,410.19l-1.9-4.43h1l.92,2.37.91-2.37h1Z"/><path d="M369,405.76h2.68v.91h-1.75v.76h1.7v.88h-1.7v.89h1.79v.91H369Z"/><path d="M373.32,405.76h.8l1.79,2v-2h.9v4.43l-2.59-2.93v2.85h-.9Z"/><path d="M379.3,406.67h-1v-.91h2.9v.91h-1v3.44h-.93Z"/><path d="M382.75,405.76h2.68v.9h-1.75v.76h1.69v.88h-1.69v.89h1.78v.91h-2.71Z"/><path d="M352.46,417.33l-.26,1.06h-3.07l0-.11.36-.15.74-3.83-.3-.15,0-.11h2.84l-.1,1h-.11l-.27-.75h-1.55l-.33,1.69,1.45,0-.06.33-1.43,0-.37,1.89h1.78l.53-.79Z"/><path d="M355.9,418.26a.88.88,0,0,1-.57.24c-.29,0-.4-.21-.33-.55l.36-1.64c.12-.47.08-.77-.23-.77s-.92.59-1.14,1.15l-.34,1.7h-.45l.52-2.72-.26-.16,0-.1.76,0-.14.76a1.51,1.51,0,0,1,1.14-.85c.53,0,.73.42.59,1l-.38,1.74c0,.11,0,.17.12.17a.47.47,0,0,0,.28-.13Z"/><path d="M362.26,416.21l0,.1-.35.16-.32,1.63a3.32,3.32,0,0,1-1.64.4,1.58,1.58,0,0,1-1.68-1.73,2.72,2.72,0,0,1,2.66-2.84,5.31,5.31,0,0,1,1.34.18l-.21,1h-.11l-.25-.72a1.72,1.72,0,0,0-.81-.21c-1.17,0-2.05,1.14-2.05,2.66,0,.85.35,1.4,1.19,1.4a2,2,0,0,0,1.08-.32l.27-1.41-.6-.18,0-.12Z"/><path d="M365,415.39l-.23.51a.46.46,0,0,0-.34-.16c-.35,0-.72.65-.84,1l-.31,1.65h-.44l.51-2.72-.25-.15,0-.11.74,0-.15.81c.17-.33.52-.9,1-.9A.48.48,0,0,1,365,415.39Z"/><path d="M367.69,416.49a1.89,1.89,0,0,1-1.67,2c-.75,0-1-.55-1-1.19a1.89,1.89,0,0,1,1.67-2C367.39,415.29,367.69,415.84,367.69,416.49Zm-.53,0c0-.56-.18-1-.59-1-.65,0-1.07.91-1.07,1.8,0,.55.18,1,.59,1C366.75,418.26,367.16,417.38,367.16,416.49Z"/><path d="M368,418.26l.18-.86h.11l.14.65a.66.66,0,0,0,.54.24.62.62,0,0,0,.64-.64c0-.23-.12-.4-.5-.63a1.08,1.08,0,0,1-.63-.85c0-.46.36-.88,1.1-.88a2.52,2.52,0,0,1,.79.15l-.17.86h-.11l-.14-.66a.64.64,0,0,0-.42-.15.54.54,0,0,0-.56.54c0,.24.16.43.46.61.46.28.71.54.71.92,0,.64-.61.94-1.25.94A2.05,2.05,0,0,1,368,418.26Z"/><path d="M371.06,417.87h.56l0,.15-1,1.29h-.16Z"/><path d="M376.63,417a1.6,1.6,0,0,1-1.78,1.55,3.47,3.47,0,0,1-1.2-.22l.21-1H374l.17.72a1.16,1.16,0,0,0,1.95-.78c0-.47-.4-.71-.9-.94a1.15,1.15,0,0,1-.78-1,1.39,1.39,0,0,1,1.54-1.29,2.55,2.55,0,0,1,1,.18l-.21,1h-.11l-.18-.73a.92.92,0,0,0-.61-.22.9.9,0,0,0-.92.89c0,.34.26.5.77.74S376.63,416.43,376.63,417Z"/><path d="M377.84,417.21v0c0,.63.25,1,.67,1a1.43,1.43,0,0,0,.91-.46l.09.17a1.55,1.55,0,0,1-1.17.56c-.62,0-1-.47-1-1.26a1.86,1.86,0,0,1,1.66-1.95c.53,0,.9.28.9.69C379.88,416.91,378.77,417.19,377.84,417.21Zm0-.18c.66,0,1.56-.37,1.56-1a.42.42,0,0,0-.45-.47C378.41,415.51,377.93,416.26,377.85,417Z"/><path d="M384.75,418.26a.88.88,0,0,1-.57.24c-.29,0-.4-.21-.33-.55l.36-1.64c.11-.48.08-.77-.23-.77s-.82.48-1.07,1l-.41,1.87H382l.46-2.08c.1-.48.08-.77-.24-.77s-.87.54-1.1,1.07l-.35,1.78h-.46l.53-2.72-.26-.16v-.1l.77,0-.14.71a1.5,1.5,0,0,1,1.12-.8c.45,0,.65.3.62.76a1.48,1.48,0,0,1,1.09-.76c.53,0,.71.41.59,1L384.3,418c0,.11,0,.17.12.17a.47.47,0,0,0,.28-.13Z"/><path d="M386.26,418.1l.09.21a.88.88,0,0,1-.54.19c-.39,0-.44-.33-.38-.68l.43-2.15-.27-.16,0-.1.76,0-.49,2.54c-.05.2,0,.28.14.28A.46.46,0,0,0,386.26,418.1Zm-.27-3.71a.42.42,0,0,1,.4-.39.26.26,0,0,1,.27.26.42.42,0,0,1-.4.39A.26.26,0,0,1,386,414.39Z"/><path d="M392.73,416.21v.1l-.36.16-.31,1.63a3.37,3.37,0,0,1-1.64.4,1.58,1.58,0,0,1-1.69-1.73,2.72,2.72,0,0,1,2.67-2.84,5.21,5.21,0,0,1,1.33.18l-.21,1h-.11l-.24-.72a1.78,1.78,0,0,0-.82-.21c-1.17,0-2,1.14-2,2.66,0,.85.36,1.4,1.2,1.4a2,2,0,0,0,1.07-.32l.27-1.41-.6-.18,0-.12Z"/><path d="M395.44,415.39l-.23.51a.42.42,0,0,0-.33-.16c-.36,0-.72.65-.84,1l-.32,1.65h-.44l.52-2.72-.26-.15,0-.11.74,0-.14.81c.16-.33.52-.9,1-.9A.48.48,0,0,1,395.44,415.39Z"/><path d="M398.16,416.49a1.88,1.88,0,0,1-1.67,2c-.74,0-1.05-.55-1.05-1.19a1.89,1.89,0,0,1,1.67-2C397.86,415.29,398.16,415.84,398.16,416.49Zm-.52,0c0-.56-.18-1-.6-1-.65,0-1.07.91-1.07,1.8,0,.55.18,1,.6,1C397.22,418.26,397.64,417.38,397.64,416.49Z"/><path d="M398.51,418.26l.18-.86h.1l.15.65a.66.66,0,0,0,.54.24.63.63,0,0,0,.64-.64c0-.23-.12-.4-.51-.63a1.08,1.08,0,0,1-.63-.85c0-.46.36-.88,1.11-.88a2.45,2.45,0,0,1,.78.15l-.16.86h-.12l-.14-.66a.61.61,0,0,0-.41-.15.54.54,0,0,0-.57.54c0,.24.16.43.46.61.47.28.71.54.71.92,0,.64-.6.94-1.24.94A2,2,0,0,1,398.51,418.26Z"/><path d="M366.53,424.79l-.27,1.06h-3.07l0-.11.37-.15.74-3.83-.31-.15,0-.11h2.84l-.1,1h-.11l-.26-.75h-1.56l-.33,1.69,1.45,0-.06.33-1.43-.05-.37,1.89h1.78l.53-.79Z"/><path d="M369,422.87l-.05.28h-.59l-.42,2.15c0,.21,0,.36.21.36a.58.58,0,0,0,.33-.14l.07.19a.89.89,0,0,1-.59.25c-.42,0-.55-.32-.46-.78l.4-2h-.47l0-.2.51-.08.15-.82.45-.08-.17.9Z"/><path d="M375,423.11a2.56,2.56,0,0,1-2.62,2.74h-1.63l0-.11.37-.15.74-3.82-.31-.15,0-.12h1.59A1.6,1.6,0,0,1,375,423.11Zm-.57-.07a1.15,1.15,0,0,0-1.32-1.29h-.71l-.74,3.83h.71A2.29,2.29,0,0,0,374.46,423Z"/><path d="M376,424.67v0c0,.63.26,1,.68,1a1.43,1.43,0,0,0,.91-.46l.08.17a1.53,1.53,0,0,1-1.16.56c-.63,0-1-.47-1-1.26a1.86,1.86,0,0,1,1.67-1.95c.53,0,.9.28.9.69C378.05,424.37,376.93,424.65,376,424.67Zm0-.18c.66,0,1.57-.37,1.57-1.05a.42.42,0,0,0-.46-.47C376.57,423,376.1,423.72,376,424.49Zm.65-2.06-.06-.12,1.1-.81h.09l.17.39Z"/><path d="M380.27,422.87l0,.28h-.59l-.42,2.15c0,.21,0,.36.21.36a.58.58,0,0,0,.33-.14l.07.19a.89.89,0,0,1-.59.25c-.42,0-.55-.32-.46-.78l.4-2h-.47l0-.2.51-.08.15-.82.45-.08-.17.9Z"/><path d="M383.25,425.53l.05.19a.88.88,0,0,1-.57.24c-.29,0-.4-.21-.33-.55l.06-.3a1.42,1.42,0,0,1-1.06.85c-.57,0-.85-.39-.85-1,0-1.12.83-2.23,1.74-2.23a.61.61,0,0,1,.6.37l.48-.32-.52,2.69c0,.11,0,.17.11.17A.5.5,0,0,0,383.25,425.53Zm-.45-2.12a.47.47,0,0,0-.45-.43c-.65,0-1.26,1-1.26,2,0,.59.17.73.41.73.44,0,.94-.78,1.1-1.32Z"/><path d="M384.84,425.56l.09.21a.88.88,0,0,1-.54.19c-.39,0-.44-.33-.37-.68l.42-2.15-.27-.16,0-.1.75,0-.49,2.54c0,.2,0,.28.14.28A.43.43,0,0,0,384.84,425.56Zm-.26-3.71a.41.41,0,0,1,.39-.39.26.26,0,0,1,.27.26.43.43,0,0,1-.4.4A.26.26,0,0,1,384.58,421.85Z"/><path d="M386.53,425.56l.08.21a.83.83,0,0,1-.53.19c-.39,0-.45-.33-.38-.68l.68-3.52-.25-.15,0-.11.76,0-.77,3.91c0,.2,0,.28.14.28A.46.46,0,0,0,386.53,425.56Z"/><path d="M586.75,299.18l2-.75.18.49-1.45.55.4,1,1.41-.54.18.48L588,301l.59,1.53-.52.2Z"/><path d="M592.72,300.19l-1.33.46,0,.87-.55.19.25-4.2,2.79,3.15-.55.19Zm-1.3-.07,1-.33-.89-1.05Z"/><path d="M593.93,296.65l.53-.16,1.12,3.64-.53.16Z"/><path d="M597.48,298.26l0-1.41a1.53,1.53,0,0,1,1.18-1.57l.15.53a1,1,0,0,0-.74.94l0,1.4a1.53,1.53,0,0,1-1.18,1.57l-.15-.52A.94.94,0,0,0,597.48,298.26Z"/><path d="M600.12,294.93l2-.49.12.52-1.51.35.24,1,1.46-.34.12.5-1.47.34.27,1.15,1.55-.36.13.53-2.09.49Z"/><path d="M604.31,294l.49,2.53a.72.72,0,0,0,.88.61.73.73,0,0,0,.59-.89l-.48-2.54.54-.1.49,2.53a1.25,1.25,0,0,1-1.05,1.52,1.23,1.23,0,0,1-1.52-1l-.49-2.54Z"/><path d="M611.17,296.53l0,.15-.56.09,0-.16a.93.93,0,0,0-1.11-.8l-.56.08.17,1.11-.55.08-.57-3.76,1.2-.19a1.37,1.37,0,0,1,1.64,1.13,1.25,1.25,0,0,1-.47,1.17A1.32,1.32,0,0,1,611.17,296.53Zm-1.88-2.89-.67.1.25,1.66.67-.1a.84.84,0,0,0,.72-1A.82.82,0,0,0,609.29,293.64Z"/><path d="M613.25,295.17l.24-1.39a1.51,1.51,0,0,1,1.41-1.36l.06.54a.93.93,0,0,0-.87.81l-.25,1.38a1.53,1.53,0,0,1-1.41,1.37l-.06-.54A1,1,0,0,0,613.25,295.17Z"/><path d="M618.65,292.13l1.33-.06a1.88,1.88,0,0,1,1.93,1.82,1.85,1.85,0,0,1-1.76,2l-1.33.06Zm1.41,3.21a1.31,1.31,0,0,0,1.27-1.42,1.33,1.33,0,0,0-1.39-1.33l-.71,0,.12,2.75Z"/><path d="M623.32,292h2.11v.52h-1.55v1h1.51V294h-1.51v1.18h1.59v.54h-2.14Z"/><path d="M629,293.94a1.93,1.93,0,0,1,2.06-1.86,1.84,1.84,0,0,1,.75.19l0,.6a1.45,1.45,0,0,0-.74-.25,1.43,1.43,0,1,0,.61,2.68l0,.6a1.82,1.82,0,0,1-.76.11A1.93,1.93,0,0,1,629,293.94Z"/><path d="M633.37,292.31l.55.05-.15,1.62,1.47.14.16-1.62.55.06-.36,3.78-.55-.06.16-1.65-1.48-.14-.16,1.65-.55-.05Z"/><path d="M637.22,294.61a2,2,0,1,1,1.66,2.22A1.93,1.93,0,0,1,637.22,294.61Zm.58.08a1.37,1.37,0,1,0,1.56-1.22A1.35,1.35,0,0,0,637.8,294.69Z"/><path d="M642.25,295.36a2,2,0,0,1,3-1.29l-.11.58a1.48,1.48,0,0,0-.7-.34,1.43,1.43,0,0,0-.53,2.81,1.44,1.44,0,0,0,.78-.07l-.11.59a2,2,0,0,1-.77,0A1.93,1.93,0,0,1,642.25,295.36Z"/><path d="M646.22,296.11a2,2,0,1,1,1.45,2.36A1.91,1.91,0,0,1,646.22,296.11Zm.56.14a1.37,1.37,0,1,0,1.66-1.08A1.36,1.36,0,0,0,646.78,296.25Z"/><path d="M651.91,295.54l.54.15-.88,3.14,1.5.42-.15.52-2-.56Z"/><path d="M656.32,300l-1.34-.43-.55.67-.55-.18,2.71-3.2.35,4.19-.56-.18Zm-1-.84,1,.31-.09-1.38Z"/><path d="M659.52,298.45l-.89-.32.18-.48,2.29.82-.17.48-.89-.31-1.1,3.09-.53-.19Z"/></g><g id="Credits"><path d="M32.82,27.47h.82l1.22,4h0l1.26-4H37l-1.64,4.91h-.95Z"/><path d="M37.87,30.55a1.8,1.8,0,0,1,1.82-1.93,1.75,1.75,0,0,1,1.8,1.89v.27H38.6a1.15,1.15,0,0,0,2.14.49h.71a1.69,1.69,0,0,1-1.74,1.2A1.81,1.81,0,0,1,37.87,30.55Zm2.88-.34a1,1,0,0,0-1.06-1,1.05,1.05,0,0,0-1.07,1Z"/><path d="M42.83,27.12h.74V29.2h0a1.17,1.17,0,0,1,1.08-.58A1.31,1.31,0,0,1,46,30v2.36H45.3V30.16a.81.81,0,0,0-.83-.85.88.88,0,0,0-.9.9v2.17h-.74Z"/><path d="M50.78,31.77v.61H47.6v-.61h1.26V29.32H47.74v-.61H49.6v3.06Zm-2-4.1a.46.46,0,0,1,.49-.46.47.47,0,1,1,0,.93A.46.46,0,0,1,48.75,27.67Z"/><path d="M52.12,30.55A1.86,1.86,0,0,1,54,28.62,1.74,1.74,0,0,1,55.79,30H55a1,1,0,0,0-1-.71,1.26,1.26,0,0,0,0,2.51,1,1,0,0,0,1-.69h.75A1.72,1.72,0,0,1,54,32.47,1.85,1.85,0,0,1,52.12,30.55Z"/><path d="M60.37,31.72v.66H59.19a.82.82,0,0,1-.87-.91V27.73H57.06v-.61h2v4.3c0,.2.09.3.28.3Z"/><path d="M61.67,30.55a1.8,1.8,0,0,1,1.82-1.93,1.75,1.75,0,0,1,1.8,1.89v.27H62.4a1.15,1.15,0,0,0,2.14.49h.71a1.69,1.69,0,0,1-1.74,1.2A1.81,1.81,0,0,1,61.67,30.55Zm2.88-.34a1,1,0,0,0-1.06-1,1.07,1.07,0,0,0-1.08,1Z"/><path d="M70.88,27.47h.7l.92,3h0v-3h.66v4.91h-.73l-.89-3h0v3h-.66Zm2.66,1.27v-.66a.74.74,0,0,1,1.48,0v.66a.74.74,0,0,1-1.48,0Zm0,1.14H75v.49H73.56Zm1-1.18v-.57a.29.29,0,1,0-.58,0v.57a.29.29,0,1,0,.58,0Z"/><path d="M76.13,30.88V29a1.63,1.63,0,0,1,3.25,0v1.92a1.63,1.63,0,0,1-3.25,0Zm2.5,0V29a.88.88,0,1,0-1.76,0v1.83a.88.88,0,1,0,1.76,0Zm-1.26-.93a.39.39,0,0,1,.39-.38.38.38,0,1,1,0,.76A.39.39,0,0,1,77.37,29.91Z"/><path d="M80.82,31a1.31,1.31,0,0,1,.79-1.22v0a1.21,1.21,0,0,1-.59-1,1.5,1.5,0,0,1,3,0,1.22,1.22,0,0,1-.58,1v0A1.32,1.32,0,0,1,84.2,31a1.71,1.71,0,0,1-3.38,0Zm2.62,0a.93.93,0,0,0-1.86,0,.94.94,0,0,0,1.86,0Zm-.18-2.21a.75.75,0,0,0-1.5,0,.75.75,0,0,0,1.5,0Z"/><path d="M781.71,561.44a2.27,2.27,0,0,1,1.78.66h0a1.66,1.66,0,0,1,0-.34v-.18h2v6.24h-2v-.41a3.16,3.16,0,0,1,0-.35h0a2.08,2.08,0,0,1-1.8.91c-1.7,0-2.81-1.34-2.81-3.27S780.05,561.44,781.71,561.44Zm.49,4.79c.63,0,1.22-.46,1.22-1.53,0-.76-.4-1.49-1.22-1.49-.66,0-1.23.53-1.23,1.49S781.47,566.23,782.2,566.23Z"/><path d="M786.3,559.91h2.1v1.67h1.31v1.64H788.4v2c0,.7.71.8,1.11.8h.28v1.8a3.67,3.67,0,0,1-.57,0c-1,0-2.92-.27-2.92-2.35Z"/><path d="M790.65,561.58h2.1v6.24h-2.1Zm0-2.42h2.05v1.64h-2.05Z"/><path d="M793.69,561.58h1.89v.32c0,.2,0,.4,0,.4h0a2.28,2.28,0,0,1,1.89-.86c1.69,0,2.81,1.33,2.81,3.27a3,3,0,0,1-2.91,3.26,2.26,2.26,0,0,1-1.58-.6h0a4.42,4.42,0,0,1,0,.54v2.33h-2.1Zm3.26,4.65c.65,0,1.22-.53,1.22-1.49s-.5-1.53-1.22-1.53-1.23.46-1.23,1.53C795.72,565.5,796.12,566.23,797,566.23Z"/><path d="M804.11,561.44a3.28,3.28,0,1,1-3.53,3.28A3.32,3.32,0,0,1,804.11,561.44Zm0,4.78a1.41,1.41,0,0,0,1.41-1.5,1.42,1.42,0,1,0-2.83,0A1.41,1.41,0,0,0,804.12,566.22Z"/><path d="M808.5,566.22a.88.88,0,1,1-.85.87A.86.86,0,0,1,808.5,566.22Zm0,1.58a.71.71,0,1,0-.67-.71A.68.68,0,0,0,808.5,567.8Zm-.29-1.16h.35a.26.26,0,0,1,.28.27.24.24,0,0,1-.16.24h0l0,.05.17.33h-.19l-.16-.35h-.15v.35h-.17Zm.31.43a.14.14,0,0,0,.15-.16.13.13,0,0,0-.15-.14h-.14v.3Z"/><path d="M31.6,565.79v-.94a1.87,1.87,0,0,1,3.74,0v.94a1.87,1.87,0,0,1-3.74,0Zm3.28,0v-.9a1.41,1.41,0,0,0-2.82,0v.9a1.41,1.41,0,0,0,2.82,0Zm-2.39-.07V565a.94.94,0,0,1,1-1,.9.9,0,0,1,1,.93h-.5a.43.43,0,0,0-.47-.44c-.33,0-.47.24-.47.53v.67c0,.3.14.53.47.53a.42.42,0,0,0,.48-.44h.51a.91.91,0,0,1-1,.93A.93.93,0,0,1,32.49,565.7Z"/><path d="M41.18,566A1.77,1.77,0,0,1,42.92,564a1.39,1.39,0,0,1,1.2.62h0v-.53h.74v3.66h-.72v-.52h0a1.36,1.36,0,0,1-1.18.61A1.76,1.76,0,0,1,41.18,566Zm3,0a1.13,1.13,0,0,0-1.13-1.26A1.14,1.14,0,0,0,41.93,566a1.12,1.12,0,0,0,1.13,1.25A1.14,1.14,0,0,0,44.18,566Z"/><path d="M47.27,566.61v-1.9h-1.1v-.59h.93a.21.21,0,0,0,.21-.24v-.81H48v1h1.43v.6H48v1.88c0,.35.14.56.53.56h.76v.62h-.87A1.05,1.05,0,0,1,47.27,566.61Z"/><path d="M54.15,567.17v.6H51v-.6h1.26v-2.46H51.11v-.6H53v3.06Zm-2-4.1a.47.47,0,0,1,.49-.47.46.46,0,0,1,.48.47.45.45,0,0,1-.48.47A.46.46,0,0,1,52.12,563.07Z"/><path d="M55.46,564.11h.72v.53h0a1.4,1.4,0,0,1,1.19-.62,1.93,1.93,0,0,1,0,3.84,1.35,1.35,0,0,1-1.19-.62h0v2.14h-.74Zm3,1.83a1.13,1.13,0,0,0-1.13-1.26,1.15,1.15,0,0,0-1.12,1.26,1.14,1.14,0,0,0,1.13,1.26A1.15,1.15,0,0,0,58.43,565.94Z"/><path d="M60.15,566a1.94,1.94,0,1,1,1.93,1.91A1.88,1.88,0,0,1,60.15,566Zm3.12,0a1.19,1.19,0,0,0-1.19-1.26A1.26,1.26,0,1,0,63.27,566Z"/><path d="M66.52,567h.76l-.35,1.66H66.4Z"/><path d="M74.8,567.08a1.64,1.64,0,0,1,1-1.46l.9-.56a1,1,0,0,0,.49-.82.75.75,0,0,0-.84-.76.79.79,0,0,0-.82.79h-.7a1.56,1.56,0,0,1,3.12,0,1.56,1.56,0,0,1-.87,1.4l-.9.55c-.46.29-.6.53-.6.84v.09h2.39v.67H74.8Z"/><path d="M79.5,566.28v-1.92a1.63,1.63,0,0,1,3.26,0v1.92a1.63,1.63,0,0,1-3.26,0Zm2.51,0V564.4a.89.89,0,1,0-1.77,0v1.84a.89.89,0,1,0,1.77,0Zm-1.26-.93a.38.38,0,1,1,.38.38A.38.38,0,0,1,80.75,565.31Z"/><path d="M84.31,567.08a1.65,1.65,0,0,1,1-1.46l.9-.56a1,1,0,0,0,.49-.82.75.75,0,0,0-.84-.76.79.79,0,0,0-.82.79h-.7a1.56,1.56,0,0,1,3.12,0,1.56,1.56,0,0,1-.87,1.4l-.9.55c-.46.29-.6.53-.6.84v.09h2.39v.67H84.31Z"/><path d="M92.29,567.1v.67H89.07v-.67h1.1v-2.93H89v-.59c.92,0,1.23-.21,1.23-.71h.69v4.23Z"/><path d="M98.31,565.34H102V566h-3.7Z"/><path d="M108.23,562.87h2.91v.67H109V565h2v.66h-2v2.08h-.75Z"/><path d="M112.51,566a1.94,1.94,0,1,1,1.93,1.91A1.88,1.88,0,0,1,112.51,566Zm3.12,0a1.19,1.19,0,0,0-1.19-1.26,1.26,1.26,0,1,0,1.19,1.26Z"/><path d="M117.61,564.11h.72v.49h0a1.15,1.15,0,0,1,1.07-.58,1.31,1.31,0,0,1,1.34,1.4v2.35h-.73v-2.21a.81.81,0,0,0-.82-.85.89.89,0,0,0-.89.93v2.13h-.74Z"/><path d="M123.43,566.61v-1.9h-1.1v-.59h.93a.21.21,0,0,0,.21-.24v-.81h.7v1h1.42v.6h-1.42v1.88c0,.35.14.56.53.56h.76v.62h-.87A1.05,1.05,0,0,1,123.43,566.61Z"/><path d="M127.25,566.69h.69c0,.38.32.57.8.57s.75-.22.75-.54c0-.89-2.15-.14-2.15-1.63,0-.62.55-1.07,1.39-1.07a1.24,1.24,0,0,1,1.37,1.1h-.68c0-.31-.28-.51-.72-.51s-.67.19-.67.47c0,.81,2.17,0,2.17,1.61,0,.69-.57,1.17-1.48,1.17S127.29,567.4,127.25,566.69Z"/><path d="M136.75,562.87h2.91v.67h-2.15V565h1.85v.66h-1.85v1.5h2.22v.65h-3Z"/><path d="M142.53,565.87l-1.19-1.76h.82l.82,1.27h0l.82-1.27h.83l-1.19,1.78,1.29,1.88h-.84l-.91-1.35H143l-.91,1.35h-.82Z"/><path d="M145.9,566a1.77,1.77,0,0,1,1.74-1.93,1.41,1.41,0,0,1,1.2.62h0v-.53h.74v3.66h-.72v-.52h-.05a1.34,1.34,0,0,1-1.17.61A1.76,1.76,0,0,1,145.9,566Zm3,0a1.13,1.13,0,0,0-1.13-1.26,1.14,1.14,0,0,0-1.12,1.26,1.12,1.12,0,0,0,1.13,1.25A1.14,1.14,0,0,0,148.9,566Z"/><path d="M150.51,564.11h.68v.53h0a.7.7,0,0,1,.7-.62.73.73,0,0,1,.75.65h0a.79.79,0,0,1,.81-.65c.55,0,.92.41.92,1.17v2.58h-.7v-2.41c0-.43-.17-.65-.49-.65s-.47.21-.47.62v2.44h-.63v-2.41c0-.39-.12-.65-.49-.65s-.47.21-.47.62v2.44h-.7Z"/><path d="M155.42,564.11h.71v.53h.05a1.4,1.4,0,0,1,1.19-.62,1.93,1.93,0,0,1,0,3.84,1.37,1.37,0,0,1-1.2-.62h0v2.14h-.74Zm3,1.83a1.13,1.13,0,0,0-1.13-1.26,1.16,1.16,0,0,0-1.13,1.26,1.14,1.14,0,0,0,1.14,1.26A1.15,1.15,0,0,0,158.39,565.94Z"/><path d="M163.7,567.12v.65h-1.18a.81.81,0,0,1-.87-.91v-3.74h-1.26v-.6h2v4.3c0,.2.09.3.28.3Z"/><path d="M165,566a1.8,1.8,0,0,1,1.82-1.93,1.75,1.75,0,0,1,1.8,1.88v.28h-2.89a1.06,1.06,0,0,0,1.12,1.07,1.09,1.09,0,0,0,1-.58h.71a1.7,1.7,0,0,1-1.74,1.19A1.8,1.8,0,0,1,165,566Zm2.88-.34a1,1,0,0,0-1.06-1,1.07,1.07,0,0,0-1.08,1Z"/><path d="M170.08,566.69h.7c.05.38.32.57.8.57s.75-.22.75-.54c0-.89-2.15-.14-2.15-1.63,0-.62.55-1.07,1.39-1.07a1.23,1.23,0,0,1,1.36,1.1h-.67c0-.31-.28-.51-.72-.51s-.67.19-.67.47c0,.81,2.17,0,2.17,1.61,0,.69-.57,1.17-1.49,1.17S170.13,567.4,170.08,566.69Z"/><path d="M175.86,564.8a.45.45,0,0,1,.47-.45.44.44,0,0,1,.46.45.46.46,0,0,1-.46.47A.47.47,0,0,1,175.86,564.8Zm0,2.61a.46.46,0,0,1,.47-.46.45.45,0,0,1,.46.46.44.44,0,0,1-.46.45A.45.45,0,0,1,175.86,567.41Z"/><path d="M184,566a1.77,1.77,0,0,1,1.74-1.93,1.41,1.41,0,0,1,1.2.62h0v-.53h.74v3.66H187v-.52h0a1.34,1.34,0,0,1-1.17.61A1.76,1.76,0,0,1,184,566Zm3,0a1.13,1.13,0,0,0-1.13-1.26,1.14,1.14,0,0,0-1.12,1.26,1.12,1.12,0,0,0,1.13,1.25A1.14,1.14,0,0,0,187,566Z"/><path d="M190.07,566.61v-1.9H189v-.59h.92a.22.22,0,0,0,.22-.24v-.81h.69v1h1.43v.6H190.8v1.88c0,.35.15.56.54.56h.76v.62h-.87A1,1,0,0,1,190.07,566.61Z"/><path d="M197,567.17v.6h-3.18v-.6H195v-2.46h-1.12v-.6h1.86v3.06Zm-2-4.1a.49.49,0,1,1,.48.47A.45.45,0,0,1,194.92,563.07Z"/><path d="M198.26,564.11H199v.53H199a1.4,1.4,0,0,1,1.19-.62,1.93,1.93,0,0,1,0,3.84,1.37,1.37,0,0,1-1.2-.62h0v2.14h-.74Zm3,1.83a1.13,1.13,0,0,0-1.14-1.26,1.15,1.15,0,0,0-1.12,1.26,1.14,1.14,0,0,0,1.14,1.26A1.15,1.15,0,0,0,201.23,565.94Z"/><path d="M203,566a1.94,1.94,0,1,1,1.93,1.91A1.88,1.88,0,0,1,203,566Zm3.12,0a1.19,1.19,0,0,0-1.19-1.26,1.26,1.26,0,1,0,1.19,1.26Z"/><path d="M209.1,564.71h-1.17v-.6h1.18v-.36a1.18,1.18,0,0,1,1.3-1.23h.86v.62h-.82a.56.56,0,0,0-.62.63v.34h1.52v.6h-1.51v3.06h-.74Z"/><path d="M212.47,566a1.94,1.94,0,1,1,1.92,1.91A1.86,1.86,0,0,1,212.47,566Zm3.12,0a1.19,1.19,0,0,0-1.2-1.26,1.26,1.26,0,0,0,0,2.51A1.19,1.19,0,0,0,215.59,566Z"/><path d="M217.57,566.46v-2.35h.74v2.22a.8.8,0,0,0,.82.86.89.89,0,0,0,.89-.93v-2.15h.73v3.66H220v-.49h0a1.17,1.17,0,0,1-1.07.58A1.31,1.31,0,0,1,217.57,566.46Z"/><path d="M222.33,564.11h.72v.49h0a1.15,1.15,0,0,1,1.07-.58,1.31,1.31,0,0,1,1.34,1.4v2.35h-.73v-2.21a.81.81,0,0,0-.82-.85.89.89,0,0,0-.89.93v2.13h-.74Z"/><path d="M226.83,566a1.77,1.77,0,0,1,1.73-1.93,1.43,1.43,0,0,1,1.21.62h0v-2.12h.74v5.25h-.72v-.52h-.05a1.37,1.37,0,0,1-1.17.61A1.75,1.75,0,0,1,226.83,566Zm3,0a1.13,1.13,0,1,0-1.12,1.25A1.15,1.15,0,0,0,229.83,566Z"/><path d="M233.49,566v1.2H235v.6h-3.26v-.6h1v-2.46h-.89v-.6h1.59v.64h0a1,1,0,0,1,1-.65h.63v.72h-.65C233.85,564.82,233.49,565.29,233.49,566Z"/><path d="M236.75,568.73h.32a.62.62,0,0,0,.63-.45l.14-.35-1.47-3.82h.79l1,2.83h0l1-2.83h.8l-1.68,4.39a1.16,1.16,0,0,1-1.2.88h-.41Z"/><path d="M242.5,567.41A.46.46,0,0,1,243,567a.45.45,0,0,1,.46.46.44.44,0,0,1-.46.45A.45.45,0,0,1,242.5,567.41Z"/><path d="M245.89,566a1.86,1.86,0,0,1,1.89-1.93,1.74,1.74,0,0,1,1.78,1.37h-.76a1,1,0,0,0-1-.7,1.26,1.26,0,0,0,0,2.51,1,1,0,0,0,1-.69h.75a1.71,1.71,0,0,1-1.77,1.35A1.85,1.85,0,0,1,245.89,566Z"/><path d="M250.55,566a1.94,1.94,0,1,1,1.92,1.91A1.86,1.86,0,0,1,250.55,566Zm3.12,0a1.19,1.19,0,0,0-1.2-1.26,1.26,1.26,0,0,0,0,2.51A1.19,1.19,0,0,0,253.67,566Z"/><path d="M255.22,564.11h.68v.53h0a.7.7,0,0,1,.7-.62.73.73,0,0,1,.75.65h0a.81.81,0,0,1,.82-.65c.55,0,.92.41.92,1.17v2.58h-.71v-2.41c0-.43-.16-.65-.48-.65s-.47.21-.47.62v2.44h-.64v-2.41c0-.39-.11-.65-.48-.65s-.47.21-.47.62v2.44h-.71Z"/></g></svg>