<svg id="color" xmlns="http://www.w3.org/2000/svg" xmlns:xlink="http://www.w3.org/1999/xlink" viewBox="0 0 2048 1152"><defs><style>.cls-1{fill:none;}.cls-2{fill:#c29f6e;}.cls-3{fill:#e10011;}.cls-4{fill:#b6aea3;}.cls-5{fill:#69a323;}.cls-6{fill:#29af6e;}.cls-7{fill:#034538;}.cls-8{fill:#ee5f9b;}.cls-9{fill:#faffcc;}.cls-10{fill:url(#Motivo_nuevo_198);}</style><pattern id="Motivo_nuevo_198" data-name="Motivo nuevo 198" width="1939.88" height="1270" patternTransform="translate(2183.4 286.02) scale(0.13)" patternUnits="userSpaceOnUse" viewBox="0 0 1939.88 1270"><rect class="cls-1" width="1939.88" height="1270"/><path class="cls-2" d="M1518.63,1281.05c.87-2.61,5.22-254.42,5.22-254.42h31.52l4.21,246.58Z"/><path class="cls-3" d="M1562.64,1089.56S1695,983.36,1695,982.66s-7.78-54.51-7.78-54.51h-40.36L1645.47,902l-37.53-4.35-19.82,19.81-3.54-31h-31.86l-12,23.53-32.57-27.78-24.78,5v22.82l-37.86-5.12-18.77,17v18.65l18.77,28.78-44.26-10.56-5,34.28,123.18,103Z"/><path class="cls-4" d="M1507.22,966.47s13.67-5.47,14.22-3.28,9.3,30.07,9.3,30.07l14.9-30.59,9.16,3.25-6,27.34,41.57-4.23-51.25,43.06-42.81-63.43Z"/><path class="cls-5" d="M1851,1347.11c-5.36-1.31-158.52-89.08-161.85-97.92s-48-112.07-48-112.07l84.75,21.44,87.09,74s-56.15-125.39-55-131.76S1765.78,989,1765.78,989l64.56,68.36,23.58,78.33,12.29,86.15s40.53-85.58,41-89.19,86.26-98.57,86.26-98.57l17.64,94.7-72.56,107.56,59.51-39.52L2098.89,1178l-77.78,100.4Z"/><path class="cls-6" d="M1832.17,752.86l101.55-76,5.94,60.5s-28.39,34.76-30,36.28-56.85,6.58-56.85,6.58Z"/><path class="cls-6" d="M1758.82,881.63c2.17-2,97.5-80.27,98.48-78.14s12.69,46,12.69,46-25.3,53.22-28.51,55.21-46.81,20.53-48.33,18.91-44.6-32.37-44.6-32.37Z"/><path class="cls-7" d="M1769.89,716.75l146.69,156.37s27.15,22.34,30.66,27.4,45.18,62.71,45.18,62.71l8.65-30.44-99.79-111.68-109-103Z"/><path class="cls-3" d="M1617,690.56l146.78-128.15,49.08,45.85,18,51.57s-27.16,66.22-29,67.95-59.8,37.9-62.46,36.92-97.47-42.92-99.64-45.23S1617,690.56,1617,690.56Z"/><path d="M1555.8,954.89a2.71,2.71,0,0,1-3.23-.13,13.81,13.81,0,0,1-4.27-5.23,64.94,64.94,0,0,1-4.19-12.38c-.45-1.89-.66-3.83-1.07-5.72a62.24,62.24,0,0,1-1.14-10.8c-.1-2.62-.48-5.22-.32-7.85.19-3.14.43-6.29.65-9.43,0-.47.12-.94.12-1.41a67.49,67.49,0,0,1,1-9.4c.43-3.46.91-6.92,1.47-10.36.52-3.18,1.15-6.34,1.78-9.5q2.16-10.87,5.18-21.54c.52-1.88,1.19-3.71,1.79-5.56l.64-1.92c.9-2.67,1.67-5.39,2.73-8,1.22-3,2.64-5.87,4.07-8.76a52.51,52.51,0,0,1,4-7,31.49,31.49,0,0,1,3.89-4.87,26.08,26.08,0,0,0,2-2.44c-.52-.56-1-1-1.4-1.52a18.58,18.58,0,0,1-1.57-2.08,4.94,4.94,0,0,1-.44-5,9.54,9.54,0,0,0,.49-1.69c1.84-.86,1.84-.86,3-3.78,1.43-.08,2.88-.13,4.34-.25a2.25,2.25,0,0,1,2.12.91,7.64,7.64,0,0,1,1.27,2c.52,1.65.87,3.36,1.28,5.06.1.45.13.93.23,1.38a3.74,3.74,0,0,1-.4,2.92,3.06,3.06,0,0,0-.53,1.07c-.2,1.87-1.55,2.69-3,3.45a4.78,4.78,0,0,1-.61-.11c-1.93-.62-2.38-.48-3.6,1.1a42.83,42.83,0,0,0-5.3,9.48c-1.57,3.71-3,7.47-4.41,11.25-.85,2.33-1.43,4.75-2.15,7.13-.43,1.4-.94,2.77-1.36,4.18-.36,1.22-.65,2.46-.95,3.69s-.45,2.24-.8,3.32a23.46,23.46,0,0,0-1.45,5.84,4.66,4.66,0,0,1-.85,2.85,1.13,1.13,0,0,0-.21.56c-.3,2.72-1.46,5.3-1.4,8.08a3.06,3.06,0,0,1-.16,1,40.79,40.79,0,0,0-1.71,8.37,59.13,59.13,0,0,1-1.31,6.9c-.38,1.77-.5,3.58-.72,5.38s-.41,3.33-.62,5c-.05.4-.15.79-.17,1.19-.1,1.74-.26,3.47-.23,5.21,0,2.33-.57,4.64-.25,7a11,11,0,0,1-.16,1.59c0,1.94-.07,3.89,0,5.83,0,1.27.17,2.53.29,3.8s.27,2.67.41,4a86.63,86.63,0,0,0,2,12.31,49.7,49.7,0,0,0,3.29,9.5A28.23,28.23,0,0,1,1555.8,954.89Z"/><path d="M1564.17,996.52a2,2,0,0,1-1.94-1.6c-.35-1.64-1.09-3.14-1.22-4.87s-.76-3.26-1-4.91c-.31-2-.38-4-.68-6a69.24,69.24,0,0,1-.48-9.65c-.06-3.35.14-6.71.37-10,.21-3,.61-5.88.94-8.81.09-.8.26-1.59.38-2.38a143.84,143.84,0,0,1,3-14.41c.85-3.17,1.88-6.29,3-9.4,1.13-3.29,2.39-6.55,3.64-9.8.77-2,1.54-4,2.47-6,1.19-2.47,2.49-4.9,3.84-7.3a95.93,95.93,0,0,1,5.16-8.63c1.76-2.46,3.19-5.11,5-7.56,1.91-2.67,3.73-5.42,5.75-8,1.15-1.48,2.45-2.85,3.6-4.33a47,47,0,0,1,4.69-5,25.79,25.79,0,0,1,6.43-4.79c.66-.32,1.26-.77,1.89-1.15a1.24,1.24,0,0,1,1.76.26c-1.22,1.48-2.41,2.9-3.56,4.34q-4,5-7.9,9.94c-1.45,1.85-2.88,3.71-4.25,5.62-2.07,2.9-4.1,5.81-6.1,8.76a161.75,161.75,0,0,0-10.34,17.5,164.54,164.54,0,0,0-7.7,17.73c-.85,2.32-1.42,4.74-2.11,7.12a6.86,6.86,0,0,1-.2.78c-1.45,3.65-2,7.52-2.7,11.33s-1.25,7.82-1.65,11.76a122.83,122.83,0,0,0-.76,14.47c0,3-.09,5.91.08,8.85.2,3.41.62,6.82,1,10.21A15.18,15.18,0,0,1,1564.17,996.52Z"/><path d="M1487,841.77a33.28,33.28,0,0,1,4.31,6.52c3,5.79,5.23,11.94,7.67,18,1.82,4.48,3.51,9,5.25,13.53,1.48,3.82,3,7.62,4.42,11.46,1.11,3,2.06,6.11,3.09,9.16.65,1.9,1.32,3.8,2,5.7.72,2.09,1.46,4.18,2.18,6.28,1.33,3.87,2.73,7.73,4,11.63,1.49,4.67,3,9.34,4.25,14.08a50.34,50.34,0,0,1,1.85,10.5c0,.6.24,1.19.3,1.79a3.46,3.46,0,0,1-2,3.78,1.4,1.4,0,0,1-1.12,0,4.18,4.18,0,0,1-2.13-2.78c-.56-2.83-1.23-5.64-1.89-8.45-.26-1.11-.6-2.2-.93-3.29-1-3.41-2-6.84-3.14-10.21-2-6-4.24-11.9-6.28-17.87-1.61-4.7-3-9.46-4.64-14.17-2.42-7.2-4.93-14.37-7.38-21.55-.93-2.73-1.79-5.49-2.73-8.22-1.15-3.3-2.39-6.56-3.51-9.87a66.39,66.39,0,0,1-3-11.7c-.16-1.06-.44-2.11-.61-3.17A4.89,4.89,0,0,1,1487,841.77Z"/><path d="M1481.24,843.84c-1.44-.48-1.71-1.8-2.79-2.52a11.9,11.9,0,0,0-.68,1.4,4.71,4.71,0,0,1-2.87,2.91,2,2,0,0,1-1.36.14c-1.41-.55-2.64-1.36-2.92-3a24.42,24.42,0,0,1-.16-8.61c.33-1.72.51-3.46.89-5.16.34-1.5.85-3,1.3-4.44a3.08,3.08,0,0,1,1.41-1.9,4.21,4.21,0,0,0,2.16-2.73c1.08,0,2.07-.13,3.07-.14a2.54,2.54,0,0,1,2.71,2.18,5.49,5.49,0,0,1,0,2.79,16.62,16.62,0,0,0-.68,4.77,7.82,7.82,0,0,1-.18,1.18c-.26,1.23-.56,2.46-.79,3.69a4.93,4.93,0,0,0,.13,1.19q.36,3.62.71,7.21C1481.26,843,1481.24,843.28,1481.24,843.84Z"/><path d="M1606.19,817.16c-.61.87-1.07,2.15-2.44,2.33-.1,1-.19,1.82-.31,3a19.35,19.35,0,0,1-1.58-1.58,7.77,7.77,0,0,0-2.09-2.15,3.1,3.1,0,0,1-1.1-2.08c-.51-1.88-1-3.77-1.51-5.64a22.53,22.53,0,0,1-1-7.55,22,22,0,0,1,.49-2.77,1.12,1.12,0,0,1,.94-.94c1-.18,2.11-.39,3.18-.47a2.79,2.79,0,0,1,3,1.64,18.06,18.06,0,0,1,1.12,2.79c.61,2.34,1.19,4.69,1.64,7.06a16.07,16.07,0,0,1,.07,3.4C1606.49,815.15,1606.32,816.07,1606.19,817.16Z"/><path class="cls-3" d="M647.07,1325.56l146.78-128.15,49.08,45.85,18,51.57s-27.16,66.22-29,68-59.8,37.9-62.45,36.92-97.48-42.92-99.65-45.23S647.07,1325.56,647.07,1325.56Z"/><path class="cls-3" d="M230.6,957.15c10.69,1.14,64.42-4.67,64.42-4.67s29.5,38.45,36.93,35.86,113.23,0,113.23,0L465.74,1021l-13.58,57.61-22.81,25.85,24.83,62.28L413,1236.1l-81.49,3.29s-11.75-48.35-25.49-47-75.42,7.11-75.42,7.11l-41.26-47.8,29.37-55.74-29.37-50.42,2.6-67.51Z"/><polygon class="cls-2" points="302.67 1043.62 357.6 1041.76 387.02 1088.83 366.78 1115.89 292.86 1120.29 302.67 1043.62"/><path class="cls-5" d="M-88.9,1347.11c-5.36-1.31-158.52-89.08-161.85-97.92s-48-112.07-48-112.07l84.75,21.44,87.09,74s-56.15-125.39-55-131.76S-174.1,989-174.1,989l64.56,68.36L-86,1135.72l12.29,86.15s40.54-85.58,41.05-89.19,86.26-98.57,86.26-98.57l17.64,94.7L-1.28,1236.37l59.51-39.52L159,1178l-77.77,100.4Z"/><path class="cls-7" d="M-170,716.75-23.3,873.12s27.16,22.34,30.66,27.4,45.18,62.71,45.18,62.71l8.65-30.44L-38.6,821.11l-109-103Z"/><path class="cls-2" d="M1518.63,11.05c.87-2.61,5.22-254.42,5.22-254.42h31.52l4.21,246.58Z"/><path class="cls-5" d="M1851,77.11c-5.36-1.31-158.52-89.08-161.85-97.92s-48-112.07-48-112.07l84.75,21.44,87.09,74s-56.15-125.39-55-131.76S1765.78-281,1765.78-281l64.56,68.36,23.58,78.33,12.29,86.15s40.53-85.58,41-89.19,86.26-98.57,86.26-98.57l17.64,94.7L1938.6-33.63l59.51-39.52L2098.89-92,2021.11,8.37Z"/><path class="cls-6" d="M1553.74,223.18c-1.15-4.83-32.23-74-32.23-74l18-22.52s23.6,13.34,24.09,15.41l17.77,74.54,37,45.16s-23.16-69.62-18.76-78.69,13.27-48.39,13.27-48.39l32.08-6.19,15.39,40.1-11.09,69.75,17.1,41.15,4.69-66L1712,165,1743.26,189l-17.57,48.68-26.19,34s6.78,25.37,7.27,27.44,26.44,22.15,26.44,22.15l-5.74-57.72L1773.15,195l42,14.21-15.84,43.73-42.66,44.45.14,34.25,17.1,25.83,1.27-52.82,53.56-66,22.86,34.68-1.9,31.82s-41.91,23.11-42.79,25.51-9.69,35.87-9.69,35.87l37.47,7.25,107.11,54.57,39.12,23.5-15.85,14.72s-161.49-67.28-163.55-68.24-27.53-16-27.53-16l-1.32,46.49L1765,494.5l-39.74,13.85-17.6-43.22,24-73.57-10.07-23.86-13.49,53.55-51.47,47.28s-45.23-18.39-44.34-20.79S1635.86,378,1635.86,378L1679.54,350l-18.94-3-55.53,45.51s-25.11,29.33-25.6,27.26S1560.66,393,1560.69,390,1583,349,1583,349l54.1-20.92-20.75-7.46-63.42,37s-32.87,18-33.36,16S1505,334,1505,334l9.88-22.78,56.74-9.88,24.5-3.65-24-15.44-93.38,24.44L1465.64,285l21.26-24,46.87-5.34,21.66,2.13s-109-44.05-107.4-46.61-8.55-26.41-6.61-27.6S1470,165.81,1470,165.81l52.84,22.77Z"/><path class="cls-3" d="M1200.54,322.15c10.69,1.14,64.42-4.67,64.42-4.67s29.5,38.45,36.93,35.86,113.23,0,113.23,0L1435.68,386l-13.58,57.61-22.81,25.85,24.83,62.28-41.18,69.38-81.49,3.29s-11.75-48.35-25.49-47-75.42,7.11-75.42,7.11l-41.26-47.8,29.37-55.74-29.37-50.42,2.6-67.51Z"/><polygon class="cls-2" points="1272.61 408.62 1327.54 406.76 1356.96 453.82 1336.72 480.89 1262.8 485.29 1272.61 408.62"/><path class="cls-2" d="M548.69,646.05c.87-2.61,5.22-254.42,5.22-254.42h31.52l4.21,246.58Z"/><path class="cls-3" d="M592.7,454.56s132.38-106.2,132.38-106.9-7.78-54.51-7.78-54.51H676.94L675.53,267,638,262.61l-19.83,19.81-3.54-31H582.78l-12,23.53-32.57-27.78-24.78,5v22.82l-37.86-5.12-18.77,17v18.65l18.77,28.78-44.26-10.56-4.95,34.28,123.18,103Z"/><path class="cls-4" d="M537.28,331.47S551,326,551.5,328.19s9.3,30.07,9.3,30.07l14.9-30.59,9.16,3.25-6,27.34L620.41,354l-51.25,43.06-42.81-63.43Z"/><path class="cls-5" d="M881,712.11c-5.36-1.31-158.52-89.08-161.85-97.92s-48-112.07-48-112.07l84.75,21.44,87.09,74s-56.15-125.39-55-131.76S795.84,354,795.84,354l64.56,68.36L884,500.72l12.29,86.15s40.54-85.58,41.05-89.19,86.26-98.57,86.26-98.57l17.64,94.7L968.66,601.37l59.51-39.52L1129,543l-77.77,100.4Z"/><path class="cls-6" d="M583.8,858.18c-1.15-4.83-32.23-74-32.23-74l18-22.52s23.6,13.34,24.1,15.41l17.76,74.54,37,45.16s-23.16-69.62-18.76-78.69S643,769.68,643,769.68L675,763.49l15.39,40.1-11.09,69.75,17.1,41.15,4.69-66,41-48.43L773.33,824l-17.58,48.68-26.19,34S736.34,932,736.83,934s26.44,22.15,26.44,22.15l-5.74-57.72L803.21,830l42,14.21L829.42,887.9l-42.66,44.45.14,34.25L804,992.43l1.27-52.82,53.56-66,22.86,34.68-1.9,31.82S837.89,963.2,837,965.6s-9.69,35.87-9.69,35.87l37.47,7.25,107.11,54.57,39.12,23.5-15.85,14.72s-161.49-67.28-163.55-68.24-27.53-16-27.53-16l-1.32,46.49-7.66,65.79-39.74,13.85-17.6-43.22,24-73.57-10.07-23.86-13.49,53.55-51.47,47.28s-45.23-18.39-44.34-20.79S665.92,1013,665.92,1013L709.6,985l-18.94-3-55.53,45.51s-25.11,29.33-25.6,27.26S590.72,1028,590.75,1025,613.06,984,613.06,984l54.1-20.92-20.75-7.46L583,992.6s-32.87,18-33.36,16S535.09,969,535.09,969L545,946.22l56.73-9.88,24.5-3.65-24-15.44-93.38,24.44L495.7,920,517,896l46.87-5.34,21.66,2.13s-109-44-107.4-46.61-8.55-26.41-6.61-27.6,28.62-17.77,28.62-17.77l52.84,22.77Z"/><path class="cls-3" d="M1191.22,644.35l20.27,11.82,2.89,25L1202.06,699l-22.55.82s-16-14.71-15.43-18.2,1.39-16.81,3-18.35S1191.22,644.35,1191.22,644.35Z"/><path class="cls-3" d="M1259.35,663.27c-2,.44-23.87,6.55-24.43,7.62s-5.72,11.44-5.72,11.44l-.28,14.26s5.78,6,6,6.38,13.74,4.16,13.74,4.16l16-2.8,8.4-16-3.27-17.92Z"/><path class="cls-3" d="M1330.83,667.05l-33.12.3-7.33,15.35L1301.63,710l29.21,4.75s14.57-10.15,14.81-11.66-2.7-28.87-2.7-28.87Z"/><path class="cls-8" d="M1075.32,674.36l37-.36,53.49,54.51L1196,699.07l23,7.55,1.39,38.4,31.88-31.72,33.47,5.44-4.23,26,36.87-23.27,20.87,4.67,12.09,27.41,32.48-35.44s52.87,3.51,53.3,8.67.08,70,.08,70l-67.37,38.67-171.21-11.3-109.09-44.45-30-86.31Z"/><path class="cls-5" d="M1171.34,780.31l37.46,20.09,39.78-17.71,20.39,15.4,66.38-1.29-15.3,47.14-81.82,37.59-8.1,82.67-30.38,1.42s22.83-124.81,17.87-125.61-72.36-24.49-72.36-24.49Z"/><path class="cls-7" d="M1176.57,1497.22l-29-10,17.53-66.07s-90.09-91.63-89-92.71,10-58.12,10-58.12l39.06-10.81,40.67,11.13-75.07-63-12.21-55.49,19.15-14.9,59.87,7.26,18.8,13s9.27-81.35,9.49-84.49,56.35-30.28,56.35-30.28l33.91,35.84,2.63,68.68,36.79-28.11s36.43,18.85,37.05,25.11-13.17,72.32-13.17,72.32-76.89,59.92-74,61.18,63.41-6.68,63.41-6.68l21,49.1-77.69,92.15-62.72,15.77Z"/><path class="cls-6" d="M862.23,117.86,963.78,41.91l5.94,60.5s-28.39,34.76-30,36.28-56.85,6.58-56.85,6.58Z"/><path class="cls-6" d="M788.88,246.63c2.17-2,97.5-80.27,98.48-78.14s12.69,46,12.69,46-25.3,53.22-28.51,55.21-46.81,20.53-48.33,18.91-44.6-32.37-44.6-32.37Z"/><path class="cls-7" d="M800,81.75,946.64,238.12s27.15,22.34,30.66,27.4,45.18,62.71,45.18,62.71l8.65-30.44L931.34,186.11l-109-103Z"/><path class="cls-3" d="M647.07,55.56,793.85-72.59l49.08,45.85,18,51.57s-27.16,66.22-29,68-59.8,37.9-62.45,36.92S672,86.78,669.85,84.47,647.07,55.56,647.07,55.56Z"/><path d="M585.86,319.89a2.71,2.71,0,0,1-3.23-.13,13.81,13.81,0,0,1-4.27-5.23,64.94,64.94,0,0,1-4.19-12.38c-.45-1.89-.66-3.83-1.07-5.72a62.24,62.24,0,0,1-1.14-10.8c-.1-2.62-.48-5.22-.32-7.85.19-3.14.43-6.29.65-9.43,0-.47.12-.94.12-1.41a67.49,67.49,0,0,1,1-9.4c.43-3.46.91-6.92,1.47-10.36.52-3.18,1.15-6.34,1.78-9.5q2.16-10.87,5.18-21.54c.52-1.88,1.19-3.71,1.79-5.56l.64-1.92c.9-2.67,1.67-5.39,2.73-8,1.22-3,2.64-5.87,4.07-8.76a52.51,52.51,0,0,1,4-7,31.49,31.49,0,0,1,3.89-4.87,26.08,26.08,0,0,0,2-2.44c-.52-.56-1-1-1.4-1.52A18.58,18.58,0,0,1,598,174a4.94,4.94,0,0,1-.44-5,9.54,9.54,0,0,0,.49-1.69c1.84-.86,1.84-.86,3-3.78,1.43-.08,2.88-.13,4.34-.25a2.24,2.24,0,0,1,2.12.91,7.64,7.64,0,0,1,1.27,2c.52,1.65.87,3.36,1.28,5.06.11.45.13.93.23,1.38a3.74,3.74,0,0,1-.4,2.92,3.24,3.24,0,0,0-.53,1.07c-.2,1.87-1.55,2.69-3,3.45a4.78,4.78,0,0,1-.61-.11c-1.93-.62-2.38-.48-3.6,1.1a42.83,42.83,0,0,0-5.3,9.48c-1.57,3.71-3,7.47-4.41,11.25-.85,2.33-1.43,4.75-2.15,7.13-.43,1.4-.94,2.77-1.35,4.18-.37,1.22-.66,2.46-1,3.69s-.45,2.24-.8,3.32a23.46,23.46,0,0,0-1.45,5.84,4.66,4.66,0,0,1-.85,2.85,1.13,1.13,0,0,0-.21.56c-.3,2.72-1.46,5.3-1.4,8.08a3.06,3.06,0,0,1-.16,1,40.79,40.79,0,0,0-1.71,8.37,59.13,59.13,0,0,1-1.31,6.9c-.38,1.77-.5,3.58-.72,5.38s-.41,3.33-.61,5c-.05.4-.16.79-.18,1.19-.1,1.74-.26,3.47-.23,5.21.05,2.33-.57,4.64-.25,7a11,11,0,0,1-.16,1.59c0,1.94-.07,3.89,0,5.83,0,1.27.17,2.53.29,3.8s.27,2.67.41,4a86.63,86.63,0,0,0,2,12.31,49.7,49.7,0,0,0,3.29,9.5A28.23,28.23,0,0,1,585.86,319.89Z"/><path d="M594.23,361.52a2,2,0,0,1-1.94-1.6c-.35-1.64-1.09-3.14-1.22-4.87s-.76-3.26-1-4.91c-.31-2-.38-4-.68-6a69.24,69.24,0,0,1-.48-9.65c-.06-3.35.14-6.71.37-10.05.21-2.95.61-5.88.94-8.81.09-.8.26-1.59.38-2.38a143.84,143.84,0,0,1,3-14.41c.85-3.17,1.88-6.29,3-9.4,1.13-3.29,2.39-6.55,3.64-9.8.77-2,1.54-4,2.47-6,1.19-2.47,2.49-4.9,3.84-7.3a98.33,98.33,0,0,1,5.16-8.63c1.76-2.46,3.19-5.11,5-7.56,1.91-2.67,3.74-5.42,5.75-8,1.15-1.48,2.45-2.85,3.6-4.33a47,47,0,0,1,4.69-5,25.79,25.79,0,0,1,6.43-4.79c.66-.32,1.26-.77,1.89-1.15a1.24,1.24,0,0,1,1.76.26c-1.22,1.48-2.41,2.9-3.56,4.34q-4,4.95-7.9,9.94c-1.45,1.85-2.88,3.71-4.25,5.62-2.07,2.9-4.1,5.81-6.1,8.76a161.75,161.75,0,0,0-10.34,17.5,164.54,164.54,0,0,0-7.7,17.73c-.85,2.32-1.42,4.74-2.11,7.12-.07.26-.1.53-.19.78-1.46,3.65-2,7.52-2.7,11.33s-1.26,7.82-1.66,11.76a122.83,122.83,0,0,0-.76,14.47c0,3-.09,5.91.08,8.85.2,3.41.62,6.82,1,10.21A15.18,15.18,0,0,1,594.23,361.52Z"/><path d="M517,206.77a33.79,33.79,0,0,1,4.32,6.52c3,5.79,5.22,11.94,7.66,18,1.82,4.48,3.51,9,5.25,13.53,1.48,3.82,3,7.62,4.42,11.46,1.11,3,2.06,6.11,3.09,9.16.65,1.9,1.32,3.8,2,5.7.72,2.09,1.46,4.18,2.18,6.28,1.33,3.87,2.73,7.73,4,11.63,1.49,4.67,3,9.34,4.25,14.08A50.34,50.34,0,0,1,556,313.6c0,.6.24,1.19.3,1.79a3.46,3.46,0,0,1-2,3.78,1.43,1.43,0,0,1-1.13-.05,4.18,4.18,0,0,1-2.13-2.78c-.56-2.83-1.23-5.64-1.89-8.45-.26-1.11-.6-2.2-.93-3.29-1-3.41-2-6.84-3.14-10.21-2-6-4.24-11.9-6.28-17.87-1.61-4.7-3-9.46-4.63-14.17-2.43-7.2-4.94-14.37-7.39-21.55-.93-2.73-1.79-5.49-2.73-8.22-1.15-3.3-2.39-6.56-3.51-9.87a66.39,66.39,0,0,1-3-11.7c-.16-1.06-.44-2.11-.61-3.17A5.6,5.6,0,0,1,517,206.77Z"/><path d="M511.3,208.84c-1.44-.48-1.71-1.8-2.79-2.52a13.72,13.72,0,0,0-.68,1.4,4.71,4.71,0,0,1-2.87,2.91,2,2,0,0,1-1.35.14c-1.42-.55-2.65-1.36-2.93-3a24.42,24.42,0,0,1-.16-8.61c.33-1.72.51-3.46.89-5.16.34-1.5.85-3,1.3-4.44a3.06,3.06,0,0,1,1.42-1.9,4.23,4.23,0,0,0,2.15-2.73c1.08,0,2.07-.13,3.07-.14a2.54,2.54,0,0,1,2.71,2.18,5.49,5.49,0,0,1,.05,2.79,16.62,16.62,0,0,0-.68,4.77,7.82,7.82,0,0,1-.18,1.18c-.26,1.23-.56,2.46-.79,3.69a4.93,4.93,0,0,0,.13,1.19q.36,3.62.71,7.21C511.32,208,511.3,208.28,511.3,208.84Z"/><path d="M636.25,182.16c-.61.87-1.07,2.15-2.44,2.33-.1,1-.19,1.82-.31,3a19.35,19.35,0,0,1-1.58-1.58,7.77,7.77,0,0,0-2.09-2.15,3.1,3.1,0,0,1-1.1-2.08c-.51-1.88-1-3.77-1.51-5.64a22.53,22.53,0,0,1-1-7.55,22,22,0,0,1,.49-2.77,1.12,1.12,0,0,1,.94-.94c1-.18,2.11-.39,3.18-.47a2.79,2.79,0,0,1,3,1.64,18.06,18.06,0,0,1,1.12,2.79c.61,2.34,1.19,4.69,1.64,7.06a16.07,16.07,0,0,1,.07,3.4C636.55,180.15,636.38,181.07,636.25,182.16Z"/><path class="cls-5" d="M-88.9,77.11C-94.26,75.8-247.42-12-250.75-20.81s-48-112.07-48-112.07L-214-111.44l87.09,74s-56.15-125.39-55-131.76S-174.1-281-174.1-281l64.56,68.36L-86-134.28l12.29,86.15s40.54-85.58,41.05-89.19,86.26-98.57,86.26-98.57l17.64,94.7L-1.28-33.63,58.23-73.15,159-92,81.24,8.37Z"/><path class="cls-6" d="M-386.13,223.18c-1.16-4.83-32.24-74-32.24-74l18-22.52s23.6,13.34,24.1,15.41l17.76,74.54,37,45.16s-23.16-69.62-18.76-78.69S-327,134.68-327,134.68l32.08-6.19,15.39,40.1-11.09,69.75,17.1,41.15,4.69-66,41-48.43L-196.61,189l-17.58,48.68-26.19,34S-233.6,297-233.1,299s26.43,22.15,26.43,22.15l-5.74-57.72L-166.73,195l42,14.21-15.84,43.73-42.66,44.45.14,34.25,17.1,25.83,1.27-52.82,53.56-66,22.86,34.68-1.9,31.82S-132,328.2-132.94,330.6s-9.69,35.87-9.69,35.87l37.47,7.25L2,428.29l39.13,23.5L25.22,466.51s-161.49-67.28-163.55-68.24-27.53-16-27.53-16l-1.32,46.49-7.66,65.79-39.74,13.85-17.59-43.22,24-73.57L-218.2,367.7l-13.49,53.55-51.47,47.28s-45.23-18.39-44.34-20.79S-304,378-304,378L-260.34,350l-18.94-3-55.53,45.51s-25.11,29.33-25.6,27.26S-379.22,393-379.19,390-356.88,349-356.88,349l54.1-20.92-20.74-7.46-63.43,37s-32.87,18-33.36,16S-434.85,334-434.85,334l9.89-22.78,56.73-9.88,24.5-3.65-23.95-15.44-93.38,24.44L-474.24,285-453,261l46.87-5.34,21.66,2.13s-109-44.05-107.4-46.61-8.55-26.41-6.61-27.6,28.62-17.77,28.62-17.77L-417,188.58Z"/><path class="cls-3" d="M221.28,9.35l20.27,11.82,2.89,25L232.12,64l-22.55.82s-16-14.71-15.42-18.2,1.38-16.81,3-18.35S221.28,9.35,221.28,9.35Z"/><path class="cls-3" d="M289.41,28.27c-2,.44-23.87,6.55-24.43,7.62s-5.72,11.44-5.72,11.44L259,61.59s5.79,6,6,6.38,13.74,4.16,13.74,4.16l16-2.8,8.4-16-3.27-17.92Z"/><path class="cls-3" d="M360.89,32.05l-33.12.3L320.44,47.7,331.69,75l29.21,4.75s14.57-10.15,14.81-11.66S373,39.19,373,39.19Z"/><path class="cls-8" d="M105.38,39.36l37-.36,53.49,54.51,30.23-29.44L249,71.62,250.4,110,282.28,78.3l33.47,5.44-4.23,26L348.39,86.5l20.87,4.67,12.09,27.41,32.48-35.44s52.87,3.51,53.3,8.67.08,70,.08,70l-67.37,38.67-171.21-11.3L119.54,144.73l-30-86.31Z"/><path class="cls-5" d="M201.4,145.31l37.46,20.09,39.78-17.71,20.4,15.4,66.37-1.29-15.3,47.14-81.82,37.59-8.1,82.67-30.38,1.42S252.64,205.81,247.69,205s-72.37-24.49-72.37-24.49Z"/><path class="cls-7" d="M206.63,862.22l-29-10,17.52-66.07s-90.09-91.63-89-92.71,10-58.12,10-58.12l39.06-10.81,40.67,11.13-75.07-63L108.66,517.2l19.15-14.9,59.87,7.26,18.8,13s9.27-81.35,9.49-84.49,56.35-30.28,56.35-30.28l33.91,35.84,2.63,68.68,36.79-28.11S382.08,503,382.7,509.3s-13.17,72.32-13.17,72.32-76.89,59.92-74,61.18,63.41-6.68,63.41-6.68l21,49.1-77.69,92.15-62.72,15.77Z"/><path class="cls-7" d="M1176.57,227.22l-29-10,17.53-66.07s-90.09-91.63-89-92.71,10-58.12,10-58.12l39.06-10.81L1165.88.65l-75.07-63L1078.6-117.8l19.15-14.9,59.87,7.26,18.8,13s9.27-81.35,9.49-84.49,56.35-30.28,56.35-30.28l33.91,35.84,2.63,68.68,36.79-28.11S1352-132,1352.64-125.7s-13.17,72.32-13.17,72.32-76.89,59.92-74,61.18,63.41-6.68,63.41-6.68l21,49.1-77.69,92.15-62.72,15.77Z"/></pattern></defs><rect class="cls-9" width="2048" height="1152"/><rect class="cls-10" width="2048" height="1152"/></svg>