<svg id="color" xmlns="http://www.w3.org/2000/svg" xmlns:xlink="http://www.w3.org/1999/xlink" viewBox="0 0 2048 1152"><defs><style>.cls-1,.cls-4{fill:none;}.cls-2{fill:#d3ebe1;}.cls-2,.cls-3,.cls-4,.cls-5,.cls-6{stroke:#00455c;stroke-miterlimit:10;stroke-width:1.75px;}.cls-3{fill:#ffc65c;}.cls-5{fill:#eae6dc;}.cls-6{fill:#00455c;}.cls-7{fill:#8fd0e5;}.cls-8{fill:url(#Motivo_nuevo_193);}</style><pattern id="Motivo_nuevo_193" data-name="Motivo nuevo 193" width="481.26" height="381" patternTransform="translate(-6778.73 -8994.67) scale(1.64)" patternUnits="userSpaceOnUse" viewBox="0 0 481.26 381"><rect class="cls-1" width="481.26" height="381"/><path class="cls-2" d="M375,343.33a6.32,6.32,0,0,0-.52,9.4l9.1,9.1-8.51,7.33-8.51-8.51A17.51,17.51,0,0,1,368,334.58l29.29-23.43a17.5,17.5,0,0,1,23.33,1.3L430,321.8l-8.5,7.34-8.77-8.77a6.32,6.32,0,0,0-8.42-.47Z"/><path class="cls-2" d="M403,427.53l-38.35-38.34a8,8,0,0,1,.43-11.7l9.86-8.5,8.5-7.34L421.31,329l8.51-7.33,7.35-6.34,37.51,37.51-59.83,74.1A8,8,0,0,1,403,427.53Z"/><path class="cls-2" d="M416.9,424.75h0a8.23,8.23,0,0,1-8.19-2.28l-38.86-38.86a8.3,8.3,0,0,1-2.38-7.87"/><path class="cls-3" d="M405.7,347.4a11.57,11.57,0,0,1,12.42-2,7.75,7.75,0,0,1,2.28,1.51c3.2,3.21.92,11.07,5.1,15.25s11.21,1.33,16.23,6.35l.15.15a14,14,0,0,1,1,18l-24,30.63a4,4,0,0,1-6,.36L375.25,380a4,4,0,0,1,.18-5.85Z"/><path class="cls-4" d="M381.29,380.36h0a5.24,5.24,0,0,1,.42-7.39l47.68-42.6a5.24,5.24,0,0,1,7.39.42h0a5.24,5.24,0,0,1-.42,7.39l-47.68,42.6A5.24,5.24,0,0,1,381.29,380.36Z"/><path class="cls-4" d="M409.85,408.92h0a5.23,5.23,0,0,0,7.39-.41l42.6-47.68a5.23,5.23,0,0,0-.41-7.39h0a5.23,5.23,0,0,0-7.39.42l-42.6,47.67A5.23,5.23,0,0,0,409.85,408.92Z"/><path class="cls-4" d="M395.73,394.88h0a5.24,5.24,0,0,1,0-7.4l45.21-45.21a5.24,5.24,0,0,1,7.4,0h0a5.22,5.22,0,0,1,0,7.4l-45.21,45.21A5.22,5.22,0,0,1,395.73,394.88Z"/><path class="cls-2" d="M480.52,351.65,439,310.09a1.89,1.89,0,0,0-2.66,0l-5.14,5.15a1.89,1.89,0,0,0,0,2.66l41.55,41.55a1.89,1.89,0,0,0,2.66,0l5.14-5.15A1.86,1.86,0,0,0,480.52,351.65Z"/><line class="cls-2" x1="432.23" y1="318.91" x2="440.02" y2="311.12"/><line class="cls-2" x1="434.7" y1="321.38" x2="442.49" y2="313.59"/><line class="cls-2" x1="437.17" y1="323.85" x2="444.96" y2="316.06"/><line class="cls-2" x1="439.64" y1="326.31" x2="447.43" y2="318.52"/><line class="cls-2" x1="442.1" y1="328.78" x2="449.9" y2="320.99"/><line class="cls-2" x1="444.57" y1="331.25" x2="452.36" y2="323.46"/><line class="cls-2" x1="447.04" y1="333.72" x2="454.83" y2="325.93"/><line class="cls-2" x1="449.51" y1="336.19" x2="457.3" y2="328.4"/><line class="cls-2" x1="451.98" y1="338.66" x2="459.77" y2="330.86"/><line class="cls-2" x1="454.44" y1="341.12" x2="462.24" y2="333.33"/><line class="cls-2" x1="456.91" y1="343.59" x2="464.7" y2="335.8"/><line class="cls-2" x1="459.38" y1="346.06" x2="467.17" y2="338.27"/><line class="cls-2" x1="461.85" y1="348.53" x2="469.64" y2="340.74"/><line class="cls-2" x1="464.32" y1="351" x2="472.11" y2="343.2"/><line class="cls-2" x1="466.79" y1="353.46" x2="474.58" y2="345.67"/><line class="cls-2" x1="469.25" y1="355.93" x2="477.04" y2="348.14"/><line class="cls-2" x1="471.72" y1="358.4" x2="479.51" y2="350.61"/><path class="cls-2" d="M482,351.65l41.55-41.56a1.89,1.89,0,0,1,2.66,0l5.14,5.15a1.89,1.89,0,0,1,0,2.66l-41.55,41.55a1.89,1.89,0,0,1-2.66,0L482,354.3A1.86,1.86,0,0,1,482,351.65Z"/><path class="cls-5" d="M516.51,413.93a35.62,35.62,0,0,1-5.91,18.68h0l-15.34-.17-5.83,15.18a36.07,36.07,0,0,1-18.39-.25l.15-.08-4.58-14.66-16.24-.85,0,.11a35.67,35.67,0,0,1-5.44-17.78L458,404.57l-4.31-15.23a35.93,35.93,0,0,1,14.73-10.14l12.31,9.36L493,379.2a36,36,0,0,1,14.9,10.35h0l-4.25,15Zm-29.12,8,4.06-12.5-10.63-7.72-10.63,7.72,4.06,12.5Z"/><path class="cls-6" d="M493,379.2l-12.32,9.36-12.31-9.36a35.87,35.87,0,0,1,24.63,0Z"/><path class="cls-2" d="M134.39,406.83a6.33,6.33,0,0,0-.53,9.4l9.11,9.1-8.51,7.33-8.52-8.51a17.52,17.52,0,0,1,1.45-26.07l29.29-23.43A17.49,17.49,0,0,1,180,376l9.36,9.35-8.5,7.34-8.78-8.77a6.31,6.31,0,0,0-8.41-.47Z"/><path class="cls-2" d="M162.34,491,124,452.69a8,8,0,0,1,.43-11.7l9.86-8.5,8.5-7.34,37.89-32.69,8.51-7.33,7.34-6.34L234,416.3l-59.83,74.1A8,8,0,0,1,162.34,491Z"/><path class="cls-2" d="M239.89,415.15l-41.55-41.56a1.89,1.89,0,0,0-2.66,0l-5.14,5.15a1.87,1.87,0,0,0,0,2.66L232.09,423a1.89,1.89,0,0,0,2.66,0l5.14-5.15A1.86,1.86,0,0,0,239.89,415.15Z"/><line class="cls-2" x1="191.6" y1="382.41" x2="199.39" y2="374.62"/><line class="cls-2" x1="194.07" y1="384.88" x2="201.86" y2="377.09"/><line class="cls-2" x1="196.54" y1="387.35" x2="204.33" y2="379.56"/><path class="cls-2" d="M317.59,383.4a6.31,6.31,0,0,0-8.41.47l-8.77,8.77-8.51-7.34,9.36-9.35a17.5,17.5,0,0,1,23.33-1.3l29.28,23.43a17.52,17.52,0,0,1,1.45,26.07l-8.52,8.51-8.5-7.33,9.1-9.1a6.32,6.32,0,0,0-.52-9.4Z"/><path class="cls-2" d="M318.92,491l38.34-38.34a8,8,0,0,0-.43-11.7l-9.85-8.5-8.51-7.34-37.89-32.69-8.5-7.33-7.35-6.34L247.22,416.3l59.83,74.1A8,8,0,0,0,318.92,491Z"/><path class="cls-2" d="M241.37,415.15l41.56-41.56a1.88,1.88,0,0,1,2.65,0l5.15,5.15a1.89,1.89,0,0,1,0,2.66L249.17,423a1.88,1.88,0,0,1-2.65,0l-5.15-5.15A1.88,1.88,0,0,1,241.37,415.15Z"/><line class="cls-2" x1="289.66" y1="382.41" x2="281.87" y2="374.62"/><line class="cls-2" x1="287.2" y1="384.88" x2="279.41" y2="377.09"/><line class="cls-2" x1="284.73" y1="387.35" x2="276.94" y2="379.56"/><path class="cls-2" d="M-.74,351.65l-41.55-41.56a1.89,1.89,0,0,0-2.66,0l-5.14,5.15a1.87,1.87,0,0,0,0,2.66l41.55,41.55a1.89,1.89,0,0,0,2.66,0l5.14-5.15A1.88,1.88,0,0,0-.74,351.65Z"/><path class="cls-2" d="M77,319.9a6.31,6.31,0,0,0-8.41.47l-8.77,8.77-8.51-7.34,9.36-9.35A17.5,17.5,0,0,1,84,311.15l29.28,23.43a17.52,17.52,0,0,1,1.45,26.07l-8.52,8.51-8.5-7.33,9.1-9.1a6.32,6.32,0,0,0-.52-9.4Z"/><path class="cls-2" d="M78.29,427.53l38.34-38.34a8,8,0,0,0-.43-11.7l-9.85-8.5-8.51-7.34L60,329l-8.51-7.33-7.34-6.34L6.59,352.8l59.83,74.1A8,8,0,0,0,78.29,427.53Z"/><path class="cls-2" d="M64.37,424.75h0a8.24,8.24,0,0,0,8.19-2.28l38.85-38.86a8.28,8.28,0,0,0,2.38-7.87"/><path class="cls-3" d="M75.56,347.4a11.57,11.57,0,0,0-12.42-2,7.69,7.69,0,0,0-2.27,1.51c-3.21,3.21-.92,11.07-5.11,15.25s-11.21,1.33-16.23,6.35l-.14.15a14,14,0,0,0-1,18l24,30.63a4,4,0,0,0,6,.36L106,380a4,4,0,0,0-.18-5.85Z"/><path class="cls-4" d="M100,380.36h0a5.23,5.23,0,0,0-.42-7.39l-47.67-42.6a5.23,5.23,0,0,0-7.39.42h0a5.24,5.24,0,0,0,.41,7.39l47.68,42.6A5.24,5.24,0,0,0,100,380.36Z"/><path class="cls-4" d="M71.41,408.92h0a5.24,5.24,0,0,1-7.39-.41l-42.6-47.68a5.23,5.23,0,0,1,.41-7.39h0a5.23,5.23,0,0,1,7.39.42l42.61,47.67A5.23,5.23,0,0,1,71.41,408.92Z"/><path class="cls-4" d="M85.53,394.88h0a5.22,5.22,0,0,0,0-7.4L40.32,342.27a5.24,5.24,0,0,0-7.4,0h0a5.24,5.24,0,0,0,0,7.4l45.21,45.21A5.22,5.22,0,0,0,85.53,394.88Z"/><path class="cls-2" d="M.74,351.65l41.55-41.56a1.89,1.89,0,0,1,2.66,0l5.14,5.15a1.87,1.87,0,0,1,0,2.66L8.54,359.45a1.89,1.89,0,0,1-2.66,0L.74,354.3A1.88,1.88,0,0,1,.74,351.65Z"/><line class="cls-2" x1="49.03" y1="318.91" x2="41.24" y2="311.12"/><line class="cls-2" x1="46.56" y1="321.38" x2="38.77" y2="313.59"/><line class="cls-2" x1="44.1" y1="323.85" x2="36.31" y2="316.06"/><line class="cls-2" x1="41.63" y1="326.31" x2="33.84" y2="318.52"/><line class="cls-2" x1="39.16" y1="328.78" x2="31.37" y2="320.99"/><line class="cls-2" x1="36.69" y1="331.25" x2="28.9" y2="323.46"/><line class="cls-2" x1="34.22" y1="333.72" x2="26.43" y2="325.93"/><line class="cls-2" x1="31.76" y1="336.19" x2="23.96" y2="328.4"/><line class="cls-2" x1="29.29" y1="338.66" x2="21.5" y2="330.86"/><line class="cls-2" x1="26.82" y1="341.12" x2="19.03" y2="333.33"/><line class="cls-2" x1="24.35" y1="343.59" x2="16.56" y2="335.8"/><line class="cls-2" x1="21.88" y1="346.06" x2="14.09" y2="338.27"/><line class="cls-2" x1="19.42" y1="348.53" x2="11.62" y2="340.74"/><line class="cls-2" x1="16.95" y1="351" x2="9.16" y2="343.2"/><line class="cls-2" x1="14.48" y1="353.46" x2="6.69" y2="345.67"/><line class="cls-2" x1="12.01" y1="355.93" x2="4.22" y2="348.14"/><line class="cls-2" x1="9.54" y1="358.4" x2="1.75" y2="350.61"/><path class="cls-5" d="M35.25,413.93a35.54,35.54,0,0,1-5.92,18.68h0L14,432.44,8.16,447.62a35.91,35.91,0,0,1-8.72,1.07,35.78,35.78,0,0,1-9.67-1.32l.15-.08-4.58-14.66-16.24-.85,0,.11a35.57,35.57,0,0,1-5.44-17.78l13.07-9.54-4.3-15.23A35.83,35.83,0,0,1-12.88,379.2l12.32,9.36,12.31-9.36a35.9,35.9,0,0,1,14.9,10.35h0l-4.24,15Zm-29.12,8,4.06-12.5L-.44,401.68l-10.64,7.72L-7,421.9Z"/><path class="cls-6" d="M11.75,379.2-.56,388.56l-12.32-9.36A35.67,35.67,0,0,1-.56,377,35.66,35.66,0,0,1,11.75,379.2Z"/><path class="cls-2" d="M375,216.33a6.32,6.32,0,0,0-.52,9.4l9.1,9.1-8.51,7.33-8.51-8.51A17.51,17.51,0,0,1,368,207.58l29.29-23.43a17.5,17.5,0,0,1,23.33,1.3L430,194.8l-8.5,7.34-8.77-8.77a6.32,6.32,0,0,0-8.42-.47Z"/><path class="cls-2" d="M403,300.53l-38.35-38.34a8,8,0,0,1,.43-11.7l9.86-8.5,8.5-7.34L421.31,202l8.51-7.33,7.35-6.34,37.51,37.51-59.83,74.1A8,8,0,0,1,403,300.53Z"/><path class="cls-2" d="M416.9,297.75h0a8.23,8.23,0,0,1-8.19-2.28l-38.86-38.86a8.3,8.3,0,0,1-2.38-7.87"/><path class="cls-3" d="M405.7,220.4a11.57,11.57,0,0,1,12.42-2,7.75,7.75,0,0,1,2.28,1.51c3.2,3.21.92,11.07,5.1,15.25s11.21,1.33,16.23,6.35l.15.15a14,14,0,0,1,1,18l-24,30.63a4,4,0,0,1-6,.36L375.25,253a4,4,0,0,1,.18-5.85Z"/><path class="cls-4" d="M381.29,253.36h0a5.24,5.24,0,0,1,.42-7.39l47.68-42.6a5.24,5.24,0,0,1,7.39.42h0a5.24,5.24,0,0,1-.42,7.39l-47.68,42.6A5.24,5.24,0,0,1,381.29,253.36Z"/><path class="cls-4" d="M409.85,281.92h0a5.23,5.23,0,0,0,7.39-.41l42.6-47.68a5.23,5.23,0,0,0-.41-7.39h0a5.23,5.23,0,0,0-7.39.42l-42.6,47.67A5.23,5.23,0,0,0,409.85,281.92Z"/><path class="cls-4" d="M395.73,267.88h0a5.24,5.24,0,0,1,0-7.4l45.21-45.21a5.24,5.24,0,0,1,7.4,0h0a5.22,5.22,0,0,1,0,7.4l-45.21,45.21A5.22,5.22,0,0,1,395.73,267.88Z"/><path class="cls-2" d="M480.52,224.65,439,183.09a1.89,1.89,0,0,0-2.66,0l-5.14,5.15a1.89,1.89,0,0,0,0,2.66l41.55,41.55a1.89,1.89,0,0,0,2.66,0l5.14-5.15A1.86,1.86,0,0,0,480.52,224.65Z"/><line class="cls-2" x1="432.23" y1="191.91" x2="440.02" y2="184.12"/><line class="cls-2" x1="434.7" y1="194.38" x2="442.49" y2="186.59"/><line class="cls-2" x1="437.17" y1="196.85" x2="444.96" y2="189.06"/><line class="cls-2" x1="439.64" y1="199.31" x2="447.43" y2="191.52"/><line class="cls-2" x1="442.1" y1="201.78" x2="449.9" y2="193.99"/><line class="cls-2" x1="444.57" y1="204.25" x2="452.36" y2="196.46"/><line class="cls-2" x1="447.04" y1="206.72" x2="454.83" y2="198.93"/><line class="cls-2" x1="449.51" y1="209.19" x2="457.3" y2="201.4"/><line class="cls-2" x1="451.98" y1="211.66" x2="459.77" y2="203.86"/><line class="cls-2" x1="454.44" y1="214.12" x2="462.24" y2="206.33"/><line class="cls-2" x1="456.91" y1="216.59" x2="464.7" y2="208.8"/><line class="cls-2" x1="459.38" y1="219.06" x2="467.17" y2="211.27"/><line class="cls-2" x1="461.85" y1="221.53" x2="469.64" y2="213.74"/><line class="cls-2" x1="464.32" y1="224" x2="472.11" y2="216.2"/><line class="cls-2" x1="466.79" y1="226.46" x2="474.58" y2="218.67"/><line class="cls-2" x1="469.25" y1="228.93" x2="477.04" y2="221.14"/><line class="cls-2" x1="471.72" y1="231.4" x2="479.51" y2="223.61"/><path class="cls-2" d="M482,224.65l41.55-41.56a1.89,1.89,0,0,1,2.66,0l5.14,5.15a1.89,1.89,0,0,1,0,2.66l-41.55,41.55a1.89,1.89,0,0,1-2.66,0L482,227.3A1.86,1.86,0,0,1,482,224.65Z"/><path class="cls-5" d="M516.51,286.93a35.62,35.62,0,0,1-5.91,18.68h0l-15.34-.17-5.83,15.18a36.07,36.07,0,0,1-18.39-.25l.15-.08-4.58-14.66-16.24-.85,0,.11a35.67,35.67,0,0,1-5.44-17.78L458,277.57l-4.31-15.23a35.93,35.93,0,0,1,14.73-10.14l12.31,9.36L493,252.2a36,36,0,0,1,14.9,10.35h0l-4.25,15Zm-29.12,8,4.06-12.5-10.63-7.72-10.63,7.72,4.06,12.5Z"/><path class="cls-6" d="M493,252.2l-12.32,9.36-12.31-9.36a35.87,35.87,0,0,1,24.63,0Z"/><line class="cls-2" x1="480.7" y1="261.56" x2="480.7" y2="274.68"/><polygon class="cls-6" points="491.45 282.4 487.39 294.9 474.25 294.9 470.19 282.4 480.82 274.68 491.45 282.4"/><path class="cls-6" d="M471.18,320.29l-.15.08a35.89,35.89,0,0,1-20.7-15.48h0l0-.11,16.24.85Z"/><line class="cls-2" x1="466.6" y1="305.63" x2="474.19" y2="294.9"/><path class="cls-6" d="M458,277.57l-13.08,9.54c0-.42,0-.83,0-1.25a35.7,35.7,0,0,1,8.79-23.52Z"/><line class="cls-2" x1="457.97" y1="277.57" x2="470.19" y2="282.4"/><circle class="cls-3" cx="360.33" cy="332.42" r="3.42"/><circle class="cls-3" cx="369.14" cy="321.69" r="3.42"/><circle class="cls-3" cx="376.4" cy="308.37" r="7.94"/><circle class="cls-3" cx="375.92" cy="291.59" r="4.25"/><circle class="cls-3" cx="365.71" cy="297.83" r="3.42"/><circle class="cls-3" cx="361.45" cy="307.81" r="3.42"/><circle class="cls-3" cx="386.07" cy="295.84" r="3.42"/><circle class="cls-3" cx="375.81" cy="282.2" r="2.75"/><path class="cls-2" d="M134.39,279.83a6.33,6.33,0,0,0-.53,9.4l9.11,9.1-8.51,7.33-8.52-8.51a17.52,17.52,0,0,1,1.45-26.07l29.29-23.43A17.49,17.49,0,0,1,180,249l9.36,9.35-8.5,7.34-8.78-8.77a6.31,6.31,0,0,0-8.41-.47Z"/><path class="cls-2" d="M162.34,364,124,325.69a8,8,0,0,1,.43-11.7l9.86-8.5,8.5-7.34,37.89-32.69,8.51-7.33,7.34-6.34L234,289.3l-59.83,74.1A8,8,0,0,1,162.34,364Z"/><path class="cls-2" d="M176.27,361.25h0a8.24,8.24,0,0,1-8.19-2.28l-38.85-38.86a8.28,8.28,0,0,1-2.38-7.87"/><path class="cls-3" d="M165.07,283.9a11.57,11.57,0,0,1,12.42-2,7.69,7.69,0,0,1,2.27,1.51c3.21,3.21.93,11.07,5.11,15.25S196.08,300,201.1,305l.15.15a14,14,0,0,1,1,18l-24,30.63a4,4,0,0,1-6,.36L134.62,316.5a4,4,0,0,1,.18-5.85Z"/><path class="cls-4" d="M140.66,316.86h0a5.24,5.24,0,0,1,.42-7.39l47.67-42.6a5.23,5.23,0,0,1,7.39.42h0a5.24,5.24,0,0,1-.41,7.39l-47.68,42.6A5.24,5.24,0,0,1,140.66,316.86Z"/><path class="cls-4" d="M169.22,345.42h0a5.23,5.23,0,0,0,7.39-.41l42.6-47.68a5.23,5.23,0,0,0-.41-7.39h0a5.23,5.23,0,0,0-7.39.42L168.81,338A5.23,5.23,0,0,0,169.22,345.42Z"/><path class="cls-4" d="M155.1,331.38h0a5.24,5.24,0,0,1,0-7.4l45.21-45.21a5.24,5.24,0,0,1,7.4,0h0a5.22,5.22,0,0,1,0,7.4L162.5,331.38A5.22,5.22,0,0,1,155.1,331.38Z"/><path class="cls-2" d="M239.89,288.15l-41.55-41.56a1.89,1.89,0,0,0-2.66,0l-5.14,5.15a1.87,1.87,0,0,0,0,2.66L232.09,296a1.89,1.89,0,0,0,2.66,0l5.14-5.15A1.86,1.86,0,0,0,239.89,288.15Z"/><line class="cls-2" x1="191.6" y1="255.41" x2="199.39" y2="247.62"/><line class="cls-2" x1="194.07" y1="257.88" x2="201.86" y2="250.09"/><line class="cls-2" x1="196.54" y1="260.35" x2="204.33" y2="252.56"/><line class="cls-2" x1="199" y1="262.81" x2="206.79" y2="255.02"/><line class="cls-2" x1="201.47" y1="265.28" x2="209.26" y2="257.49"/><line class="cls-2" x1="203.94" y1="267.75" x2="211.73" y2="259.96"/><line class="cls-2" x1="206.41" y1="270.22" x2="214.2" y2="262.43"/><line class="cls-2" x1="208.88" y1="272.69" x2="216.67" y2="264.9"/><line class="cls-2" x1="211.34" y1="275.16" x2="219.14" y2="267.36"/><line class="cls-2" x1="213.81" y1="277.62" x2="221.6" y2="269.83"/><line class="cls-2" x1="216.28" y1="280.09" x2="224.07" y2="272.3"/><line class="cls-2" x1="218.75" y1="282.56" x2="226.54" y2="274.77"/><line class="cls-2" x1="221.22" y1="285.03" x2="229.01" y2="277.24"/><line class="cls-2" x1="223.68" y1="287.5" x2="231.48" y2="279.7"/><line class="cls-2" x1="226.15" y1="289.96" x2="233.94" y2="282.17"/><line class="cls-2" x1="228.62" y1="292.43" x2="236.41" y2="284.64"/><line class="cls-2" x1="231.09" y1="294.9" x2="238.88" y2="287.11"/><path class="cls-2" d="M317.59,256.4a6.31,6.31,0,0,0-8.41.47l-8.77,8.77-8.51-7.34,9.36-9.35a17.5,17.5,0,0,1,23.33-1.3l29.28,23.43a17.52,17.52,0,0,1,1.45,26.07l-8.52,8.51-8.5-7.33,9.1-9.1a6.32,6.32,0,0,0-.52-9.4Z"/><path class="cls-2" d="M318.92,364l38.34-38.34a8,8,0,0,0-.43-11.7l-9.85-8.5-8.51-7.34-37.89-32.69-8.5-7.33-7.35-6.34L247.22,289.3l59.83,74.1A8,8,0,0,0,318.92,364Z"/><path class="cls-2" d="M305,361.25h0a8.24,8.24,0,0,0,8.19-2.28l38.86-38.86a8.32,8.32,0,0,0,2.38-7.87"/><path class="cls-3" d="M316.19,283.9a11.56,11.56,0,0,0-12.41-2,7.62,7.62,0,0,0-2.28,1.51c-3.21,3.21-.92,11.07-5.1,15.25S285.18,300,280.17,305l-.15.15a14.06,14.06,0,0,0-1,18l24,30.63a4,4,0,0,0,6,.36l37.68-37.68a4,4,0,0,0-.18-5.85Z"/><path class="cls-4" d="M340.6,316.86h0a5.24,5.24,0,0,0-.41-7.39l-47.68-42.6a5.24,5.24,0,0,0-7.39.42h0a5.23,5.23,0,0,0,.42,7.39l47.67,42.6A5.23,5.23,0,0,0,340.6,316.86Z"/><path class="cls-4" d="M312,345.42h0a5.24,5.24,0,0,1-7.39-.41l-42.6-47.68a5.24,5.24,0,0,1,.42-7.39h0a5.23,5.23,0,0,1,7.39.42L312.46,338A5.23,5.23,0,0,1,312,345.42Z"/><path class="cls-4" d="M326.16,331.38h0a5.22,5.22,0,0,0,0-7.4L281,278.77a5.24,5.24,0,0,0-7.4,0h0a5.24,5.24,0,0,0,0,7.4l45.21,45.21A5.22,5.22,0,0,0,326.16,331.38Z"/><path class="cls-2" d="M241.37,288.15l41.56-41.56a1.88,1.88,0,0,1,2.65,0l5.15,5.15a1.89,1.89,0,0,1,0,2.66L249.17,296a1.88,1.88,0,0,1-2.65,0l-5.15-5.15A1.88,1.88,0,0,1,241.37,288.15Z"/><line class="cls-2" x1="289.66" y1="255.41" x2="281.87" y2="247.62"/><line class="cls-2" x1="287.2" y1="257.88" x2="279.41" y2="250.09"/><line class="cls-2" x1="284.73" y1="260.35" x2="276.94" y2="252.56"/><line class="cls-2" x1="282.26" y1="262.81" x2="274.47" y2="255.02"/><line class="cls-2" x1="279.79" y1="265.28" x2="272" y2="257.49"/><line class="cls-2" x1="277.32" y1="267.75" x2="269.53" y2="259.96"/><line class="cls-2" x1="274.86" y1="270.22" x2="267.07" y2="262.43"/><line class="cls-2" x1="272.39" y1="272.69" x2="264.6" y2="264.9"/><line class="cls-2" x1="269.92" y1="275.16" x2="262.13" y2="267.36"/><line class="cls-2" x1="267.45" y1="277.62" x2="259.66" y2="269.83"/><line class="cls-2" x1="264.98" y1="280.09" x2="257.19" y2="272.3"/><line class="cls-2" x1="262.52" y1="282.56" x2="254.72" y2="274.77"/><line class="cls-2" x1="260.05" y1="285.03" x2="252.26" y2="277.24"/><line class="cls-2" x1="257.58" y1="287.5" x2="249.79" y2="279.7"/><line class="cls-2" x1="255.11" y1="289.96" x2="247.32" y2="282.17"/><line class="cls-2" x1="252.64" y1="292.43" x2="244.85" y2="284.64"/><line class="cls-2" x1="250.18" y1="294.9" x2="242.38" y2="287.11"/><path class="cls-5" d="M275.88,350.43A35.62,35.62,0,0,1,270,369.11h0l-15.34-.17-5.83,15.18a36.07,36.07,0,0,1-18.39-.25l.15-.08L226,369.13l-16.24-.85,0,.11a35.57,35.57,0,0,1-5.44-17.78l13.08-9.54L213,325.84a35.9,35.9,0,0,1,14.72-10.14l12.32,9.36,12.31-9.36a35.84,35.84,0,0,1,14.9,10.35h0l-4.24,15Zm-29.12,8,4.06-12.5-10.63-7.72-10.64,7.72,4.07,12.5Z"/><path class="cls-6" d="M252.38,315.7l-12.31,9.36-12.32-9.36a35.87,35.87,0,0,1,24.63,0Z"/><line class="cls-2" x1="240.07" y1="325.06" x2="240.07" y2="338.18"/><polygon class="cls-6" points="250.82 345.9 246.76 358.4 233.62 358.4 229.55 345.9 240.19 338.18 250.82 345.9"/><path class="cls-6" d="M270,369.11a35.81,35.81,0,0,1-21.17,15l5.83-15.18Z"/><line class="cls-2" x1="254.61" y1="368.94" x2="246.76" y2="358.4"/><path class="cls-6" d="M230.55,383.79l-.15.08a35.83,35.83,0,0,1-20.7-15.48h0l0-.11,16.24.85Z"/><line class="cls-2" x1="225.97" y1="369.13" x2="233.56" y2="358.4"/><path class="cls-6" d="M275.9,349.36c0,.36,0,.72,0,1.07L263,341.07l4.24-15A35.62,35.62,0,0,1,275.9,349.36Z"/><line class="cls-2" x1="263.04" y1="341.07" x2="250.82" y2="345.9"/><path class="cls-6" d="M217.34,341.07l-13.08,9.54c0-.42,0-.83,0-1.25a35.71,35.71,0,0,1,8.8-23.52Z"/><line class="cls-2" x1="217.33" y1="341.07" x2="229.55" y2="345.9"/><circle class="cls-3" cx="352.82" cy="369.31" r="7.94"/><circle class="cls-3" cx="352.35" cy="352.54" r="4.25"/><circle class="cls-3" cx="342.14" cy="358.78" r="3.42"/><circle class="cls-3" cx="342.14" cy="379.11" r="3.42"/><circle class="cls-3" cx="332.83" cy="367.75" r="3.42"/><circle class="cls-3" cx="128.5" cy="385.19" r="3.42"/><circle class="cls-3" cx="352.24" cy="343.15" r="2.75"/><circle class="cls-3" cx="135.76" cy="371.87" r="7.94"/><circle class="cls-3" cx="135.29" cy="355.09" r="4.25"/><circle class="cls-3" cx="125.08" cy="361.33" r="3.42"/><circle class="cls-3" cx="120.82" cy="371.31" r="3.42"/><circle class="cls-3" cx="145.44" cy="359.34" r="3.42"/><circle class="cls-3" cx="342.89" cy="348.29" r="3.42"/><circle class="cls-3" cx="135.18" cy="345.7" r="2.75"/><path class="cls-2" d="M-.74,224.65l-41.55-41.56a1.89,1.89,0,0,0-2.66,0l-5.14,5.15a1.87,1.87,0,0,0,0,2.66l41.55,41.55a1.89,1.89,0,0,0,2.66,0l5.14-5.15A1.88,1.88,0,0,0-.74,224.65Z"/><path class="cls-2" d="M77,192.9a6.31,6.31,0,0,0-8.41.47l-8.77,8.77-8.51-7.34,9.36-9.35A17.5,17.5,0,0,1,84,184.15l29.28,23.43a17.52,17.52,0,0,1,1.45,26.07l-8.52,8.51-8.5-7.33,9.1-9.1a6.32,6.32,0,0,0-.52-9.4Z"/><path class="cls-2" d="M78.29,300.53l38.34-38.34a8,8,0,0,0-.43-11.7l-9.85-8.5-8.51-7.34L60,202l-8.51-7.33-7.34-6.34L6.59,225.8l59.83,74.1A8,8,0,0,0,78.29,300.53Z"/><path class="cls-2" d="M64.37,297.75h0a8.24,8.24,0,0,0,8.19-2.28l38.85-38.86a8.28,8.28,0,0,0,2.38-7.87"/><path class="cls-3" d="M75.56,220.4a11.57,11.57,0,0,0-12.42-2,7.69,7.69,0,0,0-2.27,1.51c-3.21,3.21-.92,11.07-5.11,15.25s-11.21,1.33-16.23,6.35l-.14.15a14,14,0,0,0-1,18l24,30.63a4,4,0,0,0,6,.36L106,253a4,4,0,0,0-.18-5.85Z"/><path class="cls-4" d="M100,253.36h0a5.23,5.23,0,0,0-.42-7.39l-47.67-42.6a5.23,5.23,0,0,0-7.39.42h0a5.24,5.24,0,0,0,.41,7.39l47.68,42.6A5.24,5.24,0,0,0,100,253.36Z"/><path class="cls-4" d="M71.41,281.92h0a5.24,5.24,0,0,1-7.39-.41l-42.6-47.68a5.23,5.23,0,0,1,.41-7.39h0a5.23,5.23,0,0,1,7.39.42l42.61,47.67A5.23,5.23,0,0,1,71.41,281.92Z"/><path class="cls-4" d="M85.53,267.88h0a5.22,5.22,0,0,0,0-7.4L40.32,215.27a5.24,5.24,0,0,0-7.4,0h0a5.24,5.24,0,0,0,0,7.4l45.21,45.21A5.22,5.22,0,0,0,85.53,267.88Z"/><path class="cls-2" d="M.74,224.65l41.55-41.56a1.89,1.89,0,0,1,2.66,0l5.14,5.15a1.87,1.87,0,0,1,0,2.66L8.54,232.45a1.89,1.89,0,0,1-2.66,0L.74,227.3A1.88,1.88,0,0,1,.74,224.65Z"/><line class="cls-2" x1="49.03" y1="191.91" x2="41.24" y2="184.12"/><line class="cls-2" x1="46.56" y1="194.38" x2="38.77" y2="186.59"/><line class="cls-2" x1="44.1" y1="196.85" x2="36.31" y2="189.06"/><line class="cls-2" x1="41.63" y1="199.31" x2="33.84" y2="191.52"/><line class="cls-2" x1="39.16" y1="201.78" x2="31.37" y2="193.99"/><line class="cls-2" x1="36.69" y1="204.25" x2="28.9" y2="196.46"/><line class="cls-2" x1="34.22" y1="206.72" x2="26.43" y2="198.93"/><line class="cls-2" x1="31.76" y1="209.19" x2="23.96" y2="201.4"/><line class="cls-2" x1="29.29" y1="211.66" x2="21.5" y2="203.86"/><line class="cls-2" x1="26.82" y1="214.12" x2="19.03" y2="206.33"/><line class="cls-2" x1="24.35" y1="216.59" x2="16.56" y2="208.8"/><line class="cls-2" x1="21.88" y1="219.06" x2="14.09" y2="211.27"/><line class="cls-2" x1="19.42" y1="221.53" x2="11.62" y2="213.74"/><line class="cls-2" x1="16.95" y1="224" x2="9.16" y2="216.2"/><line class="cls-2" x1="14.48" y1="226.46" x2="6.69" y2="218.67"/><line class="cls-2" x1="12.01" y1="228.93" x2="4.22" y2="221.14"/><line class="cls-2" x1="9.54" y1="231.4" x2="1.75" y2="223.61"/><path class="cls-5" d="M35.25,286.93a35.54,35.54,0,0,1-5.92,18.68h0L14,305.44,8.16,320.62a35.91,35.91,0,0,1-8.72,1.07,35.78,35.78,0,0,1-9.67-1.32l.15-.08-4.58-14.66-16.24-.85,0,.11a35.57,35.57,0,0,1-5.44-17.78l13.07-9.54-4.3-15.23A35.83,35.83,0,0,1-12.88,252.2l12.32,9.36,12.31-9.36a35.9,35.9,0,0,1,14.9,10.35h0l-4.24,15Zm-29.12,8,4.06-12.5L-.44,274.68l-10.64,7.72L-7,294.9Z"/><path class="cls-6" d="M11.75,252.2-.56,261.56l-12.32-9.36A35.67,35.67,0,0,1-.56,250,35.66,35.66,0,0,1,11.75,252.2Z"/><line class="cls-2" x1="-0.56" y1="261.56" x2="-0.56" y2="274.68"/><polygon class="cls-6" points="10.19 282.4 6.13 294.9 -7.02 294.9 -11.08 282.4 -0.44 274.68 10.19 282.4"/><path class="cls-6" d="M29.33,305.61a35.84,35.84,0,0,1-21.17,15L14,305.44Z"/><line class="cls-2" x1="13.98" y1="305.44" x2="6.13" y2="294.9"/><path class="cls-6" d="M35.27,285.86c0,.36,0,.72,0,1.07l-12.84-9.36,4.24-15A35.67,35.67,0,0,1,35.27,285.86Z"/><line class="cls-2" x1="22.41" y1="277.57" x2="10.19" y2="282.4"/><circle class="cls-3" cx="112.19" cy="305.81" r="7.94"/><circle class="cls-3" cx="111.72" cy="289.04" r="4.25"/><circle class="cls-3" cx="101.51" cy="295.28" r="3.42"/><circle class="cls-3" cx="101.51" cy="315.61" r="3.42"/><circle class="cls-3" cx="92.2" cy="304.25" r="3.42"/><circle class="cls-3" cx="115.97" cy="328.5" r="3.42"/><circle class="cls-3" cx="111.6" cy="279.65" r="2.75"/><circle class="cls-3" cx="102.25" cy="284.79" r="3.42"/><path class="cls-2" d="M375,89.33a6.32,6.32,0,0,0-.52,9.4l9.1,9.1-8.51,7.33-8.51-8.51A17.51,17.51,0,0,1,368,80.58l29.29-23.43a17.5,17.5,0,0,1,23.33,1.3L430,67.8l-8.5,7.34-8.77-8.77a6.32,6.32,0,0,0-8.42-.47Z"/><path class="cls-2" d="M403,173.53l-38.35-38.34a8,8,0,0,1,.43-11.7l9.86-8.5,8.5-7.34L421.31,75l8.51-7.33,7.35-6.34L474.68,98.8l-59.83,74.1A8,8,0,0,1,403,173.53Z"/><path class="cls-2" d="M416.9,170.75h0a8.23,8.23,0,0,1-8.19-2.28l-38.86-38.86a8.3,8.3,0,0,1-2.38-7.87"/><path class="cls-3" d="M405.7,93.4a11.57,11.57,0,0,1,12.42-2,7.75,7.75,0,0,1,2.28,1.51c3.2,3.21.92,11.07,5.1,15.25s11.21,1.33,16.23,6.35l.15.15a14,14,0,0,1,1,18l-24,30.63a4,4,0,0,1-6,.36L375.25,126a4,4,0,0,1,.18-5.85Z"/><path class="cls-4" d="M381.29,126.36h0a5.24,5.24,0,0,1,.42-7.39l47.68-42.6a5.24,5.24,0,0,1,7.39.42h0a5.24,5.24,0,0,1-.42,7.39l-47.68,42.6A5.24,5.24,0,0,1,381.29,126.36Z"/><path class="cls-4" d="M409.85,154.92h0a5.23,5.23,0,0,0,7.39-.41l42.6-47.68a5.23,5.23,0,0,0-.41-7.39h0a5.23,5.23,0,0,0-7.39.42l-42.6,47.67A5.23,5.23,0,0,0,409.85,154.92Z"/><path class="cls-4" d="M395.73,140.88h0a5.24,5.24,0,0,1,0-7.4l45.21-45.21a5.24,5.24,0,0,1,7.4,0h0a5.22,5.22,0,0,1,0,7.4l-45.21,45.21A5.22,5.22,0,0,1,395.73,140.88Z"/><path class="cls-2" d="M480.52,97.65,439,56.09a1.89,1.89,0,0,0-2.66,0l-5.14,5.15a1.89,1.89,0,0,0,0,2.66l41.55,41.55a1.89,1.89,0,0,0,2.66,0l5.14-5.15A1.86,1.86,0,0,0,480.52,97.65Z"/><line class="cls-2" x1="432.23" y1="64.91" x2="440.02" y2="57.12"/><line class="cls-2" x1="434.7" y1="67.38" x2="442.49" y2="59.59"/><line class="cls-2" x1="437.17" y1="69.85" x2="444.96" y2="62.06"/><line class="cls-2" x1="439.64" y1="72.31" x2="447.43" y2="64.52"/><line class="cls-2" x1="442.1" y1="74.78" x2="449.9" y2="66.99"/><line class="cls-2" x1="444.57" y1="77.25" x2="452.36" y2="69.46"/><line class="cls-2" x1="447.04" y1="79.72" x2="454.83" y2="71.93"/><line class="cls-2" x1="449.51" y1="82.19" x2="457.3" y2="74.4"/><line class="cls-2" x1="451.98" y1="84.66" x2="459.77" y2="76.86"/><line class="cls-2" x1="454.44" y1="87.12" x2="462.24" y2="79.33"/><line class="cls-2" x1="456.91" y1="89.59" x2="464.7" y2="81.8"/><line class="cls-2" x1="459.38" y1="92.06" x2="467.17" y2="84.27"/><line class="cls-2" x1="461.85" y1="94.53" x2="469.64" y2="86.74"/><line class="cls-2" x1="464.32" y1="97" x2="472.11" y2="89.2"/><line class="cls-2" x1="466.79" y1="99.46" x2="474.58" y2="91.67"/><line class="cls-2" x1="469.25" y1="101.93" x2="477.04" y2="94.14"/><line class="cls-2" x1="471.72" y1="104.4" x2="479.51" y2="96.61"/><path class="cls-2" d="M482,97.65l41.55-41.56a1.89,1.89,0,0,1,2.66,0l5.14,5.15a1.89,1.89,0,0,1,0,2.66l-41.55,41.55a1.89,1.89,0,0,1-2.66,0L482,100.3A1.86,1.86,0,0,1,482,97.65Z"/><path class="cls-5" d="M516.51,159.93a35.62,35.62,0,0,1-5.91,18.68h0l-15.34-.17-5.83,15.18a36.07,36.07,0,0,1-18.39-.25l.15-.08-4.58-14.66-16.24-.85,0,.11a35.67,35.67,0,0,1-5.44-17.78L458,150.57l-4.31-15.23a35.93,35.93,0,0,1,14.73-10.14l12.31,9.36L493,125.2a36,36,0,0,1,14.9,10.35h0l-4.25,15Zm-29.12,8,4.06-12.5-10.63-7.72-10.63,7.72,4.06,12.5Z"/><path class="cls-6" d="M493,125.2l-12.32,9.36-12.31-9.36a35.87,35.87,0,0,1,24.63,0Z"/><line class="cls-2" x1="480.7" y1="134.56" x2="480.7" y2="147.68"/><polygon class="cls-6" points="491.45 155.4 487.39 167.91 474.25 167.91 470.19 155.4 480.82 147.68 491.45 155.4"/><path class="cls-6" d="M471.18,193.29l-.15.08a35.89,35.89,0,0,1-20.7-15.48h0l0-.11,16.24.85Z"/><line class="cls-2" x1="466.6" y1="178.63" x2="474.19" y2="167.9"/><path class="cls-6" d="M458,150.57l-13.08,9.54c0-.42,0-.83,0-1.25a35.7,35.7,0,0,1,8.79-23.52Z"/><line class="cls-2" x1="457.97" y1="150.57" x2="470.19" y2="155.4"/><circle class="cls-3" cx="360.33" cy="205.42" r="3.42"/><circle class="cls-3" cx="369.14" cy="194.69" r="3.42"/><circle class="cls-3" cx="376.4" cy="181.37" r="7.94"/><circle class="cls-3" cx="375.92" cy="164.59" r="4.25"/><circle class="cls-3" cx="365.71" cy="170.83" r="3.42"/><circle class="cls-3" cx="361.45" cy="180.81" r="3.42"/><circle class="cls-3" cx="386.07" cy="168.84" r="3.42"/><circle class="cls-3" cx="375.81" cy="155.2" r="2.75"/><path class="cls-2" d="M134.39,152.83a6.33,6.33,0,0,0-.53,9.4l9.11,9.1-8.51,7.33-8.52-8.51a17.52,17.52,0,0,1,1.45-26.07l29.29-23.43A17.49,17.49,0,0,1,180,122l9.36,9.35-8.5,7.34-8.78-8.77a6.31,6.31,0,0,0-8.41-.47Z"/><path class="cls-2" d="M162.34,237,124,198.69a8,8,0,0,1,.43-11.7l9.86-8.5,8.5-7.34,37.89-32.69,8.51-7.33,7.34-6.34L234,162.3l-59.83,74.1A8,8,0,0,1,162.34,237Z"/><path class="cls-2" d="M176.27,234.25h0a8.24,8.24,0,0,1-8.19-2.28l-38.85-38.86a8.28,8.28,0,0,1-2.38-7.87"/><path class="cls-3" d="M165.07,156.9a11.57,11.57,0,0,1,12.42-2,7.69,7.69,0,0,1,2.27,1.51c3.21,3.21.93,11.07,5.11,15.25S196.08,173,201.1,178l.15.15a14,14,0,0,1,1,18l-24,30.63a4,4,0,0,1-6,.36L134.62,189.5a4,4,0,0,1,.18-5.85Z"/><path class="cls-4" d="M140.66,189.86h0a5.24,5.24,0,0,1,.42-7.39l47.67-42.6a5.23,5.23,0,0,1,7.39.42h0a5.24,5.24,0,0,1-.41,7.39l-47.68,42.6A5.24,5.24,0,0,1,140.66,189.86Z"/><path class="cls-4" d="M169.22,218.42h0a5.23,5.23,0,0,0,7.39-.41l42.6-47.68a5.23,5.23,0,0,0-.41-7.39h0a5.23,5.23,0,0,0-7.39.42L168.81,211A5.23,5.23,0,0,0,169.22,218.42Z"/><path class="cls-4" d="M155.1,204.38h0a5.24,5.24,0,0,1,0-7.4l45.21-45.21a5.24,5.24,0,0,1,7.4,0h0a5.22,5.22,0,0,1,0,7.4L162.5,204.38A5.22,5.22,0,0,1,155.1,204.38Z"/><path class="cls-2" d="M239.89,161.15l-41.55-41.56a1.89,1.89,0,0,0-2.66,0l-5.14,5.15a1.87,1.87,0,0,0,0,2.66L232.09,169a1.89,1.89,0,0,0,2.66,0l5.14-5.15A1.86,1.86,0,0,0,239.89,161.15Z"/><line class="cls-2" x1="191.6" y1="128.41" x2="199.39" y2="120.62"/><line class="cls-2" x1="194.07" y1="130.88" x2="201.86" y2="123.09"/><line class="cls-2" x1="196.54" y1="133.35" x2="204.33" y2="125.56"/><line class="cls-2" x1="199" y1="135.81" x2="206.79" y2="128.02"/><line class="cls-2" x1="201.47" y1="138.28" x2="209.26" y2="130.49"/><line class="cls-2" x1="203.94" y1="140.75" x2="211.73" y2="132.96"/><line class="cls-2" x1="206.41" y1="143.22" x2="214.2" y2="135.43"/><line class="cls-2" x1="208.88" y1="145.69" x2="216.67" y2="137.9"/><line class="cls-2" x1="211.34" y1="148.16" x2="219.14" y2="140.36"/><line class="cls-2" x1="213.81" y1="150.62" x2="221.6" y2="142.83"/><line class="cls-2" x1="216.28" y1="153.09" x2="224.07" y2="145.3"/><line class="cls-2" x1="218.75" y1="155.56" x2="226.54" y2="147.77"/><line class="cls-2" x1="221.22" y1="158.03" x2="229.01" y2="150.24"/><line class="cls-2" x1="223.68" y1="160.5" x2="231.48" y2="152.7"/><line class="cls-2" x1="226.15" y1="162.96" x2="233.94" y2="155.17"/><line class="cls-2" x1="228.62" y1="165.43" x2="236.41" y2="157.64"/><line class="cls-2" x1="231.09" y1="167.9" x2="238.88" y2="160.11"/><path class="cls-2" d="M317.59,129.4a6.31,6.31,0,0,0-8.41.47l-8.77,8.77-8.51-7.34,9.36-9.35a17.5,17.5,0,0,1,23.33-1.3l29.28,23.43a17.52,17.52,0,0,1,1.45,26.07l-8.52,8.51-8.5-7.33,9.1-9.1a6.32,6.32,0,0,0-.52-9.4Z"/><path class="cls-2" d="M318.92,237l38.34-38.34a8,8,0,0,0-.43-11.7l-9.85-8.5-8.51-7.34-37.89-32.69-8.5-7.33-7.35-6.34L247.22,162.3l59.83,74.1A8,8,0,0,0,318.92,237Z"/><path class="cls-2" d="M305,234.25h0a8.24,8.24,0,0,0,8.19-2.28l38.86-38.86a8.32,8.32,0,0,0,2.38-7.87"/><path class="cls-3" d="M316.19,156.9a11.56,11.56,0,0,0-12.41-2,7.62,7.62,0,0,0-2.28,1.51c-3.21,3.21-.92,11.07-5.1,15.25S285.18,173,280.17,178l-.15.15a14.06,14.06,0,0,0-1,18l24,30.63a4,4,0,0,0,6,.36l37.68-37.68a4,4,0,0,0-.18-5.85Z"/><path class="cls-4" d="M340.6,189.86h0a5.24,5.24,0,0,0-.41-7.39l-47.68-42.6a5.24,5.24,0,0,0-7.39.42h0a5.23,5.23,0,0,0,.42,7.39l47.67,42.6A5.23,5.23,0,0,0,340.6,189.86Z"/><path class="cls-4" d="M312,218.42h0a5.24,5.24,0,0,1-7.39-.41l-42.6-47.68a5.24,5.24,0,0,1,.42-7.39h0a5.23,5.23,0,0,1,7.39.42L312.46,211A5.23,5.23,0,0,1,312,218.42Z"/><path class="cls-4" d="M326.16,204.38h0a5.22,5.22,0,0,0,0-7.4L281,151.77a5.24,5.24,0,0,0-7.4,0h0a5.24,5.24,0,0,0,0,7.4l45.21,45.21A5.22,5.22,0,0,0,326.16,204.38Z"/><path class="cls-2" d="M241.37,161.15l41.56-41.56a1.88,1.88,0,0,1,2.65,0l5.15,5.15a1.89,1.89,0,0,1,0,2.66L249.17,169a1.88,1.88,0,0,1-2.65,0l-5.15-5.15A1.88,1.88,0,0,1,241.37,161.15Z"/><line class="cls-2" x1="289.66" y1="128.41" x2="281.87" y2="120.62"/><line class="cls-2" x1="287.2" y1="130.88" x2="279.41" y2="123.09"/><line class="cls-2" x1="284.73" y1="133.35" x2="276.94" y2="125.56"/><line class="cls-2" x1="282.26" y1="135.81" x2="274.47" y2="128.02"/><line class="cls-2" x1="279.79" y1="138.28" x2="272" y2="130.49"/><line class="cls-2" x1="277.32" y1="140.75" x2="269.53" y2="132.96"/><line class="cls-2" x1="274.86" y1="143.22" x2="267.07" y2="135.43"/><line class="cls-2" x1="272.39" y1="145.69" x2="264.6" y2="137.9"/><line class="cls-2" x1="269.92" y1="148.16" x2="262.13" y2="140.36"/><line class="cls-2" x1="267.45" y1="150.62" x2="259.66" y2="142.83"/><line class="cls-2" x1="264.98" y1="153.09" x2="257.19" y2="145.3"/><line class="cls-2" x1="262.52" y1="155.56" x2="254.72" y2="147.77"/><line class="cls-2" x1="260.05" y1="158.03" x2="252.26" y2="150.24"/><line class="cls-2" x1="257.58" y1="160.5" x2="249.79" y2="152.7"/><line class="cls-2" x1="255.11" y1="162.96" x2="247.32" y2="155.17"/><line class="cls-2" x1="252.64" y1="165.43" x2="244.85" y2="157.64"/><line class="cls-2" x1="250.18" y1="167.9" x2="242.38" y2="160.11"/><path class="cls-5" d="M275.88,223.43A35.62,35.62,0,0,1,270,242.11h0l-15.34-.17-5.83,15.18a36.07,36.07,0,0,1-18.39-.25l.15-.08L226,242.13l-16.24-.85,0,.11a35.57,35.57,0,0,1-5.44-17.78l13.08-9.54L213,198.84a35.9,35.9,0,0,1,14.72-10.14l12.32,9.36,12.31-9.36a35.84,35.84,0,0,1,14.9,10.35h0l-4.24,15Zm-29.12,8,4.06-12.5-10.63-7.72-10.64,7.72,4.07,12.5Z"/><path class="cls-6" d="M252.38,188.7l-12.31,9.36-12.32-9.36a35.87,35.87,0,0,1,24.63,0Z"/><line class="cls-2" x1="240.07" y1="198.06" x2="240.07" y2="211.18"/><polygon class="cls-6" points="250.82 218.9 246.76 231.41 233.62 231.41 229.55 218.9 240.19 211.18 250.82 218.9"/><path class="cls-6" d="M270,242.11a35.81,35.81,0,0,1-21.17,15l5.83-15.18Z"/><line class="cls-2" x1="254.61" y1="241.94" x2="246.76" y2="231.4"/><path class="cls-6" d="M230.55,256.79l-.15.08a35.83,35.83,0,0,1-20.7-15.48h0l0-.11,16.24.85Z"/><line class="cls-2" x1="225.97" y1="242.13" x2="233.56" y2="231.4"/><path class="cls-6" d="M275.9,222.36c0,.36,0,.72,0,1.07L263,214.07l4.24-15A35.62,35.62,0,0,1,275.9,222.36Z"/><line class="cls-2" x1="263.04" y1="214.07" x2="250.82" y2="218.9"/><path class="cls-6" d="M217.34,214.07l-13.08,9.54c0-.42,0-.83,0-1.25a35.71,35.71,0,0,1,8.8-23.52Z"/><line class="cls-2" x1="217.33" y1="214.07" x2="229.55" y2="218.9"/><circle class="cls-3" cx="352.82" cy="242.31" r="7.94"/><circle class="cls-3" cx="352.35" cy="225.54" r="4.25"/><circle class="cls-3" cx="342.14" cy="231.78" r="3.42"/><circle class="cls-3" cx="342.14" cy="252.11" r="3.42"/><circle class="cls-3" cx="332.83" cy="240.75" r="3.42"/><circle class="cls-3" cx="119.7" cy="268.92" r="3.42"/><circle class="cls-3" cx="128.5" cy="258.19" r="3.42"/><circle class="cls-3" cx="356.6" cy="265" r="3.42"/><circle class="cls-3" cx="352.24" cy="216.15" r="2.75"/><circle class="cls-3" cx="135.76" cy="244.87" r="7.94"/><circle class="cls-3" cx="135.29" cy="228.09" r="4.25"/><circle class="cls-3" cx="125.08" cy="234.33" r="3.42"/><circle class="cls-3" cx="120.82" cy="244.31" r="3.42"/><circle class="cls-3" cx="145.44" cy="232.34" r="3.42"/><circle class="cls-3" cx="342.89" cy="221.29" r="3.42"/><circle class="cls-3" cx="135.18" cy="218.7" r="2.75"/><path class="cls-2" d="M-.74,97.65-42.29,56.09a1.89,1.89,0,0,0-2.66,0l-5.14,5.15a1.87,1.87,0,0,0,0,2.66l41.55,41.55a1.89,1.89,0,0,0,2.66,0l5.14-5.15A1.88,1.88,0,0,0-.74,97.65Z"/><path class="cls-2" d="M77,65.9a6.31,6.31,0,0,0-8.41.47l-8.77,8.77L51.27,67.8l9.36-9.35A17.5,17.5,0,0,1,84,57.15l29.28,23.43a17.52,17.52,0,0,1,1.45,26.07l-8.52,8.51-8.5-7.33,9.1-9.1a6.32,6.32,0,0,0-.52-9.4Z"/><path class="cls-2" d="M78.29,173.53l38.34-38.34a8,8,0,0,0-.43-11.7l-9.85-8.5-8.51-7.34L60,75l-8.51-7.33L44.1,61.29,6.59,98.8l59.83,74.1A8,8,0,0,0,78.29,173.53Z"/><path class="cls-2" d="M64.37,170.75h0a8.24,8.24,0,0,0,8.19-2.28l38.85-38.86a8.28,8.28,0,0,0,2.38-7.87"/><path class="cls-3" d="M75.56,93.4a11.57,11.57,0,0,0-12.42-2,7.69,7.69,0,0,0-2.27,1.51C57.66,96.14,60,104,55.76,108.18s-11.21,1.33-16.23,6.35l-.14.15a14,14,0,0,0-1,18l24,30.63a4,4,0,0,0,6,.36L106,126a4,4,0,0,0-.18-5.85Z"/><path class="cls-4" d="M100,126.36h0a5.23,5.23,0,0,0-.42-7.39L51.88,76.37a5.23,5.23,0,0,0-7.39.42h0a5.24,5.24,0,0,0,.41,7.39l47.68,42.6A5.24,5.24,0,0,0,100,126.36Z"/><path class="cls-4" d="M71.41,154.92h0a5.24,5.24,0,0,1-7.39-.41l-42.6-47.68a5.23,5.23,0,0,1,.41-7.39h0a5.23,5.23,0,0,1,7.39.42l42.61,47.67A5.23,5.23,0,0,1,71.41,154.92Z"/><path class="cls-4" d="M85.53,140.88h0a5.22,5.22,0,0,0,0-7.4L40.32,88.27a5.24,5.24,0,0,0-7.4,0h0a5.24,5.24,0,0,0,0,7.4l45.21,45.21A5.22,5.22,0,0,0,85.53,140.88Z"/><path class="cls-2" d="M.74,97.65,42.29,56.09a1.89,1.89,0,0,1,2.66,0l5.14,5.15a1.87,1.87,0,0,1,0,2.66L8.54,105.45a1.89,1.89,0,0,1-2.66,0L.74,100.3A1.88,1.88,0,0,1,.74,97.65Z"/><line class="cls-2" x1="49.03" y1="64.91" x2="41.24" y2="57.12"/><line class="cls-2" x1="46.56" y1="67.38" x2="38.77" y2="59.59"/><line class="cls-2" x1="44.1" y1="69.85" x2="36.31" y2="62.06"/><line class="cls-2" x1="41.63" y1="72.31" x2="33.84" y2="64.52"/><line class="cls-2" x1="39.16" y1="74.78" x2="31.37" y2="66.99"/><line class="cls-2" x1="36.69" y1="77.25" x2="28.9" y2="69.46"/><line class="cls-2" x1="34.22" y1="79.72" x2="26.43" y2="71.93"/><line class="cls-2" x1="31.76" y1="82.19" x2="23.96" y2="74.4"/><line class="cls-2" x1="29.29" y1="84.66" x2="21.5" y2="76.86"/><line class="cls-2" x1="26.82" y1="87.12" x2="19.03" y2="79.33"/><line class="cls-2" x1="24.35" y1="89.59" x2="16.56" y2="81.8"/><line class="cls-2" x1="21.88" y1="92.06" x2="14.09" y2="84.27"/><line class="cls-2" x1="19.42" y1="94.53" x2="11.62" y2="86.74"/><line class="cls-2" x1="16.95" y1="97" x2="9.16" y2="89.2"/><line class="cls-2" x1="14.48" y1="99.46" x2="6.69" y2="91.67"/><line class="cls-2" x1="12.01" y1="101.93" x2="4.22" y2="94.14"/><line class="cls-2" x1="9.54" y1="104.4" x2="1.75" y2="96.61"/><path class="cls-5" d="M35.25,159.93a35.54,35.54,0,0,1-5.92,18.68h0L14,178.44,8.16,193.62a35.91,35.91,0,0,1-8.72,1.07,35.78,35.78,0,0,1-9.67-1.32l.15-.08-4.58-14.66-16.24-.85,0,.11a35.57,35.57,0,0,1-5.44-17.78l13.07-9.54-4.3-15.23A35.83,35.83,0,0,1-12.88,125.2l12.32,9.36,12.31-9.36a35.9,35.9,0,0,1,14.9,10.35h0l-4.24,15Zm-29.12,8,4.06-12.5L-.44,147.68l-10.64,7.72L-7,167.9Z"/><path class="cls-6" d="M11.75,125.2-.56,134.56l-12.32-9.36A35.67,35.67,0,0,1-.56,123,35.66,35.66,0,0,1,11.75,125.2Z"/><line class="cls-2" x1="-0.56" y1="134.56" x2="-0.56" y2="147.68"/><polygon class="cls-6" points="10.19 155.4 6.13 167.91 -7.02 167.91 -11.08 155.4 -0.44 147.68 10.19 155.4"/><path class="cls-6" d="M29.33,178.61a35.84,35.84,0,0,1-21.17,15L14,178.44Z"/><line class="cls-2" x1="13.98" y1="178.44" x2="6.13" y2="167.9"/><path class="cls-6" d="M35.27,158.86c0,.36,0,.72,0,1.07l-12.84-9.36,4.24-15A35.67,35.67,0,0,1,35.27,158.86Z"/><line class="cls-2" x1="22.41" y1="150.57" x2="10.19" y2="155.4"/><circle class="cls-3" cx="112.19" cy="178.81" r="7.94"/><circle class="cls-3" cx="111.72" cy="162.04" r="4.25"/><circle class="cls-3" cx="101.51" cy="168.28" r="3.42"/><circle class="cls-3" cx="101.51" cy="188.61" r="3.42"/><circle class="cls-3" cx="92.2" cy="177.25" r="3.42"/><circle class="cls-3" cx="115.97" cy="201.5" r="3.42"/><circle class="cls-3" cx="111.6" cy="152.65" r="2.75"/><circle class="cls-3" cx="102.25" cy="157.79" r="3.42"/><path class="cls-2" d="M403,46.53,364.63,8.19a8,8,0,0,1,.43-11.7l9.86-8.5,8.5-7.34L421.31-52l8.51-7.33,7.35-6.34L474.68-28.2,414.85,45.9A8,8,0,0,1,403,46.53Z"/><path class="cls-2" d="M416.9,43.75h0a8.23,8.23,0,0,1-8.19-2.28L369.85,2.61a8.3,8.3,0,0,1-2.38-7.87"/><path class="cls-3" d="M405.7-33.6a11.57,11.57,0,0,1,12.42-2,7.75,7.75,0,0,1,2.28,1.51c3.2,3.21.92,11.07,5.1,15.25s11.21,1.33,16.23,6.35l.15.15a14,14,0,0,1,1,18l-24,30.63a4,4,0,0,1-6,.36L375.25-1a4,4,0,0,1,.18-5.85Z"/><path class="cls-4" d="M381.29-.64h0A5.24,5.24,0,0,1,381.71-8l47.68-42.6a5.24,5.24,0,0,1,7.39.42h0a5.24,5.24,0,0,1-.42,7.39L388.68-.22A5.24,5.24,0,0,1,381.29-.64Z"/><path class="cls-4" d="M409.85,27.92h0a5.23,5.23,0,0,0,7.39-.41l42.6-47.68a5.23,5.23,0,0,0-.41-7.39h0a5.23,5.23,0,0,0-7.39.42l-42.6,47.67A5.23,5.23,0,0,0,409.85,27.92Z"/><path class="cls-4" d="M395.73,13.88h0a5.24,5.24,0,0,1,0-7.4l45.21-45.21a5.24,5.24,0,0,1,7.4,0h0a5.22,5.22,0,0,1,0,7.4L403.13,13.88A5.22,5.22,0,0,1,395.73,13.88Z"/><path class="cls-5" d="M516.51,32.93a35.62,35.62,0,0,1-5.91,18.68h0l-15.34-.17-5.83,15.18A36.07,36.07,0,0,1,471,66.37l.15-.08L466.6,51.63l-16.24-.85,0,.11a35.67,35.67,0,0,1-5.44-17.78L458,23.57,453.66,8.34A35.93,35.93,0,0,1,468.39-1.8L480.7,7.56,493-1.8a36,36,0,0,1,14.9,10.35h0l-4.25,15Zm-29.12,8,4.06-12.5-10.63-7.72L470.19,28.4l4.06,12.5Z"/><path class="cls-6" d="M493-1.8,480.7,7.56,468.39-1.8A35.87,35.87,0,0,1,493-1.8Z"/><line class="cls-2" x1="480.7" y1="7.56" x2="480.7" y2="20.68"/><polygon class="cls-6" points="491.45 28.4 487.39 40.91 474.25 40.91 470.19 28.4 480.82 20.68 491.45 28.4"/><path class="cls-6" d="M471.18,66.29l-.15.08a35.89,35.89,0,0,1-20.7-15.48h0l0-.11,16.24.85Z"/><line class="cls-2" x1="466.6" y1="51.63" x2="474.19" y2="40.9"/><path class="cls-6" d="M458,23.57l-13.08,9.54c0-.42,0-.83,0-1.25a35.7,35.7,0,0,1,8.79-23.52Z"/><line class="cls-2" x1="457.97" y1="23.57" x2="470.19" y2="28.4"/><circle class="cls-3" cx="360.33" cy="78.42" r="3.42"/><circle class="cls-3" cx="369.14" cy="67.69" r="3.42"/><circle class="cls-3" cx="376.4" cy="54.37" r="7.94"/><circle class="cls-3" cx="375.92" cy="37.59" r="4.25"/><circle class="cls-3" cx="365.71" cy="43.83" r="3.42"/><circle class="cls-3" cx="361.45" cy="53.81" r="3.42"/><circle class="cls-3" cx="386.07" cy="41.84" r="3.42"/><circle class="cls-3" cx="375.81" cy="28.2" r="2.75"/><path class="cls-2" d="M134.39,25.83a6.33,6.33,0,0,0-.53,9.4l9.11,9.1-8.51,7.33-8.52-8.51a17.52,17.52,0,0,1,1.45-26.07L156.68-6.35A17.49,17.49,0,0,1,180-5l9.36,9.35-8.5,7.34-8.78-8.77a6.31,6.31,0,0,0-8.41-.47Z"/><path class="cls-2" d="M162.34,110,124,71.69a8,8,0,0,1,.43-11.7l9.86-8.5,8.5-7.34,37.89-32.69,8.51-7.33,7.34-6.34L234,35.3l-59.83,74.1A8,8,0,0,1,162.34,110Z"/><path class="cls-2" d="M176.27,107.25h0a8.24,8.24,0,0,1-8.19-2.28L129.22,66.11a8.28,8.28,0,0,1-2.38-7.87"/><path class="cls-3" d="M165.07,29.9a11.57,11.57,0,0,1,12.42-2,7.69,7.69,0,0,1,2.27,1.51c3.21,3.21.93,11.07,5.11,15.25S196.08,46,201.1,51l.15.15a14,14,0,0,1,1,18l-24,30.63a4,4,0,0,1-6,.36L134.62,62.5a4,4,0,0,1,.18-5.85Z"/><path class="cls-4" d="M140.66,62.86h0a5.24,5.24,0,0,1,.42-7.39l47.67-42.6a5.23,5.23,0,0,1,7.39.42h0a5.24,5.24,0,0,1-.41,7.39l-47.68,42.6A5.24,5.24,0,0,1,140.66,62.86Z"/><path class="cls-4" d="M169.22,91.42h0a5.23,5.23,0,0,0,7.39-.41l42.6-47.68a5.23,5.23,0,0,0-.41-7.39h0a5.23,5.23,0,0,0-7.39.42L168.81,84A5.23,5.23,0,0,0,169.22,91.42Z"/><path class="cls-4" d="M155.1,77.38h0a5.24,5.24,0,0,1,0-7.4l45.21-45.21a5.24,5.24,0,0,1,7.4,0h0a5.22,5.22,0,0,1,0,7.4L162.5,77.38A5.22,5.22,0,0,1,155.1,77.38Z"/><path class="cls-2" d="M239.89,34.15,198.34-7.41a1.89,1.89,0,0,0-2.66,0l-5.14,5.15a1.87,1.87,0,0,0,0,2.66L232.09,42a1.89,1.89,0,0,0,2.66,0l5.14-5.15A1.86,1.86,0,0,0,239.89,34.15Z"/><line class="cls-2" x1="191.6" y1="1.41" x2="199.39" y2="-6.38"/><line class="cls-2" x1="194.07" y1="3.88" x2="201.86" y2="-3.91"/><line class="cls-2" x1="196.54" y1="6.35" x2="204.33" y2="-1.44"/><line class="cls-2" x1="199" y1="8.81" x2="206.79" y2="1.02"/><line class="cls-2" x1="201.47" y1="11.28" x2="209.26" y2="3.49"/><line class="cls-2" x1="203.94" y1="13.75" x2="211.73" y2="5.96"/><line class="cls-2" x1="206.41" y1="16.22" x2="214.2" y2="8.43"/><line class="cls-2" x1="208.88" y1="18.69" x2="216.67" y2="10.9"/><line class="cls-2" x1="211.34" y1="21.16" x2="219.14" y2="13.36"/><line class="cls-2" x1="213.81" y1="23.62" x2="221.6" y2="15.83"/><line class="cls-2" x1="216.28" y1="26.09" x2="224.07" y2="18.3"/><line class="cls-2" x1="218.75" y1="28.56" x2="226.54" y2="20.77"/><line class="cls-2" x1="221.22" y1="31.03" x2="229.01" y2="23.24"/><line class="cls-2" x1="223.68" y1="33.5" x2="231.48" y2="25.7"/><line class="cls-2" x1="226.15" y1="35.96" x2="233.94" y2="28.17"/><line class="cls-2" x1="228.62" y1="38.43" x2="236.41" y2="30.64"/><line class="cls-2" x1="231.09" y1="40.9" x2="238.88" y2="33.11"/><path class="cls-2" d="M317.59,2.4a6.31,6.31,0,0,0-8.41.47l-8.77,8.77L291.9,4.3,301.26-5a17.5,17.5,0,0,1,23.33-1.3l29.28,23.43a17.52,17.52,0,0,1,1.45,26.07l-8.52,8.51-8.5-7.33,9.1-9.1a6.32,6.32,0,0,0-.52-9.4Z"/><path class="cls-2" d="M318.92,110l38.34-38.34a8,8,0,0,0-.43-11.7L347,51.49l-8.51-7.34L300.58,11.46l-8.5-7.33-7.35-6.34L247.22,35.3l59.83,74.1A8,8,0,0,0,318.92,110Z"/><path class="cls-2" d="M305,107.25h0a8.24,8.24,0,0,0,8.19-2.28l38.86-38.86a8.32,8.32,0,0,0,2.38-7.87"/><path class="cls-3" d="M316.19,29.9a11.56,11.56,0,0,0-12.41-2,7.62,7.62,0,0,0-2.28,1.51c-3.21,3.21-.92,11.07-5.1,15.25S285.18,46,280.17,51l-.15.15a14.06,14.06,0,0,0-1,18l24,30.63a4,4,0,0,0,6,.36L346.65,62.5a4,4,0,0,0-.18-5.85Z"/><path class="cls-4" d="M340.6,62.86h0a5.24,5.24,0,0,0-.41-7.39l-47.68-42.6a5.24,5.24,0,0,0-7.39.42h0a5.23,5.23,0,0,0,.42,7.39l47.67,42.6A5.23,5.23,0,0,0,340.6,62.86Z"/><path class="cls-4" d="M312,91.42h0a5.24,5.24,0,0,1-7.39-.41l-42.6-47.68a5.24,5.24,0,0,1,.42-7.39h0a5.23,5.23,0,0,1,7.39.42L312.46,84A5.23,5.23,0,0,1,312,91.42Z"/><path class="cls-4" d="M326.16,77.38h0a5.22,5.22,0,0,0,0-7.4L281,24.77a5.24,5.24,0,0,0-7.4,0h0a5.24,5.24,0,0,0,0,7.4l45.21,45.21A5.22,5.22,0,0,0,326.16,77.38Z"/><path class="cls-2" d="M241.37,34.15,282.93-7.41a1.88,1.88,0,0,1,2.65,0l5.15,5.15a1.89,1.89,0,0,1,0,2.66L249.17,42a1.88,1.88,0,0,1-2.65,0l-5.15-5.15A1.88,1.88,0,0,1,241.37,34.15Z"/><line class="cls-2" x1="289.66" y1="1.41" x2="281.87" y2="-6.38"/><line class="cls-2" x1="287.2" y1="3.88" x2="279.41" y2="-3.91"/><line class="cls-2" x1="284.73" y1="6.35" x2="276.94" y2="-1.44"/><line class="cls-2" x1="282.26" y1="8.81" x2="274.47" y2="1.02"/><line class="cls-2" x1="279.79" y1="11.28" x2="272" y2="3.49"/><line class="cls-2" x1="277.32" y1="13.75" x2="269.53" y2="5.96"/><line class="cls-2" x1="274.86" y1="16.22" x2="267.07" y2="8.43"/><line class="cls-2" x1="272.39" y1="18.69" x2="264.6" y2="10.9"/><line class="cls-2" x1="269.92" y1="21.16" x2="262.13" y2="13.36"/><line class="cls-2" x1="267.45" y1="23.62" x2="259.66" y2="15.83"/><line class="cls-2" x1="264.98" y1="26.09" x2="257.19" y2="18.3"/><line class="cls-2" x1="262.52" y1="28.56" x2="254.72" y2="20.77"/><line class="cls-2" x1="260.05" y1="31.03" x2="252.26" y2="23.24"/><line class="cls-2" x1="257.58" y1="33.5" x2="249.79" y2="25.7"/><line class="cls-2" x1="255.11" y1="35.96" x2="247.32" y2="28.17"/><line class="cls-2" x1="252.64" y1="38.43" x2="244.85" y2="30.64"/><line class="cls-2" x1="250.18" y1="40.9" x2="242.38" y2="33.11"/><path class="cls-5" d="M275.88,96.43A35.62,35.62,0,0,1,270,115.11h0l-15.34-.17-5.83,15.18a36.07,36.07,0,0,1-18.39-.25l.15-.08L226,115.13l-16.24-.85,0,.11a35.57,35.57,0,0,1-5.44-17.78l13.08-9.54L213,71.84A35.9,35.9,0,0,1,227.75,61.7l12.32,9.36,12.31-9.36a35.84,35.84,0,0,1,14.9,10.35h0l-4.24,15Zm-29.12,8,4.06-12.5-10.63-7.72L229.55,91.9l4.07,12.5Z"/><path class="cls-6" d="M252.38,61.7l-12.31,9.36L227.75,61.7a35.87,35.87,0,0,1,24.63,0Z"/><line class="cls-2" x1="240.07" y1="71.06" x2="240.07" y2="84.18"/><polygon class="cls-6" points="250.82 91.9 246.76 104.41 233.62 104.41 229.55 91.9 240.19 84.18 250.82 91.9"/><path class="cls-6" d="M270,115.11a35.81,35.81,0,0,1-21.17,15l5.83-15.18Z"/><line class="cls-2" x1="254.61" y1="114.94" x2="246.76" y2="104.4"/><path class="cls-6" d="M230.55,129.79l-.15.08a35.83,35.83,0,0,1-20.7-15.48h0l0-.11,16.24.85Z"/><line class="cls-2" x1="225.97" y1="115.13" x2="233.56" y2="104.4"/><path class="cls-6" d="M275.9,95.36c0,.36,0,.72,0,1.07L263,87.07l4.24-15A35.62,35.62,0,0,1,275.9,95.36Z"/><line class="cls-2" x1="263.04" y1="87.07" x2="250.82" y2="91.9"/><path class="cls-6" d="M217.34,87.07l-13.08,9.54c0-.42,0-.83,0-1.25A35.71,35.71,0,0,1,213,71.84Z"/><line class="cls-2" x1="217.33" y1="87.07" x2="229.55" y2="91.9"/><circle class="cls-3" cx="352.82" cy="115.31" r="7.94"/><circle class="cls-3" cx="352.35" cy="98.54" r="4.25"/><circle class="cls-3" cx="342.14" cy="104.78" r="3.42"/><circle class="cls-3" cx="342.14" cy="125.11" r="3.42"/><circle class="cls-3" cx="332.83" cy="113.75" r="3.42"/><circle class="cls-3" cx="119.7" cy="141.92" r="3.42"/><circle class="cls-3" cx="128.5" cy="131.19" r="3.42"/><circle class="cls-3" cx="356.6" cy="138" r="3.42"/><circle class="cls-3" cx="352.24" cy="89.15" r="2.75"/><circle class="cls-3" cx="135.76" cy="117.87" r="7.94"/><circle class="cls-3" cx="135.29" cy="101.09" r="4.25"/><circle class="cls-3" cx="125.08" cy="107.33" r="3.42"/><circle class="cls-3" cx="120.82" cy="117.31" r="3.42"/><circle class="cls-3" cx="145.44" cy="105.34" r="3.42"/><circle class="cls-3" cx="342.89" cy="94.29" r="3.42"/><circle class="cls-3" cx="135.18" cy="91.7" r="2.75"/><path class="cls-2" d="M78.29,46.53,116.63,8.19a8,8,0,0,0-.43-11.7L106.35-12l-8.51-7.34L60-52l-8.51-7.33L44.1-65.71,6.59-28.2,66.42,45.9A8,8,0,0,0,78.29,46.53Z"/><path class="cls-2" d="M64.37,43.75h0a8.24,8.24,0,0,0,8.19-2.28L111.41,2.61a8.28,8.28,0,0,0,2.38-7.87"/><path class="cls-3" d="M75.56-33.6a11.57,11.57,0,0,0-12.42-2,7.69,7.69,0,0,0-2.27,1.51C57.66-30.86,60-23,55.76-18.82s-11.21,1.33-16.23,6.35l-.14.15a14,14,0,0,0-1,18l24,30.63a4,4,0,0,0,6,.36L106-1a4,4,0,0,0-.18-5.85Z"/><path class="cls-4" d="M100-.64h0A5.23,5.23,0,0,0,99.55-8L51.88-50.63a5.23,5.23,0,0,0-7.39.42h0a5.24,5.24,0,0,0,.41,7.39L92.58-.22A5.24,5.24,0,0,0,100-.64Z"/><path class="cls-4" d="M71.41,27.92h0A5.24,5.24,0,0,1,64,27.51L21.42-20.17a5.23,5.23,0,0,1,.41-7.39h0a5.23,5.23,0,0,1,7.39.42L71.83,20.53A5.23,5.23,0,0,1,71.41,27.92Z"/><path class="cls-4" d="M85.53,13.88h0a5.22,5.22,0,0,0,0-7.4L40.32-38.73a5.24,5.24,0,0,0-7.4,0h0a5.24,5.24,0,0,0,0,7.4L78.13,13.88A5.22,5.22,0,0,0,85.53,13.88Z"/><path class="cls-5" d="M35.25,32.93a35.54,35.54,0,0,1-5.92,18.68h0L14,51.44,8.16,66.62A35.91,35.91,0,0,1-.56,67.69a35.78,35.78,0,0,1-9.67-1.32l.15-.08-4.58-14.66-16.24-.85,0,.11a35.57,35.57,0,0,1-5.44-17.78l13.07-9.54L-27.6,8.34A35.83,35.83,0,0,1-12.88-1.8L-.56,7.56,11.75-1.8A35.9,35.9,0,0,1,26.65,8.55h0l-4.24,15Zm-29.12,8,4.06-12.5L-.44,20.68-11.08,28.4-7,40.9Z"/><path class="cls-6" d="M11.75-1.8-.56,7.56-12.88-1.8A35.67,35.67,0,0,1-.56-4,35.66,35.66,0,0,1,11.75-1.8Z"/><line class="cls-2" x1="-0.56" y1="7.56" x2="-0.56" y2="20.68"/><polygon class="cls-6" points="10.19 28.4 6.13 40.91 -7.02 40.91 -11.08 28.4 -0.44 20.68 10.19 28.4"/><path class="cls-6" d="M29.33,51.61a35.84,35.84,0,0,1-21.17,15L14,51.44Z"/><line class="cls-2" x1="13.98" y1="51.44" x2="6.13" y2="40.9"/><path class="cls-6" d="M35.27,31.86c0,.36,0,.72,0,1.07L22.41,23.57l4.24-15A35.67,35.67,0,0,1,35.27,31.86Z"/><line class="cls-2" x1="22.41" y1="23.57" x2="10.19" y2="28.4"/><circle class="cls-3" cx="112.19" cy="51.81" r="7.94"/><circle class="cls-3" cx="111.72" cy="35.04" r="4.25"/><circle class="cls-3" cx="101.51" cy="41.28" r="3.42"/><circle class="cls-3" cx="101.51" cy="61.61" r="3.42"/><circle class="cls-3" cx="92.2" cy="50.25" r="3.42"/><circle class="cls-3" cx="115.97" cy="74.5" r="3.42"/><circle class="cls-3" cx="111.6" cy="25.65" r="2.75"/><circle class="cls-3" cx="102.25" cy="30.79" r="3.42"/><path class="cls-5" d="M275.88-30.57A35.62,35.62,0,0,1,270-11.89h0l-15.34-.17L248.79,3.12a35.79,35.79,0,0,1-8.72,1.07,35.84,35.84,0,0,1-9.67-1.32l.15-.08L226-11.87l-16.24-.85,0,.11a35.57,35.57,0,0,1-5.44-17.78l13.08-9.54L213-55.16A35.9,35.9,0,0,1,227.75-65.3l12.32,9.36,12.31-9.36a35.84,35.84,0,0,1,14.9,10.35h0l-4.24,15Zm-29.12,8,4.06-12.5-10.63-7.72L229.55-35.1l4.07,12.5Z"/><path class="cls-6" d="M270-11.89a35.81,35.81,0,0,1-21.17,15l5.83-15.18Z"/><path class="cls-6" d="M230.55,2.79l-.15.08a35.83,35.83,0,0,1-20.7-15.48h0l0-.11,16.24.85Z"/><circle class="cls-3" cx="342.14" cy="-1.89" r="3.42"/><circle class="cls-3" cx="119.7" cy="14.92" r="3.42"/><circle class="cls-3" cx="128.5" cy="4.19" r="3.42"/><circle class="cls-3" cx="356.6" cy="11" r="3.42"/></pattern></defs><rect class="cls-7" width="2048" height="1152"/><rect class="cls-8" width="2048" height="1152"/></svg>