<svg id="color" xmlns="http://www.w3.org/2000/svg" xmlns:xlink="http://www.w3.org/1999/xlink" viewBox="0 0 2048 1152"><defs><style>.cls-1{fill:none;}.cls-2{fill:#f78c67;}.cls-3{fill:#1f1f1f;}.cls-4{fill:#396052;}.cls-5{fill:#9c543b;}.cls-6{fill:#baaa9c;}.cls-7{fill:#546255;}.cls-8{fill:#e3504a;}.cls-9{fill:#f3ba6b;}.cls-10{fill:#edf6f7;}.cls-11{fill:url(#Motivo_nuevo_120);}</style><pattern id="Motivo_nuevo_120" data-name="Motivo nuevo 120" width="420" height="622.5" patternTransform="translate(255.14 1778.87) scale(0.44)" patternUnits="userSpaceOnUse" viewBox="0 0 420 622.5"><rect class="cls-1" width="420" height="622.5"/><rect class="cls-2" x="405.49" y="615.04" width="38.18" height="30"/><rect class="cls-3" x="405.49" y="615.04" width="15" height="10"/><rect class="cls-2" x="373.54" y="415" width="35" height="60"/><rect class="cls-2" x="404.34" y="460" width="34.2" height="15"/><rect class="cls-3" x="388.54" y="475" width="10" height="25"/><rect class="cls-2" x="353.54" y="430" width="20" height="10"/><polygon class="cls-4" points="354.51 570.04 439.51 570.04 439.51 515.04 354.51 515.04 354.51 570.04"/><polygon class="cls-4" points="364.51 570.04 429.51 570.04 429.51 500.04 364.51 500.04 364.51 570.04"/><rect class="cls-2" x="234.51" y="610" width="50" height="40"/><rect class="cls-2" x="269.51" y="565" width="15" height="55"/><rect class="cls-2" x="249.51" y="565" width="15" height="55"/><rect class="cls-2" x="309.51" y="550.04" width="30" height="20"/><rect class="cls-2" x="354.51" y="570.04" width="20" height="15"/><polygon class="cls-4" points="339.51 570.04 454.51 570.04 454.51 530.04 339.51 530.04 339.51 570.04"/><rect class="cls-5" x="405.49" y="615.04" width="38.18" height="30"/><rect class="cls-3" x="405.49" y="615.04" width="15" height="10"/><rect class="cls-6" x="373.54" y="415" width="35" height="60"/><rect class="cls-6" x="404.34" y="460" width="34.2" height="15"/><rect class="cls-3" x="388.54" y="475" width="10" height="25"/><rect class="cls-2" x="353.54" y="430" width="20" height="10"/><polygon class="cls-7" points="354.51 570.04 439.51 570.04 439.51 515.04 354.51 515.04 354.51 570.04"/><polygon class="cls-7" points="364.51 570.04 429.51 570.04 429.51 500.04 364.51 500.04 364.51 570.04"/><rect class="cls-6" x="234.51" y="610" width="50" height="40"/><rect class="cls-6" x="269.51" y="565" width="15" height="55"/><rect class="cls-6" x="249.51" y="565" width="15" height="55"/><rect class="cls-2" x="309.51" y="550.04" width="30" height="20"/><rect class="cls-2" x="354.51" y="570.04" width="20" height="15"/><polygon class="cls-7" points="339.51 570.04 454.51 570.04 454.51 530.04 339.51 530.04 339.51 570.04"/><rect class="cls-2" x="180.49" y="605.04" width="15" height="20"/><rect class="cls-4" x="155.65" y="572.46" width="16.35" height="15.04"/><rect class="cls-4" x="167" y="517.46" width="15" height="55"/><rect class="cls-2" x="15.49" y="605.04" width="42.42" height="40"/><rect class="cls-2" x="-14.51" y="615.04" width="38.18" height="30"/><rect class="cls-3" x="-14.51" y="615.04" width="15" height="10"/><rect class="cls-3" x="40.49" y="610.04" width="25" height="70"/><rect class="cls-4" x="62" y="482.46" width="45" height="35"/><rect class="cls-4" x="62" y="467.46" width="15" height="21.39"/><polygon class="cls-4" points="92 488.85 107 488.85 107 467.46 92 467.46 92 488.85"/><rect class="cls-4" x="82" y="512.46" width="55" height="75.04"/><rect class="cls-2" x="-15.66" y="460" width="34.2" height="15"/><rect class="cls-4" x="121.02" y="537.46" width="35.98" height="50.04"/><polygon class="cls-4" points="-65.49 570.04 19.51 570.04 19.51 515.04 -65.49 515.04 -65.49 570.04"/><polygon class="cls-4" points="-55.49 570.04 9.51 570.04 9.51 500.04 -55.49 500.04 -55.49 570.04"/><rect class="cls-2" x="4.51" y="570.04" width="20" height="15"/><polygon class="cls-4" points="-80.49 570.04 34.51 570.04 34.51 530.04 -80.49 530.04 -80.49 570.04"/><rect class="cls-5" x="180.49" y="605.04" width="15" height="20"/><rect class="cls-2" x="155.65" y="572.46" width="16.35" height="15.04"/><rect class="cls-2" x="167" y="517.46" width="15" height="55"/><rect class="cls-5" x="15.49" y="605.04" width="42.42" height="40"/><rect class="cls-5" x="-14.51" y="615.04" width="38.18" height="30"/><rect class="cls-3" x="-14.51" y="615.04" width="15" height="10"/><rect class="cls-3" x="40.49" y="610.04" width="25" height="70"/><rect class="cls-2" x="62" y="482.46" width="45" height="35"/><rect class="cls-2" x="62" y="467.46" width="15" height="21.39"/><polygon class="cls-2" points="92 488.85 107 488.85 107 467.46 92 467.46 92 488.85"/><rect class="cls-2" x="82" y="512.46" width="55" height="75.04"/><rect class="cls-6" x="-15.66" y="460" width="34.2" height="15"/><rect class="cls-2" x="121.02" y="537.46" width="35.98" height="50.04"/><polygon class="cls-7" points="-65.49 570.04 19.51 570.04 19.51 515.04 -65.49 515.04 -65.49 570.04"/><polygon class="cls-7" points="-55.49 570.04 9.51 570.04 9.51 500.04 -55.49 500.04 -55.49 570.04"/><rect class="cls-2" x="4.51" y="570.04" width="20" height="15"/><polygon class="cls-7" points="-80.49 570.04 34.51 570.04 34.51 530.04 -80.49 530.04 -80.49 570.04"/><rect class="cls-2" x="266.11" y="358.79" width="14.37" height="25"/><rect class="cls-2" x="365.49" y="358.79" width="15.04" height="25"/><rect class="cls-2" x="390.49" y="293.79" width="15" height="20"/><rect class="cls-4" x="365.65" y="261.21" width="16.35" height="15.04"/><rect class="cls-4" x="377" y="206.21" width="15" height="55"/><rect class="cls-2" x="254.17" y="313.79" width="136.31" height="45"/><rect class="cls-2" x="225.49" y="293.79" width="42.42" height="40"/><rect class="cls-2" x="195.49" y="303.79" width="38.18" height="30"/><rect class="cls-3" x="195.49" y="303.79" width="15" height="10"/><rect class="cls-3" x="250.49" y="298.79" width="25" height="70"/><rect class="cls-4" x="272" y="171.21" width="45" height="35"/><rect class="cls-4" x="272" y="156.21" width="15" height="21.39"/><polygon class="cls-4" points="302 177.6 317 177.6 317 156.21 302 156.21 302 177.6"/><rect class="cls-4" x="292" y="201.21" width="55" height="75.04"/><rect class="cls-2" x="163.54" y="103.75" width="35" height="60"/><rect class="cls-2" x="194.34" y="148.75" width="34.2" height="15"/><rect class="cls-3" x="178.54" y="163.75" width="10" height="25"/><rect class="cls-2" x="143.54" y="118.75" width="20" height="10"/><rect class="cls-4" x="331.02" y="226.21" width="35.98" height="50.04"/><polygon class="cls-4" points="144.51 258.79 229.51 258.79 229.51 203.79 144.51 203.79 144.51 258.79"/><polygon class="cls-4" points="154.51 258.79 219.51 258.79 219.51 188.79 154.51 188.79 154.51 258.79"/><rect class="cls-2" x="123.17" y="368.71" width="16.35" height="15.04"/><rect class="cls-2" x="49.51" y="318.75" width="60" height="65"/><rect class="cls-2" x="88.54" y="333.71" width="40.98" height="50.04"/><polygon class="cls-4" points="179.51 393.75 209.51 393.75 209.51 373.75 179.51 373.75 179.51 393.75"/><polygon class="cls-2" points="179.51 478.75 249.51 478.75 249.51 429.33 179.51 429.33 179.51 478.75"/><polygon class="cls-2" points="164.51 463.75 264.51 463.75 264.51 429.33 164.51 429.33 164.51 463.75"/><polygon class="cls-2" points="182.5 443.75 279.51 443.75 279.51 423.75 182.5 423.75 182.5 443.75"/><polygon class="cls-2" points="164.51 442.08 199.65 442.08 199.65 393.75 164.51 393.75 164.51 442.08"/><polygon class="cls-4" points="149.51 418.75 164.51 418.75 164.51 408.75 149.51 408.75 149.51 418.75"/><polygon class="cls-4" points="209.51 518.75 219.51 518.75 219.51 478.75 209.51 478.75 209.51 518.75"/><rect class="cls-2" x="34.51" y="368.75" width="20" height="15"/><rect class="cls-2" x="24.51" y="298.75" width="50" height="40"/><rect class="cls-2" x="29.51" y="313.75" width="5" height="15"/><rect class="cls-2" x="59.51" y="253.75" width="15" height="55"/><rect class="cls-2" x="39.51" y="253.75" width="15" height="55"/><rect class="cls-4" x="14.51" y="318.75" width="10" height="10"/><rect class="cls-2" x="99.51" y="238.79" width="30" height="20"/><rect class="cls-2" x="144.51" y="258.79" width="20" height="15"/><rect class="cls-2" x="214.51" y="258.79" width="20" height="15"/><polygon class="cls-4" points="129.51 258.79 244.51 258.79 244.51 218.79 129.51 218.79 129.51 258.79"/><rect class="cls-5" x="266.11" y="358.79" width="14.37" height="25"/><rect class="cls-5" x="365.49" y="358.79" width="15.04" height="25"/><rect class="cls-5" x="390.49" y="293.79" width="15" height="20"/><rect class="cls-2" x="365.65" y="261.21" width="16.35" height="15.04"/><rect class="cls-2" x="377" y="206.21" width="15" height="55"/><rect class="cls-5" x="254.17" y="313.79" width="136.31" height="45"/><rect class="cls-5" x="225.49" y="293.79" width="42.42" height="40"/><rect class="cls-5" x="195.49" y="303.79" width="38.18" height="30"/><rect class="cls-3" x="195.49" y="303.79" width="15" height="10"/><rect class="cls-3" x="250.49" y="298.79" width="25" height="70"/><rect class="cls-2" x="272" y="171.21" width="45" height="35"/><rect class="cls-2" x="272" y="156.21" width="15" height="21.39"/><polygon class="cls-2" points="302 177.6 317 177.6 317 156.21 302 156.21 302 177.6"/><rect class="cls-2" x="292" y="201.21" width="55" height="75.04"/><rect class="cls-6" x="163.54" y="103.75" width="35" height="60"/><rect class="cls-6" x="194.34" y="148.75" width="34.2" height="15"/><rect class="cls-3" x="178.54" y="163.75" width="10" height="25"/><rect class="cls-2" x="143.54" y="118.75" width="20" height="10"/><rect class="cls-2" x="331.02" y="226.21" width="35.98" height="50.04"/><polygon class="cls-7" points="144.51 258.79 229.51 258.79 229.51 203.79 144.51 203.79 144.51 258.79"/><polygon class="cls-7" points="154.51 258.79 219.51 258.79 219.51 188.79 154.51 188.79 154.51 258.79"/><rect class="cls-6" x="123.17" y="368.71" width="16.35" height="15.04"/><rect class="cls-6" x="49.51" y="318.75" width="60" height="65"/><rect class="cls-6" x="88.54" y="333.71" width="40.98" height="50.04"/><polygon class="cls-8" points="179.51 393.75 209.51 393.75 209.51 373.75 179.51 373.75 179.51 393.75"/><polygon class="cls-9" points="179.51 478.75 249.51 478.75 249.51 429.33 179.51 429.33 179.51 478.75"/><polygon class="cls-9" points="164.51 463.75 264.51 463.75 264.51 429.33 164.51 429.33 164.51 463.75"/><polygon class="cls-9" points="182.5 443.75 279.51 443.75 279.51 423.75 182.5 423.75 182.5 443.75"/><polygon class="cls-9" points="164.51 442.08 199.65 442.08 199.65 393.75 164.51 393.75 164.51 442.08"/><polygon class="cls-8" points="149.51 418.75 164.51 418.75 164.51 408.75 149.51 408.75 149.51 418.75"/><polygon class="cls-7" points="209.51 518.75 219.51 518.75 219.51 478.75 209.51 478.75 209.51 518.75"/><rect class="cls-6" x="34.51" y="368.75" width="20" height="15"/><rect class="cls-6" x="24.51" y="298.75" width="50" height="40"/><rect class="cls-6" x="29.51" y="313.75" width="5" height="15"/><rect class="cls-6" x="59.51" y="253.75" width="15" height="55"/><rect class="cls-6" x="39.51" y="253.75" width="15" height="55"/><rect class="cls-5" x="14.51" y="318.75" width="10" height="10"/><rect class="cls-2" x="99.51" y="238.79" width="30" height="20"/><rect class="cls-2" x="144.51" y="258.79" width="20" height="15"/><rect class="cls-2" x="214.51" y="258.79" width="20" height="15"/><polygon class="cls-7" points="129.51 258.79 244.51 258.79 244.51 218.79 129.51 218.79 129.51 258.79"/><rect class="cls-2" x="405.49" y="-7.46" width="38.18" height="30"/><rect class="cls-3" x="405.49" y="-7.46" width="15" height="10"/><rect class="cls-2" x="333.17" y="57.46" width="16.35" height="15.04"/><rect class="cls-2" x="259.51" y="7.5" width="60" height="65"/><rect class="cls-2" x="298.54" y="22.46" width="40.98" height="50.04"/><polygon class="cls-4" points="389.51 82.5 419.51 82.5 419.51 62.5 389.51 62.5 389.51 82.5"/><polygon class="cls-2" points="389.51 167.5 459.51 167.5 459.51 118.08 389.51 118.08 389.51 167.5"/><polygon class="cls-2" points="374.51 152.5 474.51 152.5 474.51 118.08 374.51 118.08 374.51 152.5"/><polygon class="cls-2" points="392.5 132.5 489.51 132.5 489.51 112.5 392.5 112.5 392.5 132.5"/><polygon class="cls-2" points="374.51 130.83 409.65 130.83 409.65 82.5 374.51 82.5 374.51 130.83"/><polygon class="cls-4" points="359.51 107.5 374.51 107.5 374.51 97.5 359.51 97.5 359.51 107.5"/><polygon class="cls-4" points="419.51 207.5 429.51 207.5 429.51 167.5 419.51 167.5 419.51 207.5"/><rect class="cls-2" x="244.51" y="57.5" width="20" height="15"/><rect class="cls-2" x="234.51" y="-12.5" width="50" height="40"/><rect class="cls-2" x="239.51" y="2.5" width="5" height="15"/><rect class="cls-4" x="224.51" y="7.5" width="10" height="10"/><rect class="cls-5" x="405.49" y="-7.46" width="38.18" height="30"/><rect class="cls-3" x="405.49" y="-7.46" width="15" height="10"/><rect class="cls-6" x="333.17" y="57.46" width="16.35" height="15.04"/><rect class="cls-6" x="259.51" y="7.5" width="60" height="65"/><rect class="cls-6" x="298.54" y="22.46" width="40.98" height="50.04"/><polygon class="cls-8" points="389.51 82.5 419.51 82.5 419.51 62.5 389.51 62.5 389.51 82.5"/><polygon class="cls-9" points="389.51 167.5 459.51 167.5 459.51 118.08 389.51 118.08 389.51 167.5"/><polygon class="cls-9" points="374.51 152.5 474.51 152.5 474.51 118.08 374.51 118.08 374.51 152.5"/><polygon class="cls-9" points="392.5 132.5 489.51 132.5 489.51 112.5 392.5 112.5 392.5 132.5"/><polygon class="cls-9" points="374.51 130.83 409.65 130.83 409.65 82.5 374.51 82.5 374.51 130.83"/><polygon class="cls-8" points="359.51 107.5 374.51 107.5 374.51 97.5 359.51 97.5 359.51 107.5"/><polygon class="cls-7" points="419.51 207.5 429.51 207.5 429.51 167.5 419.51 167.5 419.51 207.5"/><rect class="cls-6" x="244.51" y="57.5" width="20" height="15"/><rect class="cls-6" x="234.51" y="-12.5" width="50" height="40"/><rect class="cls-6" x="239.51" y="2.5" width="5" height="15"/><rect class="cls-5" x="224.51" y="7.5" width="10" height="10"/><rect class="cls-2" x="56.11" y="47.54" width="14.37" height="25"/><rect class="cls-2" x="155.49" y="47.54" width="15.04" height="25"/><rect class="cls-2" x="180.49" y="-17.46" width="15" height="20"/><rect class="cls-2" x="44.17" y="2.54" width="136.31" height="45"/><rect class="cls-2" x="15.49" y="-17.46" width="42.42" height="40"/><rect class="cls-2" x="-14.51" y="-7.46" width="38.18" height="30"/><rect class="cls-3" x="-14.51" y="-7.46" width="15" height="10"/><rect class="cls-3" x="40.49" y="-12.46" width="25" height="70"/><polygon class="cls-2" points="-30.49 167.5 39.51 167.5 39.51 118.08 -30.49 118.08 -30.49 167.5"/><polygon class="cls-2" points="-45.49 152.5 54.51 152.5 54.51 118.08 -45.49 118.08 -45.49 152.5"/><polygon class="cls-2" points="-27.5 132.5 69.51 132.5 69.51 112.5 -27.5 112.5 -27.5 132.5"/><polygon class="cls-4" points="-0.49 207.5 9.51 207.5 9.51 167.5 -0.49 167.5 -0.49 207.5"/><rect class="cls-5" x="56.11" y="47.54" width="14.37" height="25"/><rect class="cls-5" x="155.49" y="47.54" width="15.04" height="25"/><rect class="cls-5" x="180.49" y="-17.46" width="15" height="20"/><rect class="cls-5" x="44.17" y="2.54" width="136.31" height="45"/><rect class="cls-5" x="15.49" y="-17.46" width="42.42" height="40"/><rect class="cls-5" x="-14.51" y="-7.46" width="38.18" height="30"/><rect class="cls-3" x="-14.51" y="-7.46" width="15" height="10"/><rect class="cls-3" x="40.49" y="-12.46" width="25" height="70"/><polygon class="cls-9" points="-30.49 167.5 39.51 167.5 39.51 118.08 -30.49 118.08 -30.49 167.5"/><polygon class="cls-9" points="-45.49 152.5 54.51 152.5 54.51 118.08 -45.49 118.08 -45.49 152.5"/><polygon class="cls-9" points="-27.5 132.5 69.51 132.5 69.51 112.5 -27.5 112.5 -27.5 132.5"/><polygon class="cls-7" points="-0.49 207.5 9.51 207.5 9.51 167.5 -0.49 167.5 -0.49 207.5"/></pattern></defs><rect class="cls-10" width="2048" height="1152"/><rect class="cls-11" width="2048" height="1152"/></svg>